<svg data-name="Layer 1" xmlns="http://www.w3.org/2000/svg" style="" viewBox="0 0 590.64 512"><g class="nc-icon-wrapper"><defs><radialGradient id="1773013515337-6982332_b" cx="331.04" cy="175.5" fx="331.04" fy="-71.72" r="333.3" gradientTransform="matrix(.99643 .08437 .02397 -.6804 -36.42 311.13)" gradientUnits="userSpaceOnUse"><stop offset="0" stop-color="#fec6db"></stop><stop offset=".2" stop-color="#fec2d8"></stop><stop offset=".41" stop-color="#feb5cf"></stop><stop offset=".62" stop-color="#fea0bf"></stop><stop offset=".84" stop-color="#fe82aa"></stop><stop offset="1" stop-color="#fe6897"></stop></radialGradient></defs><path class="g" d="M361.35,423.77c.69,39.18,31.8,34.06,36.53,84.86.3,3.45,30.52.98,30.82-2.76,11.81-129.07-67.93-113.61-67.34-82.11Z" fill="#b44467"></path><path class="f" d="M365.09,423.68c1.87,39.77,34.26,34.06,35.84,86.54.1,3.45,24.12,1.48,24.51-2.26,11.81-129.17-61.83-115.78-60.35-84.27Z" fill="#d9527c"></path><path class="d" d="M315.47,349.05c-5.02,26.58,21.76,74.63,48.73,75.02,21.95.3,79.65,20.77,78.86-9.06-3.05-114.6-121.78-96.97-127.59-65.96Z" fill="#ab385c"></path><path class="g" d="M365.38,424.36c-.3,20.28,20.48,43.02,29.24,40.46,38.49-11.03,7.19-41.84,3.84-44.01-14.87-9.94-32.98-.79-33.08,3.54Z" fill="#b44467"></path><path class="g" d="M317.14,368.05c17.03,24.81,51.39-.1,88.9,6.69,19.89,3.54.39-33.97-25.1-36.03-27.07-2.26-70,20.38-63.8,29.34Z" fill="#b44467"></path><path class="d" d="M396.99,418.46c-17.92,49.13,41.25,68.13,58.58,27.66,8.66-19.89-52.77-43.52-58.58-27.66Z" fill="#ab385c"></path><path class="g" d="M394.92,425.64s4.23,40.27,56.12,28.75c-44.7,1.08-56.12-28.75-56.12-28.75Z" fill="#b44467"></path><path class="g" d="M395.12,439.92s3.74,31.21,48.04,22.25c-39.58,1.48-48.04-22.25-48.04-22.25Z" fill="#b44467"></path><path class="f" d="M389.9,398.28c-10.73,85.85,212.36,55.43,136.26-39.68-35.84-44.89-130.55-51.59-156.63-3.05-15.36,28.55,20.38,42.73,20.38,42.73Z" fill="#d9527c"></path><path class="g" d="M389.9,398.28s-.69,53.85,104.65,45.09c-87.23,1.97-104.65-45.09-104.65-45.09Z" fill="#b44467"></path><path class="g" d="M395.61,382.72s7.88,64.49,122.18,50.41c-101.6,3.35-122.18-50.41-122.18-50.41Z" fill="#b44467"></path><path class="g" d="M400.53,375.24s36.62,73.25,135.76,40.36c-84.47,19.1-135.76-40.36-135.76-40.36Z" fill="#b44467"></path><path class="g" d="M435.48,352.4s62.02,19.69,105.83,25.89c-44.01-20.58-105.83-25.89-105.83-25.89Z" fill="#b44467"></path><path class="g" d="M385.76,340.49s-41.45,28.06,6.79,49.52c-32.49-24.81-6.79-49.52-6.79-49.52Z" fill="#b44467"></path><path class="g" d="M396.2,334.38s-34.85,30.13,4.33,40.96c-24.22-22.25-4.33-40.96-4.33-40.96Z" fill="#b44467"></path><path class="g" d="M409.19,334.87s-29.14,21.07,0,33.67c-20.28-15.46,0-33.67,0-33.67Z" fill="#b44467"></path><path class="g" d="M431.64,325.72s-37.71,28.65-11.62,36.23c-17.43-10.73,11.62-36.23,11.62-36.23Z" fill="#b44467"></path><path class="g" d="M441.19,319.71s-28.65,30.13-5.41,32.69c-14.67-5.81,5.41-32.69,5.41-32.69Z" fill="#b44467"></path><path class="g" d="M409.19,368.54c39.77,17.72,41.05,50.51,131.53,37.02-79.94,1.28-75.81-24.81-131.53-37.02Z" fill="#b44467"></path><path class="g" d="M420.02,361.85c57.1,6.4,43.22,35.15,121.98,30.52-68.52-5.32-84.47-37.51-121.98-30.52Z" fill="#b44467"></path><path class="c" d="M164.64,331.82c-86.44,17.03-157.23-18.21-153.09-72.16-19.79-35.25-10.93-67.44,2.56-89.98,2.26-47.06,34.65-67.73,57.59-95,25.3-38.49,59.96-27.66,80.53-42.92,16.84-13.88,40.56-29.44,76.69-16.74C266.74-6.65,314.29-.45,321.87,6.44c23.63-13.19,63.89-1.48,78.47,17.62,43.32-.79,57.2,27.57,57.2,27.57,67.83,12.4,87.62,95.79,87.62,95.79,33.97,30.22,57.79,109.08,38.69,146.79,11.52,86.83-43.81,117.85-139.7,39.87-53.75,37.71-84.18,9.45-144.13,49.72-32.69,54.15-116.86,41.25-135.37-51.98Z" fill="url(#1773013515337-6982332_b)"></path><path class="e" d="M454.58,220.87c1.08-6.01.1-12.4-1.58-18.02-1.77-5.61-4.13-10.73-6.01-15.56-1.77-4.92-3.45-9.65-2.17-15.36-3.94,3.94-4.43,11.22-3.15,16.93,1.08,5.91,3.15,11.12,4.63,16.15,1.58,5.02,2.66,9.94,2.76,14.96s-.79,10.24-2.36,15.75c3.74-3.64,6.89-8.86,7.88-14.87Z" style="isolation:isolate" opacity=".8" fill="#d9527c"></path><path class="e" d="M542.69,286.44c-20.18-28.16-54.94,10.44-71.97-12.7-5.22-7.09-3.94-8.66-10.53-14.77.1-.89,13.98-10.93,9.06-29.14-.69,17.43-14.47,22.05-15.16,23.33-12.8-5.51-32.09-9.45-48.63-.98-2.56-1.67-12.31-16.15-13.98-21.07.1,5.22,4.43,21.36,5.91,24.12-7.78,3.35-15.75,13.19-31.6,21.46,24.32-.39,61.04-48.04,96.78.89,22.05,30.22,58.58-12.4,73.15,13.49,14.96,26.58,42.14,15.85,48.24,3.05-18.51,11.22-33.67,2.95-41.25-7.68Z" style="isolation:isolate" opacity=".8" fill="#d9527c"></path><path class="e" d="M422.78,291.65c1.38-2.17,7.97-13.39,17.52-16.24-15.16-3.05-23.23,10.24-26.58,14.47-7.48-.49-14.57,1.28-21.36,3.15-5.32,1.48-10.24,2.86-15.26,3.05-3.45.2-6.99-.2-10.73-.49-3.15-.3-6.4-.59-9.55-.59-2.26,0-4.43.3-6.69.59-1.18-2.46-1.97-5.51-2.56-8.66l-1.18-7.19c-.39-2.46-.69-5.02-1.67-7.29.2,4.82-1.28,9.45-1.87,14.47-.3,3.15-.69,6.6-.3,10.24-4.43,1.18-8.76,2.76-13.09,5.02-3.15-1.87-6.2-3.45-9.16-5.22-3.74-2.36-7.78-4.73-9.45-9.45,0,5.12,3.54,9.65,6.5,13.39,1.58,1.97,3.15,3.74,4.73,5.61-1.18.79-2.46,1.48-3.64,2.36l-2.66,2.07c-2.86,2.17-5.51,4.33-8.37,5.61-3.64,1.67-7.78,2.26-12.21,2.95l-3.74.59c-13.68,2.26-26.78,7.88-38.4,16.05-2.07-.3-3.94-.49-5.81-.79-2.76-.3-5.32-.89-7.88-1.77-2.56-.89-5.02-2.17-7.48-3.74-2.56-1.48-4.73-3.64-7.09-5.71,2.36,6.1,6.79,11.72,12.7,14.96,2.86,1.67,6.01,2.66,9.06,3.45.79.2,1.58.3,2.36.39-1.28,2.17-2.26,4.43-2.95,6.99-1.38,4.82-.98,10.34,1.18,14.67.49-2.36.79-4.53,1.58-6.5.69-1.97,1.58-3.84,2.46-5.51.89-1.58,1.87-3.05,2.95-4.43,11.52-9.16,25.01-15.36,39.28-17.72l1.67-.3c.49,1.48.98,3.15,1.38,4.92.89,3.64,1.77,7.68,3.84,10.83-.89-5.71,1.28-10.63,1.77-16.93,3.15-.59,6.3-1.28,9.35-2.76.2-.1.3-.2.49-.3.59.3,1.28.59,1.87.89l5.22,2.86c3.54,1.77,7.68,3.54,11.42,2.66-3.74-.98-6.3-3.94-8.76-6.89l-2.95-3.94c.89-.69,1.87-1.38,2.76-2.07l2.56-1.97c7.38-5.51,19.2-12.21,33.08-12.11,2.86,0,5.81.3,8.66.59,3.94.39,7.97.79,12.01.59,5.91-.3,11.62-1.87,17.13-3.35,7.09-1.97,13.78-2.66,20.48-2.76,20.77-.49,39.48,13.59,41.94,15.36-19.69,14.77-39.48.2-66.55,12.01,33.87-1.87,42.14,11.62,74.03-5.81,23.43,15.46,28.65,50.11,66.26,30.52-56.71-4.04-31.9-49.42-108.3-60.84Z" style="isolation:isolate" opacity=".8" fill="#d9527c"></path><path class="e" d="M294.5,357.42c-5.22-1.38-10.83-2.66-16.44-3.25,4.82,3.45,9.65,6.6,14.87,9.06,5.12,2.66,11.03,4.63,16.93,4.73,11.81.2,22.55-4.04,31.9-10.34-11.32.49-21.76,2.95-32,2.56-5.12-.1-9.94-1.38-15.26-2.76Z" style="isolation:isolate" opacity=".8" fill="#d9527c"></path><path class="e" d="M541.61,318.73c-6.6-.89-29.93,6.01-46.17,4.43,15.56,8.57,41.84,4.63,41.94,4.73,2.95,7.97,1.28,17.43-1.67,19.59,11.03-3.15,9.25-11.72,9.65-13.59,22.74-.59,23.23,31.41-7.09,41.15,55.23-11.52,28.35-52.97,3.35-56.31Z" style="isolation:isolate" opacity=".8" fill="#d9527c"></path><path class="e" d="M555.79,351.51c-6.5,4.13-12.9,7.29-19.69,9.94-6.79,2.66-13.49,5.12-20.87,6.6,3.74,1.48,7.68,1.48,11.52,1.08,3.84-.3,7.58-1.38,11.12-2.76,7.09-2.95,13.98-7.68,17.92-14.87Z" style="isolation:isolate" opacity=".8" fill="#d9527c"></path><path class="e" d="M125.16,146.93c-4.82.98-9.85,3.35-13.19,7.58-3.45,4.13-5.22,9.25-5.91,14.47,2.56-4.43,5.02-8.57,8.47-11.52,3.35-2.86,7.38-4.63,11.72-5.41,4.33-.98,8.96-.98,13.68-1.58,4.63-.59,9.94-1.28,13.59-4.92-4.53,1.67-9.06,1.18-13.78.89-4.73-.3-9.55-.49-14.57.49Z" style="isolation:isolate" opacity=".8" fill="#d9527c"></path><path class="e" d="M246.26,383.51c-14.47-17.23-23.53-43.91-31.01-65.67-1.08-3.15-2.17-6.69-1.48-9.25.39-1.48,1.58-2.95,3.35-4.53,4.82-4.04,11.03-5.71,17.62-7.48,3.64-.98,7.29-2.07,10.83-3.45,4.63,3.25,9.55,5.61,14.37,6.6-3.05-3.05-5.41-6.6-7.29-10.24.3-.2.59-.3.98-.59,2.26-1.58,4.43-3.45,6.5-5.41,3.74-3.35,7.29-6.6,11.22-6.99,2.26-.3,4.82.39,7.58,1.08,3.25.79,6.89,1.67,10.73,1.28,7.19-.79,12.31-6.01,16.74-10.44,2.86-2.86,5.41-5.51,8.37-7.09,2.86-1.48,6.3-2.17,9.94-2.76,4.04-.69,8.07-1.38,12.11-3.45,6.89-3.45,11.22-9.65,15.56-15.65,3.35-4.73,6.5-9.16,10.53-11.91s9.06-3.84,14.47-5.02c5.12-1.08,10.53-2.26,15.46-5.02,11.52-6.3,19.3-20.58,21.95-40.07.2-1.18.2-2.46.3-3.64,4.53-1.08,20.18-12.4,25.6-11.91-5.12-2.36-22.05,2.86-24.81,2.76-3.54-17.13,3.94-44.89,3.94-44.89-6.89,8.47-13,19.49-13.09,39.38,0,5.51-.69,11.03-1.48,16.44-1.28,9.35-5.22,26.09-17.03,32.59-3.84,2.17-8.37,3.05-13.09,4.13-5.91,1.28-12.01,2.56-17.52,6.3-5.51,3.64-9.25,9.06-13,14.28-3.74,5.32-7.29,10.34-12.21,12.8-2.86,1.38-6.1,1.97-9.65,2.66-2.76.49-5.51,1.08-8.27,2.07-1.38-3.35-5.02-21.46-6.69-27.07.1,5.61-1.28,26.29-.69,30.91-2.66,1.97-5.12,4.13-7.38,6.4-3.94,4.04-7.48,7.38-11.62,7.88-2.26.3-4.92-.39-7.68-1.08-3.25-.79-6.79-1.67-10.73-1.28-.89-3.25-3.54-20.87-4.53-26.38-1.28,9.45-3.35,18.71-3.15,29.14-3.05,1.77-5.81,4.13-8.37,6.4-1.77,1.67-3.64,3.25-5.61,4.63-3.84,2.66-8.37,4.13-13.29,5.51-.39-.79-7.68-19.3-9.25-24.42,0,5.32,1.48,25.7,1.67,26.48-5.71,1.67-11.32,3.84-16.24,7.97-1.87,1.58-3.25,3.35-4.43,5.12-.89-.89-1.77-1.97-2.86-3.25-11.42-13.78-25.89-21.76-39.38-21.95-1.28-.98-2.17-2.36-2.56-3.54-.98-2.86-.89-6.5.3-9.25,2.26-5.32,6.99-9.06,13.39-13,17.43-11.03,31.5-14.96,44.01-12.5l1.28.3c.2,0,.3.1.49.1.3,5.51,1.48,10.63,2.95,15.56.79-5.22,2.07-10.63,3.94-14.96,3.94-.49,7.19-2.56,9.94-4.33l1.18-.79c8.76-5.61,18.9-8.66,29.14-8.66h1.18c2.86,0,6.01,0,9.16-1.28,3.74,3.54,6.89,8.66,8.66,14.57.49-5.81-.3-12.31-2.95-18.41.89-.79,1.67-1.67,2.56-2.56,16.34-17.62,60.65-35.84,61.24-36.03,6.1,5.51,13.29,8.57,20.08,8.86-6.3-3.25-13.88-7.97-14.08-14.57-.1-2.56,3.15-49.82,17.82-77.38,0,0-10.83,10.83-16.54,25.79-.59-.1-15.65.39-23.33-15.36,2.95,18.41,20.87,23.14,21.17,23.33-3.05,11.62-6.4,26.19-7.78,39.08-.2.1-17.23,5.22-24.71,8.76-5.71-5.81-11.32-11.81-15.56-18.71-4.82-7.97-7.09-16.34-6.2-23.53.69-5.91,3.74-11.03,7.68-13.88,2.17,7.78,20.48,25.4,20.48,25.4-5.32-8.66-13.19-28.26-12.4-36.43.59-6.2,4.04-11.62,8.57-18.11,5.32-7.58,10.73-15.46,17.52-21.36,7.09-6.2,14.96-9.45,22.25-9.16,4.33.2,8.66,1.58,13.29,3.05,3.84,1.28,7.88,2.36,12.01,3.05-.69.39-1.28.69-2.07,1.08-4.33,1.97-9.25,3.64-13.88,5.71-4.73,2.07-9.45,4.53-13.49,7.97-4.04,3.35-7.38,7.88-9.16,13,5.22-9.65,14.77-13.68,24.22-15.95,4.82-1.18,9.75-1.97,14.77-3.25,2.56-.69,5.22-1.58,7.97-3.05,1.77-1.08,3.64-2.86,5.02-5.22,2.46-.2,5.02-.39,7.48-.3,12.7.59,27.27,6.2,33.47,20.18-25.4,1.18-30.62,15.46-54.15,9.16,28.85,18.21,31.5-8.07,73.44,4.04,1.67,5.41,3.25,22.55,24.81,21.17-15.85-3.84-15.65-16.34-16.05-19.3,9.94-.59,17.82,2.07,22.45,5.91l19.59,16.24c.59.49,1.08.98,1.67,1.48-.49-.39-3.25,2.95-3.54,3.35-1.28,1.58-2.36,3.35-3.74,4.82-1.58,1.67-2.95,2.26-5.22,2.36-5.71.3-11.42.79-16.74,2.76-2.17.79-4.33,1.87-6.1,3.45-1.87,1.48-2.95,3.45-4.33,5.51-4.63,6.69-26.68,6.79-24.51-17.82-4.73,9.06-1.87,21.95,6.3,28.16,8.07,6.2,19.89,4.43,25.79-3.74,1.28-1.77,2.36-3.64,4.33-4.73,2.46-1.38,5.41-1.97,8.17-2.36.79-.1,8.86-1.38,8.96-.89,2.46,4.43,4.53,9.06,6.3,13.78-1.77,4.13-5.51,7.88-10.63,9.35,4.04,1.38,8.86,1.28,13.39-.49.49,1.87.98,3.74,1.38,5.71l.3,1.48c.49,2.56,1.08,5.22,2.07,7.97.98,2.76,2.36,5.12,3.64,7.38.59.98,1.18,2.07,1.67,3.05,1.87,3.74,2.95,7.88,3.64,12.11-6.89.1-13,2.36-18.61,6.3,7.29,1.77,14.08.98,20.08,1.48,6.1.2,11.42,2.36,18.41,5.51-1.58-3.64-4.04-6.99-7.29-9.35-.79-.59-1.77-.98-2.66-1.38-.49-6.69-2.26-13.39-5.32-19.3-.59-1.18-1.28-2.36-1.87-3.45-1.08-1.87-2.07-3.74-2.86-5.81-.79-1.97-1.18-4.13-1.58-6.2l-.3-1.58c-2.17-10.53-5.91-20.58-10.83-30.03-2.17-7.58,3.84-15.56,3.84-15.56.79.79,1.58,1.58,2.26,2.46,1.97,2.86,2.76,6.4,3.45,9.85,1.97,11.22,2.76,22.64,7.29,33.18,1.38,3.15,2.95,6.2,4.63,9.25,1.38,2.46,2.76,5.02,3.84,7.58,1.67,3.84,2.95,7.97,4.13,12.01l4.43,14.57c1.58,5.22,3.25,10.63,2.86,15.65-.3,3.84-2.17,8.37-5.51,9.06-11.62,2.26-17.43-13.19-43.22-5.71-1.18-6.6-3.94-13.98-6.1-20.28.69-1.08.49-17.33,14.28-26.58-16.15,4.92-18.9,19.89-18.9,19.89-3.25-7.38-7.97-9.45-16.74-31.31-1.28,40.36,27.47,55.82,11.32,85.65,0,0,12.01-4.53,18.51-17.23,12.6-7.78,26.09,10.44,48.54,3.05,5.91.59,8.17,17.92,24.12,25.5-13.19-16.05-6.99-25.5-19-32.39,1.18-2.66,1.87-5.61,2.07-8.37.49-7.09-1.58-13.88-3.35-19.79l-4.43-14.57c-1.28-4.13-2.66-8.86-4.63-13.39-1.28-2.86-2.76-5.71-4.33-8.47-1.48-2.66-2.95-5.41-4.13-8.27-2.56-6.1-3.84-12.6-4.82-19.1-.98-6.2-1.38-12.7-3.35-18.71-.89-2.56-1.97-5.02-3.54-7.29-2.26-3.25-5.22-5.71-7.78-7.78l-19.59-16.24c-4.73-3.84-11.72-9.65-19.99-9.16.79-.69,1.58-1.38,2.56-1.87,3.35-1.87,7.48-2.86,11.62-2.76,8.37-.1,17.03,4.23,23.83,11.03-5.61-7.88-13.88-14.37-23.53-16.15-4.73-.98-9.85-.89-14.77.69-4.23,1.38-8.66,4.43-11.32,9.65-1.67-.49-14.28-4.23-14.57-4.33-6.99-21.17-26.48-29.73-43.42-30.42-.79,0-1.58.1-2.36.1-1.28-3.74-2.66-7.48-4.33-11.22,3.84-1.67,8.76-2.17,13.29-1.67,5.91.49,11.32,3.84,17.13,7.48,5.71,3.64,11.52,7.78,18.02,10.14,6.4,2.36,13.68,3.05,19.59,0-6.2,2.26-13,.59-18.71-2.36-5.81-3.05-10.93-7.58-16.34-12.01-2.66-2.26-5.51-4.43-8.47-6.4-3.05-2.07-6.69-3.54-10.14-4.53-6.1-1.38-12.6-1.77-19.1.59-2.26-3.25-4.92-6.2-8.27-8.27-5.22-3.15-11.03-3.54-16.24-2.86-5.22.79-10.14,2.56-14.87,4.53,5.02-1.18,10.04-2.07,15.06-1.87,5.02.1,9.94,1.48,13.59,4.53,6.3,5.61,8.86,14.96,10.63,24.22-2.36.1-4.63.2-6.89,0-3.94-.39-7.88-1.67-12.01-3.05-4.92-1.58-10.14-3.25-15.56-3.54-2.56-.1-5.22.2-7.88.69-.49-1.77-1.08-3.54-1.87-5.12-1.77-3.64-4.43-6.5-7.09-8.66-5.32-4.53-11.52-6.2-15.65-11.52,1.28,3.15,3.74,5.71,6.01,8.07s4.63,4.63,6.4,7.19c3.05,4.04,4.23,8.37,4.13,12.8-4.23,1.87-8.47,4.53-12.4,7.97-.79.69-1.38,1.38-2.17,2.07-5.71-6.69-12.31-11.81-19.3-15.46,6.01,6.2,10.73,13.59,13.78,21.27-4.13,4.82-7.88,10.04-11.42,15.26-3.94,5.71-8.66,12.7-10.04,21.36-2.46-.79-5.02-2.46-7.09-5.12,0,3.45.98,7.09,3.05,10.53-6.4,4.33-11.12,12.11-12.11,21.17-1.08,9.75,1.67,20.67,7.88,30.82,4.13,6.69,9.16,12.4,14.28,17.82-5.81,3.35-11.52,7.19-16.84,11.42-7.88-2.26-15.56-8.07-19.99-17.13,1.48,8.57,6.3,16.93,13.19,22.94-2.86,2.66-5.71,5.32-8.37,8.27-1.48,1.58-2.76,3.05-4.23,3.64-1.58.79-3.94.79-6.4.79h-1.28c-7.19.1-14.18,1.48-20.87,3.94-16.93-38.79,1.67-74.33,26.09-116.66,2.46-4.33,7.97-8.27,7.78-15.26,0-1.87-.39-3.45-.79-4.82-.2-.69-.39-1.38-.39-2.07-.39-3.64,2.26-7.48,5.61-11.81,1.58-2.07,5.81-7.58,5.22-13.98,2.17-2.95,5.41-10.93,16.44-12.5-8.96-3.25-19.3,5.12-19.3,5.12,0,0,1.48-33.57,37.21-22.74-9.75-7.48-20.67-7.09-20.67-7.09,0,0,3.05-7.29,19.79-7.88-18.9-7.09-30.32,7.38-30.32,7.38-1.67-1.48-8.27-8.66-20.18-9.75,12.01,4.43,14.96,16.84,14.96,16.84-3.54,5.22-9.65,19.1-9.94,20.77-1.38-.89-11.12-8.76-27.86.49,18.11-5.22,27.57,8.27,29.93,12.5-.49.98-1.08,2.26-2.46,3.94-3.45,4.43-8.76,11.22-7.78,19.69.1,1.18.39,2.26.69,3.45.2.98.39,1.87.49,2.46.1,2.46-2.56,5.22-4.92,7.68-12.4,12.9-21.17,27.86-25.79,43.22-2.66-2.36-17.82-21.27-24.32-22.74,6.1,3.35,19.89,30.42,22.05,32.39,4.73,43.71-16.84,30.42-.1,75.41-1.38.79-2.76,1.38-4.13,2.26l-1.18.79c-2.26,1.48-4.43,2.76-6.3,3.05-1.28.1-2.86-.2-4.43-.59l-1.38-.3c-14.57-2.86-28.45,1.77-39.68,7.58-.98-7.68-1.18-15.46,1.38-22.15.49-1.28,1.08-2.56,1.67-3.84.98-2.07,1.87-4.13,2.56-6.3,2.17-6.99,1.67-14.18,1.18-21.17-.49-6.79-.98-13.19,1.28-18.31.59-1.28,1.28-2.36,1.97-3.54,6.3,15.16,15.16,19.89,16.93,37.12,3.94-20.38-9.35-28.26-12.4-49.32.89-5.91.3-12.01-.39-17.92-4.23-35.15,35.54-47.45,48.63-74.63-11.52,9.55-21.17,13.29-21.17,13.29-6.5-30.22,31.31-45.19,31.31-45.19-21.46,4.73-49.32,3.25-62.52,6.3-12.01,2.76-24.42,5.61-36.13,11.12-4.23,1.97-8.37,4.33-12.4,6.6-4.53,2.56-8.76,4.92-13.29,6.99-6.4,2.86-13.09,4.73-20.28,6.79-9.25,2.66-18.8,5.22-27.47,10.34-27.57,16.05-50.31,61.63-48.24,63.3,8.76,7.19,16.44-14.87,45.58-17.03,0,0-15.16-6.2-30.82,2.66,15.26-24.71,32.88-36.72,38.1-39.68,7.88-4.43,16.54-6.89,25.6-9.55,7.09-1.97,14.37-4.13,21.36-7.19,4.82-2.17,9.55-4.82,13.98-7.38,3.94-2.17,7.78-4.43,11.81-6.3,10.83-5.12,22.84-7.88,34.46-10.53,10.04-2.36,37.71-8.27,37.71-8.27,0,0-25.6,16.24-16.34,44.01,0,0-23.83,22.74-26.29,27.07-3.35-2.07-43.61-14.96-14.18-50.51-37.41,36.33,7.38,56.61,10.83,59.56-1.08,6.2-.39,12.7.3,18.9.89,7.29,1.67,14.28-.79,19.69-.59,1.28-1.28,2.46-1.97,3.64-.89,1.48-1.77,3.05-2.46,4.63-.3.59-.39,1.28-.59,1.87-17.52-3.84-36.33,1.97-49.32,15.95-.98,1.08-1.97,2.17-2.95,2.76-1.08.59-2.56.89-4.23,1.18s-3.25.59-4.82,1.18c-5.61,2.07-10.24,7.29-13.09,14.67-1.38,3.54-2.26,7.19-3.05,10.73-.49,2.07-.98,4.04-1.58,6.1-.2.59-.59,2.07-1.08,2.46-.59.49-2.46.49-3.74.59h-1.28c-2.56.1-5.02.69-7.29,1.48-4.53-1.87-8.76-5.41-12.11-10.44-1.87-2.66-3.64-5.61-5.71-8.47s-4.92-5.41-8.07-5.81c3.05,1.38,4.82,4.23,6.1,7.19,1.28,3.05,2.26,6.3,3.64,9.65,1.67,4.53,4.43,9.16,8.07,13-1.08.79-1.87,1.48-2.46,2.36-.89,1.18-1.48,2.66-1.97,4.04-6.69-3.94-14.08-7.78-22.15-8.96-.79-.1-1.58-.1-2.26-.2-3.05-8.96-5.51-18.41-3.25-26.88,1.28-4.43,4.33-8.17,8.17-11.12,3.84-2.86,8.37-5.12,12.31-8.07-4.43,2.17-9.06,3.54-13.59,5.81-4.43,2.26-8.86,5.81-11.42,11.12-2.46,5.32-3.05,11.42-2.86,17.03.1,3.64.49,7.29,1.08,10.83-.98-.2-1.97-.39-2.86-.79-6.3-2.95-9.16-12.01-8.66-19,.59-7.88,4.23-15.26,9.55-23.73,5.61-9.25,12.7-19.49,22.15-25.5,7.48-4.82,18.9-8.17,29.63-4.53-1.08,6.4-1.18,12.9.2,19.2,2.26-7.97,4.73-15.16,8.07-21.86,3.25-7.09,6.99-10.24,13.39-11.42,6.2-1.28,13.09-.2,20.67.49,7.38.59,16.34.39,22.35-5.02-7.58,1.18-14.28-.98-21.46-2.95-6.99-2.17-15.16-4.23-23.63-2.66-2.36.49-4.82,1.38-7.09,2.66-.59-1.08-1.08-2.26-1.77-3.25-1.87-3.15-4.53-5.51-6.5-7.38-3.45-2.95-6.1-9.45-3.64-11.91,3.05-3.25,9.25-4.43,14.37-6.6,5.22-2.07,10.53-5.22,13.39-10.44-3.54,4.73-8.86,6.79-14.18,7.97-5.32,1.58-10.93,1.08-16.74,5.12-3.25,2.36-3.64,7.78-2.76,11.03.59,3.35,2.36,7.29,4.53,9.75,3.54,4.23,5.22,7.78,6.2,12.31-1.08,1.67-2.07,3.35-2.66,5.02-13.78-4.82-28.16-.69-37.51,5.22-10.93,7.09-18.8,18.41-25.01,28.45-5.12,8.76-10.04,18.11-10.93,28.75-.39,4.43.2,9.25,1.77,13.88-14.67,18.51,1.48,28.06-3.25,38.69-7.78,17.62-4.53,30.13,1.97,37.12,15.36,16.74,51.49-.39,79.65,13.29-14.47,2.56-25.99,12.6-32.59,19.3,22.64-12.31,39.48-9.16,49.82-16.24,3.54.59,11.72,6.4,25.5,3.54,0,0-15.06-2.66-25.89-14.08,3.84-.3,34.65-9.65,34.65-9.65-4.82,5.71-2.86,16.15-.59,20.38-2.26,2.95-3.54,6.79-3.35,10.83,24.42-14.37,26.48,14.08,64.68,23.83,7.58,17.03,33.28,45.68,33.28,45.68ZM101.34,284.47c-9.16-1.87-33.47-27.07-58.58-22.64,29.24,5.91,39.08,21.76,45.98,25.4-29.24-8.37-51.98,5.91-61.53-8.37-9.25-13.78,2.17-14.87,1.48-28.75-.79-16.24-9.75-18.61-1.18-29.73,2.17,2.66,4.73,4.92,7.88,6.4,4.13,1.97,8.27,2.17,12.31,2.46,1.58.1,3.15.2,4.73.49,7.58,1.08,14.87,5.41,21.86,9.55.49,2.86,1.28,5.61,2.95,7.88,2.66,3.64,6.2,5.61,9.35,7.29,19.2,9.85,40.17,14.67,60.94,14.18-.1.1-22.74,20.77-46.17,15.85ZM90.21,245.09c-2.17-1.08-4.43-2.36-5.71-4.13-1.87-2.56-1.67-6.99.49-9.94,2.17-3.05,6.2-4.92,10.63-5.12h1.18c2.66,0,6.2-.2,9.06-2.56.89,1.38,1.67,2.76,2.66,4.04,3.05,3.84,7.19,6.69,11.42,7.38-3.74-2.36-6.01-6.2-7.38-10.04-1.18-3.35-1.58-6.89-1.97-10.53.39-1.58.89-3.15,1.28-4.82.79-3.35,1.58-6.5,2.66-9.35,1.08-2.76,3.54-7.68,7.68-9.16,1.08-.39,2.26-.59,3.35-.79,2.26-.39,4.73-.79,7.19-2.26.1-.1.2-.2.3-.3,1.67,4.43,3.54,8.86,6.2,12.9,1.77,2.86,4.13,5.41,6.3,7.58,1.97,2.17,4.33,4.73,3.64,7.88,1.58-3.05-.39-6.79-1.87-9.45-1.67-2.86-3.05-5.41-3.94-8.37-1.87-5.51-2.46-11.32-2.95-17.33,10.14-9.55,24.42-13.59,37.81-10.83-.2,3.84.1,7.78.39,11.62.49,6.2.89,12.01-.69,16.93-.59,1.77-1.38,3.35-2.07,5.02-.69,1.48-1.38,2.95-1.97,4.53-3.84,10.14-2.95,21.36-1.38,31.5-.59.39-1.18.69-1.77,1.08-6.69,4.23-13.39,9.25-16.84,17.13-21.76,2.07-43.71-2.26-63.7-12.6ZM159.92,302.09c-5.71-.59-3.84-14.57,4.23-16.05,10.93-.1,27.27,5.61,39.97,25.5.2,3.25,3.64,13.29,4.33,15.16-20.87-5.41-26.38-22.45-48.54-24.61Z" style="isolation:isolate" opacity=".8" fill="#d9527c"></path><path class="e" d="M208.65,359.78c-6.5-4.63-10.83-10.63-16.54-16.34-2.86-2.76-6.01-5.61-9.75-7.29-3.74-1.77-7.97-2.26-11.62-.89,3.74.79,7.09,2.26,9.94,4.43s5.51,4.82,8.27,7.58c2.76,2.66,5.51,5.61,8.86,7.97,3.25,2.26,6.99,4.23,10.83,4.53Z" style="isolation:isolate" opacity=".8" fill="#d9527c"></path><path class="e" d="M234.94,397.78c-7.78-1.58-15.26-5.02-21.86-10.24-6.69-5.32-12.5-12.4-18.51-19.79,2.66,9.35,7.09,18.41,13.88,25.79,6.79,7.48,15.85,12.4,25.1,14.47,9.35,1.87,19.1.98,27.57-2.66,8.47-3.54,15.95-9.45,21.17-17.13-15.56,8.57-31.6,13-47.35,9.55Z" style="isolation:isolate" opacity=".8" fill="#d9527c"></path><path class="e" d="M572.52,222.44c2.46,3.15,1.77,7.68.59,12.4,1.38-1.77,2.56-3.74,3.35-6.2.69-2.46.3-5.61-.79-7.97-2.26-5.02-5.81-7.88-7.58-11.62-4.13-7.48-5.51-16.54-3.84-25.89-5.22,7.68-5.12,19.49-.2,28.45,2.56,4.43,6.3,7.48,8.47,10.83Z" style="isolation:isolate" opacity=".8" fill="#d9527c"></path></g></svg>