<svg xmlns="http://www.w3.org/2000/svg" style="" viewBox="0 0 640 512"><g class="nc-icon-wrapper"><defs><linearGradient id="1772947707083-2312854_b" x1="46.2" y1="638.13" x2="121.01" y2="638.13" gradientTransform="translate(0 -497.2)" gradientUnits="userSpaceOnUse"><stop offset="0" stop-color="#d6e5ed"></stop><stop offset=".05" stop-color="#d1e0e7"></stop><stop offset=".48" stop-color="#a8b2b8"></stop><stop offset=".81" stop-color="#8f969a"></stop><stop offset="1" stop-color="#858c8f"></stop></linearGradient><linearGradient id="1772947707083-2312854_c" x1="10.7" y1="849.15" x2="629.4" y2="849.15" gradientTransform="translate(0 -497.2)" gradientUnits="userSpaceOnUse"><stop offset=".9" stop-color="#323844"></stop><stop offset="1" stop-color="#1a1626"></stop></linearGradient><linearGradient id="1772947707083-2312854_d" x1="10.7" y1="998.55" x2="629.4" y2="998.55" gradientTransform="translate(0 -497.2)" gradientUnits="userSpaceOnUse"><stop offset="0" stop-color="#7b8589"></stop><stop offset="0" stop-color="#8d979b"></stop><stop offset=".03" stop-color="#aab3b8"></stop><stop offset=".06" stop-color="#bec8cc"></stop><stop offset=".08" stop-color="#cbd4d9"></stop><stop offset=".1" stop-color="#cfd8dd"></stop><stop offset=".9" stop-color="#cfd8dd"></stop><stop offset=".92" stop-color="#cbd4d9"></stop><stop offset=".94" stop-color="#bec8cc"></stop><stop offset=".97" stop-color="#aab3b8"></stop><stop offset=".99" stop-color="#8d979b"></stop><stop offset="1" stop-color="#7b8589"></stop></linearGradient><linearGradient id="1772947707083-2312854_e" x1="10.6" y1="667.85" x2="629.3" y2="667.85" gradientTransform="translate(0 -497.2)" gradientUnits="userSpaceOnUse"><stop offset="0" stop-color="#7b8589"></stop><stop offset="0" stop-color="#8d979b"></stop><stop offset=".03" stop-color="#aab3b8"></stop><stop offset=".06" stop-color="#bec8cc"></stop><stop offset=".08" stop-color="#cbd4d9"></stop><stop offset=".1" stop-color="#cfd8dd"></stop><stop offset=".9" stop-color="#cfd8dd"></stop><stop offset=".92" stop-color="#cbd4d9"></stop><stop offset=".94" stop-color="#bec8cc"></stop><stop offset=".97" stop-color="#aab3b8"></stop><stop offset=".99" stop-color="#8d979b"></stop><stop offset="1" stop-color="#7b8589"></stop></linearGradient><radialGradient id="1772947707083-2312854_f" cx="-375.22" cy="211.25" fx="-375.22" fy="211.25" r="165.36" gradientTransform="rotate(-45 -1104.528 -153.54) scale(1 6)" gradientUnits="userSpaceOnUse"><stop offset=".23" stop-color="#effaff"></stop><stop offset=".37" stop-color="#e7f2f7"></stop><stop offset=".59" stop-color="#d1dce1"></stop><stop offset=".85" stop-color="#adb9bd"></stop><stop offset="1" stop-color="#96a2a6"></stop></radialGradient><linearGradient id="1772947707083-2312854_g" x1="334.54" y1="751.34" x2="497.46" y2="914.26" gradientTransform="translate(0 -497.2)" gradientUnits="userSpaceOnUse"><stop offset="0" stop-color="#302c3b"></stop><stop offset=".47" stop-color="#312e3d"></stop><stop offset=".75" stop-color="#363742"></stop><stop offset=".97" stop-color="#3f454b"></stop><stop offset="1" stop-color="#40474d"></stop></linearGradient><radialGradient id="1772947707083-2312854_h" cx="1898.73" cy="-129.44" fx="1898.73" fy="-129.44" r="270.01" gradientTransform="rotate(52.41 392.106 -702.286) scale(.59 .66)" gradientUnits="userSpaceOnUse"><stop offset="0" stop-color="#fff" stop-opacity=".2"></stop><stop offset="1" stop-color="#fff" stop-opacity="0"></stop></radialGradient><linearGradient id="1772947707083-2312854_i" x1="10.7" y1="849.15" x2="195.5" y2="849.15" gradientTransform="translate(0 -497.2)" gradientUnits="userSpaceOnUse"><stop offset="0" stop-color="#302c3b"></stop><stop offset=".02" stop-color="#33313f"></stop><stop offset=".1" stop-color="#3f4551"></stop><stop offset=".19" stop-color="#47535d"></stop><stop offset=".31" stop-color="#4c5b65"></stop><stop offset=".5" stop-color="#4e5e67"></stop><stop offset=".63" stop-color="#4a5862"></stop><stop offset=".8" stop-color="#414853"></stop><stop offset="1" stop-color="#302c3b"></stop><stop offset="1" stop-color="#302c3b"></stop></linearGradient><linearGradient id="1772947707083-2312854_j" x1="173.65" y1="844.5" x2="173.65" y2="497.2" gradientTransform="translate(0 -497.2)" gradientUnits="userSpaceOnUse"><stop offset="0" stop-color="#ff4d00"></stop><stop offset=".3" stop-color="#ff7400"></stop><stop offset=".58" stop-color="#ff9200"></stop><stop offset=".83" stop-color="#ffa400"></stop><stop offset="1" stop-color="#fa0"></stop></linearGradient><linearGradient id="1772947707083-2312854_k" x1="172.55" y1="761.6" x2="172.55" y2="574.3" gradientTransform="translate(0 -497.2)" gradientUnits="userSpaceOnUse"><stop offset="0" stop-color="#ffb500"></stop><stop offset=".09" stop-color="#ffba00"></stop><stop offset=".67" stop-color="#ffda00"></stop><stop offset="1" stop-color="#ffe600"></stop></linearGradient><linearGradient id="1772947707083-2312854_l" x1="172.55" y1="707.6" x2="172.55" y2="628.3" gradientTransform="translate(0 -497.2)" gradientUnits="userSpaceOnUse"><stop offset="0" stop-color="#fff1a3"></stop><stop offset=".16" stop-color="#fff4b6"></stop><stop offset=".53" stop-color="#fffade"></stop><stop offset=".82" stop-color="#fffef6"></stop><stop offset="1" stop-color="#fff"></stop></linearGradient></defs><path class="x" d="M0 213.3H21.3V224H0z" fill="#cfd8dd"></path><path class="x" d="M618.7 213.3H640V224H618.7z" fill="#cfd8dd"></path><path class="w" d="M120.9,150.7H46.2s4.3-13.8,9.7-16c12.8-5.2,42.6-5.2,55.4,0,5.8,2.4,10.5,19,9.6,16Z" fill="url(#1772947707083-2312854_b)"></path><path class="x" d="M72.6 129.3H94.5V150.60000000000002H72.6z" fill="#cfd8dd"></path><path class="v" d="M10.7 213.3H629.4000000000001V490.6H10.7z" fill="url(#1772947707083-2312854_c)"></path><path class="u" d="M608.3,512H31.7c-21,0-21-21.3-21-21.3h618.7c-.1,0-.1,21.3-21.1,21.3h0Z" fill="url(#1772947707083-2312854_d)"></path><path class="t" d="M629.3,138.1l-15.8-10.1h-305c-54.2,0-61.1,22.5-113.1,22.5H21.3c-10.7,0-10.7,9.1-10.7,9.1v53.7h618.7v-75.2Z" fill="url(#1772947707083-2312854_e)"></path><path class="aa" d="M316.5,456.7c0,15.8-12.8,28.7-28.7,28.7s-28.7-12.8-28.7-28.7,12.8-28.6,28.7-28.6c15.9-.1,28.7,12.8,28.7,28.6Z" fill="#99a8ae"></path><path class="ad" d="M308.9,456.7c0,11.6-9.4,21.1-21.1,21.1s-21.1-9.4-21.1-21.1,9.4-21,21.1-21c11.7-.1,21.1,9.3,21.1,21Z" fill="#302c3b"></path><circle class="s" cx="416" cy="335.6" r="165.3" fill="url(#1772947707083-2312854_f)"></circle><circle class="z" cx="416.06" cy="335.56" r="145.31" fill="#1a1626"></circle><path class="af" d="M546.2,335.6c0,71.9-58.3,130.2-130.2,130.2s-130.3-58.3-130.3-130.2,58.3-130.3,130.3-130.3,130.2,58.3,130.2,130.3h0Z" fill="#25222e"></path><circle class="r" cx="416" cy="335.6" r="115.2" fill="url(#1772947707083-2312854_g)"></circle><path class="ac" d="M487.9,335.6c0,39.7-32.2,71.9-71.9,71.9s-71.9-32.2-71.9-71.9,32.2-71.9,71.9-71.9,71.9,32.2,71.9,71.9Z" style="isolation:isolate" opacity=".2" fill="#302c3b"></path><path class="y" d="M491.1,335.6c0,41.5-33.6,75.1-75.1,75.1s-75.2-33.6-75.2-75.1,33.6-75.1,75.2-75.1c41.5-.1,75.1,33.6,75.1,75.1Z" fill="#35313d"></path><path class="ab" d="M476.1,335.6c0,33.2-26.9,60.1-60.1,60.1s-60.1-26.9-60.1-60.1,26.9-60.1,60.1-60.1c33.2-.1,60.1,26.9,60.1,60.1Z" fill="#272430"></path><path class="ae" d="M461.1,335.6c0,24.9-20.2,45.1-45.1,45.1s-45.1-20.2-45.1-45.1,20.2-45.1,45.1-45.1,45.1,20.1,45.1,45.1Z" fill="#2d2a36"></path><path class="y" d="M446.1,335.6c0,16.6-13.5,30.1-30.1,30.1s-30.1-13.5-30.1-30.1,13.5-30.1,30.1-30.1,30.1,13.5,30.1,30.1Z" fill="#35313d"></path><path class="z" d="M426,335.6c0,5.5-4.5,10-10,10s-10-4.5-10-10,4.5-10,10-10c5.5-.1,10,4.4,10,10Z" fill="#1a1626"></path><path class="p" d="M451.3,385.9c-40.4,31.1-95.5,27.3-123.1-8.6s-17.3-90.2,23.1-121.3c40.4-31.2,95.6-27.3,123.2,8.6,27.7,35.9,17.3,90.2-23.2,121.3h0Z" fill="url(#1772947707083-2312854_h)"></path><path class="o" d="M10.7 213.3H195.5V490.6H10.7z" fill="url(#1772947707083-2312854_i)"></path><path class="n" d="M242.6 192.2L347.3 134.1 229.8 139.2 264.7 67.1 201.1 112.4 208.9 13 162.6 94.9 92.9 0 122.8 118.3 18.3 83.5 101.6 159.7 0 179.4 97.4 201.6 42.8 299.1 132.2 245.1 135.9 347.3 172.5 254 221.8 327.8 219 239.1 303.9 271.5 242.6 192.2z" fill="url(#1772947707083-2312854_j)"></path><path class="m" d="M212.2 183.4L273.5 154.9 205.5 152.9 223.7 112.5 187.7 133.1 189 78.1 164.8 124 128.4 77.1 144.3 136.1 83.6 120.8 133.2 163.6 71.6 178 128 191 88.2 252 149.2 210.7 150.9 264.4 172.8 215.4 197.5 252 197.1 207.6 241.7 227.1 212.2 183.4z" fill="url(#1772947707083-2312854_k)"></path><path class="q" d="M189.3 176.1L215.3 164.1 186.5 163.2 194.2 146.1 179 154.8 179.5 131.5 169.3 150.9 153.9 131.1 160.6 156.1 134.9 149.6 155.9 167.7 129.8 173.9 153.7 179.4 136.9 205.2 162.7 187.7 163.4 210.4 172.6 189.6 183.1 205.2 183 186.4 201.8 194.7 189.3 176.1z" fill="url(#1772947707083-2312854_l)"></path></g></svg>