<svg xmlns="http://www.w3.org/2000/svg" style="" viewBox="0 0 512 512"><g class="nc-icon-wrapper"><defs><linearGradient id="1773012782135-6186165_b" x1="256.11" y1="968.67" x2="256.11" y2="734.83" gradientTransform="translate(0 -510.02)" gradientUnits="userSpaceOnUse"><stop offset="0" stop-color="#6e6e6e"></stop><stop offset=".5" stop-color="#3c3c3c"></stop><stop offset=".63" stop-color="#2e2e2e"></stop></linearGradient><linearGradient id="1773012782135-6186165_c" x1="396.66" y1="843.13" x2="439.36" y2="843.13" gradientTransform="translate(0 -510.02)" gradientUnits="userSpaceOnUse"><stop offset="0" stop-color="#c4bdb3"></stop><stop offset="0" stop-color="#c5beb4"></stop><stop offset=".05" stop-color="#dad4cc"></stop><stop offset=".1" stop-color="#e9e4de"></stop><stop offset=".16" stop-color="#f2eee9"></stop><stop offset=".22" stop-color="#f5f1ec"></stop><stop offset=".51" stop-color="#d7d2cb"></stop><stop offset=".82" stop-color="#bbb5ac"></stop><stop offset="1" stop-color="#b0aaa1"></stop></linearGradient><linearGradient id="1773012782135-6186165_d" x1="394.62" y1="921.73" x2="441.56" y2="921.73" gradientTransform="translate(0 -510.02)" gradientUnits="userSpaceOnUse"><stop offset="0" stop-color="#c4bdb3"></stop><stop offset="0" stop-color="#c5beb4"></stop><stop offset=".05" stop-color="#dad4cc"></stop><stop offset=".1" stop-color="#e9e4de"></stop><stop offset=".16" stop-color="#f2eee9"></stop><stop offset=".22" stop-color="#f5f1ec"></stop><stop offset=".51" stop-color="#d7d2cb"></stop><stop offset=".82" stop-color="#bbb5ac"></stop><stop offset="1" stop-color="#b0aaa1"></stop></linearGradient><linearGradient id="1773012782135-6186165_e" x1="392.46" y1="932.24" x2="443.77" y2="932.24" gradientTransform="translate(0 -510.02)" gradientUnits="userSpaceOnUse"><stop offset="0" stop-color="#c4bdb3"></stop><stop offset="0" stop-color="#c5beb4"></stop><stop offset=".05" stop-color="#dad4cc"></stop><stop offset=".1" stop-color="#e9e4de"></stop><stop offset=".16" stop-color="#f2eee9"></stop><stop offset=".22" stop-color="#f5f1ec"></stop><stop offset=".51" stop-color="#d7d2cb"></stop><stop offset=".82" stop-color="#bbb5ac"></stop><stop offset="1" stop-color="#b0aaa1"></stop></linearGradient><linearGradient id="1773012782135-6186165_f" x1="383.73" y1="945.06" x2="451.96" y2="945.06" gradientTransform="translate(0 -510.02)" gradientUnits="userSpaceOnUse"><stop offset="0" stop-color="#c4bdb3"></stop><stop offset="0" stop-color="#c5beb4"></stop><stop offset=".05" stop-color="#dad4cc"></stop><stop offset=".1" stop-color="#e9e4de"></stop><stop offset=".16" stop-color="#f2eee9"></stop><stop offset=".22" stop-color="#f5f1ec"></stop><stop offset=".51" stop-color="#d7d2cb"></stop><stop offset=".82" stop-color="#bbb5ac"></stop><stop offset="1" stop-color="#b0aaa1"></stop></linearGradient><linearGradient id="1773012782135-6186165_g" x1="394.62" y1="763.94" x2="441.56" y2="763.94" gradientTransform="translate(0 -510.02)" gradientUnits="userSpaceOnUse"><stop offset="0" stop-color="#c4bdb3"></stop><stop offset="0" stop-color="#c5beb4"></stop><stop offset=".05" stop-color="#dad4cc"></stop><stop offset=".1" stop-color="#e9e4de"></stop><stop offset=".16" stop-color="#f2eee9"></stop><stop offset=".22" stop-color="#f5f1ec"></stop><stop offset=".51" stop-color="#d7d2cb"></stop><stop offset=".82" stop-color="#bbb5ac"></stop><stop offset="1" stop-color="#b0aaa1"></stop></linearGradient><linearGradient id="1773012782135-6186165_h" x1="392.46" y1="753.33" x2="443.77" y2="753.33" gradientTransform="translate(0 -510.02)" gradientUnits="userSpaceOnUse"><stop offset="0" stop-color="#c4bdb3"></stop><stop offset="0" stop-color="#c5beb4"></stop><stop offset=".05" stop-color="#dad4cc"></stop><stop offset=".1" stop-color="#e9e4de"></stop><stop offset=".16" stop-color="#f2eee9"></stop><stop offset=".22" stop-color="#f5f1ec"></stop><stop offset=".51" stop-color="#d7d2cb"></stop><stop offset=".82" stop-color="#bbb5ac"></stop><stop offset="1" stop-color="#b0aaa1"></stop></linearGradient><linearGradient id="1773012782135-6186165_i" x1="383.72" y1="740.51" x2="451.95" y2="740.51" gradientTransform="translate(0 -510.02)" gradientUnits="userSpaceOnUse"><stop offset="0" stop-color="#c4bdb3"></stop><stop offset="0" stop-color="#c5beb4"></stop><stop offset=".05" stop-color="#dad4cc"></stop><stop offset=".1" stop-color="#e9e4de"></stop><stop offset=".16" stop-color="#f2eee9"></stop><stop offset=".22" stop-color="#f5f1ec"></stop><stop offset=".51" stop-color="#d7d2cb"></stop><stop offset=".82" stop-color="#bbb5ac"></stop><stop offset="1" stop-color="#b0aaa1"></stop></linearGradient><linearGradient id="1773012782135-6186165_j" x1="72.57" y1="843.13" x2="115.26" y2="843.13" gradientTransform="translate(0 -510.02)" gradientUnits="userSpaceOnUse"><stop offset="0" stop-color="#c4bdb3"></stop><stop offset="0" stop-color="#c5beb4"></stop><stop offset=".05" stop-color="#dad4cc"></stop><stop offset=".1" stop-color="#e9e4de"></stop><stop offset=".16" stop-color="#f2eee9"></stop><stop offset=".22" stop-color="#f5f1ec"></stop><stop offset=".51" stop-color="#d7d2cb"></stop><stop offset=".82" stop-color="#bbb5ac"></stop><stop offset="1" stop-color="#b0aaa1"></stop></linearGradient><linearGradient id="1773012782135-6186165_k" x1="70.53" y1="921.73" x2="117.46" y2="921.73" gradientTransform="translate(0 -510.02)" gradientUnits="userSpaceOnUse"><stop offset="0" stop-color="#c4bdb3"></stop><stop offset="0" stop-color="#c5beb4"></stop><stop offset=".05" stop-color="#dad4cc"></stop><stop offset=".1" stop-color="#e9e4de"></stop><stop offset=".16" stop-color="#f2eee9"></stop><stop offset=".22" stop-color="#f5f1ec"></stop><stop offset=".51" stop-color="#d7d2cb"></stop><stop offset=".82" stop-color="#bbb5ac"></stop><stop offset="1" stop-color="#b0aaa1"></stop></linearGradient><linearGradient id="1773012782135-6186165_l" x1="68.36" y1="932.24" x2="119.67" y2="932.24" gradientTransform="translate(0 -510.02)" gradientUnits="userSpaceOnUse"><stop offset="0" stop-color="#c4bdb3"></stop><stop offset="0" stop-color="#c5beb4"></stop><stop offset=".05" stop-color="#dad4cc"></stop><stop offset=".1" stop-color="#e9e4de"></stop><stop offset=".16" stop-color="#f2eee9"></stop><stop offset=".22" stop-color="#f5f1ec"></stop><stop offset=".51" stop-color="#d7d2cb"></stop><stop offset=".82" stop-color="#bbb5ac"></stop><stop offset="1" stop-color="#b0aaa1"></stop></linearGradient><linearGradient id="1773012782135-6186165_m" x1="59.63" y1="945.06" x2="127.86" y2="945.06" gradientTransform="translate(0 -510.02)" gradientUnits="userSpaceOnUse"><stop offset="0" stop-color="#c4bdb3"></stop><stop offset="0" stop-color="#c5beb4"></stop><stop offset=".05" stop-color="#dad4cc"></stop><stop offset=".1" stop-color="#e9e4de"></stop><stop offset=".16" stop-color="#f2eee9"></stop><stop offset=".22" stop-color="#f5f1ec"></stop><stop offset=".51" stop-color="#d7d2cb"></stop><stop offset=".82" stop-color="#bbb5ac"></stop><stop offset="1" stop-color="#b0aaa1"></stop></linearGradient><linearGradient id="1773012782135-6186165_n" x1="70.53" y1="763.94" x2="117.46" y2="763.94" gradientTransform="translate(0 -510.02)" gradientUnits="userSpaceOnUse"><stop offset="0" stop-color="#c4bdb3"></stop><stop offset="0" stop-color="#c5beb4"></stop><stop offset=".05" stop-color="#dad4cc"></stop><stop offset=".1" stop-color="#e9e4de"></stop><stop offset=".16" stop-color="#f2eee9"></stop><stop offset=".22" stop-color="#f5f1ec"></stop><stop offset=".51" stop-color="#d7d2cb"></stop><stop offset=".82" stop-color="#bbb5ac"></stop><stop offset="1" stop-color="#b0aaa1"></stop></linearGradient><linearGradient id="1773012782135-6186165_o" x1="68.37" y1="753.33" x2="119.68" y2="753.33" gradientTransform="translate(0 -510.02)" gradientUnits="userSpaceOnUse"><stop offset="0" stop-color="#c4bdb3"></stop><stop offset="0" stop-color="#c5beb4"></stop><stop offset=".05" stop-color="#dad4cc"></stop><stop offset=".1" stop-color="#e9e4de"></stop><stop offset=".16" stop-color="#f2eee9"></stop><stop offset=".22" stop-color="#f5f1ec"></stop><stop offset=".51" stop-color="#d7d2cb"></stop><stop offset=".82" stop-color="#bbb5ac"></stop><stop offset="1" stop-color="#b0aaa1"></stop></linearGradient><linearGradient id="1773012782135-6186165_p" x1="59.63" y1="740.51" x2="127.86" y2="740.51" gradientTransform="translate(0 -510.02)" gradientUnits="userSpaceOnUse"><stop offset="0" stop-color="#c4bdb3"></stop><stop offset="0" stop-color="#c5beb4"></stop><stop offset=".05" stop-color="#dad4cc"></stop><stop offset=".1" stop-color="#e9e4de"></stop><stop offset=".16" stop-color="#f2eee9"></stop><stop offset=".22" stop-color="#f5f1ec"></stop><stop offset=".51" stop-color="#d7d2cb"></stop><stop offset=".82" stop-color="#bbb5ac"></stop><stop offset="1" stop-color="#b0aaa1"></stop></linearGradient><linearGradient id="1773012782135-6186165_q" x1="288.63" y1="843.13" x2="331.32" y2="843.13" gradientTransform="translate(0 -510.02)" gradientUnits="userSpaceOnUse"><stop offset="0" stop-color="#c4bdb3"></stop><stop offset="0" stop-color="#c5beb4"></stop><stop offset=".05" stop-color="#dad4cc"></stop><stop offset=".1" stop-color="#e9e4de"></stop><stop offset=".16" stop-color="#f2eee9"></stop><stop offset=".22" stop-color="#f5f1ec"></stop><stop offset=".51" stop-color="#d7d2cb"></stop><stop offset=".82" stop-color="#bbb5ac"></stop><stop offset="1" stop-color="#b0aaa1"></stop></linearGradient><linearGradient id="1773012782135-6186165_r" x1="286.59" y1="921.73" x2="333.52" y2="921.73" gradientTransform="translate(0 -510.02)" gradientUnits="userSpaceOnUse"><stop offset="0" stop-color="#c4bdb3"></stop><stop offset="0" stop-color="#c5beb4"></stop><stop offset=".05" stop-color="#dad4cc"></stop><stop offset=".1" stop-color="#e9e4de"></stop><stop offset=".16" stop-color="#f2eee9"></stop><stop offset=".22" stop-color="#f5f1ec"></stop><stop offset=".51" stop-color="#d7d2cb"></stop><stop offset=".82" stop-color="#bbb5ac"></stop><stop offset="1" stop-color="#b0aaa1"></stop></linearGradient><linearGradient id="1773012782135-6186165_s" x1="284.42" y1="932.24" x2="335.73" y2="932.24" gradientTransform="translate(0 -510.02)" gradientUnits="userSpaceOnUse"><stop offset="0" stop-color="#c4bdb3"></stop><stop offset="0" stop-color="#c5beb4"></stop><stop offset=".05" stop-color="#dad4cc"></stop><stop offset=".1" stop-color="#e9e4de"></stop><stop offset=".16" stop-color="#f2eee9"></stop><stop offset=".22" stop-color="#f5f1ec"></stop><stop offset=".51" stop-color="#d7d2cb"></stop><stop offset=".82" stop-color="#bbb5ac"></stop><stop offset="1" stop-color="#b0aaa1"></stop></linearGradient><linearGradient id="1773012782135-6186165_t" x1="275.69" y1="945.06" x2="343.92" y2="945.06" gradientTransform="translate(0 -510.02)" gradientUnits="userSpaceOnUse"><stop offset="0" stop-color="#c4bdb3"></stop><stop offset="0" stop-color="#c5beb4"></stop><stop offset=".05" stop-color="#dad4cc"></stop><stop offset=".1" stop-color="#e9e4de"></stop><stop offset=".16" stop-color="#f2eee9"></stop><stop offset=".22" stop-color="#f5f1ec"></stop><stop offset=".51" stop-color="#d7d2cb"></stop><stop offset=".82" stop-color="#bbb5ac"></stop><stop offset="1" stop-color="#b0aaa1"></stop></linearGradient><linearGradient id="1773012782135-6186165_u" x1="286.59" y1="763.94" x2="333.52" y2="763.94" gradientTransform="translate(0 -510.02)" gradientUnits="userSpaceOnUse"><stop offset="0" stop-color="#c4bdb3"></stop><stop offset="0" stop-color="#c5beb4"></stop><stop offset=".05" stop-color="#dad4cc"></stop><stop offset=".1" stop-color="#e9e4de"></stop><stop offset=".16" stop-color="#f2eee9"></stop><stop offset=".22" stop-color="#f5f1ec"></stop><stop offset=".51" stop-color="#d7d2cb"></stop><stop offset=".82" stop-color="#bbb5ac"></stop><stop offset="1" stop-color="#b0aaa1"></stop></linearGradient><linearGradient id="1773012782135-6186165_v" x1="284.43" y1="753.33" x2="335.73" y2="753.33" gradientTransform="translate(0 -510.02)" gradientUnits="userSpaceOnUse"><stop offset="0" stop-color="#c4bdb3"></stop><stop offset="0" stop-color="#c5beb4"></stop><stop offset=".05" stop-color="#dad4cc"></stop><stop offset=".1" stop-color="#e9e4de"></stop><stop offset=".16" stop-color="#f2eee9"></stop><stop offset=".22" stop-color="#f5f1ec"></stop><stop offset=".51" stop-color="#d7d2cb"></stop><stop offset=".82" stop-color="#bbb5ac"></stop><stop offset="1" stop-color="#b0aaa1"></stop></linearGradient><linearGradient id="1773012782135-6186165_w" x1="275.69" y1="740.51" x2="343.92" y2="740.51" gradientTransform="translate(0 -510.02)" gradientUnits="userSpaceOnUse"><stop offset="0" stop-color="#c4bdb3"></stop><stop offset="0" stop-color="#c5beb4"></stop><stop offset=".05" stop-color="#dad4cc"></stop><stop offset=".1" stop-color="#e9e4de"></stop><stop offset=".16" stop-color="#f2eee9"></stop><stop offset=".22" stop-color="#f5f1ec"></stop><stop offset=".51" stop-color="#d7d2cb"></stop><stop offset=".82" stop-color="#bbb5ac"></stop><stop offset="1" stop-color="#b0aaa1"></stop></linearGradient><linearGradient id="1773012782135-6186165_x" x1="180.6" y1="843.13" x2="223.3" y2="843.13" gradientTransform="translate(0 -510.02)" gradientUnits="userSpaceOnUse"><stop offset="0" stop-color="#c4bdb3"></stop><stop offset="0" stop-color="#c5beb4"></stop><stop offset=".05" stop-color="#dad4cc"></stop><stop offset=".1" stop-color="#e9e4de"></stop><stop offset=".16" stop-color="#f2eee9"></stop><stop offset=".22" stop-color="#f5f1ec"></stop><stop offset=".51" stop-color="#d7d2cb"></stop><stop offset=".82" stop-color="#bbb5ac"></stop><stop offset="1" stop-color="#b0aaa1"></stop></linearGradient><linearGradient id="1773012782135-6186165_y" x1="178.56" y1="921.73" x2="225.5" y2="921.73" gradientTransform="translate(0 -510.02)" gradientUnits="userSpaceOnUse"><stop offset="0" stop-color="#c4bdb3"></stop><stop offset="0" stop-color="#c5beb4"></stop><stop offset=".05" stop-color="#dad4cc"></stop><stop offset=".1" stop-color="#e9e4de"></stop><stop offset=".16" stop-color="#f2eee9"></stop><stop offset=".22" stop-color="#f5f1ec"></stop><stop offset=".51" stop-color="#d7d2cb"></stop><stop offset=".82" stop-color="#bbb5ac"></stop><stop offset="1" stop-color="#b0aaa1"></stop></linearGradient><linearGradient id="1773012782135-6186165_z" x1="176.4" y1="932.24" x2="227.71" y2="932.24" gradientTransform="translate(0 -510.02)" gradientUnits="userSpaceOnUse"><stop offset="0" stop-color="#c4bdb3"></stop><stop offset="0" stop-color="#c5beb4"></stop><stop offset=".05" stop-color="#dad4cc"></stop><stop offset=".1" stop-color="#e9e4de"></stop><stop offset=".16" stop-color="#f2eee9"></stop><stop offset=".22" stop-color="#f5f1ec"></stop><stop offset=".51" stop-color="#d7d2cb"></stop><stop offset=".82" stop-color="#bbb5ac"></stop><stop offset="1" stop-color="#b0aaa1"></stop></linearGradient><linearGradient id="1773012782135-6186165_aa" x1="167.67" y1="945.06" x2="235.9" y2="945.06" gradientTransform="translate(0 -510.02)" gradientUnits="userSpaceOnUse"><stop offset="0" stop-color="#c4bdb3"></stop><stop offset="0" stop-color="#c5beb4"></stop><stop offset=".05" stop-color="#dad4cc"></stop><stop offset=".1" stop-color="#e9e4de"></stop><stop offset=".16" stop-color="#f2eee9"></stop><stop offset=".22" stop-color="#f5f1ec"></stop><stop offset=".51" stop-color="#d7d2cb"></stop><stop offset=".82" stop-color="#bbb5ac"></stop><stop offset="1" stop-color="#b0aaa1"></stop></linearGradient><linearGradient id="1773012782135-6186165_ab" x1="178.56" y1="763.94" x2="225.5" y2="763.94" gradientTransform="translate(0 -510.02)" gradientUnits="userSpaceOnUse"><stop offset="0" stop-color="#c4bdb3"></stop><stop offset="0" stop-color="#c5beb4"></stop><stop offset=".05" stop-color="#dad4cc"></stop><stop offset=".1" stop-color="#e9e4de"></stop><stop offset=".16" stop-color="#f2eee9"></stop><stop offset=".22" stop-color="#f5f1ec"></stop><stop offset=".51" stop-color="#d7d2cb"></stop><stop offset=".82" stop-color="#bbb5ac"></stop><stop offset="1" stop-color="#b0aaa1"></stop></linearGradient><linearGradient id="1773012782135-6186165_ac" x1="176.4" y1="753.33" x2="227.71" y2="753.33" gradientTransform="translate(0 -510.02)" gradientUnits="userSpaceOnUse"><stop offset="0" stop-color="#c4bdb3"></stop><stop offset="0" stop-color="#c5beb4"></stop><stop offset=".05" stop-color="#dad4cc"></stop><stop offset=".1" stop-color="#e9e4de"></stop><stop offset=".16" stop-color="#f2eee9"></stop><stop offset=".22" stop-color="#f5f1ec"></stop><stop offset=".51" stop-color="#d7d2cb"></stop><stop offset=".82" stop-color="#bbb5ac"></stop><stop offset="1" stop-color="#b0aaa1"></stop></linearGradient><linearGradient id="1773012782135-6186165_ad" x1="167.67" y1="740.51" x2="235.9" y2="740.51" gradientTransform="translate(0 -510.02)" gradientUnits="userSpaceOnUse"><stop offset="0" stop-color="#c4bdb3"></stop><stop offset="0" stop-color="#c5beb4"></stop><stop offset=".05" stop-color="#dad4cc"></stop><stop offset=".1" stop-color="#e9e4de"></stop><stop offset=".16" stop-color="#f2eee9"></stop><stop offset=".22" stop-color="#f5f1ec"></stop><stop offset=".51" stop-color="#d7d2cb"></stop><stop offset=".82" stop-color="#bbb5ac"></stop><stop offset="1" stop-color="#b0aaa1"></stop></linearGradient><linearGradient id="1773012782135-6186165_ae" x1="256" y1="842.99" x2="256" y2="731.63" gradientTransform="translate(0 -510.02)" gradientUnits="userSpaceOnUse"><stop offset=".5" stop-color="#383124" stop-opacity="0"></stop><stop offset="1" stop-color="#383124" stop-opacity=".6"></stop></linearGradient><linearGradient id="1773012782135-6186165_af" x1="256" y1="1022.02" x2="256" y2="1004.56" gradientTransform="translate(0 -510.02)" gradientUnits="userSpaceOnUse"><stop offset="0" stop-color="#c4bdb3"></stop><stop offset=".3" stop-color="#cfc9c0"></stop><stop offset=".86" stop-color="#ede8e2"></stop><stop offset="1" stop-color="#f5f1ec"></stop></linearGradient><linearGradient id="1773012782135-6186165_ag" x1="256.27" y1="1004.55" x2="256.27" y2="987.63" gradientTransform="translate(0 -510.02)" gradientUnits="userSpaceOnUse"><stop offset="0" stop-color="#c4bdb3"></stop><stop offset=".3" stop-color="#cfc9c0"></stop><stop offset=".86" stop-color="#ede8e2"></stop><stop offset="1" stop-color="#f5f1ec"></stop></linearGradient><linearGradient id="1773012782135-6186165_ah" x1="256" y1="987.63" x2="256" y2="970.71" gradientTransform="translate(0 -510.02)" gradientUnits="userSpaceOnUse"><stop offset="0" stop-color="#c4bdb3"></stop><stop offset=".3" stop-color="#cfc9c0"></stop><stop offset=".86" stop-color="#ede8e2"></stop><stop offset="1" stop-color="#f5f1ec"></stop></linearGradient><linearGradient id="1773012782135-6186165_ai" x1="256" y1="970.71" x2="256" y2="953.79" gradientTransform="translate(0 -510.02)" gradientUnits="userSpaceOnUse"><stop offset="0" stop-color="#c4bdb3"></stop><stop offset=".3" stop-color="#cfc9c0"></stop><stop offset=".86" stop-color="#ede8e2"></stop><stop offset="1" stop-color="#f5f1ec"></stop></linearGradient><linearGradient id="1773012782135-6186165_aj" x1="256.37" y1="725.67" x2="256.37" y2="703.84" gradientTransform="translate(0 -510.02)" gradientUnits="userSpaceOnUse"><stop offset="0" stop-color="#c2b9aa"></stop><stop offset=".37" stop-color="#c0b7a8"></stop><stop offset=".58" stop-color="#b7afa1"></stop><stop offset=".76" stop-color="#a9a294"></stop><stop offset=".91" stop-color="#968f83"></stop><stop offset="1" stop-color="#857f74"></stop></linearGradient><linearGradient id="1773012782135-6186165_ak" x1="256" y1="740.37" x2="256" y2="723.45" gradientTransform="translate(0 -510.02)" gradientUnits="userSpaceOnUse"><stop offset="0" stop-color="#c4bdb3"></stop><stop offset=".17" stop-color="#d2ccc3"></stop><stop offset=".47" stop-color="#e5e0da"></stop><stop offset=".75" stop-color="#f1ede7"></stop><stop offset="1" stop-color="#f5f1ec"></stop></linearGradient><linearGradient id="1773012782135-6186165_al" x1="256" y1="699.43" x2="256" y2="525.3" gradientTransform="translate(0 -510.02)" gradientUnits="userSpaceOnUse"><stop offset="0" stop-color="#c2b9aa"></stop><stop offset=".37" stop-color="#c0b7a8"></stop><stop offset=".58" stop-color="#b7afa1"></stop><stop offset=".76" stop-color="#a9a294"></stop><stop offset=".91" stop-color="#968f83"></stop><stop offset="1" stop-color="#857f74"></stop></linearGradient><linearGradient id="1773012782135-6186165_am" x1="256" y1="690.7" x2="256" y2="555.87" gradientTransform="translate(0 -510.02)" gradientUnits="userSpaceOnUse"><stop offset="0" stop-color="#c2b9aa" stop-opacity=".3"></stop><stop offset=".37" stop-color="#c0b7a8" stop-opacity=".49"></stop><stop offset=".58" stop-color="#b7afa1" stop-opacity=".59"></stop><stop offset=".76" stop-color="#a9a294" stop-opacity=".68"></stop><stop offset=".91" stop-color="#968f83" stop-opacity=".75"></stop><stop offset="1" stop-color="#857f74" stop-opacity=".8"></stop></linearGradient></defs><path class="be" d="M94.38,224.81v233.84h323.46v-233.84H94.38" vector-effect="none" fill="url(#1773012782135-6186165_b)"></path><path class="bd" d="M396.79,242.17v181.88h42.57v-181.88h-42.57" vector-effect="none" fill="url(#1773012782135-6186165_c)"></path><path class="ay" d="M394.62,409.55v4.32h46.79v-4.32h-46.79" vector-effect="none" fill="url(#1773012782135-6186165_d)"></path><path class="ax" d="M394.1,418.12l-1.64,8.19h51.31l-1.64-8.19h-48.03" vector-effect="none" fill="url(#1773012782135-6186165_e)"></path><path class="aw" d="M383.73,443.77h68.23l-1.09-10.37-4.91-7.1h-55.68l-4.91,7.1-1.64,10.37" vector-effect="none" fill="url(#1773012782135-6186165_f)"></path><path class="av" d="M394.62,251.76v4.32h46.79v-4.32h-46.79" vector-effect="none" fill="url(#1773012782135-6186165_g)"></path><path class="aq" d="M442.13,247.4l1.64-8.19h-51.31l1.64,8.19h48.03" vector-effect="none" fill="url(#1773012782135-6186165_h)"></path><path class="ap" d="M385.36,232.12l4.91,7.1h55.68l4.91-7.1,1.09-10.37h-68.23l1.64,10.37" vector-effect="none" fill="url(#1773012782135-6186165_i)"></path><path class="cc" d="M415.93,256v153.38h4.37v-153.38h-4.37M423.57,256v153.38h4.91v-153.38h-4.91M407.74,256v153.38h4.37v-153.38h-4.37M431.76,256v153.38h3.28v-153.38h-3.28M401.19,256v153.38h3.27v-153.38h-3.27M436.67,256v153.38h2.73v-153.38h-2.73M396.83,256v153.38h2.18v-153.38h-2.18" vector-effect="none" fill="#c2bbb2"></path><path class="ao" d="M72.7,242.17v181.88h42.57v-181.88h-42.57" vector-effect="none" fill="url(#1773012782135-6186165_j)"></path><path class="an" d="M70.53,409.55v4.32h46.79v-4.32h-46.79" vector-effect="none" fill="url(#1773012782135-6186165_k)"></path><path class="au" d="M70,418.12l-1.64,8.19h51.31l-1.64-8.19h-48.03" vector-effect="none" fill="url(#1773012782135-6186165_l)"></path><path class="as" d="M59.63,443.77h68.23l-1.09-10.37-4.91-7.1h-55.68l-4.91,7.1-1.64,10.37" vector-effect="none" fill="url(#1773012782135-6186165_m)"></path><path class="at" d="M70.53,251.76v4.32h46.79v-4.32h-46.79" vector-effect="none" fill="url(#1773012782135-6186165_n)"></path><path class="ba" d="M118.04,247.4l1.64-8.19h-51.31l1.64,8.19h48.03" vector-effect="none" fill="url(#1773012782135-6186165_o)"></path><path class="ar" d="M61.27,232.12l4.91,7.1h55.68l4.91-7.1,1.09-10.37H59.63l1.64,10.37" vector-effect="none" fill="url(#1773012782135-6186165_p)"></path><path class="cc" d="M91.84,256v153.38h4.37v-153.38h-4.37M99.48,256v153.38h4.91v-153.38h-4.91M83.65,256v153.38h4.37v-153.38h-4.37M107.67,256v153.38h3.28v-153.38h-3.28M77.1,256v153.38h3.27v-153.38h-3.27M112.58,256v153.38h2.73v-153.38h-2.73M72.73,256v153.38h2.18v-153.38h-2.18" vector-effect="none" fill="#c2bbb2"></path><path class="az" d="M288.76,242.17v181.88h42.57v-181.88h-42.57" vector-effect="none" fill="url(#1773012782135-6186165_q)"></path><path class="bb" d="M286.59,409.55v4.32h46.8v-4.32h-46.8" vector-effect="none" fill="url(#1773012782135-6186165_r)"></path><path class="bc" d="M286.06,418.12l-1.64,8.19h51.31l-1.64-8.19h-48.03" vector-effect="none" fill="url(#1773012782135-6186165_s)"></path><path class="bi" d="M275.69,443.77h68.23l-1.09-10.37-4.91-7.1h-55.68l-4.91,7.1-1.64,10.37" vector-effect="none" fill="url(#1773012782135-6186165_t)"></path><path class="bf" d="M286.59,251.76v4.32h46.8v-4.32h-46.8" vector-effect="none" fill="url(#1773012782135-6186165_u)"></path><path class="bh" d="M334.09,247.4l1.64-8.19h-51.3l1.64,8.19h48.02" vector-effect="none" fill="url(#1773012782135-6186165_v)"></path><path class="bg" d="M277.33,232.12l4.91,7.1h55.68l4.91-7.1,1.09-10.37h-68.23l1.64,10.37" vector-effect="none" fill="url(#1773012782135-6186165_w)"></path><path class="cc" d="M307.9,256v153.38h4.37v-153.38h-4.37M315.54,256v153.38h4.91v-153.38h-4.91M299.71,256v153.38h4.37v-153.38h-4.37M323.73,256v153.38h3.28v-153.38h-3.28M293.16,256v153.38h3.27v-153.38h-3.27M328.64,256v153.38h2.73v-153.38h-2.73M288.79,256v153.38h2.18v-153.38h-2.18" vector-effect="none" fill="#c2bbb2"></path><path class="bl" d="M180.73,242.17v181.88h42.57v-181.88h-42.57" vector-effect="none" fill="url(#1773012782135-6186165_x)"></path><path class="bk" d="M178.56,409.55v4.32h46.79v-4.32h-46.79" vector-effect="none" fill="url(#1773012782135-6186165_y)"></path><path class="bj" d="M178.04,418.12l-1.64,8.19h51.31l-1.64-8.19h-48.03" vector-effect="none" fill="url(#1773012782135-6186165_z)"></path><path class="bn" d="M167.67,443.77h68.23l-1.09-10.37-4.91-7.1h-55.68l-4.91,7.1-1.64,10.37" vector-effect="none" fill="url(#1773012782135-6186165_aa)"></path><path class="br" d="M178.56,251.76v4.32h46.79v-4.32h-46.79" vector-effect="none" fill="url(#1773012782135-6186165_ab)"></path><path class="bp" d="M226.07,247.4l1.64-8.19h-51.31l1.64,8.19h48.03" vector-effect="none" fill="url(#1773012782135-6186165_ac)"></path><path class="bw" d="M169.31,232.12l4.91,7.1h55.68l4.91-7.1,1.09-10.37h-68.23l1.64,10.37" vector-effect="none" fill="url(#1773012782135-6186165_ad)"></path><path class="cc" d="M199.86,256v153.38h4.37v-153.38h-4.37M207.51,256v153.38h4.91v-153.38h-4.91M191.68,256v153.38h4.37v-153.38h-4.37M215.69,256v153.38h3.27v-153.38h-3.27M185.13,256v153.38h3.28v-153.38h-3.28M220.61,256v153.38h2.73v-153.38h-2.73M180.76,256v153.38h2.18v-153.38h-2.18" vector-effect="none" fill="#c2bbb2"></path><path class="bo" d="M68.23,239.08l1.64,8.19h2.73v4.37h-2.18v4.37h2.18v76.96h366.81v-76.96h2.18v-4.37h-2.18v-4.37h2.73l1.64-8.19h2.18l4.91-7.1,1.09-10.37H60.04l1.09,10.37,4.91,7.1h2.18" vector-effect="none" fill="url(#1773012782135-6186165_ae)"></path><path class="bm" d="M512,512v-8.73c0-5.82-2.91-8.73-8.73-8.73H8.73c-5.82,0-8.73,2.91-8.73,8.73v8.73h512" vector-effect="none" fill="url(#1773012782135-6186165_af)"></path><path class="bs" d="M495.08,494.53v-8.19c0-5.82-2.91-8.73-8.73-8.73H25.65c-5.46,0-8.19,2.91-8.19,8.73v8.19h477.61" vector-effect="none" fill="url(#1773012782135-6186165_ag)"></path><path class="bt" d="M477.61,477.61v-8.19c0-5.82-2.91-8.73-8.73-8.73H43.12c-5.82,0-8.73,2.91-8.73,8.73v8.19h443.22" vector-effect="none" fill="url(#1773012782135-6186165_ah)"></path><path class="by" d="M460.69,460.69v-8.19c0-5.82-2.91-8.73-8.73-8.73H60.04c-5.82,0-8.73,2.91-8.73,8.73v8.19h409.38" vector-effect="none" fill="url(#1773012782135-6186165_ai)"></path><path class="bx" d="M26.09,193.82v21.83h460.56v-21.83H26.09" vector-effect="none" fill="url(#1773012782135-6186165_aj)"></path><path class="bz" d="M28.93,209.06v1.09h-1.09c-.73.36-1.46.36-2.18,0v3.27c2.18,0,3.82-.18,4.91-.55,1.09,0,1.82-.36,2.18-1.09.73-1.09.91-2.18.55-3.27v-12.01h-4.37v12.55M90.61,197.6c-1.46-.73-3.09-1.09-4.91-1.09s-3.28.36-4.37,1.09c-1.46.36-2.55,1.27-3.27,2.73-.73,1.09-1.09,2.55-1.09,4.37s.36,3.27,1.09,4.37c.73,1.46,1.82,2.55,3.27,3.28,1.09.73,2.55,1.09,4.37,1.09s3.46-.36,4.91-1.09c1.09-.73,2-1.82,2.73-3.28.73-1.09,1.09-2.55,1.09-4.37s-.36-3.27-1.09-4.37c-.73-1.46-1.64-2.36-2.73-2.73M88.97,208.51c-.73,1.09-1.82,1.64-3.27,1.64-1.09,0-2-.55-2.73-1.64-.73-.73-1.09-2-1.09-3.82s.36-3.09,1.09-3.82,1.64-1.09,2.73-1.09c1.46,0,2.55.36,3.27,1.09s1.09,2,1.09,3.82-.36,3.09-1.09,3.82M256.55,196.5v16.92h-4.37v-16.92h4.37M314.4,196.5l-3.82,4.91-3.82-4.91h-5.46l6.55,8.19-6.55,8.73h5.46l3.82-5.46,3.82,5.46h5.46l-6.55-8.73,6.55-8.19h-5.46M372.81,213.42v-3.27h-7.64v-3.82h7.1v-3.28h-7.1v-3.27h7.64v-3.27h-12.55v16.92h12.55M417.02,196.5v16.92h12.01v-3.82h-7.64v-13.1h-4.37M485.8,206.33c0-.36-.18-.73-.55-1.09-.73-.73-1.46-1.09-2.18-1.09-1.09-.36-2-.73-2.73-1.09-1.09,0-2-.18-2.73-.55-.36,0-.55-.18-.55-.55-.36,0-.55-.18-.55-.55,0-.73.36-1.09,1.09-1.09.36-.36.91-.55,1.64-.55h2.73c.73.36,1.46.91,2.18,1.64l1.64-3.28c-.73-.36-1.27-.73-1.64-1.09-1.46-.36-3.09-.55-4.91-.55-1.46,0-2.73.18-3.82.55-1.09.36-1.82.91-2.18,1.64-.73,1.09-1.09,2-1.09,2.73s.18,1.46.55,2.18c0,.36.18.73.55,1.09l2.18,1.09c.73.36,1.82.73,3.28,1.09.73,0,1.27.18,1.64.55.36,0,.73.18,1.09.55.36,0,.55.18.55.55s-.36.73-1.09,1.09-1.46.55-2.18.55c-1.82,0-3.64-.55-5.46-1.64l-1.64,3.27c.73.36,1.46.55,2.18.55,1.46.73,3.09,1.09,4.91,1.09s3.27-.18,4.37-.55c.73-.36,1.46-1.09,2.18-2.18.73-.73,1.09-1.64,1.09-2.73,0-.36-.18-.91-.55-1.64M203.6,197.6c-1.09-.73-2.55-1.09-4.37-1.09h-8.19v16.92h4.37v-6.55h3.82c1.82,0,3.27-.55,4.37-1.64,1.09-1.09,1.64-2.37,1.64-3.82s-.55-2.73-1.64-3.82M200.32,203.05c-.36.36-.91.55-1.64.55h-3.27v-3.82h3.27c.73,0,1.27.18,1.64.55s.73.73,1.09,1.09c0,.73-.36,1.27-1.09,1.64M137.55,196.5h-4.91l7.1,10.37v6.55h4.37v-6.55l7.64-10.37h-5.46l-4.37,6.55-4.37-6.55" vector-effect="none" fill="#e3ddd5"></path><path class="bv" d="M490.71,230.35c1.82,0,3-1.46,3.55-4.37.55-2.91.55-5.73,0-8.46-.55-2.73-1.73-4.09-3.55-4.09H21.29c-1.82,0-3,1.36-3.55,4.09s-.55,5.55,0,8.46,1.73,4.37,3.55,4.37h469.42" vector-effect="none" fill="url(#1773012782135-6186165_ak)"></path><path class="bu" d="M20.2,166.48v22.93h471.61v-22.93L256,15.28,20.2,166.48" vector-effect="none" fill="url(#1773012782135-6186165_al)"></path><path class="cb" d="M0,168.67l16.38,12.55L256,23.47l239.62,157.75,16.38-12.55L256,0,0,168.67" vector-effect="none" fill="#f5f1ec"></path><path class="cb" d="M16.38,188.86v7.64h479.25v-7.64L256,31.11,16.38,188.86" vector-effect="none" fill="#f5f1ec"></path><path class="ca" d="M56.77,180.67h398.46L256,45.85,56.77,180.67" vector-effect="none" fill="#ddd7cf"></path><path class="bq" d="M257.64,62.23l174.67,118.45h22.93L256,45.85,56.77,180.67h22.93L253.82,62.23c1.46-.73,2.73-.73,3.82,0" vector-effect="none" fill="url(#1773012782135-6186165_am)"></path></g></svg>