<svg data-name="Layer 1" xmlns="http://www.w3.org/2000/svg" style="" viewBox="0 0 375.47 512"><g class="nc-icon-wrapper"><defs><linearGradient id="1772947707084-9146531_b" x1="196.27" y1="10.53" x2="196.27" y2="318.96" gradientTransform="matrix(1 0 0 -1 0 514)" gradientUnits="userSpaceOnUse"><stop offset="0" stop-color="#1a1626" stop-opacity=".05"></stop><stop offset=".09" stop-color="#1a1626" stop-opacity=".07"></stop><stop offset=".67" stop-color="#1a1626" stop-opacity=".2"></stop></linearGradient><linearGradient id="1772947707084-9146531_c" x1="-6.28" y1="956.4" x2="-6.28" y2="854" gradientTransform="translate(194 -854)" gradientUnits="userSpaceOnUse"><stop offset="0" stop-color="#7e8a8f"></stop><stop offset=".02" stop-color="#9ca7ac"></stop><stop offset=".05" stop-color="#bbc6cb"></stop><stop offset=".08" stop-color="#d1dbe0"></stop><stop offset=".1" stop-color="#dee9ee"></stop><stop offset=".13" stop-color="#e3edf2"></stop><stop offset=".25" stop-color="#cfd8dd"></stop><stop offset=".47" stop-color="#ccd5da"></stop><stop offset=".62" stop-color="#c3ccd1"></stop><stop offset=".75" stop-color="#b3bdc2"></stop><stop offset=".88" stop-color="#9da8ad"></stop><stop offset=".99" stop-color="#808c91"></stop><stop offset="1" stop-color="#7e8a8f"></stop></linearGradient><linearGradient id="1772947707084-9146531_d" x1="-6.28" y1="887.02" x2="-6.28" y2="859.68" gradientTransform="translate(194 -854)" gradientUnits="userSpaceOnUse"><stop offset="0" stop-color="#d9e3e8"></stop><stop offset=".16" stop-color="#d5dfe3"></stop><stop offset=".34" stop-color="#c7d1d6"></stop><stop offset=".53" stop-color="#b2bbc0"></stop><stop offset=".72" stop-color="#939da1"></stop><stop offset=".92" stop-color="#6c7679"></stop><stop offset="1" stop-color="#5a6366"></stop></linearGradient></defs><path class="k" d="M375.47,477.87c0,18.76-14.75,34.13-32.77,34.13H32.77c-18.01,0-32.77-15.37-32.77-34.13V76.82c0-18.76,14.75-34.13,32.77-34.13h309.93c18.01,0,32.77,15.37,32.77,34.13v401.05Z" fill="#b47d56"></path><path class="g" d="M360.65 503.47L31.88 503.47 31.88 438.9 347.49 195.04 360.65 503.47z" fill="url(#1772947707084-9146531_b)"></path><path class="j" d="M28.1,81.08s2.7,199.66-2.48,409.58h324.25c-2.94-209.92-2.48-409.58-2.48-409.58,0,0-319.28,0-319.28,0Z" fill="#fff"></path><path class="i" d="M136.53 162.13H307.2V170.66H136.53z" fill="#6e8189"></path><path class="i" d="M136.53 247.47H307.2V256H136.53z" fill="#6e8189"></path><path class="i" d="M136.53 332.8H307.2V341.33H136.53z" fill="#6e8189"></path><path class="i" d="M136.53 418.13H307.2V426.65999999999997H136.53z" fill="#6e8189"></path><path class="h" d="M113.06,77.53s.37-16.15,10.21-19.75c5.38-1.96,40.15-13.01,40.15-13.01,0,0,2.45,32.08-50.36,32.76Z" fill="#b3c2c6"></path><path class="h" d="M262.38,77.53s-.37-16.15-10.21-19.75c-5.37-1.96-40.13-13.01-40.13-13.01,0,0-2.45,32.08,50.35,32.76Z" fill="#b3c2c6"></path><path class="i" d="M102.18,63.79c-1.07-2.78,3.92-3.52,5.49-2.3,6.23,4.88,9.78,7.17,10.93,7.19,20.6.3,22.14-2.55,23.55.65-39.79,14.8-31.12,17.35-39.97-5.53Z" fill="#6e8189"></path><path class="i" d="M273.26,63.82c1.07-2.78-3.92-3.52-5.47-2.3-6.23,4.88-9.78,7.15-10.95,7.17-20.6.3-22.14-2.55-23.53.63,39.79,14.83,31.12,17.38,39.95-5.5Z" fill="#6e8189"></path><path class="f" d="M273.26,76.22c-12.45-2.29-36.83-7.03-38.23-7.03-1.05,0-2.95-1.9-2.95-2.94v-26.72c0-3.46-14.13-9.42-17.25-13.76-4.93-6.95-6.82-25.77-27.11-25.77s-22.17,18.82-27.12,25.77c-3.1,4.36-17.25,10.3-17.25,13.76v26.72c0,1.03-1.9,2.94-2.94,2.94-1.42,0-25.78,4.77-38.25,7.03-13.15,2.43-16.85,26.18-16.85,26.18h204.79s-3.7-23.75-16.85-26.18ZM187.72,32.15c-7.07,0-12.8-5.72-12.8-12.8s5.73-12.8,12.8-12.8,12.8,5.72,12.8,12.8-5.72,12.8-12.8,12.8Z" fill="url(#1772947707084-9146531_c)"></path><path class="e" d="M187.72,5.68c-7.55,0-13.65,6.14-13.65,13.67s6.1,13.67,13.65,13.67,13.65-6.14,13.65-13.67-6.1-13.67-13.65-13.67ZM187.72,29.12c-5.4,0-9.77-4.37-9.77-9.78s4.37-9.77,9.77-9.77,9.78,4.39,9.78,9.77c0,5.41-4.36,9.78-9.78,9.78Z" fill="url(#1772947707084-9146531_d)"></path><path class="i" d="M115.2,140.8v42.67h-42.67v-42.67h42.67M119.47,136.53h-51.2v51.2h51.2v-51.2h0Z" fill="#6e8189"></path><path class="i" d="M115.2,226.13v42.67h-42.67v-42.67h42.67M119.47,221.87h-51.2v51.2h51.2v-51.2h0Z" fill="#6e8189"></path><path class="i" d="M115.2,311.47v42.67h-42.67v-42.67h42.67M119.47,307.2h-51.2v51.2h51.2v-51.2h0Z" fill="#6e8189"></path><path class="i" d="M115.2,396.8v42.67h-42.67v-42.67h42.67M119.47,392.53h-51.2v51.2h51.2v-51.2h0Z" fill="#6e8189"></path><path class="l" d="M129.76,138.74c-8.6,2.64-25.6,10.86-34.4,30.39,0,0-7.01-9.32-13.24-11.82-1.77-.07-6.25.33-9.27,3.65,0,0,8.85,2.53,22.03,22.57,3.18-2.15,8.58-5.53,8.58-5.53,7.25-22.89,20.92-33.52,27.72-37.8-.47-.51-.93-1.01-1.43-1.46Z" fill="#e81c27"></path></g></svg>