<svg data-name="Layer 1" xmlns="http://www.w3.org/2000/svg" style="" viewBox="0 0 512 512"><g class="nc-icon-wrapper"><defs><linearGradient id="1772947707087-7516035_b" x1="71.45" y1="452.54" x2="434.69" y2="89.3" gradientTransform="matrix(1 0 0 -1 0 524)" gradientUnits="userSpaceOnUse"><stop offset="0" stop-color="#4e585e"></stop><stop offset=".12" stop-color="#464d55"></stop><stop offset=".4" stop-color="#3a3b47"></stop><stop offset=".68" stop-color="#32303e"></stop><stop offset="1" stop-color="#302c3b"></stop></linearGradient><linearGradient id="1772947707087-7516035_c" x1="67.25" y1="461.07" x2="447.22" y2="81.1" gradientTransform="matrix(1 0 0 -1 0 524)" gradientUnits="userSpaceOnUse"><stop offset="0" stop-color="#4e585e"></stop><stop offset=".12" stop-color="#464d55"></stop><stop offset=".4" stop-color="#3a3b47"></stop><stop offset=".68" stop-color="#32303e"></stop><stop offset="1" stop-color="#302c3b"></stop></linearGradient></defs><path class="e" d="M256,0C114.82,0,0,114.86,0,256s114.82,256,256,256,256-114.84,256-256S397.16,0,256,0ZM256,460.82c-112.94,0-204.82-91.88-204.82-204.82S143.06,51.22,256,51.22s204.78,91.86,204.78,204.78-91.86,204.82-204.78,204.82Z" fill="url(#1772947707087-7516035_b)"></path><path class="d" d="M128.04,255.99c0-74.89,55.94-133.11,133.57-133.11,57.23,0,106.12,35.25,121.88,86.69,1.54,5.95-1.57,9.8-7.52,9.8h-35.62c-4.84,0-7.78-2.39-9.88-6.87-11.44-24.9-37.99-40.55-68.86-40.55-50.26,0-83.2,34.79-83.2,84.05s32.94,84.05,83.2,84.05c30.87,0,57.42-15.66,68.86-40.56,2.1-4.49,5.04-6.87,9.88-6.87h35.62c5.95,0,9.16,3.57,7.6,9.07-15.2,51.53-64.36,87.43-121.96,87.43-77.63,0-133.57-58.23-133.57-133.13Z" fill="url(#1772947707087-7516035_c)"></path></g></svg>