<svg data-name="Layer 1" xmlns="http://www.w3.org/2000/svg" style="" viewBox="0 0 477.87 512"><g class="nc-icon-wrapper"><defs><linearGradient id="1772947707089-7128575_b" x1="117.84" y1="110.56" x2="182.17" y2="581.39" gradientTransform="matrix(1 0 0 -1 0 514)" gradientUnits="userSpaceOnUse"><stop offset=".36" stop-color="#0fb4d4"></stop><stop offset=".86" stop-color="#0fb4d4" stop-opacity="0"></stop></linearGradient><linearGradient id="1772947707089-7128575_c" x1="206.32" y1="98.48" x2="270.66" y2="569.29" gradientTransform="matrix(1 0 0 -1 0 514)" gradientUnits="userSpaceOnUse"><stop offset=".36" stop-color="#0fb4d4"></stop><stop offset=".86" stop-color="#0fb4d4" stop-opacity="0"></stop></linearGradient><linearGradient id="1772947707089-7128575_d" x1="286.6" y1="87.51" x2="350.93" y2="558.32" gradientTransform="matrix(1 0 0 -1 0 514)" gradientUnits="userSpaceOnUse"><stop offset=".36" stop-color="#0fb4d4"></stop><stop offset=".86" stop-color="#0fb4d4" stop-opacity="0"></stop></linearGradient><linearGradient id="1772947707089-7128575_e" x1="168.42" y1="5.5" x2="168.42" y2="319.96" gradientTransform="matrix(.99546 -.09515 -.19627 -.9858 107.69 513.11)" gradientUnits="userSpaceOnUse"><stop offset="0" stop-color="#e6ebed"></stop><stop offset=".51" stop-color="#dbe2e5"></stop><stop offset="1" stop-color="#ccd5d9"></stop></linearGradient><linearGradient id="1772947707089-7128575_f" x1="166.19" y1="5.5" x2="166.19" y2="247.55" gradientTransform="matrix(.99546 -.09515 -.19627 -.9858 107.69 513.11)" gradientUnits="userSpaceOnUse"><stop offset="0" stop-color="#e6ebed"></stop><stop offset=".26" stop-color="#e3e9eb"></stop><stop offset=".45" stop-color="#dae1e4"></stop><stop offset=".58" stop-color="#cfd8dd"></stop></linearGradient><linearGradient id="1772947707089-7128575_g" x1="168.58" y1="116.24" x2="168.58" y2="883.02" gradientTransform="matrix(.99546 -.09515 -.19627 -.9858 107.69 513.11)" gradientUnits="userSpaceOnUse"><stop offset="0" stop-color="#b9c2c7"></stop><stop offset=".05" stop-color="#c2cacf"></stop><stop offset=".2" stop-color="#dce2e5"></stop><stop offset=".3" stop-color="#e6ebed"></stop></linearGradient><linearGradient id="1772947707089-7128575_h" x1="168.58" y1="108.95" x2="168.58" y2="319.96" gradientTransform="matrix(.99546 -.09515 -.19627 -.9858 107.69 513.11)" gradientUnits="userSpaceOnUse"><stop offset="0" stop-color="#e6ebed"></stop><stop offset=".58" stop-color="#e3e9ec"></stop><stop offset="1" stop-color="#dae3e8"></stop></linearGradient></defs><path class="o" d="M126.96,33.94C48.53,96.53,31.93,193.74,72.82,294.25c50.4,15.69,100.8,31.39,151.2,47.09C110.24,235.59,72.14,114.94,126.96,33.94Z" fill="url(#1772947707089-7128575_b)"></path><path class="n" d="M190.51,0c-68.63,76.22-70.2,173.9-13.87,263.5,52.74,5.34,105.46,10.68,158.19,16.03C204.95,199.18,148.28,89.46,190.51,0Z" fill="url(#1772947707089-7128575_c)"></path><path class="m" d="M299.92,226.78c49.36-3.48,85.16-12.87,126.75-12.16-96.47-26.69-191.98-80.5-200.62-139.77-21.24,48.52,21.23,113.59,73.87,151.93Z" fill="url(#1772947707089-7128575_d)"></path><path class="l" d="M477.87,447.67l-416.42,64.33L0,201.98c242.64,44.19,430.62-14.24,430.62-14.24l47.25,259.93Z" fill="url(#1772947707089-7128575_e)"></path><path class="p" d="M243.51,241.78L61.45,512c216.06-91.74,416.42-64.33,416.42-64.33l-234.36-205.88Z" fill="#99a8ae"></path><path class="k" d="M245.3 251.26L61.45 512 477.87 447.67 245.3 251.26z" fill="url(#1772947707089-7128575_f)"></path><path class="p" d="M262.81,393.59L0,201.98c249.6,47.37,430.62-14.24,430.62-14.24l-149.46,203.7c-4.22,5.79-12.08,6.72-18.35,2.16Z" fill="#99a8ae"></path><path class="j" d="M261.5,385.38L0,201.98l430.62-14.24-151.23,195.59c-4.22,5.48-11.78,6.36-17.89,2.06Z" fill="url(#1772947707089-7128575_g)"></path><path class="i" d="M261.5,385.38L0,201.98l430.62-14.24-151.23,195.59c-4.22,5.48-11.78,6.36-17.89,2.06Z" fill="url(#1772947707089-7128575_h)"></path></g></svg>