<svg data-name="Layer 1" xmlns="http://www.w3.org/2000/svg" style="" viewBox="0 0 548.57 512"><g class="nc-icon-wrapper"><defs><linearGradient id="1772947707088-7846300_b" x1="274.29" y1="2" x2="274.29" y2="331.14" gradientTransform="matrix(1 0 0 -1 0 514)" gradientUnits="userSpaceOnUse"><stop offset="0" stop-color="#e6ebed"></stop><stop offset=".51" stop-color="#dbe2e5"></stop><stop offset="1" stop-color="#ccd5d9"></stop></linearGradient><linearGradient id="1772947707088-7846300_c" x1="274.29" y1="2" x2="274.29" y2="265.31" gradientTransform="matrix(1 0 0 -1 0 514)" gradientUnits="userSpaceOnUse"><stop offset="0" stop-color="#e6ebed"></stop><stop offset=".26" stop-color="#e3e9eb"></stop><stop offset=".45" stop-color="#dae1e4"></stop><stop offset=".58" stop-color="#cfd8dd"></stop></linearGradient><linearGradient id="1772947707088-7846300_d" x1="274.29" y1="114.07" x2="274.29" y2="930.99" gradientTransform="matrix(1 0 0 -1 0 514)" gradientUnits="userSpaceOnUse"><stop offset="0" stop-color="#b9c2c7"></stop><stop offset=".05" stop-color="#c2cacf"></stop><stop offset=".2" stop-color="#dce2e5"></stop><stop offset=".3" stop-color="#e6ebed"></stop></linearGradient><linearGradient id="1772947707088-7846300_e" x1="274.29" y1="106.34" x2="274.29" y2="331.14" gradientTransform="matrix(1 0 0 -1 0 514)" gradientUnits="userSpaceOnUse"><stop offset="0" stop-color="#e6ebed"></stop><stop offset=".58" stop-color="#e3e9ec"></stop><stop offset="1" stop-color="#dae3e8"></stop></linearGradient><linearGradient id="1772947707088-7846300_f" x1="44.29" y1="826.72" x2="44.29" y2="1101" gradientTransform="matrix(0 1 1 0 -689.57 92.85)" gradientUnits="userSpaceOnUse"><stop offset="0" stop-color="#ff000e"></stop><stop offset="1" stop-color="#cf0000"></stop></linearGradient></defs><path class="k" d="M0 182.86H548.57V512H0z" fill="url(#1772947707088-7846300_b)"></path><path class="l" d="M274.29 237.71L0 512 548.57 512 274.29 237.71z" fill="#99a8ae"></path><path class="j" d="M274.29 248.69L0 512 548.57 512 274.29 248.69z" fill="url(#1772947707088-7846300_c)"></path><path class="l" d="M262.22,412.91L0,182.86h548.57l-262.23,230.05c-6.9,6.05-17.22,6.05-24.13,0Z" fill="#99a8ae"></path><path class="i" d="M262.52,403.37L0,182.86h548.57l-262.53,220.52c-6.81,5.71-16.72,5.71-23.52,0Z" fill="url(#1772947707088-7846300_d)"></path><path class="h" d="M262.52,403.37L0,182.86h548.57l-262.53,220.52c-6.81,5.71-16.72,5.71-23.52,0Z" fill="url(#1772947707088-7846300_e)"></path><path class="g" d="M274.3 274.29L411.43 135.66 349.21 135.66 349.21 0 199.38 0 199.38 135.66 137.14 135.66 274.3 274.29z" fill="url(#1772947707088-7846300_f)"></path></g></svg>