<svg data-name="Layer 1" xmlns="http://www.w3.org/2000/svg" style="" viewBox="0 0 479.92 512"><g class="nc-icon-wrapper"><defs><linearGradient id="1773013515332-6930080_b" x1="239.96" y1="34.07" x2="239.96" y2="512.38" gradientTransform="matrix(1 0 0 -1 0 513.99)" gradientUnits="userSpaceOnUse"><stop offset="0" stop-color="#ff9500"></stop><stop offset=".19" stop-color="#ffad00"></stop><stop offset=".55" stop-color="#ffd500"></stop><stop offset=".83" stop-color="#ffed00"></stop><stop offset="1" stop-color="#fff600"></stop></linearGradient><linearGradient id="1773013515332-6930080_c" x1="240.8" y1="2.07" x2="240.8" y2="191" gradientTransform="matrix(1 0 0 -1 0 513.99)" gradientUnits="userSpaceOnUse"><stop offset=".29" stop-color="#e0e8ed"></stop><stop offset=".43" stop-color="#dde5ea" stop-opacity=".8"></stop><stop offset=".53" stop-color="#d5dce1" stop-opacity=".66"></stop><stop offset=".62" stop-color="#c6ccd3" stop-opacity=".53"></stop><stop offset=".7" stop-color="#b1b6be" stop-opacity=".42"></stop><stop offset=".78" stop-color="#9699a2" stop-opacity=".31"></stop><stop offset=".85" stop-color="#747681" stop-opacity=".2"></stop><stop offset=".92" stop-color="#4d4c59" stop-opacity=".11"></stop><stop offset=".99" stop-color="#201d2c" stop-opacity=".01"></stop><stop offset="1" stop-color="#1a1626" stop-opacity="0"></stop></linearGradient><radialGradient id="1773013515332-6930080_d" cx="239.96" cy="232.86" fx="239.96" fy="232.86" r="6.88" gradientTransform="matrix(8 0 0 -8 -1679.44 2319.6)" gradientUnits="userSpaceOnUse"><stop offset=".51" stop-color="#fff"></stop><stop offset=".92" stop-color="#fff" stop-opacity="0"></stop></radialGradient><radialGradient id="1773013515332-6930080_e" cx="247.71" cy="232.27" fx="247.71" fy="232.27" r="3.73" gradientTransform="matrix(8 0 0 -8 -1679.44 2319.6)" gradientUnits="userSpaceOnUse"><stop offset=".51" stop-color="#fff"></stop><stop offset=".92" stop-color="#fff" stop-opacity="0"></stop></radialGradient><radialGradient id="1773013515332-6930080_f" cx="245.65" cy="236.84" fx="245.65" fy="236.84" r="3.39" gradientTransform="matrix(8 0 0 -8 -1679.44 2319.6)" gradientUnits="userSpaceOnUse"><stop offset=".51" stop-color="#fff"></stop><stop offset=".92" stop-color="#fff" stop-opacity="0"></stop></radialGradient><radialGradient id="1773013515332-6930080_g" cx="233.27" cy="236.84" fx="233.27" fy="236.84" r="4.58" gradientTransform="matrix(8 0 0 -8 -1679.44 2319.6)" gradientUnits="userSpaceOnUse"><stop offset=".51" stop-color="#fff"></stop><stop offset=".92" stop-color="#fff" stop-opacity="0"></stop></radialGradient><radialGradient id="1773013515332-6930080_h" cx="232.72" cy="231.6" fx="232.72" fy="231.6" r="3.39" gradientTransform="matrix(8 0 0 -8 -1679.44 2319.6)" gradientUnits="userSpaceOnUse"><stop offset=".51" stop-color="#fff"></stop><stop offset=".92" stop-color="#fff" stop-opacity="0"></stop></radialGradient><linearGradient id="1773013515332-6930080_i" x1="239.96" y1="63.26" x2="239.96" y2="191" gradientTransform="matrix(1 0 0 -1 0 513.99)" gradientUnits="userSpaceOnUse"><stop offset="0" stop-color="#fff"></stop><stop offset=".25" stop-color="#fdfdfd" stop-opacity=".75"></stop><stop offset=".39" stop-color="#f5f4f5" stop-opacity=".61"></stop><stop offset=".5" stop-color="#e7e7e8" stop-opacity=".5"></stop><stop offset=".6" stop-color="#d4d3d6" stop-opacity=".4"></stop><stop offset=".69" stop-color="#bbb9be" stop-opacity=".31"></stop><stop offset=".78" stop-color="#9c9aa1" stop-opacity=".22"></stop><stop offset=".85" stop-color="#77747e" stop-opacity=".15"></stop><stop offset=".93" stop-color="#4d4956" stop-opacity=".07"></stop><stop offset=".99" stop-color="#1e1a2a" stop-opacity="0"></stop><stop offset="1" stop-color="#1a1626" stop-opacity="0"></stop></linearGradient></defs><path class="q" d="M239.96,0c132.54,0,239.96,107.42,239.96,239.96s-107.42,239.96-239.96,239.96S0,372.5,0,239.96,107.42,0,239.96,0Z" fill="url(#1773013515332-6930080_b)"></path><path class="s" d="M286.76,356.66c2.96-23.36-17.52-49.35-46.71-49.35s-49.99,26.16-46.71,49.35c3.12,22,24.56,8.16,46.71,8.24,22.96,0,43.91,13.84,46.71-8.24Z" fill="#1a1626"></path><path class="s" d="M197.89,187.01c-20.32,21.36-62.31,30-90.79,16-6.64-3.2-15.76,1.44-12.72,6,31.04,46.71,104.46,33.67,117.58-20.72,1.28-5.36-9.04-6.64-14.08-1.28Z" fill="#1a1626"></path><path class="s" d="M282.04,187.01c20.32,21.36,62.31,30,90.87,16,6.56-3.2,15.76,1.44,12.72,6-31.04,46.71-104.38,33.67-117.58-20.72-1.36-5.36,8.96-6.64,14-1.28Z" fill="#1a1626"></path><path class="r" d="M94.87,102.46c-73.99,52.95-23.36,58.55,44.55,21.52,38.39-20.96,4.16-56.39-44.55-21.52Z" fill="#d69600"></path><path class="r" d="M385.06,102.62c-48.71-34.87-82.95.56-44.55,21.52,67.91,37.03,118.46,31.44,44.55-21.52Z" fill="#d69600"></path><path class="p" d="M311.15,433.45c.88-2.64,1.44-5.44,1.44-8.32,0-14.96-12.16-27.12-27.12-27.12-3.12,0-6.08.64-8.88,1.6l-23.12-76.63h-27.04l-21.36,70.79c-5.52-3.28-11.84-5.28-18.64-5.28-20.24,0-36.63,16.4-36.63,36.63,0,10,4.08,19.12,10.56,25.76-3.44,4.56-5.52,10.16-5.52,16.24,0,14.96,12.16,27.12,27.12,27.12,5.2,0,10.08-1.52,14.16-4.08,10.16,13.2,26,21.76,43.83,21.76,19.36,0,36.31-10,46.15-25.12,4.64,2.88,10,4.64,15.84,4.64,16.48,0,29.84-13.36,29.84-29.84,0-13.2-8.72-24.24-20.64-28.16Z" fill="url(#1773013515332-6930080_c)"></path><circle class="o" cx="239.96" cy="456.97" r="55.03" fill="url(#1773013515332-6930080_d)"></circle><path class="n" d="M331.79,461.69c0,16.48-13.36,29.84-29.84,29.84s-29.84-13.36-29.84-29.84,13.36-29.84,29.84-29.84,29.84,13.36,29.84,29.84Z" fill="url(#1773013515332-6930080_e)"></path><circle class="m" cx="285.48" cy="425.13" r="27.12" fill="url(#1773013515332-6930080_f)"></circle><path class="l" d="M223.09,425.13c0,20.24-16.4,36.63-36.63,36.63s-36.63-16.4-36.63-36.63,16.4-36.63,36.63-36.63,36.63,16.4,36.63,36.63Z" fill="url(#1773013515332-6930080_g)"></path><path class="k" d="M209.17,467.13c0,14.96-12.16,27.12-27.12,27.12s-27.12-12.16-27.12-27.12,12.08-27.2,27.12-27.2,27.12,12.16,27.12,27.2Z" fill="url(#1773013515332-6930080_h)"></path><path class="j" d="M285.48 450.73L194.45 450.73 226.44 322.99 253.48 322.99 285.48 450.73z" fill="url(#1773013515332-6930080_i)"></path><path class="t" d="M210.61,449.37c-2.96,5.84-18.56-26.96,26.16-125.66-29.28,88.23-16.96,107.66-26.16,125.66Z" style="isolation:isolate" fill="#fff" opacity=".3"></path><path class="t" d="M226.2,445.61c1.04,4.8,25.92-16.88,14.24-97.42.32,70.15-17.36,82.55-14.24,97.42Z" style="isolation:isolate" fill="#fff" opacity=".3"></path><path class="t" d="M230.52,498.48c-5.84-.4,68.47-30,16.16-162.13,46.47,87.19,29.84,165.01-16.16,162.13Z" style="isolation:isolate" fill="#fff" opacity=".3"></path></g></svg>