<svg xmlns="http://www.w3.org/2000/svg" style="" viewBox="0 0 778.62 512"><g class="nc-icon-wrapper"><defs><linearGradient id="1772947707092-5882103_b" x1="-1486.12" y1="-1228.05" x2="-1485.33" y2="-1228.05" gradientTransform="scale(976.56 -976.56) rotate(-.13 540402.137 -655595.197)" gradientUnits="userSpaceOnUse"><stop offset="0" stop-color="#000096"></stop><stop offset=".02" stop-color="#000096"></stop><stop offset=".04" stop-color="#06069c"></stop><stop offset=".12" stop-color="#1f1fb5"></stop><stop offset=".2" stop-color="#2f2fc4"></stop><stop offset=".27" stop-color="#3434c9"></stop><stop offset=".32" stop-color="#2020b6"></stop><stop offset=".4" stop-color="#09099f"></stop><stop offset=".45" stop-color="#000096"></stop><stop offset=".57" stop-color="#0f0fa5"></stop><stop offset=".79" stop-color="#3434c9"></stop><stop offset=".86" stop-color="#3131c6"></stop><stop offset=".91" stop-color="#2727bd"></stop><stop offset=".96" stop-color="#1717ad"></stop><stop offset="1" stop-color="#000096"></stop><stop offset="1" stop-color="#000096"></stop></linearGradient><linearGradient id="1772947707092-5882103_c" x1="-1486.12" y1="-1228.05" x2="-1485.33" y2="-1228.05" gradientTransform="scale(976.56 -976.56) rotate(-.13 540402.083 -655595.198)" gradientUnits="userSpaceOnUse"><stop offset="0" stop-color="#e6e6f0"></stop><stop offset=".02" stop-color="#e6e6f0"></stop><stop offset=".05" stop-color="#eaeaf3"></stop><stop offset=".17" stop-color="#fafafc"></stop><stop offset=".27" stop-color="#fff"></stop><stop offset=".36" stop-color="#efeff5"></stop><stop offset=".45" stop-color="#e6e6f0"></stop><stop offset=".67" stop-color="#f5f5f9"></stop><stop offset=".79" stop-color="#fff"></stop><stop offset=".88" stop-color="#fcfcfd"></stop><stop offset=".95" stop-color="#f2f2f7"></stop><stop offset="1" stop-color="#e6e6f0"></stop></linearGradient><linearGradient id="1772947707092-5882103_d" x1="-1486.12" y1="-1228.09" x2="-1485.33" y2="-1228.09" gradientTransform="scale(975.59 -975.59) rotate(-.13 540482.385 -655595.225)" gradientUnits="userSpaceOnUse"><stop offset="0" stop-color="#e0000c"></stop><stop offset=".02" stop-color="#e0000c"></stop><stop offset=".08" stop-color="#eb1923"></stop><stop offset=".15" stop-color="#f6323b"></stop><stop offset=".21" stop-color="#fd4249"></stop><stop offset=".27" stop-color="#ff474e"></stop><stop offset=".27" stop-color="#ff474e"></stop><stop offset=".34" stop-color="#ee202a"></stop><stop offset=".41" stop-color="#e40914"></stop><stop offset=".45" stop-color="#e0000c"></stop><stop offset=".54" stop-color="#e70f1a"></stop><stop offset=".73" stop-color="#f8373f"></stop><stop offset=".79" stop-color="#ff474e"></stop><stop offset=".85" stop-color="#fe444b"></stop><stop offset=".9" stop-color="#f93a42"></stop><stop offset=".94" stop-color="#f22a33"></stop><stop offset=".98" stop-color="#e8131e"></stop><stop offset="1" stop-color="#e0000c"></stop></linearGradient><linearGradient id="1772947707092-5882103_e" x1="-1486.12" y1="-1228.09" x2="-1485.33" y2="-1228.09" gradientTransform="scale(975.59 -975.59) rotate(-.13 540497.406 -655595.244)" gradientUnits="userSpaceOnUse"><stop offset="0" stop-color="#e0000c"></stop><stop offset=".02" stop-color="#e0000c"></stop><stop offset=".08" stop-color="#eb1923"></stop><stop offset=".15" stop-color="#f6323b"></stop><stop offset=".21" stop-color="#fd4249"></stop><stop offset=".27" stop-color="#ff474e"></stop><stop offset=".27" stop-color="#ff474e"></stop><stop offset=".34" stop-color="#ee202a"></stop><stop offset=".41" stop-color="#e40914"></stop><stop offset=".45" stop-color="#e0000c"></stop><stop offset=".54" stop-color="#e70f1a"></stop><stop offset=".73" stop-color="#f8373f"></stop><stop offset=".79" stop-color="#ff474e"></stop><stop offset=".85" stop-color="#fe444b"></stop><stop offset=".9" stop-color="#f93a42"></stop><stop offset=".94" stop-color="#f22a33"></stop><stop offset=".98" stop-color="#e8131e"></stop><stop offset="1" stop-color="#e0000c"></stop></linearGradient><linearGradient id="1772947707092-5882103_f" x1="-1486.12" y1="-1228.01" x2="-1485.33" y2="-1228.01" gradientTransform="scale(975.59 -975.59) rotate(-.13 540321.782 -655595.045)" gradientUnits="userSpaceOnUse"><stop offset="0" stop-color="#e0000c"></stop><stop offset=".02" stop-color="#e0000c"></stop><stop offset=".08" stop-color="#eb1923"></stop><stop offset=".15" stop-color="#f6323b"></stop><stop offset=".21" stop-color="#fd4249"></stop><stop offset=".27" stop-color="#ff474e"></stop><stop offset=".27" stop-color="#ff474e"></stop><stop offset=".34" stop-color="#ee202a"></stop><stop offset=".41" stop-color="#e40914"></stop><stop offset=".45" stop-color="#e0000c"></stop><stop offset=".54" stop-color="#e70f1a"></stop><stop offset=".73" stop-color="#f8373f"></stop><stop offset=".79" stop-color="#ff474e"></stop><stop offset=".85" stop-color="#fe444b"></stop><stop offset=".9" stop-color="#f93a42"></stop><stop offset=".94" stop-color="#f22a33"></stop><stop offset=".98" stop-color="#e8131e"></stop><stop offset="1" stop-color="#e0000c"></stop></linearGradient><linearGradient id="1772947707092-5882103_g" x1="-1486.12" y1="-1228" x2="-1485.33" y2="-1228" gradientTransform="scale(975.59 -975.59) rotate(-.13 540303.26 -655591.466)" gradientUnits="userSpaceOnUse"><stop offset="0" stop-color="#e0000c"></stop><stop offset=".02" stop-color="#e0000c"></stop><stop offset=".08" stop-color="#eb1923"></stop><stop offset=".15" stop-color="#f6323b"></stop><stop offset=".21" stop-color="#fd4249"></stop><stop offset=".27" stop-color="#ff474e"></stop><stop offset=".27" stop-color="#ff474e"></stop><stop offset=".34" stop-color="#ee202a"></stop><stop offset=".41" stop-color="#e40914"></stop><stop offset=".45" stop-color="#e0000c"></stop><stop offset=".54" stop-color="#e70f1a"></stop><stop offset=".73" stop-color="#f8373f"></stop><stop offset=".79" stop-color="#ff474e"></stop><stop offset=".85" stop-color="#fe444b"></stop><stop offset=".9" stop-color="#f93a42"></stop><stop offset=".94" stop-color="#f22a33"></stop><stop offset=".98" stop-color="#e8131e"></stop><stop offset="1" stop-color="#e0000c"></stop></linearGradient><linearGradient id="1772947707092-5882103_h" x1="-1486.12" y1="-1228.05" x2="-1485.33" y2="-1228.05" gradientTransform="scale(976.56 -976.56) rotate(-.13 540402.083 -655595.198)" gradientUnits="userSpaceOnUse"><stop offset="0" stop-color="#e0000c"></stop><stop offset=".02" stop-color="#e0000c"></stop><stop offset=".08" stop-color="#eb1923"></stop><stop offset=".15" stop-color="#f6323b"></stop><stop offset=".21" stop-color="#fd4249"></stop><stop offset=".27" stop-color="#ff474e"></stop><stop offset=".27" stop-color="#ff474e"></stop><stop offset=".34" stop-color="#ee202a"></stop><stop offset=".41" stop-color="#e40914"></stop><stop offset=".45" stop-color="#e0000c"></stop><stop offset=".54" stop-color="#e70f1a"></stop><stop offset=".73" stop-color="#f8373f"></stop><stop offset=".79" stop-color="#ff474e"></stop><stop offset=".85" stop-color="#fe444b"></stop><stop offset=".9" stop-color="#f93a42"></stop><stop offset=".94" stop-color="#f22a33"></stop><stop offset=".98" stop-color="#e8131e"></stop><stop offset="1" stop-color="#e0000c"></stop></linearGradient></defs><path class="o" d="M1,39.44l-.31,139.19c15.52,12.47,25.86,25.46,31.01,38.95s6.94,26.45,5.36,38.89c-1.58,12.43-4.85,23.84-9.8,34.19-4.94,10.36-10.02,19.03-15.22,26.01-5.2,6.99-8.84,11.52-10.92,13.58-.52.52-.78.78-.78.78l-.23,101.08c13.99,3.66,27.84,8.1,41.57,13.31,13.72,5.21,27.32,11.21,40.78,17.98,0,0,9.07-1.01,27.22-3.05,18.14-2.03,44.07-2.75,77.76-2.16,33.7.59,73.87,4.83,120.5,12.71,19.73-12.39,38.66-18.58,56.81-18.54s34.6,3.32,49.35,9.83c14.76,6.51,26.92,13.41,36.5,20.69,9.57,7.28,15.65,12.22,18.24,14.81l.78.78c23.83,3.68,47.67,6.72,71.52,9.1,23.84,2.39,47.68,3.61,71.53,3.66l21,.05c23.85-3.06,47.84-7.67,71.96-13.84,24.12-6.16,48.12-14.66,71.98-25.5l.31-139.19c-.52,0-3.88-3.12-10.08-9.35s-11.89-15.58-17.05-28.03c-5.16-12.45-6.41-28.27-3.78-47.44,2.64-19.18,13.06-41.7,31.25-67.58l.23-101.08c-13.98-3.66-27.84-8.1-41.57-13.31s-27.32-11.21-40.78-17.98c-37.86,5.62-75.45,7.35-112.76,5.19-37.32-2.15-74.9-6.39-112.72-12.69-18.69,10.84-36.97,16.12-54.86,15.82-17.88-.3-34.34-3.45-49.35-9.44s-27.45-12.37-37.29-19.14c-9.83-6.76-16.04-11.18-18.63-13.26-1.03-1.04-1.55-1.56-1.55-1.56-27.47-4.21-54.81-7.51-82.02-9.91C199.76.62,172.42-.35,144.95.11c-23.85,3.06-47.84,7.67-71.97,13.84C48.87,20.11,24.87,28.61,1,39.44" fill="url(#1772947707092-5882103_b)"></path><path class="n" d="M778.62,27.97c-26.97,9.27-54.47,15.95-82.47,20.03-37.91,28.95-75.55,53.87-112.92,74.79-37.38,20.91-75,40.14-112.88,57.67l.31-139.97c-26.95-4.21-53.9-8.8-80.85-13.79-26.94-4.98-53.89-9.58-80.84-13.79l-.23,101.87c-27.43-21.31-54.73-41.73-81.9-61.23C199.69,34.06,172.38,16.24,144.95.11c-23.85.98-47.83,3.39-71.95,7.23C48.89,11.17,24.9,17.46,1.03,26.22l-.03,13.22c37.31,9.93,74.72,25.18,112.26,45.74,37.55,20.56,75.2,43.84,112.98,69.85-37.83-3.2-75.54-3.41-113.14-.64-37.59,2.77-75.06,10.84-112.42,24.24l-.34,152.41c27.5-9.79,54.86-16.6,82.08-20.42,27.22-3.82,54.32-5.71,81.27-5.65C104.52,341.64,49.99,384.03.12,432.13l-.12,51.32c26.98-9.27,54.47-15.95,82.47-20.03,37.9-28.95,75.54-53.87,112.92-74.79,37.37-20.91,74.99-40.14,112.88-57.67l-.31,139.97c26.94,4.21,53.9,8.81,80.84,13.79,26.95,4.98,53.89,9.58,80.85,13.79l.23-101.87c27.42,21.31,54.72,41.73,81.89,61.23,27.17,19.5,54.48,37.32,81.92,53.45,23.85-.98,47.83-3.4,71.94-7.23,24.12-3.83,48.11-10.13,71.97-18.89l.03-13.22c-37.3-9.93-74.72-25.18-112.26-45.74-37.54-20.56-75.2-43.84-112.98-69.85,37.84,3.2,75.55,3.41,113.14.64,37.59-2.77,75.06-10.84,112.42-24.24l.34-152.41c-27.49,9.79-54.85,16.6-82.08,20.42-27.22,3.82-54.32,5.71-81.27,5.65,59.17-36.67,113.7-79.06,163.58-127.16l.12-51.32" fill="url(#1772947707092-5882103_c)"></path><path class="m" d="M778.62,27.97c-18.15,6.18-36.57,11.32-55.24,15.43-41.03,34.12-82.05,63.06-123.06,86.82-41.01,23.76-82.01,45.18-123.01,64.27,8.81,1.05,17.89,2.25,27.21,3.56,9.33,1.32,18.4,2.5,27.21,3.56,41.52-21.16,82.79-45.43,123.81-72.82,41.01-27.39,82.04-60.98,123.08-100.81" fill="url(#1772947707092-5882103_d)"></path><path class="l" d="M308.65,165.33c-40.88-31.71-81.9-61.35-123.05-88.92C144.45,48.84,103.41,26.45,62.5,9.26c-18.67,3.58-37.09,8.47-55.25,14.65,41.45,11.5,82.62,29.22,123.52,53.16,40.9,23.94,81.79,50.99,122.67,81.14,9.33,1.06,18.53,2.25,27.6,3.56,9.07,1.32,18.27,2.5,27.6,3.57" fill="url(#1772947707092-5882103_e)"></path><path class="k" d="M0,483.45c18.16-6.18,36.57-11.32,55.25-15.43,41.03-34.12,82.05-63.06,123.05-86.82,41.01-23.76,82.01-45.18,123.01-64.27-8.81-1.05-17.88-2.25-27.21-3.56-9.33-1.31-18.4-2.5-27.21-3.56-41.52,21.16-82.79,45.43-123.8,72.82C82.08,410.02,41.04,443.62,0,483.44" fill="url(#1772947707092-5882103_f)"></path><path class="j" d="M468.07,345.82c40.88,31.71,81.9,61.35,123.05,88.92,41.15,27.56,82.18,49.95,123.1,67.15,18.67-3.59,37.09-8.47,55.25-14.65-41.44-11.5-82.62-29.22-123.52-53.16-40.9-23.94-81.79-50.99-122.68-81.14-9.33-1.06-18.52-2.25-27.6-3.57-9.07-1.31-18.27-2.5-27.6-3.56" fill="url(#1772947707092-5882103_g)"></path><path class="i" d="M438.8,35.76c-16.59-3.15-32.91-6.17-48.97-9.05-16.06-2.89-32.12-5.65-48.19-8.27l-.41,182.73c-37.83-6.3-75.67-11.32-113.5-15.03-37.84-3.72-75.68-4.19-113.53-1.43-37.85,2.77-75.71,10.85-113.59,24.24l-.21,91.75c37.88-13.4,75.73-21.47,113.59-24.24,37.85-2.77,75.69-2.29,113.53,1.42,37.83,3.72,75.67,8.72,113.5,15.03l-.41,182.73c16.06,3.15,32.12,6.16,48.19,9.05,16.06,2.89,32.39,5.65,48.98,8.27l.41-182.73c37.31,6.3,74.88,11.32,112.72,15.03,37.83,3.72,75.68,4.19,113.53,1.42,37.84-2.77,75.71-10.85,113.58-24.24l.21-91.75c-37.87,13.4-75.73,21.47-113.58,24.24-37.85,2.77-75.7,2.29-113.53-1.42-37.84-3.72-75.41-8.72-112.72-15.03l.41-182.73" fill="url(#1772947707092-5882103_h)"></path><path class="p" d="M766.18,31.83l-1,445.56c-42.54,13.39-85.06,20.67-127.58,21.87-42.51,1.2-85.01-1.1-127.51-6.9-42.5-5.8-84.99-12.76-127.48-20.89-42.49-8.13-84.98-14.97-127.48-20.5-42.49-5.54-85-7.19-127.51-4.95-42.52,2.24-85.04,10.82-127.59,25.76L0,483.44c42.03-14.94,84.3-23.4,126.81-25.38,42.52-1.97,85.02-.33,127.52,4.95,42.49,5.28,85.12,11.98,127.87,20.11,42.75,8.13,85.37,15.23,127.87,21.29,42.49,6.06,85,8.49,127.51,7.29,42.52-1.2,85.04-8.75,127.58-22.65,2.07-.51,4.15-1.03,6.22-1.54,2.08-.51,4.15-1.29,6.22-2.32l1.03-457.22c-2.07.51-4.14,1.15-6.22,1.93-2.07.78-4.15,1.42-6.22,1.93" style="isolation:isolate" fill="#000414" opacity=".2"></path></g></svg>