<svg data-name="Layer 1" xmlns="http://www.w3.org/2000/svg" style="" viewBox="0 0 568.89 512"><g class="nc-icon-wrapper"><defs><linearGradient id="1772947707104-7785910_b" x1="-548.39" y1="916.04" x2="-548.39" y2="1101.05" gradientTransform="matrix(2.91 0 0 -2.77 1877.96 3047.15)" gradientUnits="userSpaceOnUse"><stop offset="0" stop-color="#ff9d8b"></stop><stop offset=".27" stop-color="#ffa496"></stop><stop offset=".74" stop-color="#ffb8b4"></stop><stop offset="1" stop-color="#ffc5c8"></stop></linearGradient><linearGradient id="1772947707104-7785910_c" x1="-521.99" y1="769.05" x2="-521.99" y2="954.14" gradientTransform="matrix(2.13 0 0 -1.99 1396.75 1972.79)" gradientUnits="userSpaceOnUse"><stop offset="0" stop-color="#eb3838"></stop><stop offset=".28" stop-color="#ef4341"></stop><stop offset=".78" stop-color="#fa6158"></stop><stop offset="1" stop-color="#ff7164"></stop></linearGradient><linearGradient id="1772947707104-7785910_d" x1="-448.05" y1="550.58" x2="-448.05" y2="714.74" gradientTransform="matrix(1.45 0 0 -1.38 935.41 1129.81)" gradientUnits="userSpaceOnUse"><stop offset="0" stop-color="#a30000"></stop><stop offset=".26" stop-color="#b70000"></stop><stop offset=".73" stop-color="#d50000"></stop><stop offset="1" stop-color="#e00000"></stop></linearGradient></defs><path class="g" d="M284.42,72.26C208.91-61.15,0,1.25,0,168.79c0,112.38,96.36,177.27,284.42,343.21,188.06-165.94,284.47-230.83,284.47-343.21,0-167.54-208.94-229.94-284.47-96.53Z" fill="url(#1772947707104-7785910_b)"></path><path class="f" d="M284.42,122.86c-56.63-96.32-213.31-48.39-213.31,72.57,0,81.15,72.28,125.14,213.31,244.94,141.04-119.81,213.35-163.79,213.35-244.94,0-120.96-156.7-168.89-213.35-72.57Z" fill="url(#1772947707104-7785910_c)"></path><path class="e" d="M284.42,174.08c-35.65-58.82-134.32-35.84-134.32,38,0,49.54,45.52,82.69,134.32,155.84,88.83-73.15,134.36-106.3,134.36-155.84,0-73.84-98.68-96.82-134.36-38Z" fill="url(#1772947707104-7785910_d)"></path></g></svg>