<svg data-name="Layer 1" xmlns="http://www.w3.org/2000/svg" style="" viewBox="0 0 341.33 512"><g class="nc-icon-wrapper"><defs><linearGradient id="1772947707106-3391604_b" x1="126.21" y1="19.67" x2="215.13" y2="19.67" gradientTransform="matrix(1 0 0 -1 0 514)" gradientUnits="userSpaceOnUse"><stop offset="0" stop-color="#5b666e"></stop><stop offset=".23" stop-color="#494e59"></stop><stop offset=".47" stop-color="#3b3b48"></stop><stop offset=".73" stop-color="#33303e"></stop><stop offset="1" stop-color="#302c3b"></stop></linearGradient><linearGradient id="1772947707106-3391604_c" x1="100.96" y1="72.8" x2="240.56" y2="72.8" gradientTransform="matrix(1 0 0 -1 0 514)" gradientUnits="userSpaceOnUse"><stop offset="0" stop-color="#b3c2c6"></stop><stop offset=".11" stop-color="#ccd6da"></stop><stop offset=".22" stop-color="#dfe6ea"></stop><stop offset=".29" stop-color="#e6ebef"></stop><stop offset=".75" stop-color="#b3c2c6"></stop></linearGradient><linearGradient id="1772947707106-3391604_d" x1="104.46" y1="118.21" x2="236.91" y2="118.21" gradientTransform="matrix(1 0 0 -1 0 514)" gradientUnits="userSpaceOnUse"><stop offset="0" stop-color="#b3c2c6"></stop><stop offset=".06" stop-color="#becbcf"></stop><stop offset=".2" stop-color="#d1d9de"></stop><stop offset=".29" stop-color="#d8dee3"></stop><stop offset=".75" stop-color="#b3c2c6"></stop></linearGradient><radialGradient id="1772947707106-3391604_e" cx="177.81" cy="322.23" fx="177.81" fy="322.23" r="182.57" gradientTransform="matrix(.99 0 0 -1 -5.01 514.29)" gradientUnits="userSpaceOnUse"><stop offset="0" stop-color="#fffed4"></stop><stop offset=".17" stop-color="#fffdd0"></stop><stop offset=".32" stop-color="#fffbc5"></stop><stop offset=".47" stop-color="#fff8b2"></stop><stop offset=".62" stop-color="#fff498"></stop><stop offset=".76" stop-color="#ffee75"></stop><stop offset=".91" stop-color="#ffe74c"></stop><stop offset="1" stop-color="#ffe12c"></stop></radialGradient><radialGradient id="1772947707106-3391604_f" cx="773.53" cy="894.4" fx="773.53" fy="894.4" r="273.78" gradientTransform="matrix(.43581 .57312 .70986 -.55337 -899.02 88.99)" gradientUnits="userSpaceOnUse"><stop offset="0" stop-color="#fff" stop-opacity=".6"></stop><stop offset="1" stop-color="#fff" stop-opacity="0"></stop></radialGradient><linearGradient id="1772947707106-3391604_g" x1="147.55" y1="260.52" x2="147.55" y2="362.33" gradientTransform="matrix(1 0 0 -1 0 514)" gradientUnits="userSpaceOnUse"><stop offset="0" stop-color="#f2b335"></stop><stop offset=".1" stop-color="#f4c252"></stop><stop offset=".35" stop-color="#fae295"></stop><stop offset=".53" stop-color="#fef7bf"></stop><stop offset=".62" stop-color="#ffffcf"></stop></linearGradient><linearGradient id="1772947707106-3391604_h" x1="193.77" y1="260.52" x2="193.77" y2="362.33" gradientTransform="matrix(1 0 0 -1 0 514)" gradientUnits="userSpaceOnUse"><stop offset="0" stop-color="#f2b335"></stop><stop offset=".1" stop-color="#f4c252"></stop><stop offset=".35" stop-color="#fae295"></stop><stop offset=".53" stop-color="#fef7bf"></stop><stop offset=".62" stop-color="#ffffcf"></stop></linearGradient><linearGradient id="1772947707106-3391604_i" x1="209.86" y1="114.24" x2="209.86" y2="385.78" gradientTransform="matrix(1 0 0 -1 0 514)" gradientUnits="userSpaceOnUse"><stop offset=".57" stop-color="#f2b335"></stop><stop offset=".61" stop-color="#f4c252"></stop><stop offset=".72" stop-color="#fae295"></stop><stop offset=".8" stop-color="#fef7bf"></stop><stop offset=".84" stop-color="#ffffcf"></stop></linearGradient><linearGradient id="1772947707106-3391604_j" x1="117.44" y1="114.24" x2="117.44" y2="385.78" gradientTransform="rotate(-180 124.455 257)" gradientUnits="userSpaceOnUse"><stop offset=".57" stop-color="#f2b335"></stop><stop offset=".61" stop-color="#f4c252"></stop><stop offset=".72" stop-color="#fae295"></stop><stop offset=".8" stop-color="#fef7bf"></stop><stop offset=".84" stop-color="#ffffcf"></stop></linearGradient><radialGradient id="1772947707106-3391604_k" cx="172.32" cy="575.46" fx="172.32" fy="575.46" r="11.3" gradientTransform="matrix(1.11 0 0 -3.14 -21.33 2087.58)" gradientUnits="userSpaceOnUse"><stop offset="0" stop-color="#fffed4"></stop><stop offset=".17" stop-color="#fffdd0"></stop><stop offset=".33" stop-color="#fffac5"></stop><stop offset=".49" stop-color="#fff4b2"></stop><stop offset=".65" stop-color="#ffec98"></stop><stop offset=".8" stop-color="#ffe275"></stop><stop offset=".95" stop-color="#ffd64c"></stop><stop offset="1" stop-color="#ffd13b"></stop></radialGradient><radialGradient id="1772947707106-3391604_l" cx="159.85" cy="476.05" fx="159.85" fy="476.05" r="21.94" gradientTransform="matrix(1.59 0 0 -2.25 -83.38 1424.41)" gradientUnits="userSpaceOnUse"><stop offset="0" stop-color="#fffed4"></stop><stop offset=".17" stop-color="#fffdd0"></stop><stop offset=".33" stop-color="#fffac5"></stop><stop offset=".49" stop-color="#fff4b2"></stop><stop offset=".65" stop-color="#ffec98"></stop><stop offset=".8" stop-color="#ffe275"></stop><stop offset=".95" stop-color="#ffd64c"></stop><stop offset="1" stop-color="#ffd13b"></stop></radialGradient><linearGradient id="1772947707106-3391604_m" x1="102.38" y1="125.01" x2="239" y2="125.01" gradientTransform="matrix(1 0 0 -1 0 514)" gradientUnits="userSpaceOnUse"><stop offset="0" stop-color="#b3c2c6"></stop><stop offset=".06" stop-color="#becbcf"></stop><stop offset=".2" stop-color="#d1d9de"></stop><stop offset=".29" stop-color="#d8dee3"></stop><stop offset=".75" stop-color="#b3c2c6"></stop></linearGradient><linearGradient id="1772947707106-3391604_n" x1="104.47" y1="119.25" x2="236.92" y2="119.25" gradientTransform="matrix(1 0 0 -1 0 514)" gradientUnits="userSpaceOnUse"><stop offset="0" stop-color="#b3c2c6"></stop><stop offset=".13" stop-color="#ccd6da"></stop><stop offset=".27" stop-color="#dfe6ea"></stop><stop offset=".36" stop-color="#e6ebef"></stop><stop offset=".84" stop-color="#b3c2c6"></stop></linearGradient><linearGradient id="1772947707106-3391604_o" x1="171.15" y1="92.54" x2="170.23" y2="105.7" gradientTransform="matrix(1 0 0 -1 0 514)" gradientUnits="userSpaceOnUse"><stop offset="0" stop-color="#b3c2c6"></stop><stop offset=".5" stop-color="#cad5d9"></stop><stop offset="1" stop-color="#e6ebef"></stop></linearGradient><linearGradient id="1772947707106-3391604_p" x1="171.15" y1="74.27" x2="170.23" y2="87.43" gradientTransform="matrix(1 0 0 -1 0 514)" gradientUnits="userSpaceOnUse"><stop offset="0" stop-color="#b3c2c6"></stop><stop offset=".5" stop-color="#cad5d9"></stop><stop offset="1" stop-color="#e6ebef"></stop></linearGradient><linearGradient id="1772947707106-3391604_q" x1="171.15" y1="56.01" x2="170.23" y2="69.16" gradientTransform="matrix(1 0 0 -1 0 514)" gradientUnits="userSpaceOnUse"><stop offset="0" stop-color="#b3c2c6"></stop><stop offset=".5" stop-color="#cad5d9"></stop><stop offset="1" stop-color="#e6ebef"></stop></linearGradient><linearGradient id="1772947707106-3391604_r" x1="172.77" y1="37.85" x2="172.15" y2="46.76" gradientTransform="matrix(1 0 0 -1 0 514)" gradientUnits="userSpaceOnUse"><stop offset="0" stop-color="#b3c2c6"></stop><stop offset=".5" stop-color="#cad5d9"></stop><stop offset="1" stop-color="#e6ebef"></stop></linearGradient></defs><path class="ah" d="M182.42,509.29c0,3.62-23.5,3.62-23.5,0,0-7.37,23.5-7.37,23.5,0Z" fill="#6e8189"></path><path class="ag" d="M126.21,490.86v2.55l29.12,16.17h30.69l29.12-16.17v-2.55c-15.74-15.73-73.21-15.73-88.93,0Z" fill="url(#1772947707106-3391604_b)"></path><path class="af" d="M106.75,408.48v63.33l19.45,19.05h88.93l19.48-19.05v-63.33c-22.59-22.6-105.25-22.6-127.85,0Z" fill="url(#1772947707106-3391604_c)"></path><path class="ab" d="M234.62,408.48h-127.86l-2.3-3.6c15.91-29.05,116.54-29.05,132.45,0l-2.3,3.6Z" fill="url(#1772947707106-3391604_d)"></path><path class="aa" d="M341.33,151.92C341.33,68.16,264.76,0,170.67,0S0,68.16,0,151.92c0,65.23,51.1,117.27,77.87,171.19,9.01,18.15,9.01,45.13,24.52,57.95l68.28,2.86,68.33-2.87c15.5-12.82,15.47-39.8,24.48-57.95,26.75-53.91,77.85-105.96,77.85-171.18Z" fill="url(#1772947707106-3391604_e)"></path><path class="z" d="M198.72,212.13c-55.2,43.06-127.51,41.7-161.45-2.97C3.24,164.42,20.44,93.32,75.65,50.3c55.22-43.07,127.51-41.72,161.52,2.99,34.03,44.72,16.77,115.85-38.45,158.84Z" fill="url(#1772947707106-3391604_f)"></path><path class="y" d="M163.23 253.48L129.95 152.34 131.87 151.67 165.15 252.83 163.23 253.48z" fill="url(#1772947707106-3391604_g)"></path><path class="u" d="M178.09 253.48L176.16 252.83 209.45 151.67 211.37 152.34 178.09 253.48z" fill="url(#1772947707106-3391604_h)"></path><path class="ak" d="M130.36,153.6c42.72-11.67,81.01.03,81.01.03,0,0,14.04-17.78,27.45-21.5-13.82,1.54-20.79,8.9-28.54,17.9-47.87-8.1-78.98.13-78.98.13,0,0-16.18-18.29-27.72-14.78,10.32-.64,22.5,12.34,26.77,18.22Z" fill="#fffee3"></path><path class="t" d="M182.9,399.58c.07.5-1.83-.17-1.92-.67-15.84-96.02,58.05-270.69,58.05-270.69l1.92.67s-70.78,165.09-58.05,270.69Z" fill="url(#1772947707106-3391604_i)"></path><path class="s" d="M158.43,399.58c-.07.5,1.83-.17,1.92-.67,15.83-96.02-58.05-270.69-58.05-270.69l-1.92.67s70.78,165.09,58.05,270.69Z" fill="url(#1772947707106-3391604_j)"></path><path class="ai" d="M180.7,304.33c-.6.56-19.3.38-19.7,0-4.98-4.55-3.27-52.19,1.15-56.76,3.4-3.53,14-3.53,17.43,0,4.34,4.52,6.09,52.14,1.13,56.76Z" style="isolation:isolate" fill="url(#1772947707106-3391604_k)" opacity=".5"></path><path class="aj" d="M193.72,394.05c14.93,9.42-66.41,13.22-45.46,0,10.98-6.94-7.53-83.13,2.65-89.7.93-.58,39.24-.58,40.17,0,10.06,6.5-8.37,82.75,2.63,89.7Z" style="isolation:isolate" opacity=".5" fill="url(#1772947707106-3391604_l)"></path><path class="w" d="M236.92,384.61c-28.75,16.44-103.71,16.44-132.45,0l-2.08-3.57h136.62l-2.08,3.57Z" fill="url(#1772947707106-3391604_m)"></path><path class="x" d="M104.47 384.61H236.92V404.88H104.47z" fill="url(#1772947707106-3391604_n)"></path><path class="ad" d="M234.62,417.02l-127.86,4.27c-4.33,0-4.33-8.53,0-8.53l127.86-4.27c4.33,0,4.33,8.53,0,8.53Z" fill="url(#1772947707106-3391604_o)"></path><path class="v" d="M234.62,435.29l-127.86,4.27c-4.33,0-4.33-8.53,0-8.53l127.86-4.27c4.33,0,4.33,8.53,0,8.53Z" fill="url(#1772947707106-3391604_p)"></path><path class="ac" d="M234.62,453.55l-127.86,4.27c-4.33,0-4.33-8.53,0-8.53l127.86-4.27c4.33,0,4.33,8.53,0,8.53Z" fill="url(#1772947707106-3391604_q)"></path><path class="ae" d="M234.62,471.82h-127.86l127.86-8.53c4.33,0,4.33,8.53,0,8.53Z" fill="url(#1772947707106-3391604_r)"></path></g></svg>