<svg data-name="Layer 1" xmlns="http://www.w3.org/2000/svg" style="" viewBox="0 0 512 512"><g class="nc-icon-wrapper"><defs><linearGradient id="1773013515331-9752571_b" x1="-573.37" y1="-140.58" x2="-537.45" y2="-140.58" gradientTransform="rotate(135 -217.953 259.295)" gradientUnits="userSpaceOnUse"><stop offset=".24" stop-color="#b3c2c6"></stop><stop offset=".81" stop-color="#737e80"></stop></linearGradient><linearGradient id="1773013515331-9752571_c" x1="-577.71" y1="-168.94" x2="-533.11" y2="-168.94" gradientTransform="rotate(135 -217.953 259.295)" gradientUnits="userSpaceOnUse"><stop offset="0" stop-color="#b3c2c6"></stop><stop offset=".18" stop-color="#9ca9ac"></stop><stop offset=".39" stop-color="#859194"></stop><stop offset=".59" stop-color="#788385"></stop><stop offset=".75" stop-color="#737e80"></stop></linearGradient><linearGradient id="1773013515331-9752571_d" x1="-573.09" y1="-330.64" x2="-507.47" y2="-330.64" gradientTransform="scale(1 -1) rotate(45 -99.823 722.702)" gradientUnits="userSpaceOnUse"><stop offset=".12" stop-color="#302c3b"></stop><stop offset=".62" stop-color="#45505b"></stop><stop offset=".89" stop-color="#4e5e67"></stop></linearGradient><linearGradient id="1773013515331-9752571_e" x1="-573.09" y1="-450.8" x2="-507.47" y2="-450.8" gradientTransform="scale(1 -1) rotate(45 -99.823 722.702)" gradientUnits="userSpaceOnUse"><stop offset=".33" stop-color="#302c3b"></stop><stop offset=".55" stop-color="#383946"></stop><stop offset=".96" stop-color="#4c5a64"></stop><stop offset="1" stop-color="#4e5e67"></stop></linearGradient><linearGradient id="1773013515331-9752571_f" x1="-555.41" y1="-117.48" x2="-555.41" y2="-91.98" gradientTransform="rotate(135 -217.953 259.295)" gradientUnits="userSpaceOnUse"><stop offset="0" stop-color="#b3c2c6"></stop><stop offset=".18" stop-color="#9ca9ac"></stop><stop offset=".39" stop-color="#859194"></stop><stop offset=".59" stop-color="#788385"></stop><stop offset=".75" stop-color="#737e80"></stop></linearGradient><linearGradient id="1773013515331-9752571_g" x1="-604.91" y1="239.99" x2="-377.99" y2="466.9" gradientTransform="rotate(-180 -165.5 256.95)" gradientUnits="userSpaceOnUse"><stop offset="0" stop-color="#737e80"></stop><stop offset="1" stop-color="#b3c2c6"></stop></linearGradient><linearGradient id="1773013515331-9752571_h" x1="-602.71" y1="242.2" x2="-380.19" y2="464.72" gradientTransform="rotate(-180 -165.5 256.95)" gradientUnits="userSpaceOnUse"><stop offset="0" stop-color="#cfd8dd"></stop><stop offset="1" stop-color="#e6ebed"></stop></linearGradient><radialGradient id="1773013515331-9752571_i" cx="-491.45" cy="353.46" fx="-491.45" fy="353.46" r="143.6" gradientTransform="rotate(-180 -165.5 256.95)" gradientUnits="userSpaceOnUse"><stop offset="0" stop-color="#f7eff0"></stop><stop offset=".3" stop-color="#f4edef"></stop><stop offset=".57" stop-color="#e9e8ee"></stop><stop offset=".82" stop-color="#d7e0eb"></stop><stop offset="1" stop-color="#c5d7e8"></stop></radialGradient><radialGradient id="1773013515331-9752571_j" cx="1175.63" cy="330.81" fx="1175.63" fy="330.81" r="300.15" gradientTransform="matrix(.35606 .47045 -.56614 .42848 -155.41 -638.53)" gradientUnits="userSpaceOnUse"><stop offset="0" stop-color="#fff"></stop><stop offset="1" stop-color="#fff" stop-opacity="0"></stop></radialGradient></defs><path class="r" d="M294.37 268.98L337.84 312.46 312.49 337.85 268.98 294.39 294.37 268.98z" fill="url(#1773013515331-9752571_b)"></path><path class="q" d="M304.67,336.21c-3.75-3.77,27.77-35.3,31.53-31.53l6.06,6.06c3.78,3.75-27.77,35.3-31.53,31.53l-6.06-6.06Z" fill="url(#1773013515331-9752571_c)"></path><path class="p" d="M366.83,320.45l-46.39,46.4s-3.14-3.14-10.26-23.34c-2.32-6.62,26.65-35.62,33.27-33.3,20.25,7.1,23.38,10.25,23.38,10.25Z" fill="url(#1773013515331-9752571_d)"></path><path class="o" d="M509.05,462.67c15,14.98-31.4,61.37-46.4,46.39-30.62-30.62-115.49-115.48-141.93-141.94-5.26-5.26,41.1-51.69,46.36-46.42,26.23,26.22,109.24,109.22,141.97,141.97Z" fill="url(#1773013515331-9752571_e)"></path><path class="n" d="M287.64,256.12s9.3,9.29,12.38,12.37c3.77,3.78-27.75,35.32-31.53,31.54l-12.38-12.38c-3.78-3.77,27.76-35.3,31.53-31.54Z" fill="url(#1773013515331-9752571_f)"></path><path class="t" transform="rotate(-45.02 290.746 265.368)" d="M289.55 256.63H292.01V274.13H289.55z" fill="#737e80"></path><path class="t" transform="rotate(-45 287.07 270.441)" d="M285.84 261.7H288.29999999999995V279.2H285.84z" fill="#737e80"></path><path class="t" transform="rotate(-44.96 283.319 275.387)" d="M282.06 266.63H284.52V284.14H282.06z" fill="#737e80"></path><path class="t" transform="rotate(-44.94 278.958 279.796)" d="M277.7 271.03H280.15999999999997V288.53H277.7z" fill="#737e80"></path><path class="t" transform="rotate(-44.94 274.58 284.186)" d="M273.33 275.42H275.77V292.92H273.33z" fill="#737e80"></path><path class="t" transform="rotate(-44.98 269.583 287.967)" d="M268.32 279.2H270.79V296.7H268.32z" fill="#737e80"></path><path class="t" transform="rotate(-45.01 264.492 291.632)" d="M263.28 282.89H265.72999999999996V300.39H263.28z" fill="#737e80"></path><path class="m" d="M46.99,273.92c62.67,62.63,164.24,62.66,226.92,0,62.66-62.66,62.66-164.26,0-226.91-62.67-62.67-164.28-62.66-226.93,0-62.66,62.67-62.65,164.25,0,226.93Z" fill="url(#1773013515331-9752571_g)"></path><path class="s" d="M271.72,49.19c-61.46-61.46-161.09-61.44-222.53,0-61.45,61.48-61.44,161.09.02,222.53,61.46,61.44,161.04,61.46,222.5,0,61.44-61.46,61.44-161.05.02-222.53ZM264.11,264.13c-57.27,57.28-150.09,57.26-207.34.02C-.45,206.88-.47,114.06,56.77,56.77,114.01-.44,206.88-.46,264.11,56.77c57.26,57.25,57.24,150.11,0,207.36Z" style="isolation:isolate" fill="url(#1773013515331-9752571_h)" opacity=".5"></path><path class="l" d="M261.98,261.99c56.08-56.09,56.1-147.02.02-203.09-56.1-56.1-147.03-56.08-203.11-.03-56.07,56.11-56.06,147.02.04,203.12,56.07,56.08,147,56.07,203.05,0Z" fill="url(#1773013515331-9752571_i)"></path><path class="k" d="M192.96,206.83c48.39-36.58,62.98-98.78,32.58-138.84-30.36-40.18-94.18-43.05-142.5-6.44-48.39,36.56-62.99,98.77-32.6,138.91,30.38,40.17,94.23,43,142.53,6.37Z" fill="url(#1773013515331-9752571_j)"></path></g></svg>