<svg xmlns="http://www.w3.org/2000/svg" style="" viewBox="0 0 352.26 512"><g class="nc-icon-wrapper"><defs><linearGradient id="1773013515343-2819610_b" x1="244.35" y1="1729.39" x2="264.07" y2="1709.68" gradientTransform="matrix(1 0 0 -1 0 1779.44)" gradientUnits="userSpaceOnUse"><stop offset="0" stop-color="#ffd13b"></stop><stop offset="1" stop-color="#d48600"></stop></linearGradient><linearGradient id="1773013515343-2819610_c" x1="226.65" y1="1731.14" x2="286" y2="1671.29" gradientTransform="matrix(1 0 0 -1 0 1779.44)" gradientUnits="userSpaceOnUse"><stop offset="0" stop-color="#ffd13b"></stop><stop offset="1" stop-color="#d48600"></stop></linearGradient><linearGradient id="1773013515343-2819610_d" x1="163.2" y1="1766.51" x2="189.06" y2="1740.65" gradientTransform="matrix(1 0 0 -1 0 1779.44)" gradientUnits="userSpaceOnUse"><stop offset="0" stop-color="#ffd13b"></stop><stop offset="1" stop-color="#d48600"></stop></linearGradient><linearGradient id="1773013515343-2819610_e" x1="85.35" y1="1731.22" x2="109.42" y2="1707.16" gradientTransform="matrix(1 0 0 -1 0 1779.44)" gradientUnits="userSpaceOnUse"><stop offset="0" stop-color="#ffd13b"></stop><stop offset="1" stop-color="#d48600"></stop></linearGradient><linearGradient id="1773013515343-2819610_f" x1="181.27" y1="1742.6" x2="206.1" y2="1718.28" gradientTransform="matrix(1 0 0 -1 0 1779.44)" gradientUnits="userSpaceOnUse"><stop offset="0" stop-color="#ffd13b"></stop><stop offset="1" stop-color="#d48600"></stop></linearGradient><linearGradient id="1773013515343-2819610_g" x1="142.61" y1="1745.47" x2="173.32" y2="1715.27" gradientTransform="matrix(1 0 0 -1 0 1779.44)" gradientUnits="userSpaceOnUse"><stop offset="0" stop-color="#ffd13b"></stop><stop offset="1" stop-color="#d48600"></stop></linearGradient><linearGradient id="1773013515343-2819610_h" x1="167.68" y1="1734.13" x2="184.32" y2="1717.48" gradientTransform="matrix(1 0 0 -1 0 1779.44)" gradientUnits="userSpaceOnUse"><stop offset="0" stop-color="#ffd13b"></stop><stop offset="1" stop-color="#d48600"></stop></linearGradient><linearGradient id="1773013515343-2819610_i" x1="125.97" y1="1726.71" x2="143.89" y2="1708.79" gradientTransform="matrix(1 0 0 -1 0 1779.44)" gradientUnits="userSpaceOnUse"><stop offset="0" stop-color="#ffd13b"></stop><stop offset="1" stop-color="#d48600"></stop></linearGradient><linearGradient id="1773013515343-2819610_j" x1="34.05" y1="1684.98" x2="60.16" y2="1658.87" gradientTransform="matrix(1 0 0 -1 0 1779.44)" gradientUnits="userSpaceOnUse"><stop offset="0" stop-color="#ffd13b"></stop><stop offset="1" stop-color="#d48600"></stop></linearGradient><linearGradient id="1773013515343-2819610_k" x1="74.79" y1="1721.68" x2="116.23" y2="1680.24" gradientTransform="matrix(1 0 0 -1 0 1779.44)" gradientUnits="userSpaceOnUse"><stop offset="0" stop-color="#ffd13b"></stop><stop offset="1" stop-color="#d48600"></stop></linearGradient><linearGradient id="1773013515343-2819610_l" x1="22.98" y1="1661.62" x2="42.44" y2="1642.16" gradientTransform="matrix(1 0 0 -1 0 1779.44)" gradientUnits="userSpaceOnUse"><stop offset="0" stop-color="#ffd13b"></stop><stop offset="1" stop-color="#d48600"></stop></linearGradient><linearGradient id="1773013515343-2819610_m" x1="41.62" y1="1677.21" x2="52.12" y2="1666.71" gradientTransform="matrix(1 0 0 -1 0 1779.44)" gradientUnits="userSpaceOnUse"><stop offset="0" stop-color="#ffd13b"></stop><stop offset="1" stop-color="#d48600"></stop></linearGradient><linearGradient id="1773013515343-2819610_n" x1="100.77" y1="1703.56" x2="111.01" y2="1693.32" gradientTransform="matrix(1 0 0 -1 0 1779.44)" gradientUnits="userSpaceOnUse"><stop offset="0" stop-color="#ffd13b"></stop><stop offset="1" stop-color="#d48600"></stop></linearGradient><linearGradient id="1773013515343-2819610_o" x1="143.24" y1="1717.68" x2="153.74" y2="1707.19" gradientTransform="matrix(1 0 0 -1 0 1779.44)" gradientUnits="userSpaceOnUse"><stop offset="0" stop-color="#ffd13b"></stop><stop offset="1" stop-color="#d48600"></stop></linearGradient><linearGradient id="1773013515343-2819610_p" x1="208.29" y1="1726.6" x2="226.46" y2="1708.95" gradientTransform="matrix(1 0 0 -1 0 1779.44)" gradientUnits="userSpaceOnUse"><stop offset="0" stop-color="#ffd13b"></stop><stop offset="1" stop-color="#d48600"></stop></linearGradient><linearGradient id="1773013515343-2819610_q" x1="294.18" y1="1682" x2="315.43" y2="1661.27" gradientTransform="matrix(1 0 0 -1 0 1779.44)" gradientUnits="userSpaceOnUse"><stop offset="0" stop-color="#ffd13b"></stop><stop offset="1" stop-color="#d48600"></stop></linearGradient><linearGradient id="1773013515343-2819610_r" x1="308.04" y1="1663.1" x2="330.31" y2="1640.83" gradientTransform="matrix(1 0 0 -1 0 1779.44)" gradientUnits="userSpaceOnUse"><stop offset="0" stop-color="#ffd13b"></stop><stop offset="1" stop-color="#d48600"></stop></linearGradient><linearGradient id="1773013515343-2819610_s" x1="300.19" y1="1677.19" x2="310.69" y2="1666.7" gradientTransform="matrix(1 0 0 -1 0 1779.44)" gradientUnits="userSpaceOnUse"><stop offset="0" stop-color="#ffd13b"></stop><stop offset="1" stop-color="#d48600"></stop></linearGradient><linearGradient id="1773013515343-2819610_t" x1="241.25" y1="1703.77" x2="251.49" y2="1693.53" gradientTransform="matrix(1 0 0 -1 0 1779.44)" gradientUnits="userSpaceOnUse"><stop offset="0" stop-color="#ffd13b"></stop><stop offset="1" stop-color="#d48600"></stop></linearGradient><linearGradient id="1773013515343-2819610_u" x1="198.57" y1="1717.68" x2="209.06" y2="1707.19" gradientTransform="matrix(1 0 0 -1 0 1779.44)" gradientUnits="userSpaceOnUse"><stop offset="0" stop-color="#ffd13b"></stop><stop offset="1" stop-color="#d48600"></stop></linearGradient><linearGradient id="1773013515343-2819610_v" x1="320.7" y1="1635.24" x2="341.43" y2="1614.5" gradientTransform="matrix(1 0 0 -1 0 1779.44)" gradientUnits="userSpaceOnUse"><stop offset="0" stop-color="#ffd13b"></stop><stop offset="1" stop-color="#d48600"></stop></linearGradient><linearGradient id="1773013515343-2819610_w" x1="9.57" y1="1635.45" x2="31.32" y2="1614.21" gradientTransform="matrix(1 0 0 -1 0 1779.44)" gradientUnits="userSpaceOnUse"><stop offset="0" stop-color="#ffd13b"></stop><stop offset="1" stop-color="#d48600"></stop></linearGradient><linearGradient id="1773013515343-2819610_x" x1="87.46" y1="1336.69" x2="107.16" y2="1316.97" gradientTransform="matrix(1 0 0 -1 0 1779.44)" gradientUnits="userSpaceOnUse"><stop offset="0" stop-color="#ffd13b"></stop><stop offset="1" stop-color="#d48600"></stop></linearGradient><linearGradient id="1773013515343-2819610_y" x1="66.19" y1="1375.61" x2="125.84" y2="1315.96" gradientTransform="matrix(1 0 0 -1 0 1779.44)" gradientUnits="userSpaceOnUse"><stop offset="0" stop-color="#ffd13b"></stop><stop offset="1" stop-color="#d48600"></stop></linearGradient><linearGradient id="1773013515343-2819610_z" x1="163.2" y1="1306.22" x2="189.06" y2="1280.37" gradientTransform="matrix(1 0 0 -1 0 1779.44)" gradientUnits="userSpaceOnUse"><stop offset="0" stop-color="#ffd13b"></stop><stop offset="1" stop-color="#d48600"></stop></linearGradient><linearGradient id="1773013515343-2819610_aa" x1="240.8" y1="1339.2" x2="264.86" y2="1315.14" gradientTransform="matrix(1 0 0 -1 0 1779.44)" gradientUnits="userSpaceOnUse"><stop offset="0" stop-color="#ffd13b"></stop><stop offset="1" stop-color="#d48600"></stop></linearGradient><linearGradient id="1773013515343-2819610_ab" x1="145.53" y1="1328.21" x2="170.11" y2="1303.63" gradientTransform="matrix(1 0 0 -1 0 1779.44)" gradientUnits="userSpaceOnUse"><stop offset="0" stop-color="#ffd13b"></stop><stop offset="1" stop-color="#d48600"></stop></linearGradient><linearGradient id="1773013515343-2819610_ac" x1="176.99" y1="1331.21" x2="207.45" y2="1300.75" gradientTransform="matrix(1 0 0 -1 0 1779.44)" gradientUnits="userSpaceOnUse"><stop offset="0" stop-color="#ffd13b"></stop><stop offset="1" stop-color="#d48600"></stop></linearGradient><linearGradient id="1773013515343-2819610_ad" x1="167.19" y1="1328.88" x2="183.83" y2="1312.24" gradientTransform="matrix(1 0 0 -1 0 1779.44)" gradientUnits="userSpaceOnUse"><stop offset="0" stop-color="#ffd13b"></stop><stop offset="1" stop-color="#d48600"></stop></linearGradient><linearGradient id="1773013515343-2819610_ae" x1="207.63" y1="1337.57" x2="225.55" y2="1319.65" gradientTransform="matrix(1 0 0 -1 0 1779.44)" gradientUnits="userSpaceOnUse"><stop offset="0" stop-color="#ffd13b"></stop><stop offset="1" stop-color="#d48600"></stop></linearGradient><linearGradient id="1773013515343-2819610_af" x1="291.24" y1="1387.38" x2="317.62" y2="1361.53" gradientTransform="matrix(1 0 0 -1 0 1779.44)" gradientUnits="userSpaceOnUse"><stop offset="0" stop-color="#ffd13b"></stop><stop offset="1" stop-color="#d48600"></stop></linearGradient><linearGradient id="1773013515343-2819610_ag" x1="234.73" y1="1366.54" x2="276.2" y2="1325.07" gradientTransform="matrix(1 0 0 -1 0 1779.44)" gradientUnits="userSpaceOnUse"><stop offset="0" stop-color="#ffd13b"></stop><stop offset="1" stop-color="#d48600"></stop></linearGradient><linearGradient id="1773013515343-2819610_ah" x1="309.09" y1="1404.18" x2="328.54" y2="1384.73" gradientTransform="matrix(1 0 0 -1 0 1779.44)" gradientUnits="userSpaceOnUse"><stop offset="0" stop-color="#ffd13b"></stop><stop offset="1" stop-color="#d48600"></stop></linearGradient><linearGradient id="1773013515343-2819610_ai" x1="300.18" y1="1380.24" x2="310.67" y2="1369.75" gradientTransform="matrix(1 0 0 -1 0 1779.44)" gradientUnits="userSpaceOnUse"><stop offset="0" stop-color="#ffd13b"></stop><stop offset="1" stop-color="#d48600"></stop></linearGradient><linearGradient id="1773013515343-2819610_aj" x1="241.25" y1="1353.55" x2="251.49" y2="1343.31" gradientTransform="matrix(1 0 0 -1 0 1779.44)" gradientUnits="userSpaceOnUse"><stop offset="0" stop-color="#ffd13b"></stop><stop offset="1" stop-color="#d48600"></stop></linearGradient><linearGradient id="1773013515343-2819610_ak" x1="198.56" y1="1339.76" x2="209.06" y2="1329.27" gradientTransform="matrix(1 0 0 -1 0 1779.44)" gradientUnits="userSpaceOnUse"><stop offset="0" stop-color="#ffd13b"></stop><stop offset="1" stop-color="#d48600"></stop></linearGradient><linearGradient id="1773013515343-2819610_al" x1="125.06" y1="1337.42" x2="143.23" y2="1319.77" gradientTransform="matrix(1 0 0 -1 0 1779.44)" gradientUnits="userSpaceOnUse"><stop offset="0" stop-color="#ffd13b"></stop><stop offset="1" stop-color="#d48600"></stop></linearGradient><linearGradient id="1773013515343-2819610_am" x1="34.78" y1="1385.09" x2="56.03" y2="1364.36" gradientTransform="matrix(1 0 0 -1 0 1779.44)" gradientUnits="userSpaceOnUse"><stop offset="0" stop-color="#ffd13b"></stop><stop offset="1" stop-color="#d48600"></stop></linearGradient><linearGradient id="1773013515343-2819610_an" x1="19.9" y1="1405.52" x2="42.18" y2="1383.25" gradientTransform="matrix(1 0 0 -1 0 1779.44)" gradientUnits="userSpaceOnUse"><stop offset="0" stop-color="#ffd13b"></stop><stop offset="1" stop-color="#d48600"></stop></linearGradient><linearGradient id="1773013515343-2819610_ao" x1="41.62" y1="1380.24" x2="52.12" y2="1369.75" gradientTransform="matrix(1 0 0 -1 0 1779.44)" gradientUnits="userSpaceOnUse"><stop offset="0" stop-color="#ffd13b"></stop><stop offset="1" stop-color="#d48600"></stop></linearGradient><linearGradient id="1773013515343-2819610_ap" x1="100.77" y1="1353.35" x2="111.01" y2="1343.11" gradientTransform="matrix(1 0 0 -1 0 1779.44)" gradientUnits="userSpaceOnUse"><stop offset="0" stop-color="#ffd13b"></stop><stop offset="1" stop-color="#d48600"></stop></linearGradient><linearGradient id="1773013515343-2819610_aq" x1="143.24" y1="1339.76" x2="153.73" y2="1329.27" gradientTransform="matrix(1 0 0 -1 0 1779.44)" gradientUnits="userSpaceOnUse"><stop offset="0" stop-color="#ffd13b"></stop><stop offset="1" stop-color="#d48600"></stop></linearGradient><linearGradient id="1773013515343-2819610_ar" x1="10.16" y1="1431.94" x2="30.64" y2="1410.95" gradientTransform="matrix(1 0 0 -1 0 1779.44)" gradientUnits="userSpaceOnUse"><stop offset="0" stop-color="#ffd13b"></stop><stop offset="1" stop-color="#d48600"></stop></linearGradient><linearGradient id="1773013515343-2819610_as" x1="319.03" y1="1432.27" x2="340.53" y2="1410.77" gradientTransform="matrix(1 0 0 -1 0 1779.44)" gradientUnits="userSpaceOnUse"><stop offset="0" stop-color="#ffd13b"></stop><stop offset="1" stop-color="#d48600"></stop></linearGradient><linearGradient id="1773013515343-2819610_at" x1="47.52" y1="1652.3" x2="304.3" y2="1395.02" gradientTransform="matrix(1 0 0 -1 0 1779.44)" gradientUnits="userSpaceOnUse"><stop offset="0" stop-color="#ffd13b"></stop><stop offset="1" stop-color="#d48600"></stop></linearGradient><linearGradient id="1773013515343-2819610_au" x1="176.13" y1="1344.75" x2="176.13" y2="1702.13" gradientTransform="matrix(1 0 0 -1 0 1779.44)" gradientUnits="userSpaceOnUse"><stop offset="0" stop-color="#d48600"></stop><stop offset="1" stop-color="#ffd13b"></stop></linearGradient><linearGradient id="1773013515343-2819610_av" x1="176.13" y1="1364.72" x2="176.13" y2="1682.16" gradientTransform="matrix(1 0 0 -1 0 1779.44)" gradientUnits="userSpaceOnUse"><stop offset="0" stop-color="#ffd13b"></stop><stop offset="1" stop-color="#d48600"></stop></linearGradient><linearGradient id="1773013515343-2819610_aw" x1="71.53" y1="1628.08" x2="280.76" y2="1418.83" gradientTransform="matrix(1 0 0 -1 0 1779.44)" gradientUnits="userSpaceOnUse"><stop offset="0" stop-color="#f5faff"></stop><stop offset="1" stop-color="#929aa1"></stop></linearGradient></defs><path class="bo" d="M252.93,69.63c8.19-2.73,12.12-6.14,11.78-10.24-.35-4.09-1.88-6.65-4.61-7.68-4.78-2.39-8.62-1.79-11.52,1.79-2.9,3.59-2.64,6.4.77,8.45,2.39,1.36,4.01,1.45,4.87.26.85-1.2,1.11-2.47.77-3.84-.34-.34-.34-.77,0-1.28.34-.51.85-.42,1.54.26,1.71,1.7,1.79,4.01.26,6.91-1.54,2.9-4.69,3.5-9.47,1.79-5.12-1.71-7.17-4.78-6.14-9.22,1.03-4.44,3.76-8.02,8.19-10.75s9.22-2.73,14.33,0c6.14,3.41,8.45,8.45,6.92,15.1-1.54,6.66-7.42,10.5-17.67,11.52-6.49.34-9.81.42-9.98.26-.17-.17,1.02-.6,3.59-1.28,2.56-.68,4.69-1.36,6.4-2.05" vector-effect="none" fill="url(#1773013515343-2819610_b)"></path><path class="bn" d="M275.97,74.75c-6.83-.68-12.89-.26-18.18,1.28-5.29,1.54-10.5,2.9-15.61,4.09-5.12,1.2-10.59,1.2-16.38,0-5.8-1.2-12.46-4.87-19.97-11.01,11.61,4.09,20.99,5.63,28.16,4.61s13.91-2.39,20.23-4.09c6.31-1.71,14.08-2.05,23.29-1.02,11.95,1.37,19.12,5.8,21.51,13.31,2.39,7.51.34,13.99-6.14,19.46-4.1,3.07-8.36,4.18-12.8,3.33-4.44-.85-8.28-2.82-11.52-5.89-3.25-3.07-4.95-6.4-5.12-9.98-.17-3.59,1.97-6.4,6.4-8.45,5.46-2.73,9.3-2.56,11.52.51,2.22,3.07,2.47,5.8.77,8.19-.68.68-1.28.77-1.79.26-.51-.51-.6-.94-.26-1.28.34-1.7-.08-3.16-1.28-4.35s-3.16-.77-5.89,1.28c-2.39,1.71-2.99,3.93-1.79,6.66,1.2,2.73,3.41,4.69,6.66,5.89,3.24,1.2,6.57.42,9.98-2.3,2.05-1.37,3.5-3.5,4.35-6.4.85-2.9.08-5.71-2.3-8.45-2.39-2.73-7-4.61-13.83-5.63" vector-effect="none" fill="url(#1773013515343-2819610_c)"></path><path class="bi" d="M176.13,0c6.49,7.85,9.38,15.7,8.7,23.55-.68,7.85-2.3,14.51-4.87,19.97-2.56,5.46-3.84,8.19-3.84,8.19,0,0-1.28-2.73-3.84-8.19-2.56-5.46-4.18-12.12-4.87-19.97-.68-7.85,2.22-15.7,8.7-23.55" vector-effect="none" fill="url(#1773013515343-2819610_d)"></path><path class="bh" d="M98.75,69.63c1.7.68,3.84,1.36,6.4,2.05,2.56.68,3.75,1.11,3.59,1.28s-3.5.08-9.98-.26c-10.24-1.02-16.13-4.87-17.66-11.52-1.54-6.65.77-11.69,6.91-15.1,5.12-2.73,9.9-2.73,14.33,0,4.44,2.73,7.17,6.31,8.19,10.75,1.02,4.44-1.02,7.51-6.14,9.22-4.78,1.7-7.94,1.11-9.47-1.79-1.54-2.9-1.45-5.21.26-6.91.68-.68,1.2-.77,1.54-.26.34.51.34.94,0,1.28-.34,1.36-.08,2.65.77,3.84.85,1.2,2.47,1.11,4.87-.26,3.41-2.05,3.67-4.87.77-8.45-2.9-3.59-6.74-4.18-11.52-1.79-2.73,1.02-4.27,3.59-4.61,7.68s3.59,7.51,11.78,10.24" vector-effect="none" fill="url(#1773013515343-2819610_e)"></path><path class="bg" d="M199.68,64c.34,3.41-.94,5.72-3.84,6.91-2.9,1.2-6.14,1.02-9.73-.51-3.58-1.54-6.31-4.35-8.19-8.45s-1.62-9.73.77-16.9c2.39-8.19,6.14-13.4,11.27-15.62,5.12-2.22,9.73-2.22,13.82,0,4.1,2.22,6.23,5.71,6.4,10.5.17,4.78-3.33,9.73-10.5,14.85,4.44-6.49,5.63-11.18,3.59-14.08-2.05-2.9-5.03-3.84-8.96-2.82s-6.74,4.27-8.45,9.73c-2.39,7.17-1.53,12.89,2.56,17.15s7.85,4.01,11.26-.77" vector-effect="none" fill="url(#1773013515343-2819610_f)"></path><path class="bf" d="M152,64c3.41,4.78,7.17,5.03,11.27.77,4.09-4.27,4.95-9.98,2.56-17.15-1.71-5.46-4.52-8.7-8.45-9.73-3.93-1.02-6.91-.08-8.96,2.82-2.05,2.9-.85,7.6,3.59,14.08-7.17-5.12-10.67-10.07-10.5-14.85.17-4.78,2.3-8.28,6.4-10.5,4.09-2.22,8.7-2.22,13.83,0s8.88,7.42,11.26,15.62c2.39,7.17,2.65,12.8.77,16.9-1.88,4.09-4.61,6.91-8.19,8.45-3.59,1.54-6.83,1.71-9.73.51s-4.18-3.5-3.84-6.91" vector-effect="none" fill="url(#1773013515343-2819610_g)"></path><path class="ba" d="M186.37,59.39h-20.48c-2.05,0-3.07-1.88-3.07-5.63s1.02-5.63,3.07-5.63h20.48c2.05,0,3.07,1.88,3.07,5.63s-1.02,5.63-3.07,5.63" vector-effect="none" fill="url(#1773013515343-2819610_h)"></path><path class="az" d="M148.48,65.02c-3.76,6.49-7.94,9.64-12.55,9.47-4.61-.17-8.28-2.05-11.01-5.63-2.73-3.59-3.41-7.6-2.04-12.03,1.36-4.44,6.14-7.85,14.33-10.24-5.12,3.75-7.51,7.76-7.17,12.03.34,4.27,2.39,7.25,6.14,8.96,3.75,1.7,7.85.85,12.29-2.56" vector-effect="none" fill="url(#1773013515343-2819610_i)"></path><path class="ay" d="M30.21,107.52c-1.02-4.09-.6-7.42,1.28-9.98,1.88-2.56,4.18-4.35,6.91-5.37,7.85-2.05,13.66-1.02,17.41,3.07s5.63,8.96,5.63,14.59-1.54,10.24-4.61,13.83-7.68,3.84-13.83.77c5.46-.34,8.96-2.65,10.5-6.91,1.54-4.27,1.2-8.45-1.02-12.55-2.22-4.09-6.57-6.31-13.05-6.66-4.78,0-7.85,3.07-9.22,9.22" vector-effect="none" fill="url(#1773013515343-2819610_j)"></path><path class="ax" d="M75.71,74.75c-6.83,1.02-11.43,2.9-13.83,5.63-2.39,2.73-3.16,5.55-2.3,8.45s2.3,5.03,4.35,6.4c3.41,2.73,6.74,3.5,9.98,2.3,3.24-1.2,5.46-3.16,6.65-5.89,1.2-2.73.6-4.95-1.79-6.66-2.73-2.05-4.69-2.47-5.89-1.28s-1.62,2.65-1.28,4.35c.34.34.26.77-.26,1.28-.51.51-1.11.42-1.79-.26-1.7-2.39-1.45-5.12.77-8.19,2.22-3.07,6.06-3.24,11.52-.51,4.44,2.05,6.57,4.87,6.4,8.45-.17,3.59-1.88,6.91-5.12,9.98-3.24,3.07-7.08,5.03-11.52,5.89-4.44.85-8.7-.26-12.8-3.33-6.49-5.46-8.54-11.95-6.14-19.46s9.56-11.95,21.51-13.31c9.22-1.02,16.98-.68,23.29,1.02s13.05,3.07,20.22,4.09,16.55-.51,28.16-4.61c-7.51,6.14-14.17,9.81-19.97,11.01-5.8,1.2-11.27,1.2-16.38,0-5.12-1.2-10.32-2.56-15.62-4.09-5.29-1.54-11.35-1.96-18.18-1.28" vector-effect="none" fill="url(#1773013515343-2819610_k)"></path><path class="be" d="M43.52,131.59c1.36-1.37,2.99-2.99,4.87-4.87s2.98-2.73,3.33-2.56c.34.17-1.54,2.99-5.64,8.45-5.8,8.54-11.94,11.78-18.43,9.73-6.49-2.05-9.73-6.66-9.73-13.83,0-5.8,2.39-9.9,7.17-12.29,4.78-2.39,9.31-2.9,13.57-1.54,4.27,1.36,5.89,4.78,4.87,10.24-1.02,4.78-3.16,7.08-6.4,6.91-3.24-.17-5.2-1.45-5.89-3.84,0-.68.26-1.02.77-1.02s.94.17,1.28.51c.68,1.02,1.79,1.45,3.33,1.28,1.54-.17,2.3-1.62,2.3-4.35,0-3.75-2.39-5.37-7.17-4.87-4.78.51-7.17,3.5-7.17,8.96-.34,3.07,1.2,5.71,4.61,7.94s8.19.6,14.33-4.87" vector-effect="none" fill="url(#1773013515343-2819610_l)"></path><path class="bc" d="M47.11,114.17c-5.12,0-7.68-2.22-7.68-6.65s2.56-6.66,7.68-6.66c4.78,0,7.17,2.22,7.17,6.66s-2.39,6.65-7.17,6.65" vector-effect="none" fill="url(#1773013515343-2819610_m)"></path><path class="bd" d="M105.99,87.55c-5.12,0-7.68-2.22-7.68-6.66s2.56-6.65,7.68-6.65c4.78,0,7.17,2.22,7.17,6.65s-2.39,6.66-7.17,6.66" vector-effect="none" fill="url(#1773013515343-2819610_n)"></path><path class="bk" d="M148.72,73.69c-5.12,0-7.68-2.22-7.68-6.65s2.56-6.65,7.68-6.65c4.78,0,7.17,2.22,7.17,6.65s-2.39,6.65-7.17,6.65" vector-effect="none" fill="url(#1773013515343-2819610_o)"></path><path class="bb" d="M203.78,65.02c4.44,3.41,8.54,4.27,12.29,2.56,3.75-1.71,5.8-4.69,6.14-8.96s-2.05-8.28-7.17-12.03c8.19,2.39,12.97,5.8,14.33,10.24,1.37,4.44.68,8.45-2.04,12.03-2.73,3.59-6.4,5.46-11.01,5.63s-8.79-2.99-12.55-9.47" vector-effect="none" fill="url(#1773013515343-2819610_p)"></path><path class="bj" d="M321.47,107.52c-1.37-6.14-4.44-9.22-9.22-9.22-6.49.34-10.84,2.56-13.05,6.66-2.22,4.09-2.56,8.28-1.02,12.55s5.03,6.57,10.5,6.91c-6.14,3.07-10.75,2.82-13.83-.77-3.07-3.59-4.61-8.19-4.61-13.83s1.88-10.5,5.63-14.59c3.75-4.09,9.56-5.12,17.41-3.07,2.73,1.02,5.03,2.82,6.91,5.37s2.3,5.89,1.28,9.98" vector-effect="none" fill="url(#1773013515343-2819610_q)"></path><path class="bl" d="M308.16,131.59c6.14,5.46,10.92,7.08,14.33,4.87,3.41-2.22,4.95-4.87,4.61-7.94,0-5.46-2.39-8.45-7.17-8.96s-7.17,1.11-7.17,4.87c0,2.73.77,4.18,2.3,4.35,1.54.17,2.65-.26,3.33-1.28.34-.34.77-.51,1.28-.51s.77.34.77,1.02c-.68,2.39-2.64,3.67-5.89,3.84-3.24.17-5.37-2.13-6.4-6.91-1.02-5.46.6-8.88,4.87-10.24s8.79-.85,13.57,1.54c4.78,2.39,7.17,6.49,7.17,12.29,0,7.17-3.24,11.78-9.73,13.83s-12.63-1.2-18.43-9.73c-4.09-5.46-5.97-8.28-5.63-8.45s1.45.68,3.33,2.56c1.88,1.88,3.5,3.5,4.87,4.87" vector-effect="none" fill="url(#1773013515343-2819610_r)"></path><path class="bm" d="M305.67,114.17c-5.12,0-7.68-2.22-7.68-6.65s2.56-6.66,7.68-6.66c4.78,0,7.17,2.22,7.17,6.66s-2.39,6.65-7.17,6.65" vector-effect="none" fill="url(#1773013515343-2819610_s)"></path><path class="bs" d="M246.27,87.55c-4.78,0-7.17-2.22-7.17-6.66s2.39-6.65,7.17-6.65c5.12,0,7.68,2.22,7.68,6.65s-2.56,6.66-7.68,6.66" vector-effect="none" fill="url(#1773013515343-2819610_t)"></path><path class="bp" d="M204.05,73.69c-5.12,0-7.68-2.22-7.68-6.65s2.56-6.65,7.68-6.65c4.78,0,7.17,2.22,7.17,6.65s-2.39,6.65-7.17,6.65" vector-effect="none" fill="url(#1773013515343-2819610_u)"></path><path class="br" d="M324.61,163.33c.69,1.71,1.54,3.84,2.56,6.4,1.02,2.56,1.45,3.84,1.28,3.84s-2.13-2.73-5.89-8.19c-5.46-8.54-6.14-15.45-2.05-20.74s9.56-6.74,16.38-4.35c5.12,2.39,7.94,6.14,8.45,11.26.51,5.12-.6,9.47-3.32,13.05-2.73,3.59-6.49,3.84-11.27.77-4.09-2.73-5.46-5.55-4.09-8.45,1.36-2.9,3.24-4.18,5.63-3.84.68.34.94.77.77,1.28-.17.51-.43.77-.77.77-1.36.34-2.22,1.2-2.56,2.56s.68,2.56,3.07,3.59c3.75,1.36,6.23-.17,7.42-4.61,1.2-4.44-.77-7.85-5.89-10.24-2.73-1.36-5.8-.94-9.22,1.28s-3.59,7.42-.51,15.62" vector-effect="none" fill="url(#1773013515343-2819610_v)"></path><path class="bq" d="M27.07,163.33c3.07-8.19,2.9-13.4-.51-15.62-3.41-2.22-6.49-2.65-9.22-1.28-5.12,2.39-7.08,5.8-5.89,10.24s3.67,5.97,7.42,4.61c2.39-1.02,3.41-2.22,3.07-3.59-.34-1.36-1.2-2.22-2.56-2.56-.34,0-.6-.26-.77-.77-.17-.51.08-.94.77-1.28,2.39-.34,4.27.94,5.63,3.84,1.36,2.9,0,5.71-4.09,8.45-4.78,3.07-8.54,2.82-11.26-.77-2.73-3.59-3.84-7.94-3.33-13.05.51-5.12,3.33-8.88,8.45-11.26,6.83-2.39,12.29-.94,16.38,4.35,4.09,5.29,3.41,12.2-2.05,20.74-3.75,5.46-5.71,8.19-5.89,8.19s.26-1.28,1.28-3.84c1.02-2.56,1.88-4.69,2.56-6.4" vector-effect="none" fill="url(#1773013515343-2819610_w)"></path><path class="bv" d="M98.59,442.89c-8.19,2.73-12.12,6.14-11.78,10.24.34,4.09,1.88,6.65,4.61,7.68,4.78,2.39,8.62,1.79,11.52-1.79,2.9-3.59,2.64-6.4-.77-8.45-2.39-1.37-4.01-1.45-4.87-.26s-1.11,2.47-.77,3.84c.34.34.34.77,0,1.28-.34.51-.85.43-1.54-.25-1.7-1.71-1.79-4.01-.26-6.92,1.54-2.9,4.69-3.5,9.47-1.79,5.12,1.71,7.17,4.78,6.14,9.22-1.02,4.44-3.75,8.02-8.19,10.75-4.44,2.73-9.22,2.73-14.33,0-6.14-3.41-8.45-8.45-6.91-15.1,1.54-6.65,7.42-10.5,17.66-11.52,6.49-.34,9.81-.43,9.98-.26s-1.02.6-3.59,1.28c-2.56.68-4.69,1.37-6.4,2.05" vector-effect="none" fill="url(#1773013515343-2819610_x)"></path><path class="bu" d="M76.29,437.25c6.83.68,12.89.26,18.18-1.28s10.5-2.9,15.61-4.09c5.12-1.2,10.59-1.2,16.38,0,5.8,1.2,12.63,4.87,20.48,11.01-11.95-4.09-21.51-5.63-28.67-4.61s-13.91,2.39-20.23,4.09c-6.31,1.71-14.08,2.05-23.29,1.02-11.95-1.36-19.12-5.8-21.5-13.31-2.39-7.51-.35-13.99,6.14-19.46,4.1-3.07,8.36-4.18,12.8-3.33,4.44.85,8.28,2.82,11.52,5.89,3.25,3.07,4.95,6.4,5.12,9.98.17,3.59-1.97,6.4-6.4,8.45-5.46,2.73-9.3,2.56-11.52-.51-2.22-3.07-2.47-5.8-.77-8.19.68-.68,1.28-.77,1.79-.26.51.51.6.94.26,1.28-.34,1.71.08,3.16,1.28,4.35,1.2,1.2,3.16.77,5.89-1.28,2.39-1.71,2.99-3.93,1.79-6.66s-3.41-4.69-6.66-5.89c-3.24-1.2-6.57-.42-9.98,2.31-2.05,1.36-3.5,3.5-4.35,6.4-.85,2.9-.08,5.71,2.3,8.45,2.39,2.73,7,4.61,13.83,5.63" vector-effect="none" fill="url(#1773013515343-2819610_y)"></path><path class="bt" d="M176.13,512c-6.49-7.85-9.38-15.7-8.7-23.55s2.3-14.51,4.87-19.97c2.56-5.46,3.84-8.19,3.84-8.19,0,0,1.28,2.73,3.84,8.19,2.56,5.46,4.18,12.12,4.87,19.97.68,7.85-2.22,15.7-8.7,23.55" vector-effect="none" fill="url(#1773013515343-2819610_z)"></path><path class="bx" d="M251.46,442.89c-1.7-.68-3.84-1.37-6.4-2.05-2.56-.68-3.75-1.11-3.59-1.28.17-.17,3.5-.08,9.98.26,10.24,1.02,16.13,4.87,17.67,11.52,1.54,6.66-.77,11.69-6.92,15.1-5.12,2.73-9.9,2.73-14.33,0s-7.17-6.31-8.19-10.75c-1.02-4.44,1.03-7.51,6.14-9.22,4.78-1.7,7.94-1.11,9.47,1.79,1.54,2.9,1.45,5.21-.26,6.92-.68.68-1.2.77-1.54.25-.34-.51-.34-.94,0-1.28.34-1.36.08-2.64-.77-3.84-.85-1.2-2.47-1.11-4.87.26-3.41,2.04-3.67,4.86-.77,8.45,2.9,3.59,6.74,4.18,11.52,1.79,2.73-1.03,4.26-3.59,4.61-7.68.34-4.09-3.59-7.51-11.78-10.24" vector-effect="none" fill="url(#1773013515343-2819610_aa)"></path><path class="cc" d="M151.83,448.52c-.34-3.41.94-5.72,3.84-6.91,2.9-1.2,6.14-1.03,9.73.51,3.59,1.54,6.31,4.35,8.19,8.45,1.88,4.09,1.62,9.73-.77,16.89-2.39,8.19-6.14,13.4-11.26,15.62-5.12,2.22-9.73,2.22-13.83,0s-6.23-5.72-6.4-10.5c-.17-4.78,3.33-9.73,10.5-14.85-4.44,6.49-5.63,11.18-3.59,14.08,2.05,2.9,5.03,3.84,8.96,2.82,3.93-1.02,6.74-4.26,8.45-9.73,2.39-7.17,1.54-12.89-2.56-17.15-4.09-4.26-7.85-4.01-11.27.77" vector-effect="none" fill="url(#1773013515343-2819610_ab)"></path><path class="ca" d="M198.21,448.52c-3.41-4.78-7.17-5.03-11.26-.77-4.09,4.27-4.95,9.99-2.56,17.15,1.71,5.46,4.52,8.7,8.45,9.73,3.93,1.03,6.91.09,8.96-2.82,2.04-2.9.85-7.59-3.59-14.08,7.17,5.12,10.67,10.07,10.5,14.85-.17,4.78-2.3,8.28-6.4,10.5-4.09,2.22-8.7,2.22-13.82,0-5.12-2.22-8.88-7.42-11.27-15.62-2.39-7.17-2.64-12.8-.77-16.89,1.88-4.1,4.61-6.92,8.19-8.45,3.59-1.54,6.83-1.7,9.73-.51,2.9,1.19,4.18,3.5,3.84,6.91" vector-effect="none" fill="url(#1773013515343-2819610_ac)"></path><path class="cn" d="M165.15,453.13h20.48c2.05,0,3.07,1.88,3.07,5.63s-1.02,5.63-3.07,5.63h-20.48c-2.05,0-3.07-1.88-3.07-5.63s1.02-5.63,3.07-5.63" vector-effect="none" fill="url(#1773013515343-2819610_ad)"></path><path class="by" d="M203.03,447.5c3.75-6.49,7.94-9.65,12.54-9.47,4.61.17,8.28,2.05,11.01,5.63,2.73,3.59,3.41,7.6,2.05,12.03-1.36,4.44-6.14,7.85-14.33,10.24,5.12-3.75,7.51-7.76,7.17-12.03-.34-4.26-2.39-7.25-6.14-8.96-3.75-1.7-7.85-.85-12.29,2.56" vector-effect="none" fill="url(#1773013515343-2819610_ae)"></path><path class="bw" d="M321.31,405c1.02,4.09.6,7.42-1.28,9.98-1.88,2.56-4.18,4.36-6.91,5.38-7.85,2.05-13.65,1.02-17.41-3.07-3.75-4.09-5.63-8.96-5.63-14.59s1.54-10.24,4.61-13.83c3.07-3.59,7.68-3.84,13.83-.77-5.46.34-8.96,2.64-10.5,6.91s-1.2,8.45,1.02,12.54c2.22,4.1,6.57,6.32,13.05,6.66,4.78,0,7.85-3.07,9.22-9.22" vector-effect="none" fill="url(#1773013515343-2819610_af)"></path><path class="cd" d="M275.39,437.25c6.83-1.02,11.43-2.9,13.83-5.63,2.39-2.73,3.16-5.55,2.31-8.45-.85-2.9-2.31-5.03-4.35-6.4-3.41-2.73-6.74-3.5-9.98-2.31-3.24,1.2-5.46,3.16-6.66,5.89-1.2,2.73-.6,4.95,1.79,6.66,2.73,2.05,4.69,2.47,5.89,1.28s1.62-2.65,1.28-4.35c-.34-.34-.26-.77.26-1.28s1.11-.42,1.79.26c1.71,2.39,1.45,5.12-.77,8.19-2.22,3.07-6.06,3.24-11.52.51-4.44-2.05-6.57-4.87-6.4-8.45.17-3.59,1.88-6.91,5.12-9.98s7.08-5.03,11.52-5.89c4.44-.85,8.7.26,12.8,3.33,6.49,5.46,8.54,11.95,6.14,19.46-2.39,7.51-9.56,11.95-21.51,13.31-9.22,1.02-16.98.68-23.29-1.02-6.31-1.71-13.05-3.07-20.22-4.09-7.17-1.02-16.72.51-28.67,4.61,7.85-6.14,14.68-9.81,20.48-11.01,5.8-1.2,11.26-1.2,16.38,0,5.12,1.2,10.32,2.56,15.62,4.09,5.29,1.54,11.35,1.96,18.18,1.28" vector-effect="none" fill="url(#1773013515343-2819610_ag)"></path><path class="ce" d="M307.99,380.93c-1.36,1.37-2.99,2.99-4.87,4.87s-2.99,2.73-3.33,2.56c-.34-.17,1.54-2.98,5.63-8.45,5.8-8.54,11.95-11.78,18.43-9.73,6.49,2.04,9.73,6.65,9.73,13.82,0,5.8-2.39,9.9-7.17,12.29s-9.3,2.9-13.57,1.54c-4.27-1.36-5.89-4.78-4.87-10.24,1.02-4.78,3.16-7.08,6.4-6.91,3.24.17,5.21,1.45,5.89,3.84,0,.68-.26,1.02-.77,1.02s-.94-.17-1.28-.51c-.68-1.03-1.79-1.45-3.33-1.28-1.54.17-2.3,1.63-2.3,4.36,0,3.75,2.39,5.37,7.17,4.86,4.78-.51,7.17-3.5,7.17-8.96.34-3.07-1.2-5.71-4.61-7.93-3.41-2.22-8.19-.6-14.33,4.86" vector-effect="none" fill="url(#1773013515343-2819610_ah)"></path><path class="cp" d="M305.67,397.83c4.78,0,7.17,2.22,7.17,6.66s-2.39,6.66-7.17,6.66c-5.12,0-7.68-2.22-7.68-6.66s2.56-6.66,7.68-6.66" vector-effect="none" fill="url(#1773013515343-2819610_ai)"></path><path class="co" d="M246.27,424.45c5.12,0,7.68,2.22,7.68,6.66s-2.56,6.66-7.68,6.66c-4.78,0-7.17-2.22-7.17-6.66s2.39-6.66,7.17-6.66" vector-effect="none" fill="url(#1773013515343-2819610_aj)"></path><path class="ci" d="M204.05,438.31c4.78,0,7.17,2.22,7.17,6.66s-2.39,6.66-7.17,6.66c-5.12,0-7.68-2.22-7.68-6.66s2.56-6.66,7.68-6.66" vector-effect="none" fill="url(#1773013515343-2819610_ak)"></path><path class="cg" d="M147.74,447.5c-4.44-3.41-8.54-4.27-12.29-2.56-3.75,1.71-5.8,4.7-6.14,8.96-.34,4.27,2.05,8.28,7.17,12.03-8.19-2.39-12.97-5.8-14.33-10.24-1.36-4.44-.68-8.45,2.05-12.03,2.73-3.58,6.4-5.46,11.01-5.63,4.61-.17,8.79,2.99,12.55,9.47" vector-effect="none" fill="url(#1773013515343-2819610_al)"></path><path class="cb" d="M28.74,405c1.36,6.14,4.44,9.22,9.22,9.22,6.49-.34,10.84-2.56,13.05-6.66,2.22-4.09,2.56-8.27,1.02-12.54-1.54-4.27-5.03-6.57-10.5-6.91,6.14-3.07,10.75-2.82,13.83.77s4.61,8.19,4.61,13.83-1.88,10.5-5.63,14.59-9.56,5.12-17.41,3.07c-2.73-1.02-5.03-2.82-6.91-5.38-1.88-2.56-2.3-5.89-1.28-9.98" vector-effect="none" fill="url(#1773013515343-2819610_am)"></path><path class="bz" d="M42.05,380.93c-6.14-5.46-10.92-7.08-14.33-4.86-3.41,2.22-4.95,4.86-4.61,7.93,0,5.46,2.39,8.45,7.17,8.96,4.78.51,7.17-1.11,7.17-4.86,0-2.73-.77-4.18-2.3-4.36-1.54-.17-2.65.26-3.33,1.28-.34.34-.77.51-1.28.51s-.77-.34-.77-1.02c.69-2.39,2.65-3.67,5.89-3.84,3.25-.17,5.38,2.13,6.4,6.91,1.02,5.46-.6,8.88-4.87,10.24-4.26,1.36-8.79.85-13.57-1.54-4.78-2.39-7.17-6.49-7.17-12.29,0-7.17,3.25-11.78,9.73-13.82,6.49-2.05,12.63,1.19,18.43,9.73,4.1,5.46,5.98,8.28,5.64,8.45-.35.17-1.45-.68-3.33-2.56s-3.5-3.5-4.87-4.87" vector-effect="none" fill="url(#1773013515343-2819610_an)"></path><path class="cm" d="M47.11,397.83c4.78,0,7.17,2.22,7.17,6.66s-2.39,6.66-7.17,6.66c-5.12,0-7.68-2.22-7.68-6.66s2.56-6.66,7.68-6.66" vector-effect="none" fill="url(#1773013515343-2819610_ao)"></path><path class="ck" d="M105.99,424.45c4.78,0,7.17,2.22,7.17,6.66s-2.39,6.66-7.17,6.66c-5.12,0-7.68-2.22-7.68-6.66s2.56-6.66,7.68-6.66" vector-effect="none" fill="url(#1773013515343-2819610_ap)"></path><path class="ch" d="M148.72,438.31c4.78,0,7.17,2.22,7.17,6.66s-2.39,6.66-7.17,6.66c-5.12,0-7.68-2.22-7.68-6.66s2.56-6.66,7.68-6.66" vector-effect="none" fill="url(#1773013515343-2819610_aq)"></path><path class="cr" d="M26.91,349.19c-.68-1.71-1.54-3.84-2.56-6.4s-1.45-3.84-1.28-3.84,2.13,2.73,5.89,8.19c5.46,8.54,6.14,15.45,2.05,20.74-4.09,5.29-9.56,6.74-16.38,4.35-5.12-2.39-7.94-6.14-8.45-11.26-.51-5.12.6-9.47,3.33-13.05,2.73-3.59,6.49-3.84,11.26-.77,4.09,2.73,5.46,5.55,4.09,8.45-1.36,2.9-3.24,4.18-5.63,3.84-.68-.34-.94-.77-.77-1.28.17-.51.42-.77.77-.77,1.36-.34,2.22-1.2,2.56-2.56.34-1.37-.68-2.56-3.07-3.59-3.75-1.36-6.23.17-7.42,4.61-1.2,4.44.77,7.85,5.89,10.24,2.73,1.37,5.8.94,9.22-1.28s3.59-7.42.51-15.61" vector-effect="none" fill="url(#1773013515343-2819610_ar)"></path><path class="cq" d="M323.14,349.19c-3.07,8.19-2.9,13.4.51,15.61s6.49,2.65,9.22,1.28c5.12-2.39,7.08-5.8,5.89-10.24-1.2-4.44-3.67-5.97-7.42-4.61-2.39,1.03-3.41,2.22-3.07,3.59.34,1.36,1.2,2.22,2.56,2.56.34,0,.6.26.77.77.17.51-.09.94-.77,1.28-2.39.34-4.27-.94-5.63-3.84-1.36-2.9,0-5.71,4.09-8.45,4.78-3.07,8.54-2.82,11.27.77,2.73,3.58,3.84,7.93,3.32,13.05-.51,5.12-3.32,8.87-8.45,11.26-6.83,2.39-12.29.94-16.38-4.35-4.09-5.29-3.41-12.2,2.05-20.74,3.75-5.46,5.71-8.19,5.89-8.19s-.26,1.28-1.28,3.84c-1.03,2.56-1.88,4.69-2.56,6.4" vector-effect="none" fill="url(#1773013515343-2819610_as)"></path><path class="cf" d="M352.26,256c0,25.94-4.61,50.26-13.83,72.96-9.22,22.7-21.85,42.67-37.89,59.91-16.04,17.24-34.73,30.72-56.06,40.45-21.33,9.73-44.12,14.59-68.35,14.59s-47.02-4.87-68.35-14.59c-21.33-9.73-40.02-23.21-56.06-40.45-16.04-17.24-28.67-37.2-37.89-59.91-9.22-22.7-13.83-47.02-13.83-72.96s4.61-50.26,13.83-72.96c9.22-22.7,21.85-42.67,37.89-59.91,16.04-17.24,34.73-30.72,56.06-40.45,21.33-9.73,44.12-14.59,68.35-14.59s47.02,4.87,68.35,14.59c21.33,9.73,40.02,23.21,56.06,40.45,16.04,17.24,28.67,37.2,37.89,59.91,9.22,22.7,13.83,47.02,13.83,72.96" vector-effect="none" fill="url(#1773013515343-2819610_at)"></path><path class="cl" d="M176.13,77.31c22.87,0,44.29,4.61,64.26,13.83,19.96,9.22,37.63,22.01,52.99,38.4,15.36,16.38,27.31,35.42,35.84,57.09,8.54,21.67,12.8,44.8,12.8,69.37s-4.27,47.7-12.8,69.37c-8.53,21.67-20.48,40.71-35.84,57.09-15.36,16.38-33.02,29.18-52.99,38.4-19.97,9.22-41.39,13.83-64.26,13.83s-44.29-4.61-64.26-13.83c-19.96-9.22-37.63-22.01-52.99-38.4-15.36-16.38-27.31-35.41-35.84-57.09-8.54-21.67-12.8-44.8-12.8-69.37s4.27-47.7,12.8-69.37c8.53-21.67,20.48-40.71,35.84-57.09,15.36-16.38,33.02-29.18,52.99-38.4,19.97-9.22,41.39-13.83,64.26-13.83M176.13,423.43c20.82,0,40.45-4.35,58.88-13.05,18.43-8.7,34.56-20.74,48.39-36.1,13.83-15.36,24.66-33.11,32.51-53.25,7.85-20.14,11.78-41.81,11.78-65.02s-3.92-44.88-11.78-65.02c-7.85-20.14-18.69-37.89-32.51-53.25-13.83-15.36-29.95-27.39-48.39-36.1-18.43-8.7-38.06-13.05-58.88-13.05s-40.45,4.35-58.88,13.05c-18.43,8.7-34.56,20.74-48.39,36.1-13.83,15.36-24.66,33.11-32.51,53.25-7.85,20.14-11.78,41.81-11.78,65.02s3.92,44.88,11.78,65.02c7.85,20.14,18.69,37.89,32.51,53.25,13.83,15.36,29.95,27.39,48.39,36.1,18.43,8.7,38.06,13.05,58.88,13.05" vector-effect="none" fill="url(#1773013515343-2819610_au)"></path><path class="cj" d="M317.96,256c0,21.85-3.67,42.41-11.01,61.7-7.34,19.28-17.49,36.18-30.46,50.69-12.97,14.51-28.08,25.86-45.31,34.05-17.24,8.19-35.58,12.29-55.04,12.29s-37.8-4.09-55.04-12.29c-17.24-8.19-32.34-19.54-45.31-34.05-12.97-14.51-23.12-31.4-30.46-50.69-7.34-19.28-11.01-39.85-11.01-61.7s3.67-42.41,11.01-61.7c7.34-19.28,17.49-36.18,30.46-50.69,12.97-14.51,28.08-25.86,45.31-34.05,17.24-8.19,35.58-12.29,55.04-12.29s37.8,4.09,55.04,12.29c17.24,8.19,32.34,19.54,45.31,34.05,12.97,14.51,23.12,31.4,30.46,50.69,7.34,19.28,11.01,39.85,11.01,61.7" vector-effect="none" fill="url(#1773013515343-2819610_av)"></path><path class="cs" d="M315.41,255.98c0,21.45-3.6,41.64-10.81,60.59-7.21,18.94-17.18,35.53-29.92,49.78-12.74,14.24-27.57,25.39-44.5,33.43-16.93,8.04-34.94,12.07-54.05,12.07s-37.12-4.02-54.05-12.07c-16.93-8.04-31.76-19.19-44.5-33.43-12.74-14.24-22.71-30.84-29.92-49.78-7.21-18.94-10.81-39.13-10.81-60.59s3.6-41.65,10.81-60.59c7.2-18.94,17.18-35.53,29.92-49.78,12.73-14.24,27.57-25.39,44.5-33.43,16.92-8.04,34.94-12.07,54.05-12.07s37.12,4.02,54.05,12.07c16.92,8.04,31.76,19.19,44.5,33.43,12.73,14.24,22.71,30.84,29.92,49.78,7.2,18.94,10.81,39.13,10.81,60.59" vector-effect="none" fill="url(#1773013515343-2819610_aw)"></path></g></svg>