<svg xmlns="http://www.w3.org/2000/svg" style="" viewBox="0 0 400.04 512"><g class="nc-icon-wrapper"><defs><radialGradient id="1773012782139-7224172_b" cx="-1009.5" cy="26.6" fx="-1009.5" fy="26.6" r="41.42" gradientTransform="translate(0 -46)" gradientUnits="userSpaceOnUse"><stop offset=".51" stop-color="#c99b71" stop-opacity=".8"></stop><stop offset="1" stop-color="#c99b71" stop-opacity="0"></stop></radialGradient><radialGradient id="1773012782139-7224172_c" cx="14.49" cy="27.9" fx="14.49" fy="27.9" r="41.42" gradientTransform="translate(0 -46)" gradientUnits="userSpaceOnUse"><stop offset=".51" stop-color="#c99b71" stop-opacity=".8"></stop><stop offset="1" stop-color="#c99b71" stop-opacity="0"></stop></radialGradient><linearGradient id="1773012782139-7224172_d" x1="272.58" y1="360.92" x2="272.58" y2="312.79" gradientTransform="translate(0 -46)" gradientUnits="userSpaceOnUse"><stop offset="0" stop-color="#4a90c2"></stop><stop offset="1" stop-color="#1e3a5f"></stop></linearGradient><linearGradient id="1773012782139-7224172_e" x1="127.46" y1="360.92" x2="127.46" y2="312.79" gradientTransform="translate(0 -46)" gradientUnits="userSpaceOnUse"><stop offset="0" stop-color="#4a90c2"></stop><stop offset="1" stop-color="#1e3a5f"></stop></linearGradient><linearGradient id="1773012782139-7224172_f" x1="200.28" y1="349.16" x2="200.28" y2="342" gradientTransform="translate(0 -46)" gradientUnits="userSpaceOnUse"><stop offset="0" stop-color="#6b7578"></stop><stop offset="1" stop-color="#9caaae"></stop></linearGradient><linearGradient id="1773012782139-7224172_g" x1="-28.13" y1="715.84" x2="-31.25" y2="718.98" gradientTransform="translate(0 -46)" gradientUnits="userSpaceOnUse"><stop offset="0" stop-color="#6b7578"></stop><stop offset="1" stop-color="#9caaae"></stop></linearGradient><linearGradient id="1773012782139-7224172_h" x1="49.24" y1="350.7" x2="49.24" y2="317.93" gradientTransform="translate(0 -46)" gradientUnits="userSpaceOnUse"><stop offset="0" stop-color="#6b7578"></stop><stop offset="1" stop-color="#9caaae"></stop></linearGradient><linearGradient id="1773012782139-7224172_i" x1="278.45" y1="389.1" x2="278.45" y2="339.95" gradientTransform="translate(0 -46)" gradientUnits="userSpaceOnUse"><stop offset="0" stop-color="#fff" stop-opacity="0"></stop><stop offset="1" stop-color="#fff" stop-opacity=".8"></stop></linearGradient><linearGradient id="1773012782139-7224172_j" x1="121.58" y1="389.1" x2="121.58" y2="339.95" gradientTransform="translate(0 -46)" gradientUnits="userSpaceOnUse"><stop offset="0" stop-color="#fff" stop-opacity="0"></stop><stop offset="1" stop-color="#fff" stop-opacity=".8"></stop></linearGradient><linearGradient id="1773012782139-7224172_k" x1="278.21" y1="391.08" x2="278.21" y2="338.34" gradientTransform="translate(0 -46)" gradientUnits="userSpaceOnUse"><stop offset="0" stop-color="#6b7578"></stop><stop offset="1" stop-color="#9caaae"></stop></linearGradient><linearGradient id="1773012782139-7224172_l" x1="121.82" y1="391.09" x2="121.82" y2="338.34" gradientTransform="translate(0 -46)" gradientUnits="userSpaceOnUse"><stop offset="0" stop-color="#6b7578"></stop><stop offset="1" stop-color="#9caaae"></stop></linearGradient></defs><path class="x" d="M200.02,79.87c31.74,0,58.2,5.12,79.36,15.36,21.17,10.24,37.89,23.81,50.17,40.7,12.29,16.9,21.33,35.41,27.14,55.55,5.8,20.14,9.3,40.27,10.5,60.41,1.2,20.14,1.11,38.57-.26,55.3-1.36,16.72-2.9,30.21-4.61,40.45-1.7,10.24-2.56,15.36-2.56,15.36,0,21.51-3.07,39.51-9.22,54.02-6.14,14.51-13.74,26.46-22.78,35.84-9.05,9.38-18.35,16.81-27.91,22.27s-18,9.47-25.34,12.03c-7.33,2.56-12.2,4.69-14.59,6.4-3.07,2.05-9.22,5.63-18.43,10.75-9.22,5.12-23.04,7.68-41.48,7.68s-32.25-2.56-41.47-7.68c-9.22-5.12-15.36-8.7-18.43-10.75-2.39-1.71-7.26-3.84-14.6-6.4-7.33-2.56-15.79-6.57-25.34-12.03s-18.86-12.89-27.9-22.27c-9.04-9.38-16.64-21.33-22.79-35.84-6.14-14.51-9.21-32.51-9.21-54.02,0,0-.85-5.12-2.56-15.36-1.7-10.24-3.24-23.72-4.61-40.45-1.36-16.72-1.45-35.16-.25-55.3,1.19-20.14,4.69-40.27,10.5-60.41,5.8-20.14,14.85-38.65,27.13-55.55,12.29-16.9,29.01-30.47,50.18-40.7,21.16-10.24,47.61-15.36,79.35-15.36" vector-effect="none" fill="#ebc199"></path><path class="x" d="M1.37,279.55c1.36-8.88,4.44-15.53,9.22-19.97,4.78-4.44,10.07-6.14,15.87-5.12s11.09,5.12,15.87,12.29c4.78,7.17,7.94,17.66,9.47,31.49s.08,31.49-4.35,52.99c-2.05,11.26-5.8,18.43-11.27,21.51-5.46,3.07-10.66,2.64-15.61-1.28-4.95-3.93-7.6-10.66-7.94-20.22-.68-8.19-1.88-14.51-3.58-18.94-1.71-4.44-3.41-8.7-5.12-12.8s-2.9-9.04-3.59-14.85c-.68-5.8-.34-14.17,1.03-25.09" vector-effect="none" fill="#ebc199"></path><path class="w" d="M17.75,268.8c3.75,2.39,6.23,5.12,7.42,8.19,1.2,3.07,2.22,6.66,3.07,10.75.85,4.09,2.82,9.04,5.89,14.85,2.73,5.8,3.07,10.5,1.02,14.08-2.05,3.59-4.01,6.91-5.89,9.98s-1.45,6.83,1.28,11.26c4.44,6.83,5.55,10.07,3.33,9.73s-5.72-2.9-10.5-7.68c-4.78-4.78-8.19-10.24-10.24-16.38-2.39-6.49-3.75-14.42-4.09-23.81-.35-9.38.25-17.32,1.79-23.81s3.84-8.88,6.92-7.17" vector-effect="none" fill="url(#1773012782139-7224172_b)"></path><path class="ad" d="M17.75,268.8c3.75,2.39,6.23,5.12,7.42,8.19,1.2,3.07,2.22,6.66,3.07,10.75.85,4.09,2.82,9.04,5.89,14.85,2.73,5.8,3.07,10.5,1.02,14.08-2.05,3.59-4.01,6.91-5.89,9.98s-1.45,6.83,1.28,11.26c4.44,6.83,5.55,10.07,3.33,9.73s-5.72-2.9-10.5-7.68c-4.78-4.78-8.19-10.24-10.24-16.38-2.39-6.49-3.75-14.42-4.09-23.81-.35-9.38.25-17.32,1.79-23.81s3.84-8.88,6.92-7.17" vector-effect="none" fill="#ddb288"></path><path class="ag" d="M17.75,268.8c3.75,2.39,6.23,5.12,7.42,8.19,1.2,3.07,2.22,6.66,3.07,10.75.85,4.09,2.82,9.04,5.89,14.85-4.44-7.85-8.11-14.42-11.01-19.71s-5.37-8.11-7.42-8.45c-2.05-.34-4.27,3.41-6.65,11.26.34-5.8,1.28-10.41,2.82-13.83,1.54-3.41,3.5-4.44,5.89-3.07" vector-effect="none" fill="#cd9f76"></path><path class="x" d="M398.68,280.84c1.36,10.92,1.71,19.28,1.02,25.09-.68,5.8-1.88,10.75-3.59,14.85s-3.41,8.36-5.12,12.8c-1.71,4.44-2.9,10.75-3.59,18.94-.34,9.56-2.99,16.3-7.94,20.22-4.95,3.93-10.16,4.35-15.62,1.28s-9.22-10.24-11.26-21.51c-4.44-21.51-5.89-39.17-4.35-52.99,1.54-13.83,4.69-24.32,9.47-31.49,4.78-7.17,10.07-11.26,15.87-12.29,5.8-1.02,11.09.68,15.87,5.12,4.78,4.44,7.85,11.09,9.22,19.97" vector-effect="none" fill="#ebc199"></path><path class="v" d="M382.29,270.09c3.07-1.71,5.37.68,6.91,7.17s2.13,14.42,1.79,23.81c-.34,9.38-1.71,17.32-4.09,23.81-2.05,6.14-5.46,11.61-10.24,16.38-4.78,4.78-8.28,7.34-10.5,7.68s-1.11-2.9,3.33-9.73c2.73-4.44,3.16-8.19,1.28-11.26s-3.84-6.4-5.89-9.98c-2.05-3.59-1.71-8.28,1.02-14.08,3.07-5.8,5.03-10.75,5.89-14.85s1.88-7.68,3.07-10.75c1.2-3.07,3.67-5.8,7.42-8.19" vector-effect="none" fill="url(#1773012782139-7224172_c)"></path><path class="ad" d="M382.29,270.09c3.07-1.71,5.37.68,6.91,7.17s2.13,14.42,1.79,23.81c-.34,9.38-1.71,17.32-4.09,23.81-2.05,6.14-5.46,11.61-10.24,16.38-4.78,4.78-8.28,7.34-10.5,7.68s-1.11-2.9,3.33-9.73c2.73-4.44,3.16-8.19,1.28-11.26s-3.84-6.4-5.89-9.98c-2.05-3.59-1.71-8.28,1.02-14.08,3.07-5.8,5.03-10.75,5.89-14.85s1.88-7.68,3.07-10.75c1.2-3.07,3.67-5.8,7.42-8.19" vector-effect="none" fill="#ddb288"></path><path class="ag" d="M382.29,270.09c2.39-1.36,4.35-.34,5.89,3.07s2.47,8.02,2.82,13.83c-2.39-7.85-4.61-11.61-6.66-11.26-2.05.34-4.52,3.16-7.42,8.45s-6.57,11.86-11.01,19.71c3.07-5.8,5.03-10.75,5.89-14.85s1.88-7.68,3.07-10.75c1.2-3.07,3.67-5.8,7.42-8.19" vector-effect="none" fill="#cd9f76"></path><path class="aj" d="M226.64,365.56c3.07,0,4.87.94,5.38,2.82s-.94,3.67-4.35,5.37c-2.73,1.71-7,3.59-12.8,5.63-5.8,2.05-10.75,3.07-14.85,3.07s-9.04-1.02-14.85-3.07c-5.8-2.05-10.07-3.93-12.8-5.63-3.41-1.71-4.87-3.5-4.35-5.37.51-1.88,2.3-2.82,5.37-2.82,3.75,0,7.68.68,11.78,2.05,4.1,1.36,9.05,2.05,14.85,2.05s10.75-.68,14.85-2.05c4.1-1.36,8.02-2.05,11.78-2.05M275.28,425.98c.34-8.19-1.28-15.02-4.87-20.48-3.59-5.46-8.54-11.18-14.85-17.15s-13.4-13.4-21.25-22.27c10.24,9.9,19.03,17.5,26.37,22.79,7.33,5.29,12.37,10.41,15.1,15.36,2.73,4.95,2.56,12.21-.51,21.76M124.76,425.98c-.34-8.19,1.28-15.02,4.87-20.48,3.58-5.46,8.53-11.18,14.85-17.15,6.31-5.97,13.4-13.4,21.24-22.27-10.24,9.9-19.03,17.5-26.37,22.79s-12.37,10.41-15.1,15.36c-2.73,4.95-2.56,12.21.51,21.76M237.39,322.55c7.17-1.71,13.83-2.05,19.97-1.02,6.14,1.03,12.46,2.05,18.94,3.07s13.99.85,22.53-.51c-10.58,3.75-20.91,4.52-30.97,2.31-10.07-2.22-20.23-3.5-30.47-3.84M162.64,322.55c-7.17-1.71-13.82-2.05-19.96-1.02-6.14,1.03-12.46,2.05-18.94,3.07s-14,.85-22.53-.51c10.58,3.75,20.9,4.52,30.97,2.31,10.07-2.22,20.22-3.5,30.46-3.84" vector-effect="none" fill="#c99b71"></path><path class="aa" d="M73.56,249.85c3.07-3.75,6.49-6.49,10.24-8.19,3.76-1.71,6.14-2.82,7.17-3.33,1.02-.51-.85-.42-5.64.26,2.73-1.02,6.14-2.05,10.24-3.07,4.1-1.02,6.83-1.71,8.19-2.05s-1.02-.34-7.17,0c10.58-3.07,21.76-4.87,33.53-5.37,11.78-.51,19.71-.08,23.81,1.28,4.1,1.02,5.46,3.93,4.1,8.7-1.37,4.78-4.27,7.17-8.71,7.17-11.94-.34-24.91.51-38.91,2.56-14,2.05-24.92,6.66-32.77,13.83-1.71-2.39-3.07-2.56-4.1-.51-1.7-2.05-2.04-4.27-1.02-6.66s2.05-4.18,3.07-5.37c1.02-1.2.34-.94-2.05.77" vector-effect="none" fill="#89969c"></path><path class="ai" d="M89.94,252.41c-2.73,1.02-5.55,1.96-8.45,2.82s-5.37,2.13-7.42,3.84c2.39-3.41,6.14-5.89,11.26-7.42,5.12-1.54,10.24-2.82,15.36-3.84-4.78.68-9.64,1.36-14.59,2.05-4.95.68-9.13,2.39-12.55,5.12,3.41-4.78,8.96-7.51,16.64-8.19,7.68-.68,14.59-1.2,20.74-1.54-10.24-.68-17.41-.77-21.5-.26-4.1.51-7.68,1.11-10.75,1.79,3.07-2.73,7.85-4.35,14.33-4.87s13.48.6,20.99,3.33c-3.41-2.05-7.34-3.33-11.78-3.84-4.44-.51-8.88-1.11-13.31-1.79,6.14-1.36,12.03-1.28,17.66.26s11.35,2.99,17.15,4.35c-3.76-2.73-8.02-4.69-12.8-5.89-4.78-1.2-9.56-1.96-14.33-2.3,6.49-.68,12.54-.08,18.18,1.79,5.63,1.88,11.35,3.67,17.15,5.37-4.44-2.73-9.22-5.29-14.33-7.68-5.12-2.39-10.59-3.41-16.38-3.07,6.83-1.71,13.22-.77,19.2,2.82,5.97,3.59,12.2,6.06,18.69,7.42-4.09-2.73-8.36-5.46-12.8-8.19-4.44-2.73-9.56-3.93-15.36-3.59,6.83-1.36,12.8-.68,17.92,2.05,5.12,2.73,9.73,5.97,13.83,9.73-1.71-3.07-4.09-5.97-7.17-8.7s-6.83-4.27-11.27-4.61c5.8-.68,10.16.51,13.05,3.59,2.9,3.07,5.55,6.31,7.94,9.73-.34-3.07-1.36-5.97-3.07-8.7-1.7-2.73-4.44-4.61-8.19-5.63,4.78.68,7.93,2.65,9.47,5.89,1.54,3.24,2.82,6.23,3.84,8.96.34-2.39.34-5.21,0-8.45-.34-3.24-2.22-5.55-5.63-6.91,4.44.68,6.74,2.65,6.91,5.89.17,3.24.26,6.23.26,8.96.68-2.05,1.28-4.35,1.79-6.91.51-2.56-.09-4.87-1.79-6.91,2.73,2.05,3.92,4.52,3.58,7.42-.34,2.9-1.2,5.37-2.56,7.42,2.73-1.36,4.35-3.59,4.87-6.66.51-3.07-.26-5.63-2.31-7.68,2.39,1.36,3.93,3.16,4.61,5.37s.51,4.52-.51,6.91c-2.05,2.39-4.44,3.59-7.17,3.59-10.24-.34-21.24.17-33.02,1.54-11.78,1.36-21.93,4.44-30.47,9.22-3.75,1.02-6.49,2.39-8.19,4.09.68-1.02,1.62-2.05,2.82-3.07,1.19-1.02,4.35-2.56,9.47-4.61" vector-effect="none" fill="#7f8c91"></path><path class="aa" d="M326.49,251.15c-2.39-1.71-3.07-1.96-2.05-.77s2.05,2.99,3.07,5.37c1.02,2.39.68,4.61-1.02,6.66-1.02-2.05-2.39-1.88-4.09.51-7.85-7.17-18.77-11.78-32.77-13.83-13.99-2.05-26.96-2.9-38.91-2.56-4.44,0-7.34-2.39-8.7-7.17-1.36-4.78,0-7.68,4.09-8.7,4.09-1.36,12.03-1.79,23.81-1.28,11.78.51,22.95,2.3,33.53,5.37-6.14-.34-8.54-.34-7.17,0,1.36.34,4.09,1.02,8.19,2.05,4.09,1.02,7.51,2.05,10.24,3.07-4.78-.68-6.65-.77-5.63-.26,1.02.51,3.41,1.62,7.17,3.33s7.17,4.44,10.24,8.19" vector-effect="none" fill="#89969c"></path><path class="ai" d="M310.1,253.7c5.12,2.05,8.28,3.59,9.47,4.61s2.13,2.05,2.82,3.07c-1.7-1.71-4.44-3.07-8.19-4.09-8.54-4.78-18.69-7.85-30.47-9.22-11.78-1.36-22.79-1.88-33.02-1.54-2.73,0-5.12-1.2-7.17-3.59-1.02-2.39-1.2-4.69-.51-6.91.68-2.22,2.22-4.01,4.61-5.37-2.05,2.05-2.82,4.61-2.3,7.68.51,3.07,2.13,5.29,4.87,6.66-1.36-2.05-2.22-4.52-2.56-7.42s.85-5.37,3.59-7.42c-1.71,2.05-2.3,4.35-1.79,6.91.51,2.56,1.11,4.87,1.79,6.91,0-2.73.08-5.71.26-8.96.17-3.24,2.47-5.21,6.91-5.89-3.41,1.36-5.29,3.67-5.63,6.91s-.34,6.06,0,8.45c1.02-2.73,2.3-5.71,3.84-8.96,1.54-3.24,4.69-5.21,9.47-5.89-3.75,1.02-6.49,2.9-8.19,5.63s-2.73,5.63-3.07,8.7c2.39-3.41,5.03-6.66,7.94-9.73,2.9-3.07,7.25-4.27,13.05-3.59-4.44.34-8.19,1.88-11.26,4.61-3.07,2.73-5.46,5.63-7.17,8.7,4.09-3.75,8.7-7,13.83-9.73,5.12-2.73,11.09-3.41,17.92-2.05-5.8-.34-10.92.85-15.36,3.59-4.44,2.73-8.7,5.46-12.8,8.19,6.49-1.36,12.71-3.84,18.69-7.42,5.97-3.59,12.37-4.52,19.2-2.82-5.8-.34-11.26.68-16.38,3.07s-9.9,4.95-14.33,7.68c5.8-1.71,11.52-3.5,17.15-5.37s11.69-2.47,18.18-1.79c-4.78.34-9.56,1.11-14.33,2.3-4.78,1.2-9.04,3.16-12.8,5.89,5.8-1.36,11.52-2.82,17.15-4.35,5.63-1.54,11.52-1.62,17.66-.26-4.44.68-8.88,1.28-13.31,1.79s-8.36,1.79-11.78,3.84c7.51-2.73,14.51-3.84,20.99-3.33,6.49.51,11.26,2.13,14.33,4.87-3.07-.68-6.66-1.28-10.75-1.79s-11.26-.42-21.51.26c6.14.34,13.05.85,20.74,1.54,7.68.68,13.23,3.41,16.64,8.19-3.41-2.73-7.6-4.44-12.54-5.12-4.95-.68-9.81-1.36-14.59-2.05,5.12,1.02,10.24,2.3,15.36,3.84,5.12,1.54,8.88,4.01,11.27,7.42-2.05-1.71-4.52-2.99-7.42-3.84-2.9-.85-5.72-1.79-8.45-2.82" vector-effect="none" fill="#7f8c91"></path><path class="al" d="M268.12,415.22c-13.31,13.31-28.16,21.93-44.54,25.86s-32.6,3.67-48.64-.77c-16.04-4.44-30.38-12.8-43.01-25.09,23.89,1.71,46.59,2.56,68.09,2.56s44.2-.85,68.1-2.56" vector-effect="none" fill="#c98655"></path><path class="ae" d="M200.02,413.69c6.14-2.05,12.46-2.65,18.95-1.79,6.49.85,13.65,1.88,21.5,3.07,7.85,1.2,17.07,1.28,27.65.26-7.85,3.41-18.18,5.89-30.98,7.42-12.8,1.54-25.17,2.47-37.12,2.82-11.94-.34-24.32-1.28-37.12-2.82-12.8-1.54-23.13-4.01-30.97-7.42,10.58,1.02,19.8.94,27.65-.26,7.85-1.2,15.02-2.22,21.5-3.07,6.49-.85,12.8-.26,18.94,1.79" vector-effect="none" fill="#a66435"></path><path class="ak" d="M317.77,293.84c-2.39,9.22-7.33,15.19-14.85,17.92-7.51,2.73-15.95,3.75-25.34,3.07-9.38-.68-18.18-1.54-26.37-2.56-8.19-1.02-13.99-.85-17.41.51-.34-15.02,3.32-26.71,11-35.07,7.68-8.37,16.72-13.31,27.14-14.85s20.05.26,28.93,5.37c8.87,5.12,14.51,13.65,16.89,25.6" vector-effect="none" fill="#edebea"></path><path class="u" d="M272.58,266.79c6.68,0,12.37,2.34,17.05,7.02s7.02,10.36,7.02,17.05-2.34,12.37-7.02,17.05-10.36,7.02-17.05,7.02-12.37-2.34-17.05-7.02c-4.68-4.68-7.02-10.36-7.02-17.05s2.34-12.37,7.02-17.05c4.68-4.68,10.36-7.02,17.05-7.02" vector-effect="none" fill="url(#1773012782139-7224172_d)"></path><path class="ab" d="M258.9,290.37c0-4.47,1.39-7.81,4.18-10.05,2.79-2.23,5.97-3.35,9.55-3.35s6.75,1.12,9.54,3.35,4.18,5.58,4.18,10.05c0,4.69-1.39,8.2-4.18,10.55s-5.97,3.52-9.54,3.52-6.75-1.17-9.55-3.52c-2.79-2.34-4.18-5.86-4.18-10.55" vector-effect="none" fill="#1a1626"></path><path class="ak" d="M257.51,283.74c0-3.71,1.55-5.57,4.65-5.57s4.64,1.86,4.64,5.57-1.55,5.57-4.64,5.57-4.65-1.86-4.65-5.57" vector-effect="none" fill="#edebea"></path><path class="am" d="M235.86,295.38c3.41-13.65,9.47-23.04,18.18-28.16,8.7-5.12,18-7.17,27.9-6.14s18.35,4.52,25.34,10.5c7,5.97,10.5,13.4,10.5,22.27-4.44-10.58-11.78-18-22.01-22.27-10.24-4.27-20.91-4.61-32-1.02-11.09,3.59-20.39,11.86-27.91,24.83" vector-effect="none" fill="#8b612d"></path><path class="ak" d="M82.26,293.84c2.39-11.95,8.02-20.48,16.9-25.6,8.88-5.12,18.52-6.91,28.93-5.37,10.41,1.54,19.46,6.49,27.13,14.85,7.68,8.36,11.35,20.05,11.01,35.07-3.41-1.36-9.22-1.54-17.41-.51-8.19,1.02-16.98,1.88-26.37,2.56-9.38.68-17.83-.34-25.34-3.07-7.51-2.73-12.46-8.7-14.85-17.92" vector-effect="none" fill="#edebea"></path><path class="t" d="M127.46,266.79c-6.68,0-12.37,2.34-17.05,7.02-4.68,4.68-7.02,10.36-7.02,17.05s2.34,12.37,7.02,17.05c4.68,4.68,10.36,7.02,17.05,7.02s12.37-2.34,17.05-7.02,7.02-10.36,7.02-17.05-2.34-12.37-7.02-17.05c-4.68-4.68-10.36-7.02-17.05-7.02" vector-effect="none" fill="url(#1773012782139-7224172_e)"></path><path class="ab" d="M141.18,290.41c0,4.69-1.39,8.2-4.18,10.54s-5.97,3.51-9.54,3.51-6.75-1.17-9.54-3.51c-2.79-2.34-4.18-5.86-4.18-10.54s1.39-7.81,4.18-10.04c2.79-2.23,5.97-3.34,9.54-3.34s6.75,1.12,9.54,3.34c2.79,2.23,4.18,5.58,4.18,10.04" vector-effect="none" fill="#1a1626"></path><path class="ak" d="M142.46,283.74c0,3.71-1.55,5.57-4.64,5.57s-4.64-1.86-4.64-5.57,1.55-5.57,4.64-5.57,4.64,1.86,4.64,5.57" vector-effect="none" fill="#edebea"></path><path class="am" d="M164.18,295.38c-7.51-12.97-16.81-21.25-27.9-24.83-11.09-3.59-21.76-3.24-32,1.02-10.24,4.27-17.58,11.69-22.02,22.27,0-8.88,3.5-16.3,10.5-22.27,7-5.97,15.45-9.47,25.34-10.5s19.2,1.02,27.91,6.14c8.7,5.12,14.76,14.51,18.17,28.16" vector-effect="none" fill="#8b612d"></path><path class="s" d="M180.05,303.16l-1.54-4.09c2.73-1.36,6.99-2.31,12.8-2.82,5.8-.51,11.61-.51,17.41,0,5.8.51,10.24,1.45,13.31,2.82l-1.54,4.09c-2.73-1.36-6.83-2.22-12.29-2.56s-10.92-.34-16.38,0-9.39,1.2-11.78,2.56" vector-effect="none" fill="url(#1773012782139-7224172_f)"></path><path class="r" d="M334.76,305.17l-.03-6.65,31.98-26.84.03,6.65-31.98,26.84" vector-effect="none" fill="url(#1773012782139-7224172_g)"></path><path class="p" d="M64.85,304.7l-31.23-26.11v-6.66l31.23,26.11v6.66" vector-effect="none" fill="url(#1773012782139-7224172_h)"></path><path class="o" d="M326.99,293.95c5.46,0,8.36,2.05,8.7,6.14.34,4.09-.85,9.04-3.58,14.85-2.73,5.8-5.98,11.43-9.73,16.9-2.39,3.41-7.59,6.06-15.61,7.94-8.02,1.88-16.9,2.99-26.62,3.33-9.73.34-18.69-.17-26.88-1.54-8.19-1.36-13.66-3.59-16.38-6.66-4.78-5.12-8.71-10.92-11.78-17.41-3.07-6.49-4.36-12.03-3.84-16.64s3.5-6.91,8.96-6.91h96.77" vector-effect="none" fill="url(#1773012782139-7224172_i)"></path><path class="n" d="M73.04,293.95h96.77c5.46,0,8.45,2.3,8.96,6.91s-.77,10.16-3.84,16.64-7,12.29-11.78,17.41c-2.73,3.07-8.19,5.29-16.38,6.66-8.19,1.36-17.15,1.88-26.88,1.54-9.73-.34-18.61-1.45-26.63-3.33-8.02-1.88-13.22-4.52-15.61-7.94-3.75-5.46-7-11.09-9.73-16.9-2.73-5.8-3.92-10.75-3.58-14.85s3.24-6.14,8.7-6.14" vector-effect="none" fill="url(#1773012782139-7224172_j)"></path><path class="m" d="M274.26,345.08c-8.19,0-16.04-.68-23.56-2.05-7.51-1.36-12.63-3.59-15.36-6.66-5.12-5.8-9.47-12.55-13.06-20.23-3.58-7.68-4.35-13.74-2.3-18.18.68-1.36,1.79-2.64,3.33-3.84s3.84-1.79,6.91-1.79h96.77c2.73,0,4.87.51,6.4,1.54s2.47,2.05,2.82,3.07c1.7,3.07,1.79,7.08.26,12.03s-3.67,9.64-6.4,14.08c-2.73,4.44-4.78,7.68-6.14,9.73-2.04,3.07-5.71,5.37-11,6.91-5.3,1.54-10.67,2.65-16.13,3.33-5.46.68-9.38,1.2-11.78,1.54-3.41.34-6.99.51-10.75.51M230.23,295.93c-3.41,0-5.63,1.2-6.65,3.59-1.37,3.41-.6,8.45,2.3,15.1,2.9,6.66,7.08,13.05,12.55,19.2,2.39,2.73,8.02,4.78,16.89,6.14,8.88,1.36,18.6,1.71,29.19,1.02,9.21-.68,17.15-1.96,23.81-3.84,6.65-1.88,10.84-4.01,12.54-6.4,5.12-7.17,8.79-13.65,11.01-19.46s2.64-10.07,1.28-12.8c-1.02-1.71-3.07-2.56-6.14-2.56h-96.77" vector-effect="none" fill="url(#1773012782139-7224172_k)"></path><path class="q" d="M125.78,345.08c-3.75,0-7.34-.17-10.75-.51-2.39-.34-6.31-.85-11.78-1.54-5.46-.68-10.84-1.79-16.13-3.33s-8.96-3.84-11-6.91c-1.37-2.05-3.42-5.29-6.14-9.73-2.73-4.44-4.87-9.13-6.4-14.08-1.54-4.95-1.45-8.96.26-12.03.34-1.02,1.28-2.05,2.82-3.07s3.67-1.54,6.4-1.54h96.77c3.07,0,5.37.6,6.91,1.79,1.54,1.2,2.65,2.47,3.33,3.84,2.04,4.44,1.28,10.5-2.31,18.18-3.58,7.68-7.93,14.42-13.05,20.23-2.73,3.07-7.85,5.29-15.36,6.66-7.51,1.36-15.36,2.05-23.55,2.05M73.05,295.93c-3.07,0-5.12.85-6.14,2.56-1.37,2.73-.94,7,1.28,12.8,2.22,5.8,5.89,12.29,11,19.46,1.71,2.39,5.89,4.52,12.55,6.4,6.66,1.88,14.59,3.16,23.81,3.84,10.58.68,20.31.34,29.18-1.02,8.88-1.36,14.51-3.41,16.9-6.14,5.46-6.14,9.64-12.55,12.55-19.2,2.9-6.66,3.67-11.69,2.3-15.1-1.02-2.39-3.24-3.59-6.65-3.59h-96.77" vector-effect="none" fill="url(#1773012782139-7224172_l)"></path><path class="y" d="M282.45,39.94c9.56,3.75,16.13,8.62,19.71,14.59,3.58,5.97,5.37,11.95,5.37,17.92s-.6,10.92-1.79,14.85-1.79,5.89-1.79,5.89H95.06c-3.75-16.04-3.16-30.46,1.79-43.26,4.95-12.8,13.57-22.53,25.85-29.18,12.29-6.66,27.65-8.96,46.08-6.91,6.83-6.14,15.79-10.24,26.88-12.29,11.09-2.05,22.53-2.05,34.3,0,11.78,2.05,22.44,6.23,32,12.55,9.56,6.31,16.38,14.93,20.48,25.86" vector-effect="none" fill="#abbbbf"></path><path class="ah" d="M282.45,39.94c-5.8,0-13.23,2.05-22.27,6.14s-17.32,10.75-24.83,19.97c4.44-2.05,11.18-3.67,20.22-4.87s18.43-1.28,28.16-.26c9.73,1.02,17.5,3.93,23.3,8.7,1.02,6.14.77,11.6-.77,16.38-1.54,4.78-2.3,7.17-2.3,7.17H95.06c-4.44-18.77-2.9-35.16,4.61-49.15-2.05,8.19-.77,14.42,3.84,18.69,4.61,4.27,8.62,6.57,12.03,6.91-2.39-4.44-3.67-10.5-3.84-18.18-.17-7.68,2.47-14.59,7.93-20.74-3.41,8.88-2.3,17.41,3.33,25.6,5.63,8.19,15.45,11.61,29.44,10.24-7.51-4.09-12.03-9.22-13.57-15.36s-1.02-12.12,1.54-17.92c2.56-5.8,6.4-10.58,11.52-14.33,5.12-3.75,10.75-5.46,16.89-5.12-1.02,5.46-1.36,11.69-1.02,18.69.34,7,2.3,13.74,5.89,20.22,3.59,6.49,9.64,11.61,18.18,15.36-1.37-7.51-1.88-15.79-1.54-24.83s2.73-17.41,7.17-25.09c4.44-7.68,12.29-13.57,23.55-17.66-5.46,5.8-11,13.83-16.64,24.06-5.63,10.24-7.08,23.89-4.35,40.96,5.46-15.02,12.37-26.03,20.74-33.02,8.36-7,16.98-10.92,25.86-11.78s16.64.51,23.29,4.09c6.66,3.59,10.84,8.62,12.55,15.1" vector-effect="none" fill="#88999e"></path><path class="af" d="M168.79,13.83s-1.45,2.05-4.35,6.14c-2.9,4.09-5.03,9.81-6.4,17.15-1.37,7.34.51,15.96,5.63,25.86-7.51-3.07-11.86-7.76-13.05-14.08-1.2-6.31-.09-12.8,3.32-19.46,3.41-6.66,8.36-11.86,14.85-15.62M119.63,30.72c-5.12,7.51-6.99,14.08-5.63,19.71,1.37,5.63,4.35,10.58,8.96,14.85,4.61,4.27,9.13,7.85,13.57,10.75,4.44,2.9,7.34,5.21,8.7,6.91-10.92.34-19.71-2.3-26.37-7.94-6.66-5.63-10.16-12.54-10.5-20.74-.34-8.19,3.41-16.04,11.26-23.55M263.51,22.02s-1.88.08-5.63.26c-3.76.17-8.71,1.36-14.85,3.59-6.14,2.22-12.97,6.4-20.48,12.55-7.51,6.14-15.02,15.19-22.53,27.14,0-7.51,2.99-15.53,8.96-24.06,5.98-8.54,13.74-15.1,23.3-19.71s19.96-4.52,31.23.26M215.89,2.56s-1.54,1.11-4.61,3.33c-3.07,2.22-6.4,5.89-9.99,11.01-3.58,5.12-6.48,11.86-8.7,20.22-2.22,8.36-2.47,18.69-.77,30.97-4.78-12.97-5.63-25.77-2.56-38.4,3.07-12.63,11.94-21.67,26.62-27.14M277.33,37.89s-3.07.42-9.21,1.28c-6.14.85-13.4,3.59-21.76,8.19-8.36,4.61-15.79,12.37-22.27,23.29-.34-3.41,1.79-8.11,6.4-14.08,4.61-5.97,11.01-11.09,19.2-15.36,8.19-4.27,17.41-5.37,27.65-3.33" vector-effect="none" fill="#727d82"></path><path class="af" d="M307.03,69.63s-3.84-.85-11.52-2.56c-7.68-1.71-17.58-2.56-29.7-2.56s-24.83,2.39-38.14,7.17c3.07-3.75,8.19-7,15.36-9.73,7.17-2.73,15.02-4.44,23.56-5.12,8.53-.68,16.55-.08,24.06,1.79,7.51,1.88,12.97,5.55,16.38,11.01" vector-effect="none" fill="#727d82"></path><path class="z" d="M297.3,90.62c15.7.68,29.7,5.46,41.98,14.33,12.29,8.88,22.53,20.14,30.72,33.79,8.19,13.65,14.17,27.99,17.92,43.01,3.75,15.02,5.03,29.18,3.84,42.49-1.2,13.31-5.04,24.06-11.52,32.25-2.73,3.07-5.71,5.63-8.96,7.68-3.24,2.05-7.17,1.02-11.78-3.07-4.61-4.09-10.16-13.65-16.64-28.67-2.04-15.02-7.33-27.14-15.87-36.35-8.54-9.22-18.86-15.96-30.97-20.22-12.12-4.27-24.58-6.83-37.38-7.68s-24.49-.42-35.07,1.28c-10.59,1.71-18.43,3.75-23.56,6.14-5.12-2.39-12.97-4.44-23.55-6.14s-22.27-2.13-35.07-1.28c-12.8.85-25.26,3.41-37.38,7.68s-22.44,11.01-30.97,20.22c-8.54,9.22-13.83,21.33-15.88,36.35-6.49,15.02-12.03,24.58-16.64,28.67-4.6,4.09-8.53,5.12-11.78,3.07-3.24-2.05-6.06-4.61-8.45-7.68-6.83-8.19-10.84-18.94-12.03-32.25-1.2-13.31.08-27.48,3.84-42.49,3.75-15.02,9.73-29.35,17.91-43.01,8.19-13.65,18.43-24.92,30.72-33.79,12.29-8.88,26.28-13.65,41.98-14.33,10.92-8.88,25-15.53,42.24-19.97,17.24-4.44,35.58-6.66,55.04-6.66s37.81,2.22,55.04,6.66c17.24,4.44,31.32,11.09,42.24,19.97" vector-effect="none" fill="#a0b3ba"></path><path class="aa" d="M387.92,241.66c-2.04,9.56-5.03,17.15-8.96,22.79-3.92,5.63-8.11,11.86-12.54,18.69-1.71,3.07-4.35,4.18-7.94,3.33-3.59-.85-5.55-3.16-5.89-6.91-1.02-8.54-2.47-15.19-4.35-19.97-1.88-4.78-3.59-8.79-5.12-12.03s-2.3-6.91-2.3-11.01c-.68-15.02-5.12-27.14-13.31-36.35-8.19-9.22-18.35-15.96-30.47-20.22-12.12-4.27-24.66-6.91-37.63-7.94-12.97-1.02-24.83-.94-35.58.26-10.75,1.2-18.69,2.99-23.81,5.37-5.12-2.39-13.05-4.18-23.81-5.37-10.75-1.2-22.61-1.28-35.58-.26-12.97,1.02-25.51,3.67-37.63,7.94-12.12,4.27-22.27,11.01-30.46,20.22-8.19,9.22-12.63,21.33-13.31,36.35,0,4.09-.77,7.76-2.31,11.01-1.54,3.24-3.24,7.25-5.12,12.03-1.88,4.78-3.33,11.43-4.35,19.97-.34,3.75-2.31,6.06-5.89,6.91-3.59.85-6.23-.26-7.94-3.33-4.44-6.83-8.62-13.05-12.55-18.69-3.92-5.63-6.91-13.23-8.95-22.79,6.83,10.92,14.08,13.23,21.76,6.91,7.68-6.32,15.61-24.15,23.81-53.5-12.63,2.73-22.01,2.65-28.16-.26l-9.22-4.35s2.39.17,7.17.51c4.78.34,10.93.08,18.43-.77,7.51-.85,15.53-3.16,24.06-6.91-11.27,1.02-20.48.17-27.65-2.56-7.17-2.73-12.46-5.71-15.87-8.96s-5.12-4.87-5.12-4.87c0,0,2.99,1.45,8.96,4.35,5.98,2.9,14.94,4.61,26.88,5.12,11.95.51,27.14-2.99,45.57-10.5-6.14-14.33-9.65-26.28-10.5-35.84-.85-9.56-.34-17.24,1.54-23.04,1.88-5.8,3.84-9.98,5.89-12.55,2.04-2.56,3.07-3.84,3.07-3.84-2.73,4.78-4.35,10.84-4.87,18.18s.08,14.67,1.79,22.01c1.7,7.34,4.44,13.65,8.19,18.94,3.75,5.29,8.36,8.45,13.83,9.47,8.54,1.36,17.58,2.05,27.14,2.05s18.86.68,27.9,2.05c9.04,1.36,16.81,4.61,23.29,9.73,6.49-5.12,14.25-8.36,23.3-9.73,9.04-1.36,18.34-2.05,27.9-2.05s18.6-.68,27.14-2.05c5.46-1.02,10.07-4.18,13.82-9.47,3.76-5.29,6.49-11.61,8.19-18.94,1.7-7.34,2.3-14.67,1.79-22.01-.51-7.34-2.13-13.4-4.87-18.18,0,0,1.02,1.28,3.07,3.84s4.01,6.74,5.89,12.55c1.88,5.8,2.39,13.48,1.54,23.04-.85,9.56-4.35,21.51-10.5,35.84,18.43,7.51,33.62,11.01,45.56,10.5,11.95-.51,20.91-2.22,26.88-5.12,5.98-2.9,8.96-4.35,8.96-4.35,0,0-1.7,1.62-5.12,4.87s-8.7,6.23-15.88,8.96c-7.17,2.73-16.38,3.59-27.65,2.56,8.54,3.75,16.56,6.06,24.06,6.91s13.65,1.11,18.43.77c4.78-.34,7.17-.51,7.17-.51,0,0-3.07,1.45-9.22,4.35-6.14,2.9-15.53,2.99-28.16.26,8.19,29.35,16.13,47.19,23.81,53.5,7.68,6.31,14.93,4.01,21.76-6.91" vector-effect="none" fill="#89969c"></path><path class="ac" d="M93.01,165.89c-5.46.34-11.94-1.2-19.46-4.61-7.51-3.41-13.74-8.88-18.69-16.38s-6.4-17.58-4.35-30.21c.34,10.24,2.9,18.69,7.68,25.34,4.78,6.66,10.41,12.03,16.89,16.13,6.49,4.09,12.46,7.34,17.92,9.73M141.65,155.64c-8.88.68-16.73-2.13-23.56-8.45-6.83-6.31-10.66-14.76-11.52-25.34s3.33-21.85,12.55-33.79c-5.12,15.7-5.55,29.27-1.28,40.7,4.26,11.43,12.2,20.39,23.81,26.88" vector-effect="none" fill="#c1d1d6"></path><path class="ac" d="M162.13,159.23c-7.17-1.36-13.83-4.95-19.97-10.75s-10.5-12.89-13.05-21.25c-2.56-8.36-1.88-17.32,2.05-26.88,3.92-9.56,12.54-18.77,25.85-27.65-10.92,12.29-17.07,23.98-18.43,35.07-1.37,11.09.34,21.08,5.12,29.95,4.78,8.88,10.92,16.04,18.43,21.51" vector-effect="none" fill="#c1d1d6"></path><path class="aa" d="M250.7,152.06c-5.46,7.85-12.8,14.25-22.01,19.2s-18.77,7.25-28.67,6.91-18.69-4.61-26.37-12.8-12.89-21.67-15.61-40.45c5.46,16.04,13.22,27.05,23.29,33.02,10.07,5.97,21.16,8.19,33.28,6.66,12.12-1.54,24.15-5.71,36.09-12.55" vector-effect="none" fill="#89969c"></path><path class="ac" d="M312.14,167.42c4.44-3.75,9.13-8.36,14.08-13.83,4.95-5.46,8.87-12.12,11.78-19.97,2.9-7.85,3.67-17.24,2.3-28.16,5.12,12.97,6.32,23.89,3.59,32.77-2.73,8.88-7.26,15.79-13.57,20.74-6.32,4.95-12.37,7.76-18.18,8.45M202.07,158.21c6.83-1.02,14.42-3.59,22.79-7.68,8.36-4.09,16.38-9.56,24.06-16.38,7.68-6.83,13.65-15.02,17.91-24.58,4.27-9.56,5.55-20.48,3.84-32.77,5.8,13.99,6.74,26.46,2.82,37.38-3.93,10.92-10.32,19.97-19.2,27.14s-18.26,12.29-28.16,15.36c-9.9,3.07-17.92,3.59-24.06,1.54" vector-effect="none" fill="#c1d1d6"></path></g></svg>