<svg xmlns="http://www.w3.org/2000/svg" style="" viewBox="0 0 512 512"><g class="nc-icon-wrapper"><defs><radialGradient id="1772947707125-7043_b" cx="56.86" cy="760.5" fx="56.86" fy="760.5" r="45.83" gradientTransform="translate(0 -106)" gradientUnits="userSpaceOnUse"><stop offset="0" stop-color="#4e5e67"></stop><stop offset=".26" stop-color="#4b5962"></stop><stop offset=".59" stop-color="#424955"></stop><stop offset=".95" stop-color="#33303f"></stop><stop offset="1" stop-color="#302c3b"></stop></radialGradient><linearGradient id="1772947707125-7043_c" x1="448.87" y1="121.1" x2="496.9" y2="169.13" gradientTransform="translate(0 -106)" gradientUnits="userSpaceOnUse"><stop offset="0" stop-color="#b88100"></stop><stop offset=".07" stop-color="#c08d0d"></stop><stop offset=".19" stop-color="#d6ab2f"></stop><stop offset=".36" stop-color="#f8dd65"></stop><stop offset=".39" stop-color="#ffe770"></stop><stop offset=".4" stop-color="#fce26b"></stop><stop offset=".45" stop-color="#e7c54a"></stop><stop offset=".51" stop-color="#d6ac2f"></stop><stop offset=".57" stop-color="#c9991a"></stop><stop offset=".64" stop-color="#bf8b0b"></stop><stop offset=".72" stop-color="#ba8303"></stop><stop offset=".85" stop-color="#b88100"></stop></linearGradient><radialGradient id="1772947707125-7043_d" cx="538.65" cy="-185.21" fx="538.65" fy="-185.21" r="208.48" gradientTransform="translate(0 -106)" gradientUnits="userSpaceOnUse"><stop offset="0" stop-color="#4e5e67"></stop><stop offset="1" stop-color="#302c3b"></stop></radialGradient><linearGradient id="1772947707125-7043_e" x1="305.23" y1="254.9" x2="363.09" y2="312.75" gradientTransform="translate(0 -106)" gradientUnits="userSpaceOnUse"><stop offset="0" stop-color="#b88100"></stop><stop offset=".07" stop-color="#c08d0d"></stop><stop offset=".19" stop-color="#d6ab2f"></stop><stop offset=".36" stop-color="#f8dd65"></stop><stop offset=".39" stop-color="#ffe770"></stop><stop offset=".4" stop-color="#fce26b"></stop><stop offset=".45" stop-color="#e7c54a"></stop><stop offset=".51" stop-color="#d6ac2f"></stop><stop offset=".57" stop-color="#c9991a"></stop><stop offset=".64" stop-color="#bf8b0b"></stop><stop offset=".72" stop-color="#ba8303"></stop><stop offset=".85" stop-color="#b88100"></stop></linearGradient><radialGradient id="1772947707125-7043_f" cx="-309.24" cy="-172.91" fx="-309.24" fy="-172.91" r="254.31" gradientTransform="translate(0 -106)" gradientUnits="userSpaceOnUse"><stop offset="0" stop-color="#4e5e67"></stop><stop offset=".22" stop-color="#49555f"></stop><stop offset=".59" stop-color="#3a3d4a"></stop><stop offset=".8" stop-color="#302c3b"></stop></radialGradient><linearGradient id="1772947707125-7043_g" x1="96.07" y1="470.07" x2="147.63" y2="522.22" gradientTransform="translate(0 -106)" gradientUnits="userSpaceOnUse"><stop offset="0" stop-color="#b88100"></stop><stop offset=".07" stop-color="#c9991b"></stop><stop offset=".22" stop-color="#e6c349"></stop><stop offset=".33" stop-color="#f8dd65"></stop><stop offset=".39" stop-color="#ffe770"></stop><stop offset=".61" stop-color="#deb83c"></stop><stop offset=".85" stop-color="#b88100"></stop></linearGradient><linearGradient id="1772947707125-7043_h" x1="92.51" y1="476.37" x2="142.02" y2="525.1" gradientTransform="translate(0 -106)" gradientUnits="userSpaceOnUse"><stop offset="0" stop-color="#b88100"></stop><stop offset=".07" stop-color="#c9991b"></stop><stop offset=".22" stop-color="#e6c349"></stop><stop offset=".33" stop-color="#f8dd65"></stop><stop offset=".39" stop-color="#ffe770"></stop><stop offset=".5" stop-color="#eac84e"></stop><stop offset=".66" stop-color="#cfa224"></stop><stop offset=".78" stop-color="#be8a0a"></stop><stop offset=".85" stop-color="#b88100"></stop></linearGradient><linearGradient id="1772947707125-7043_i" x1="89.1" y1="480.32" x2="137.28" y2="529.3" gradientTransform="translate(0 -106)" gradientUnits="userSpaceOnUse"><stop offset="0" stop-color="#b88100"></stop><stop offset=".07" stop-color="#c08d0d"></stop><stop offset=".19" stop-color="#d6ab2f"></stop><stop offset=".36" stop-color="#f8dd65"></stop><stop offset=".39" stop-color="#ffe770"></stop><stop offset=".4" stop-color="#fce26b"></stop><stop offset=".45" stop-color="#e7c54a"></stop><stop offset=".51" stop-color="#d6ac2f"></stop><stop offset=".57" stop-color="#c9991a"></stop><stop offset=".64" stop-color="#bf8b0b"></stop><stop offset=".72" stop-color="#ba8303"></stop><stop offset=".85" stop-color="#b88100"></stop></linearGradient><radialGradient id="1772947707125-7043_j" cx="102.69" cy="-183.53" fx="102.69" fy="-183.53" r="63.16" gradientTransform="translate(0 -106)" gradientUnits="userSpaceOnUse"><stop offset="0" stop-color="#4e5e67"></stop><stop offset=".22" stop-color="#49555f"></stop><stop offset=".59" stop-color="#3a3d4a"></stop><stop offset=".8" stop-color="#302c3b"></stop></radialGradient><linearGradient id="1772947707125-7043_k" x1="28.38" y1="539.96" x2="77.78" y2="589.9" gradientTransform="translate(0 -106)" gradientUnits="userSpaceOnUse"><stop offset="0" stop-color="#889194"></stop><stop offset=".05" stop-color="#949ca0"></stop><stop offset=".25" stop-color="#c2cace"></stop><stop offset=".4" stop-color="#dee6ea"></stop><stop offset=".49" stop-color="#e9f0f5"></stop><stop offset=".77" stop-color="#b5bec1"></stop><stop offset="1" stop-color="#889194"></stop></linearGradient><linearGradient id="1772947707125-7043_l" x1="337.46" y1="232.78" x2="451.25" y2="113.52" gradientTransform="translate(0 -106)" gradientUnits="userSpaceOnUse"><stop offset="0" stop-color="#ffe770"></stop><stop offset=".2" stop-color="#fde46c"></stop><stop offset=".39" stop-color="#f6da61"></stop><stop offset=".57" stop-color="#eac94f"></stop><stop offset=".75" stop-color="#d9b134"></stop><stop offset=".92" stop-color="#c49213"></stop><stop offset="1" stop-color="#b88100"></stop></linearGradient></defs><path class="w" d="M455.22,12.03C463.58,3.66,472.14-.35,480.87.02c8.73.36,16.01,3.45,21.83,9.28,5.82,5.82,8.91,13.1,9.28,21.83.36,8.74-3.64,17.28-12.01,25.65l-44.76-44.76" vector-effect="none" fill="url(#1772947707125-7043_b)"></path><path class="v" d="M451.4,13.66c3.64-3.64,8.73-4,15.28-1.09,6.55,2.91,12.92,7.46,19.1,13.64,6.19,6.18,10.74,12.55,13.64,19.1,2.91,6.55,2.55,11.64-1.09,15.28l-9.28,10.37c-1.82,1.82-5.55.73-11.19-3.28s-11.55-9.19-17.74-15.55c-6.19-6.37-11.28-12.46-15.28-18.28-4-5.82-5.28-9.46-3.82-10.92l10.37-9.28" vector-effect="none" fill="url(#1772947707125-7043_c)"></path><path class="y" d="M113.53,427.95c-17.83,21.11-31.84,37.84-42.03,50.21-10.19,12.37-15.28,18.56-15.28,18.56l-51.31,11.46-1.09-1.09,11.46-51.31s6.19-5.09,18.56-15.28c12.37-10.19,29.11-24.2,50.21-42.03,1.09-1.09,3.36-.36,6.82,2.19,3.45,2.55,7.09,5.73,10.92,9.55s6.91,7.46,9.28,10.92,3.19,5.73,2.45,6.82" vector-effect="none" fill="#656c6e"></path><path class="u" d="M443.21,22.4c2.91-2.55,7.37-2.19,13.38,1.09,6,3.28,12.01,7.91,18.01,13.92,6,6,10.64,12.01,13.92,18.01,3.28,6,3.64,10.46,1.09,13.38-6.55,7.28-14.74,16.19-24.56,26.74-9.83,10.55-20.19,21.74-31.11,33.57-10.92,11.83-21.29,23.11-31.11,33.84-9.83,10.73-18.28,19.83-25.38,27.29-7.1,7.46-11.55,12.1-13.37,13.92-3.28,3.28-7.82,4.09-13.64,2.46-5.82-1.64-11.83-5-18.01-10.1-6.19-5.09-11.74-10.74-16.64-16.92-4.91-6.19-8.28-12.19-10.1-18.01s-1.09-10.37,2.19-13.64c1.82-1.82,6.55-6.37,14.19-13.64,7.64-7.28,16.83-16.01,27.57-26.2,10.73-10.19,22.02-20.74,33.84-31.66,11.83-10.92,23.02-21.19,33.57-30.84,10.55-9.65,19.29-17.38,26.2-23.2" vector-effect="none" fill="url(#1772947707125-7043_d)"></path><path class="t" d="M307.85,146.3c3.28-3.28,7.91-4,13.92-2.19,6,1.82,12.19,5.28,18.56,10.37s12.1,10.83,17.19,17.19,8.55,12.55,10.37,18.56c1.82,6,.91,10.64-2.73,13.92l-11.46,11.46c-1.82,1.45-5.19.82-10.1-1.91s-10.28-6.82-16.1-12.28-11.37-11.19-16.64-17.19c-5.28-6-9.28-11.46-12.01-16.38-2.73-4.91-3.36-8.1-1.91-9.55l10.92-12.01" vector-effect="none" fill="url(#1772947707125-7043_e)"></path><path class="s" d="M150.65,414.85c-1.45,1.82-4.55,1.45-9.28-1.09-4.73-2.55-10-6.28-15.83-11.19-5.82-4.91-11.19-10.28-16.1-16.1s-8.64-11.1-11.19-15.83-2.91-8-1.09-9.83l199.77-198.68c4-4,9.55-4.28,16.65-.82,7.1,3.45,14.1,8.83,21.02,16.1s12.1,14.47,15.55,21.56c3.45,7.1,3.36,12.46-.27,16.1l-199.23,199.77" vector-effect="none" fill="url(#1772947707125-7043_f)"></path><path class="r" d="M96.61,363.54c2.19-2.19,6.37-1.18,12.55,3,6.19,4.19,12.74,9.74,19.65,16.65s12.46,13.46,16.65,19.65c4.19,6.19,5,10.37,2.45,12.55-.73.73-1.55,1.55-2.45,2.45l-1.36,1.36c-1.09,1.09-4.55-.64-10.37-5.19-5.82-4.55-12.1-10.19-18.83-16.92-6.73-6.73-12.37-13.01-16.92-18.83-4.55-5.82-6.09-9.46-4.64-10.92,0,0,.36-.36,1.09-1.09s1.45-1.64,2.19-2.73" vector-effect="none" fill="url(#1772947707125-7043_g)"></path><path class="p" d="M93.34,369c2.19-1.82,6.28-.82,12.28,3,6,3.82,12.28,9,18.83,15.55,6.55,6.55,11.74,12.83,15.55,18.83,3.82,6,4.64,10.1,2.45,12.28l-4.37,4.37c-1.09,1.09-4.46-.55-10.1-4.91s-11.64-9.83-18.01-16.38c-6.37-6.55-11.74-12.55-16.1-18.01-4.37-5.46-6-8.91-4.91-10.37l4.37-4.37" vector-effect="none" fill="url(#1772947707125-7043_h)"></path><path class="o" d="M89.52,374.45c2.19-2.19,6.19-1.36,12.01,2.45,5.82,3.82,11.92,8.91,18.28,15.28s11.46,12.46,15.28,18.29c3.82,5.82,4.64,9.83,2.45,12.01l-3.28,3.28c-1.45,1.09-4.91-.45-10.37-4.64-5.46-4.19-11.28-9.46-17.47-15.83s-11.37-12.28-15.55-17.74c-4.19-5.46-5.73-8.73-4.64-9.83l3.28-3.28" vector-effect="none" fill="url(#1772947707125-7043_i)"></path><path class="n" d="M87.88,379.91s2.27.64,6.82,1.91c4.55,1.27,11.19,6.1,19.93,14.47,8.37,8.73,13.38,15.55,15.01,20.47s2.45,7.37,2.45,7.37c0,0-1.18,1.18-3.55,3.55-2.36,2.36-3.73,3.73-4.09,4.1-1.45,1.09-5-.45-10.64-4.64s-10.83-8.64-15.55-13.38c-4.37-4.73-8.73-9.92-13.1-15.55-4.37-5.64-5.82-9.19-4.37-10.64.36,0,1.64-1.27,3.82-3.82s3.28-3.82,3.28-3.82" vector-effect="none" fill="url(#1772947707125-7043_j)"></path><path class="m" d="M120.63,428.49c-18.56,21.83-36.57,44.03-54.04,66.59-4.37,5.46-9.83,8.55-16.38,9.28l-48.58,7.64,49.67-49.67c3.64,3.28,7.28,3.09,10.92-.55,4-4,4-8,0-12.01-1.46-1.82-3.45-2.73-6-2.73-2.19,0-4.19.91-6,2.73-3.64,3.64-3.82,7.28-.55,10.92L0,510.37l7.64-48.58c.73-6.55,3.82-12.01,9.28-16.38,22.56-17.83,44.76-35.84,66.59-54.04,1.09-1.09,3.82,0,8.19,3.28,4.37,3.28,8.91,7.28,13.64,12.01,4.73,4.73,8.64,9.19,11.74,13.38s4.28,7,3.55,8.46" vector-effect="none" fill="url(#1772947707125-7043_k)"></path><path class="x" d="M463.95,21.85c0,.73-.36,1.73-1.09,3s-1.64,1.55-2.73.82c-4.37-3.28-7.82-4.37-10.37-3.28-3.64,1.45-9.1,5.09-16.38,10.92-7.28,5.82-15.19,12.55-23.74,20.19-8.55,7.64-16.83,15.19-24.83,22.65-8,7.46-14.55,13.64-19.65,18.56-5.09,4.91-7.64,7.37-7.64,7.37,1.82,1.82,1.73,4.09-.27,6.82-2,2.73-4.64,5.37-7.91,7.91s-5.64,4.19-7.1,4.91c-2.91,1.09-6.19,1.09-9.83,0s-6-3.28-7.1-6.55c8-8.73,17.56-18.28,28.66-28.66,11.1-10.37,22.65-20.65,34.66-30.84,12.01-10.19,23.11-19.38,33.3-27.57s18.38-14.28,24.56-18.28c1.45-.73,4.46.55,9,3.82,4.55,3.28,7.37,6,8.46,8.19" vector-effect="none" fill="#b88100"></path><path class="q" d="M463.95,21.85s-1.09-1.09-3.28-3.28-4-3.28-5.46-3.28c-2.19-.36-7.82,3-16.92,10.1-9.1,7.1-19.65,16.01-31.66,26.74-12.01,10.74-23.74,21.65-35.21,32.75-11.46,11.1-21.02,20.83-28.66,29.2-3.64,3.64-7.46,5-11.46,4.09-4-.91-5.82-2.27-5.46-4.09,0-2.19,3.82-7.09,11.46-14.74,7.64-7.64,17.1-16.47,28.38-26.47,11.28-10,22.65-19.74,34.11-29.2,11.46-9.46,21.19-17.47,29.2-24.02,8-6.55,12.55-10.19,13.64-10.92,2.55-1.45,6.46-.45,11.74,3,5.28,3.45,8.46,6.82,9.55,10.1" vector-effect="none" fill="url(#1772947707125-7043_l)"></path></g></svg>