<svg data-name="Layer 1" xmlns="http://www.w3.org/2000/svg" style="" viewBox="0 0 511.99 512"><g class="nc-icon-wrapper"><defs><radialGradient id="1772947707126-4077045_b" cx="524.13" cy="432.76" fx="524.13" fy="432.76" r="63.24" gradientTransform="matrix(.91631 -.08226 .08185 -.921 -61.68 466.71)" gradientUnits="userSpaceOnUse"><stop offset="0" stop-color="#ff709b"></stop><stop offset=".26" stop-color="#f96d97"></stop><stop offset=".61" stop-color="#e8638b"></stop><stop offset="1" stop-color="#cc5478"></stop></radialGradient><linearGradient id="1772947707126-4077045_c" x1="475.96" y1="365.54" x2="407.12" y2="436.26" gradientTransform="matrix(1 0 0 -1 -28.02 500.38)" gradientUnits="userSpaceOnUse"><stop offset="0" stop-color="#6e787a"></stop><stop offset=".61" stop-color="#d6dbde"></stop><stop offset=".69" stop-color="#d2d8da"></stop><stop offset=".77" stop-color="#c7cdd0"></stop><stop offset=".84" stop-color="#b4bbbe"></stop><stop offset=".91" stop-color="#9aa2a4"></stop><stop offset=".98" stop-color="#788284"></stop><stop offset="1" stop-color="#6e787a"></stop></linearGradient><linearGradient id="1772947707126-4077045_d" x1="286.33" y1="735.35" x2="231.93" y2="791.24" gradientTransform="scale(1 -1) rotate(-45 -678.719 135.054)" gradientUnits="userSpaceOnUse"><stop offset="0" stop-color="#6e787a"></stop><stop offset=".61" stop-color="#d6dbde"></stop><stop offset=".69" stop-color="#d2d8da"></stop><stop offset=".77" stop-color="#c7cdd0"></stop><stop offset=".84" stop-color="#b4bbbe"></stop><stop offset=".91" stop-color="#9aa2a4"></stop><stop offset=".98" stop-color="#788284"></stop><stop offset="1" stop-color="#6e787a"></stop></linearGradient><linearGradient id="1772947707126-4077045_e" x1="286.33" y1="723.4" x2="231.93" y2="779.29" gradientTransform="scale(1 -1) rotate(-45 -678.719 135.054)" gradientUnits="userSpaceOnUse"><stop offset="0" stop-color="#6e787a"></stop><stop offset=".61" stop-color="#d6dbde"></stop><stop offset=".69" stop-color="#d2d8da"></stop><stop offset=".77" stop-color="#c7cdd0"></stop><stop offset=".84" stop-color="#b4bbbe"></stop><stop offset=".91" stop-color="#9aa2a4"></stop><stop offset=".98" stop-color="#788284"></stop><stop offset="1" stop-color="#6e787a"></stop></linearGradient><linearGradient id="1772947707126-4077045_f" x1="286.33" y1="711.45" x2="231.92" y2="767.34" gradientTransform="scale(1 -1) rotate(-45 -678.719 135.054)" gradientUnits="userSpaceOnUse"><stop offset="0" stop-color="#6e787a"></stop><stop offset=".61" stop-color="#d6dbde"></stop><stop offset=".69" stop-color="#d2d8da"></stop><stop offset=".77" stop-color="#c7cdd0"></stop><stop offset=".84" stop-color="#b4bbbe"></stop><stop offset=".91" stop-color="#9aa2a4"></stop><stop offset=".98" stop-color="#788284"></stop><stop offset="1" stop-color="#6e787a"></stop></linearGradient><linearGradient id="1772947707126-4077045_g" x1="61.14" y1="71.87" x2="108.1" y2="19.51" gradientTransform="matrix(1 0 0 -1 -28.02 500.38)" gradientUnits="userSpaceOnUse"><stop offset="0" stop-color="#fed0ac"></stop><stop offset=".25" stop-color="#fccda8"></stop><stop offset=".5" stop-color="#f5c39b"></stop><stop offset=".77" stop-color="#ebb286"></stop><stop offset="1" stop-color="#de9e6d"></stop></linearGradient><linearGradient id="1772947707126-4077045_h" x1="35.61" y1="22.56" x2="63.03" y2="-4.24" gradientTransform="matrix(1 0 0 -1 -28.02 500.38)" gradientUnits="userSpaceOnUse"><stop offset="0" stop-color="#4e5e67"></stop><stop offset=".37" stop-color="#3f4450"></stop><stop offset=".74" stop-color="#343241"></stop><stop offset="1" stop-color="#302c3b"></stop></linearGradient></defs><path class="q" transform="rotate(-45 242.283 269.723)" d="M20.49 220.2H464.07V319.24H20.49z" fill="#f9c802"></path><path class="o" d="M497.94,22.95l-8.91-8.89c-16.89-16.89-40.68-20.43-60.87-.26l-30.27,30.3,70.01,70.02,30.28-30.3c20.16-20.16,16.61-43.98-.26-60.88Z" fill="url(#1772947707126-4077045_b)"></path><path class="n" d="M467.91 114.13L397.87 44.09 358.15 83.8 428.19 153.85 467.91 114.13z" fill="url(#1772947707126-4077045_c)"></path><path class="m" d="M467.91,114.13c-12.01-12.01-56.81-56.82-70.04-70.04-3.01-3-11.44,5.45-8.44,8.45,11.9,11.9,53.48,53.48,70.03,70.02,3,3.01,11.45-5.43,8.45-8.43Z" fill="url(#1772947707126-4077045_d)"></path><path class="l" d="M459.46,122.56c-12-12-56.81-56.81-70.03-70.02-3-3-11.44,5.44-8.44,8.43,11.9,11.9,53.48,53.49,70.03,70.04,3,3.01,11.44-5.44,8.44-8.45Z" fill="url(#1772947707126-4077045_e)"></path><path class="k" d="M451.01,131.01c-12.01-12-56.81-56.81-70.03-70.02-3-3.01-11.46,5.44-8.46,8.43,11.9,11.9,53.49,53.48,70.05,70.04,3.01,3,11.45-5.44,8.44-8.45Z" fill="url(#1772947707126-4077045_f)"></path><path class="p" transform="rotate(-44.99 214.2 247.617)" d="M-3.38 233.61H431.82V261.63H-3.38z" fill="#ffe463"></path><path class="r" transform="rotate(-44.98 264.375 297.78)" d="M46.84 283.78H481.99V311.82H46.84z" fill="#ea8800"></path><path class="j" d="M50.45,391.54l-41.03,90.08,20.86,21.02,90.19-41.07c1.96-22.01-16.78-10.85-15.6-24.03,1.06-11.81-18.57-31.46-30.39-30.4-15.07,1.36-1.9-17.6-24.04-15.6Z" fill="url(#1772947707126-4077045_g)"></path><path class="i" d="M2.22,497.36c-5.67,12.51-.08,18.09,12.41,12.42l43.74-19.92-36.19-36.22-19.96,43.72Z" fill="url(#1772947707126-4077045_h)"></path></g></svg>