<svg data-name="Layer 1" xmlns="http://www.w3.org/2000/svg" style="" viewBox="0 0 548.57 512"><g class="nc-icon-wrapper"><defs><linearGradient id="1772947707127-6745346_b" x1="274.29" y1="134.85" x2="274.29" y2="322" gradientTransform="matrix(1 0 0 -1 0 514)" gradientUnits="userSpaceOnUse"><stop offset=".35" stop-color="#839aa3"></stop><stop offset=".38" stop-color="#80969f"></stop><stop offset=".49" stop-color="#758a92"></stop><stop offset=".64" stop-color="#70838b"></stop><stop offset="1" stop-color="#6e8189"></stop></linearGradient><linearGradient id="1772947707127-6745346_c" x1="274.29" y1="134.85" x2="274.29" y2="322" gradientTransform="matrix(1 0 0 -1 0 514)" gradientUnits="userSpaceOnUse"><stop offset=".35" stop-color="#617580"></stop><stop offset=".37" stop-color="#5f727d"></stop><stop offset=".49" stop-color="#556770"></stop><stop offset=".65" stop-color="#506069"></stop><stop offset="1" stop-color="#4e5e67"></stop></linearGradient><linearGradient id="1772947707127-6745346_d" x1="274.24" y1="2" x2="274.24" y2="71.85" gradientTransform="matrix(1 0 0 -1 0 514)" gradientUnits="userSpaceOnUse"><stop offset="0" stop-color="#4e5e67"></stop><stop offset=".28" stop-color="#4c5b64"></stop><stop offset=".5" stop-color="#45515b"></stop><stop offset=".7" stop-color="#38404c"></stop><stop offset=".88" stop-color="#272937"></stop><stop offset="1" stop-color="#1a1626"></stop></linearGradient></defs><path class="s" d="M420.57,45.71H128c-10.06,0-18.29,8.23-18.29,18.29v146.29h329.14V64c0-10.06-8.23-18.29-18.29-18.29Z" fill="#4e5e67"></path><path class="n" d="M420.57,48H128c-5.03,0-9.14,4.11-9.14,9.14v137.14h310.86V57.14c0-5.03-4.11-9.14-9.14-9.14Z" fill="#cfd8dd"></path><path class="t" d="M146.29 0H402.28999999999996V210.29H146.29z" fill="#f2f5f7"></path><path class="u" d="M0,379.15v53.3c0,9.78,8.23,17.74,18.29,17.74h512c10.06,0,18.29-8.05,18.29-17.74v-53.3c-80.46-99.57-458.06-90.51-548.57,0Z" fill="#566873"></path><path class="l" d="M532.3,192H16.18C6.86,192,0,379.15,0,379.15h548.57s-6.86-187.15-16.27-187.15Z" fill="url(#1772947707127-6745346_b)"></path><path class="o" d="M91.43,414.72v62.45c0,9.78,7.86,17.74,17.55,17.74h330.61c9.69,0,17.55-8.05,17.55-17.74v-62.45H91.43Z" fill="#6e8189"></path><path class="k" d="M492.34,192H56.23c-3.75,0-11.98,187.15-11.98,187.15h460.07s-8.23-187.15-11.98-187.15Z" fill="url(#1772947707127-6745346_c)"></path><path class="m" d="M457.14,414.72v-17.74c0-9.78-8.23-17.74-18.29-17.74H109.71c-10.06,0-18.29,8.05-18.29,17.74v17.74h365.71Z" fill="#b3c2c6"></path><path class="p" d="M118.86 414.72H429.72V477.17H118.86z" fill="#1a1626"></path><path class="j" d="M411.43,442.15H137.14l-18.29,35.47s6.03,34.38,46.99,34.38h216.78c41.05,0,46.99-34.38,46.99-34.38l-18.19-35.47Z" fill="url(#1772947707127-6745346_d)"></path><path id="1772947707127-6745346_e" data-name="diamond" class="n" d="M259.93,350.9l1.28,1.28v.18l-1.28,1.28-.09.09s-.09,0-.09-.09l-1.28-1.28v-.18l1.28-1.28c0-.09.09-.09.18,0Z" fill="#cfd8dd"></path><path id="1772947707127-6745346_f" data-name="pixels" class="n" d="M279.5,354.47c1.92,0,3.47,1.55,3.47,3.66s-1.55,3.66-3.47,3.66c-1.1,0-1.92-.46-2.47-1.19v3.47c0,.09,0,.18-.09.27s-.09.09-.18.09h-.91c-.09,0-.18,0-.18-.09-.09-.09-.09-.18-.09-.27v-9.05c0-.09,0-.18.09-.27s.09-.09.18-.09h.91c.09,0,.18,0,.18.09.09.09.09.18.09.18v.73c.55-.73,1.37-1.19,2.47-1.19h0ZM279.31,360.32c1.28,0,2.19-.91,2.19-2.19s-.91-2.19-2.19-2.19-2.19.91-2.19,2.19c0,1.28.91,2.19,2.19,2.19ZM284.16,361.6c-.09,0-.18,0-.27-.09s-.09-.18-.09-.18v-6.31c0-.09,0-.18.09-.18.09-.09.18-.09.27-.09h.82c.09,0,.18,0,.27.09s.09.18.09.18v6.31c0,.09,0,.18-.09.27s-.18.09-.27.09h-.82v-.09ZM291.75,361.23c.09.18,0,.37-.18.37h-.91c-.18,0-.27-.09-.37-.18l-1.37-2.1-1.37,2.1c-.09.09-.18.18-.37.18h-.91c-.27,0-.37-.18-.18-.37l2.01-3.2-1.92-3.02c-.18-.18-.09-.37.18-.37h.91c.18,0,.27.09.37.18l1.19,1.92,1.19-1.92c.09-.09.18-.18.37-.18h.91c.27,0,.37.18.18.37l-1.92,3.02,2.19,3.2ZM295.5,354.47c2.1,0,3.47,1.65,3.47,3.66v.37c0,.09,0,.18-.09.27s-.18.09-.18.09h-5.21c.27,1.1,1.1,1.74,2.1,1.74.55,0,1.1-.18,1.55-.64.09-.09.27-.18.37-.18h.91c.27,0,.37.18.27.37-.55,1.19-1.65,1.83-3.11,1.83-2.19,0-3.66-1.55-3.66-3.66-.09-2.29,1.37-3.84,3.57-3.84h0ZM293.39,357.49h4.02c-.18-1.19-1.01-1.74-1.92-1.74-1.19.09-1.92.73-2.1,1.74h0ZM299.98,361.6c-.09,0-.18,0-.27-.09s-.09-.18-.09-.18v-9.42c0-.09,0-.18.09-.27s.18-.09.27-.09h.91c.09,0,.18,0,.27.09s.09.18.09.27v9.42c0,.09,0,.18-.09.18-.09.09-.18.09-.27.09h-.91ZM303.73,356.57c0,1.37,3.84.37,3.84,3.02,0,1.37-1.19,2.1-2.74,2.1-1.46,0-2.56-.73-2.74-2.01,0-.09,0-.18.09-.27s.18-.09.27-.09h.82c.18,0,.27.09.37.27.09.46.64.73,1.19.73.73,0,1.19-.27,1.19-.82,0-1.37-3.84-.37-3.84-3.02,0-1.37,1.19-2.1,2.65-2.1,1.28,0,2.38.64,2.56,2.01,0,.09,0,.18-.09.27s-.18.09-.27.09h-.82c-.18,0-.27-.09-.37-.27-.09-.46-.55-.73-1.1-.73s-1.01.27-1.01.82Z" fill="#cfd8dd"></path><path id="1772947707127-6745346_g" data-name="joy" class="n" d="M260.21,354.65c.09,0,.18,0,.27.09s.09.18.09.18v6.95c0,1.83-.82,2.74-2.56,2.74-.09,0-.18,0-.27-.09s-.09-.18-.09-.27v-.82c0-.09,0-.18.09-.27s.18-.09.27-.09c.73,0,1.01-.37,1.01-1.19v-6.95c0-.09,0-.18.09-.18.09-.09.18-.09.27-.09,0,0,.82,0,.82,0ZM265.05,361.78c-2.01,0-3.66-1.65-3.66-3.66s1.65-3.66,3.66-3.66,3.66,1.65,3.66,3.66c0,1.01-.37,1.92-1.1,2.56-.64.73-1.65,1.1-2.56,1.1ZM265.05,360.32c.91,0,1.74-.55,2.01-1.37.37-.82.18-1.74-.46-2.38s-1.55-.82-2.38-.46-1.37,1.1-1.37,2.01c0,.55.18,1.19.64,1.55.37.37.91.64,1.55.64ZM273.37,354.83c.09-.18.18-.27.37-.27h.91c.18,0,.37.09.27.37l-3.11,9.14c0,.18-.18.27-.37.27h-.91c-.18,0-.37-.09-.27-.37l.82-2.47-2.56-6.49c-.09-.18,0-.37.27-.37h.91c.18,0,.27.09.37.27l1.74,4.48,1.55-4.57Z" fill="#cfd8dd"></path><path id="1772947707127-6745346_h" data-name="Shape" class="n" d="M247.59,352.91c2.74,0,4.94,2.19,4.94,4.94s-2.19,4.94-4.94,4.94-4.94-2.19-4.94-4.94c0-2.74,2.29-4.94,4.94-4.94ZM247.59,351.27c-3.66,0-6.58,2.93-6.58,6.58s2.93,6.58,6.58,6.58,6.58-2.93,6.58-6.58c0-1.74-.73-3.47-1.92-4.66-1.19-1.19-2.83-1.92-4.66-1.92Z" fill="#cfd8dd"></path><path id="1772947707127-6745346_i" data-name="Combined-Shape" class="n" d="M248.96,358.49c-.09,0-.18,0-.27-.09s-.09-.18-.09-.27v-.64c0-.09,0-.18.09-.27s.18-.09.27-.09h2.19c.09,0,.18,0,.27.09s.09.18.09.27v.37c0,1.55-.91,2.93-2.38,3.47s-3.02.27-4.11-.82c-.09-.09-.09-.18-.09-.27s.09-.18.09-.27l.73-.73c.09-.09.18-.09.27-.09s.18,0,.27.09c.55.55,1.28.73,2.01.55s1.28-.73,1.55-1.46h-.91v.18Z" fill="#cfd8dd"></path><path class="r" d="M531.66,331.52c0,9.14-13.71,9.14-13.71,0s13.71-9.14,13.71,0Z" fill="#e81c27"></path><path class="q" d="M535.04,357.94c0,12.16-18.29,12.16-18.29,0s18.29-12.16,18.29,0Z" fill="#92c932"></path><path class="p" d="M270.9,434.29v58.06c0,4.21,6.86,4.21,6.86,0v-58.06h-6.86Z" fill="#1a1626"></path><path class="p" d="M224.91,434.29l-8.87,57.6c-.64,4.11,6.13,5.03,6.77,1.1l9.05-58.61h-6.95v-.09Z" fill="#1a1626"></path><path class="p" d="M178.83,434.29l-17.55,57.05c-1.19,3.93,5.39,5.67,6.58,2.01l18.19-59.06h-7.22Z" fill="#1a1626"></path><path class="p" d="M316.71,434.29l9.05,58.61c.64,3.93,7.41,3.02,6.77-1.1l-8.87-57.6h-6.95v.09Z" fill="#1a1626"></path><path class="p" d="M369.74,434.29h-7.22l18.19,59.06c1.1,3.57,7.77,1.92,6.58-2.01l-17.55-57.05Z" fill="#1a1626"></path></g></svg>