<svg xmlns="http://www.w3.org/2000/svg" style="" viewBox="0 0 515.15 915.78"><g class="nc-icon-wrapper"><defs><linearGradient id="1772947707127-2161866_b" x1="241.17" y1="1021.97" x2="241.17" y2="50.85" gradientTransform="translate(0 -106)" gradientUnits="userSpaceOnUse"><stop offset="0" stop-color="#247f55"></stop><stop offset=".21" stop-color="#247f55"></stop><stop offset=".48" stop-color="#247f55"></stop><stop offset=".74" stop-color="#2d9f6a"></stop><stop offset="1" stop-color="#2d9f6a"></stop></linearGradient><linearGradient id="1772947707127-2161866_c" x1="257.58" y1="942.91" x2="257.58" y2="99.16" gradientTransform="translate(0 -106)" gradientUnits="userSpaceOnUse"><stop offset="0" stop-color="#247f55"></stop><stop offset=".21" stop-color="#247f55"></stop><stop offset=".48" stop-color="#247f55"></stop><stop offset=".74" stop-color="#2d9f6a"></stop><stop offset="1" stop-color="#2d9f6a"></stop></linearGradient></defs><path class="e" d="M241.17,747.88c11.58,0,22.44,2.18,32.58,6.53,10.14,4.36,19.06,10.38,26.76,18.08s13.72,16.62,18.08,26.76,6.53,21,6.53,32.58-2.18,22.43-6.53,32.58c-4.36,10.14-10.38,19.06-18.08,26.76-7.7,7.7-16.62,13.72-26.76,18.08-10.14,4.35-21,6.53-32.58,6.53s-22.44-2.18-32.58-6.53c-10.14-4.36-19.07-10.38-26.76-18.08-7.7-7.7-13.72-16.62-18.08-26.76s-6.53-21-6.53-32.58,2.18-22.44,6.53-32.58c4.36-10.14,10.38-19.06,18.08-26.76s16.62-13.72,26.76-18.08c10.14-4.36,21-6.53,32.58-6.53" vector-effect="none" fill="url(#1772947707127-2161866_b)"></path><path class="d" d="M152.84,206.05c10.42-22.79,25.88-39.39,46.39-49.8s41.67-14.65,63.48-12.7,40.37,10.09,55.66,24.41c15.3,14.32,22.95,34.83,22.95,61.52,0,28.65-4.23,52.73-12.7,72.27-8.46,19.53-19.53,36.62-33.2,51.27s-27.99,28.97-42.97,42.97-29.13,29.62-42.48,46.88-24.09,38.09-32.23,62.5c-8.14,24.41-11.56,54.85-10.25,91.31.65,16.28,6.02,29.3,16.11,39.06,10.09,9.77,22.46,16.11,37.11,19.04s29.3,2.44,43.95-1.46c14.65-3.91,26.69-10.91,36.13-21s13.84-23.27,13.18-39.55c-.65-24.09,3.74-45.08,13.18-62.99,9.44-17.9,21.81-34.5,37.11-49.8,15.3-15.3,31.57-30.76,48.83-46.39,17.25-15.62,33.53-33.04,48.83-52.25,15.3-19.21,28-41.67,38.09-67.38,10.09-25.72,15.14-56.48,15.14-92.29,0-22.14-4.88-45.9-14.65-71.29-9.77-25.39-25.07-49.48-45.9-72.27s-47.69-41.5-80.57-56.15C341.16,7.32,301.6,0,255.38,0c-37.76,0-74.06,5.37-108.89,16.11-34.83,10.74-65.27,28.65-91.31,53.71C29.14,94.89,11.57,128.91,2.45,171.88c-5.21,22.13-2.11,40.04,9.28,53.71,11.39,13.67,26.53,22.3,45.41,25.88s37.43,1.79,55.66-5.37c18.23-7.16,31.58-20.51,40.04-40.04" vector-effect="none" fill="url(#1772947707127-2161866_c)"></path></g></svg>