<svg data-name="Layer 1" xmlns="http://www.w3.org/2000/svg" style="" viewBox="0 0 585.15 512"><g class="nc-icon-wrapper"><defs><linearGradient id="1772947707131-1656667_b" x1="133.71" y1="1041.43" x2="243.44" y2="1041.43" gradientTransform="translate(104 -1014)" gradientUnits="userSpaceOnUse"><stop offset="0" stop-color="#f80"></stop><stop offset="1" stop-color="red"></stop></linearGradient><linearGradient id="1772947707131-1656667_c" x1="-163.43" y1="1069.61" x2="-155.9" y2="1026.88" gradientTransform="rotate(-10 -5870.166 -496.066)" gradientUnits="userSpaceOnUse"><stop offset="0" stop-color="#1a1626"></stop><stop offset="1" stop-color="#65747d"></stop></linearGradient><linearGradient id="1772947707131-1656667_d" x1="533.69" y1="972.69" x2="526.15" y2="929.96" gradientTransform="rotate(10 5793.879 683.67)" gradientUnits="userSpaceOnUse"><stop offset="0" stop-color="#1a1626"></stop><stop offset="1" stop-color="#65747d"></stop></linearGradient><linearGradient id="1772947707131-1656667_e" x1="292.57" y1="139.14" x2="292.57" y2="303.71" gradientTransform="matrix(1 0 0 -1 0 514)" gradientUnits="userSpaceOnUse"><stop offset="0" stop-color="#1a1626"></stop><stop offset="1" stop-color="#65747d"></stop></linearGradient><linearGradient id="1772947707131-1656667_f" x1="292.58" y1="2" x2="292.58" y2="440.87" gradientTransform="matrix(1 0 0 -1 0 514)" gradientUnits="userSpaceOnUse"><stop offset="0" stop-color="#00788f"></stop><stop offset="1" stop-color="#0ba1bf"></stop></linearGradient><linearGradient id="1772947707131-1656667_g" x1="292.58" y1="413.43" x2="292.58" y2="29.43" gradientTransform="matrix(1 0 0 -1 0 514)" gradientUnits="userSpaceOnUse"><stop offset="0" stop-color="#accddd"></stop><stop offset="1" stop-color="#6aa5b5"></stop></linearGradient><linearGradient id="1772947707131-1656667_h" x1="292.56" y1="75.14" x2="292.56" y2="130" gradientTransform="matrix(1 0 0 -1 0 514)" gradientUnits="userSpaceOnUse"><stop offset="0" stop-color="#fff"></stop><stop offset=".19" stop-color="#f6f8f9"></stop><stop offset=".5" stop-color="#dee4e7"></stop><stop offset=".89" stop-color="#b6c5cb"></stop><stop offset="1" stop-color="#aabbc2"></stop></linearGradient></defs><path class="o" d="M347.44,54.86h-109.72c0-30.29,24.54-54.86,54.86-54.86s54.87,24.57,54.87,54.86Z" fill="url(#1772947707131-1656667_b)"></path><path class="q" d="M210.29,82.29c0-15.17,9.2-27.43,27.43-27.43h109.72c18.25,0,27.43,12.26,27.43,27.43h-164.58Z" fill="#1a1626"></path><path class="r" d="M17.31 39.43L27.99 37.55 55.29 226.7 44.61 228.57 17.31 39.43z" fill="#aabbc2"></path><circle class="n" cx="21.7" cy="33.15" r="21.7" fill="url(#1772947707131-1656667_c)"></circle><path class="r" d="M557.17 37.55L567.84 39.43 540.54 228.57 529.87 226.7 557.17 37.55z" fill="#aabbc2"></path><circle class="m" cx="563.46" cy="33.15" r="21.7" fill="url(#1772947707131-1656667_d)"></circle><path class="l" d="M555.87,210.29H29.27c-39.02,0-39.02,164.57,0,164.57h526.6c39.03,0,39.03-164.57,0-164.57Z" fill="url(#1772947707131-1656667_e)"></path><path class="k" d="M530.29,461.71c0,27.64-22.63,50.29-50.29,50.29H105.14c-27.66,0-50.29-22.65-50.29-50.29V123.43c0-27.65,22.63-50.29,50.29-50.29h374.87c27.66,0,50.29,22.65,50.29,50.29v338.29Z" fill="url(#1772947707131-1656667_f)"></path><path class="p" d="M91.43,484.57c0-4.59-3.35-8.36-7.73-9.03v18.06c4.37-.67,7.75-4.45,7.73-9.02Z" fill="#cfd8dd"></path><path class="p" d="M73.13,484.55c0,4.59,3.36,8.37,7.75,9.03v-18.06c-4.39.69-7.75,4.45-7.75,9.02Z" fill="#cfd8dd"></path><path class="r" d="M83.69,492.29v-15.43c-.48-.07-2.35-.07-2.81,0v15.43c.45.05,2.34.07,2.81,0Z" fill="#aabbc2"></path><path class="p" d="M509.33,478.11c-3.24-3.25-8.28-3.54-11.86-.91l12.76,12.75c2.63-3.56,2.34-8.62-.91-11.84Z" fill="#cfd8dd"></path><path class="p" d="M496.38,491.04c3.24,3.24,8.3,3.54,11.88.91l-12.76-12.76c-2.63,3.57-2.35,8.62.89,11.85Z" fill="#cfd8dd"></path><path class="r" d="M509.31,489.03l-10.91-10.91c-.37.27-1.72,1.61-1.98,1.98l10.91,10.91c.36-.28,1.7-1.61,1.98-1.98Z" fill="#aabbc2"></path><path class="p" d="M82.29,91.44c-4.58,0-8.35,3.35-9.02,7.73h18.06c-.67-4.38-4.45-7.75-9.03-7.73Z" fill="#cfd8dd"></path><path class="p" d="M82.29,109.72c4.57,0,8.37-3.36,9.02-7.75h-18.05c.68,4.4,4.45,7.75,9.02,7.75Z" fill="#cfd8dd"></path><path class="r" d="M90.01,99.17h-15.43c-.08.47-.08,2.35,0,2.81h15.42c.06-.46.07-2.35,0-2.81Z" fill="#aabbc2"></path><path class="p" d="M496.4,94.11c-3.25,3.24-3.54,8.27-.91,11.85l12.76-12.76c-3.57-2.62-8.62-2.33-11.85.91Z" fill="#cfd8dd"></path><path class="p" d="M509.33,107.04c3.24-3.24,3.54-8.29.91-11.87l-12.76,12.76c3.57,2.63,8.61,2.34,11.85-.9Z" fill="#cfd8dd"></path><path class="r" d="M507.33,94.12l-10.91,10.91c.27.38,1.61,1.72,1.98,1.98l10.91-10.9c-.28-.37-1.61-1.71-1.98-1.99Z" fill="#aabbc2"></path><path class="j" d="M502.87,448c0,20.11-16.47,36.57-36.57,36.57H118.86c-20.11,0-36.57-16.47-36.57-36.57V137.14c0-20.11,16.46-36.57,36.57-36.57h347.44c20.11,0,36.57,16.46,36.57,36.57v310.86Z" fill="url(#1772947707131-1656667_g)"></path><path class="q" d="M393.17,329.42c-45.42,0-82.31-36.83-82.31-82.26s36.89-82.29,82.31-82.29,82.27,36.82,82.27,82.29-36.8,82.26-82.27,82.26Z" fill="#1a1626"></path><path class="s" d="M393.17,315.72c-37.86,0-68.6-30.72-68.6-68.56s30.74-68.58,68.6-68.58,68.55,30.67,68.55,68.58-30.65,68.56-68.55,68.56Z" fill="#fff"></path><ellipse class="q" cx="393.17" cy="247.15" rx="32.02" ry="36.57" fill="#1a1626"></ellipse><path class="q" d="M192,329.43c-45.43,0-82.29-36.84-82.29-82.27s36.85-82.29,82.29-82.29,82.29,36.82,82.29,82.29-36.8,82.27-82.29,82.27Z" fill="#1a1626"></path><path class="s" d="M192,315.71c-37.9,0-68.59-30.69-68.59-68.55s30.69-68.59,68.59-68.59,68.56,30.68,68.56,68.59-30.67,68.55-68.56,68.55Z" fill="#fff"></path><ellipse class="q" cx="192" cy="247.15" rx="32" ry="36.57" fill="#1a1626"></ellipse><path class="q" d="M402.28,436.21c0,6.48-5.15,11.79-11.43,11.79h-196.58c-6.29,0-11.43-5.31-11.43-11.79v-49.55c0-6.48,5.15-11.79,11.43-11.79h196.58c6.29,0,11.43,5.31,11.43,11.79v49.55Z" fill="#1a1626"></path><path class="i" d="M393.13,431.71c0,3.93-3.09,7.15-6.86,7.15h-187.44c-3.77,0-6.86-3.23-6.86-7.15v-40.56c0-3.93,3.09-7.15,6.86-7.15h187.44c3.77,0,6.86,3.23,6.86,7.15v40.56Z" fill="url(#1772947707131-1656667_h)"></path><path class="q" d="M219.43 379.43H228.57V441.14H219.43z" fill="#1a1626"></path><path class="q" d="M265.14 379.43H274.28V441.14H265.14z" fill="#1a1626"></path><path class="q" d="M310.86 379.43H320.01V441.14H310.86z" fill="#1a1626"></path><path class="q" d="M356.58 379.43H365.71999999999997V441.14H356.58z" fill="#1a1626"></path><path class="p" d="M282.87,324c-4.87,4.85-5.3,12.43-1.35,17.78l19.15-19.15c-5.36-3.93-12.94-3.5-17.8,1.37Z" fill="#cfd8dd"></path><path class="p" d="M302.28,343.43c4.84-4.85,5.29-12.45,1.36-17.81l-19.16,19.15c5.36,3.93,12.95,3.5,17.8-1.34Z" fill="#cfd8dd"></path><path class="r" d="M299.27,324.03l-16.37,16.37c.39.57,2.41,2.57,2.96,2.97l16.37-16.37c-.42-.53-2.4-2.54-2.97-2.97Z" fill="#aabbc2"></path></g></svg>