<svg xmlns="http://www.w3.org/2000/svg" style="" viewBox="0 0 614.41 512"><g class="nc-icon-wrapper"><defs><linearGradient id="1772947707135-4454259_b" x1="65" y1="627.11" x2="156.4" y2="405.04" gradientTransform="translate(0 -258)" gradientUnits="userSpaceOnUse"><stop offset=".3" stop-color="#01458a"></stop><stop offset=".37" stop-color="#014487"></stop><stop offset=".42" stop-color="#013f7e"></stop><stop offset=".47" stop-color="#01376e"></stop><stop offset=".51" stop-color="#012c57"></stop><stop offset=".55" stop-color="#011d3a"></stop><stop offset=".56" stop-color="#011b36"></stop></linearGradient><linearGradient id="1772947707135-4454259_c" x1="446.22" y1="251.86" x2="589.68" y2="395.31" gradientTransform="translate(0 -258)" gradientUnits="userSpaceOnUse"><stop offset="0" stop-color="#b3b4b5"></stop><stop offset=".26" stop-color="#d5d5d6"></stop><stop offset=".45" stop-color="#f0f0f0"></stop><stop offset=".51" stop-color="#e1e1e3"></stop><stop offset=".62" stop-color="#b8bbc0"></stop><stop offset=".73" stop-color="#8a9099"></stop><stop offset=".9" stop-color="#a2a5a9"></stop><stop offset="1" stop-color="#b3b4b5"></stop></linearGradient><linearGradient id="1772947707135-4454259_d" x1="414.41" y1="273.86" x2="568.01" y2="426.81" gradientTransform="translate(0 -258)" gradientUnits="userSpaceOnUse"><stop offset="0" stop-color="#d3d4d6"></stop><stop offset=".35" stop-color="#f5f5f5"></stop><stop offset=".45" stop-color="#fff"></stop><stop offset=".51" stop-color="#f0f0f2"></stop><stop offset=".61" stop-color="#c7cacf"></stop><stop offset=".73" stop-color="#9298a1"></stop><stop offset=".84" stop-color="#aaaeb5"></stop><stop offset="1" stop-color="#d3d4d6"></stop></linearGradient><linearGradient id="1772947707135-4454259_e" x1="385.64" y1="294.11" x2="547.44" y2="455.9" gradientTransform="translate(0 -258)" gradientUnits="userSpaceOnUse"><stop offset="0" stop-color="#ffd500"></stop><stop offset=".49" stop-color="#ffc700"></stop><stop offset="1" stop-color="#ffb300"></stop></linearGradient><linearGradient id="1772947707135-4454259_f" x1="337.91" y1="350.37" x2="491.51" y2="503.31" gradientTransform="translate(0 -258)" gradientUnits="userSpaceOnUse"><stop offset="0" stop-color="#6e7b85"></stop><stop offset=".24" stop-color="#636d78"></stop><stop offset=".71" stop-color="#454754"></stop><stop offset="1" stop-color="#302c3b"></stop></linearGradient><linearGradient id="1772947707135-4454259_g" x1="300.41" y1="387.86" x2="454.02" y2="540.8" gradientTransform="translate(0 -258)" gradientUnits="userSpaceOnUse"><stop offset="0" stop-color="#02d6b4"></stop><stop offset=".21" stop-color="#24e2c4"></stop><stop offset=".45" stop-color="#52f2d9"></stop><stop offset=".51" stop-color="#4be3cc"></stop><stop offset=".63" stop-color="#37baa8"></stop><stop offset=".73" stop-color="#259487"></stop><stop offset=".8" stop-color="#239789"></stop><stop offset=".87" stop-color="#1ea290"></stop><stop offset=".92" stop-color="#15b39c"></stop><stop offset=".98" stop-color="#08cbad"></stop><stop offset="1" stop-color="#02d6b4"></stop></linearGradient><linearGradient id="1772947707135-4454259_h" x1="245.64" y1="434.12" x2="407.43" y2="595.91" gradientTransform="translate(0 -258)" gradientUnits="userSpaceOnUse"><stop offset="0" stop-color="#ffd500"></stop><stop offset=".49" stop-color="#ffc700"></stop><stop offset="1" stop-color="#ffb300"></stop></linearGradient><linearGradient id="1772947707135-4454259_i" x1="225.49" y1="498.15" x2="343.4" y2="616.06" gradientTransform="translate(0 -258)" gradientUnits="userSpaceOnUse"><stop offset="0" stop-color="#d3d4d6"></stop><stop offset=".35" stop-color="#f5f5f5"></stop><stop offset=".45" stop-color="#fff"></stop><stop offset=".51" stop-color="#f0f0f2"></stop><stop offset=".61" stop-color="#c7cacf"></stop><stop offset=".73" stop-color="#9298a1"></stop><stop offset=".84" stop-color="#aaaeb5"></stop><stop offset="1" stop-color="#d3d4d6"></stop></linearGradient><linearGradient id="1772947707135-4454259_j" x1="123.8" y1="521.23" x2="320.31" y2="717.74" gradientTransform="translate(0 -258)" gradientUnits="userSpaceOnUse"><stop offset="0" stop-color="#b3b4b5"></stop><stop offset=".26" stop-color="#d5d5d6"></stop><stop offset=".45" stop-color="#f0f0f0"></stop><stop offset=".51" stop-color="#e1e1e3"></stop><stop offset=".62" stop-color="#b8bbc0"></stop><stop offset=".73" stop-color="#8a9099"></stop><stop offset=".9" stop-color="#a2a5a9"></stop><stop offset="1" stop-color="#b3b4b5"></stop></linearGradient><radialGradient id="1772947707135-4454259_k" cx="48.11" cy="621.54" fx="48.11" fy="621.54" r="132.14" gradientTransform="translate(0 -258)" gradientUnits="userSpaceOnUse"><stop offset="0" stop-color="#f0f0f0"></stop><stop offset=".21" stop-color="#e1e1e3"></stop><stop offset=".6" stop-color="#b8bbc0"></stop><stop offset="1" stop-color="#8a9099"></stop></radialGradient><linearGradient id="1772947707135-4454259_l" x1="190.44" y1="626.86" x2="214.69" y2="651.1" gradientTransform="translate(0 -258)" gradientUnits="userSpaceOnUse"><stop offset="0" stop-color="#d3d4d6"></stop><stop offset=".35" stop-color="#f5f5f5"></stop><stop offset=".45" stop-color="#fff"></stop><stop offset=".51" stop-color="#f0f0f2"></stop><stop offset=".61" stop-color="#c7cacf"></stop><stop offset=".73" stop-color="#9298a1"></stop><stop offset=".84" stop-color="#aaaeb5"></stop><stop offset="1" stop-color="#d3d4d6"></stop></linearGradient><linearGradient id="1772947707135-4454259_m" x1="193.69" y1="689.59" x2="194.35" y2="700.07" gradientTransform="translate(0 -258)" gradientUnits="userSpaceOnUse"><stop offset="0" stop-color="#494f52"></stop><stop offset=".34" stop-color="#5f656a"></stop><stop offset="1" stop-color="#9298a1"></stop></linearGradient><linearGradient id="1772947707135-4454259_n" x1="177.5" y1="648.98" x2="168.99" y2="643.74" gradientTransform="translate(0 -258)" gradientUnits="userSpaceOnUse"><stop offset="0" stop-color="#494f52"></stop><stop offset=".34" stop-color="#5f656a"></stop><stop offset="1" stop-color="#9298a1"></stop></linearGradient><linearGradient id="1772947707135-4454259_o" x1="146.73" y1="655.51" x2="136.9" y2="655.51" gradientTransform="translate(0 -258)" gradientUnits="userSpaceOnUse"><stop offset="0" stop-color="#494f52"></stop><stop offset=".34" stop-color="#5f656a"></stop><stop offset="1" stop-color="#9298a1"></stop></linearGradient><linearGradient id="1772947707135-4454259_p" x1="130.85" y1="666.46" x2="175.21" y2="710.8" gradientTransform="translate(0 -258)" gradientUnits="userSpaceOnUse"><stop offset="0" stop-color="#d3d4d6"></stop><stop offset=".35" stop-color="#f5f5f5"></stop><stop offset=".45" stop-color="#fff"></stop><stop offset=".51" stop-color="#f0f0f2"></stop><stop offset=".61" stop-color="#c7cacf"></stop><stop offset=".73" stop-color="#9298a1"></stop><stop offset=".84" stop-color="#aaaeb5"></stop><stop offset="1" stop-color="#d3d4d6"></stop></linearGradient><linearGradient id="1772947707135-4454259_q" x1="106.11" y1="713.81" x2="127.73" y2="735.43" gradientTransform="translate(0 -258)" gradientUnits="userSpaceOnUse"><stop offset="0" stop-color="#b3b4b5"></stop><stop offset=".26" stop-color="#d5d5d6"></stop><stop offset=".45" stop-color="#f0f0f0"></stop><stop offset=".51" stop-color="#e1e1e3"></stop><stop offset=".62" stop-color="#b8bbc0"></stop><stop offset=".73" stop-color="#8a9099"></stop><stop offset=".9" stop-color="#a2a5a9"></stop><stop offset="1" stop-color="#b3b4b5"></stop></linearGradient><linearGradient id="1772947707135-4454259_r" x1="78.95" y1="745.33" x2="96.13" y2="762.51" gradientTransform="translate(0 -258)" gradientUnits="userSpaceOnUse"><stop offset="0" stop-color="#02d6b4"></stop><stop offset=".21" stop-color="#24e2c4"></stop><stop offset=".45" stop-color="#52f2d9"></stop><stop offset=".51" stop-color="#4be3cc"></stop><stop offset=".63" stop-color="#37baa8"></stop><stop offset=".73" stop-color="#259487"></stop><stop offset=".8" stop-color="#239789"></stop><stop offset=".87" stop-color="#1ea290"></stop><stop offset=".92" stop-color="#15b39c"></stop><stop offset=".98" stop-color="#08cbad"></stop><stop offset="1" stop-color="#02d6b4"></stop></linearGradient><linearGradient id="1772947707135-4454259_s" x1="368.45" y1="601.81" x2="368.45" y2="572.98" gradientTransform="translate(0 -258)" gradientUnits="userSpaceOnUse"><stop offset="0" stop-color="#494f52"></stop><stop offset=".34" stop-color="#5f656a"></stop><stop offset="1" stop-color="#9298a1"></stop></linearGradient><linearGradient id="1772947707135-4454259_t" x1="431.2" y1="774.73" x2="535.76" y2="521.53" gradientTransform="translate(0 -258)" gradientUnits="userSpaceOnUse"><stop offset=".3" stop-color="#01458a"></stop><stop offset=".37" stop-color="#014487"></stop><stop offset=".42" stop-color="#013f7e"></stop><stop offset=".47" stop-color="#01376e"></stop><stop offset=".51" stop-color="#012c57"></stop><stop offset=".55" stop-color="#011d3a"></stop><stop offset=".56" stop-color="#011b36"></stop></linearGradient></defs><path class="al" d="M195.2,193.8l-27.51,207.64L3.93,373.94l28.82-208.3,162.45,28.16" vector-effect="none" fill="url(#1772947707135-4454259_b)"></path><path class="ao" d="M29.48,159.74l170.31,28.16-28.82,219.43L0,378.52l29.48-218.78M115.28,180.7l-9.17,66.81,37.99,5.9,9.17-66.16-37.99-6.55M135.59,324.15l8.52-66.81-37.99-5.9-8.52,66.16,37.99,6.55M126.42,394.24l8.52-66.81-37.99-5.9-8.52,66.16,37.99,6.55M55.68,314.33l-8.51,66.81,37.99,5.9,8.51-66.16-37.99-6.55M64.85,244.24l-8.51,66.16,37.99,6.55,8.52-66.16-37.99-6.55M74.02,174.15l-8.51,66.16,37.99,6.55,8.52-66.16-37.99-6.55M33.4,167.6l-8.52,66.16,37.33,6.55,9.17-66.81-37.99-5.9M24.23,237.69l-8.52,66.16,37.99,6.55,8.51-66.81-37.99-5.9M15.06,307.77l-8.52,66.16,37.99,6.55,8.52-66.81-37.99-5.9M167.03,400.79l8.52-66.16-37.99-6.55-8.52,66.16,37.99,6.55M176.2,330.71l8.52-66.16-37.99-6.55-8.51,66.16,37.99,6.55M147.38,254.07l37.99,6.55,8.52-66.16-37.99-6.55-8.52,66.16" vector-effect="none" fill="#9298a1"></path><path class="ak" d="M410.7,29.39c13.1-13.1,28.16-21.83,45.19-26.2,17.03-4.37,34.17-4.26,51.42.33,17.25,4.59,32.65,13.43,46.18,26.53,13.1,13.1,21.83,28.27,26.2,45.52,4.37,17.25,4.47,34.5.33,51.75-4.15,17.25-12.77,32.42-25.88,45.52L410.69,29.39" vector-effect="none" fill="url(#1772947707135-4454259_c)"></path><path class="af" d="M383.85,46.43l19.65-20.3c7.86-7.43,18.34-10.92,31.44-10.48,13.1.44,27.4,4.59,42.91,12.44,15.5,7.86,30.24,19,44.22,33.4,14.41,13.97,25.43,28.6,33.08,43.89,7.64,15.29,11.79,29.59,12.45,42.91.66,13.32-2.73,23.91-10.16,31.77l-20.3,19.65L383.86,46.42" vector-effect="none" fill="url(#1772947707135-4454259_d)"></path><path class="ao" d="M505.68,77.86c-14.41-13.97-29.15-25.11-44.22-33.4-15.06-8.3-28.93-12.99-41.59-14.09-12.66-1.09-22.49,1.86-29.48,8.84l3.93-3.27c6.99-6.99,16.82-9.93,29.48-8.84,12.66,1.09,26.53,5.79,41.59,14.09,15.06,8.3,29.59,19.43,43.56,33.4s25.11,28.49,33.4,43.56c8.3,15.06,12.99,28.93,14.09,41.59s-1.86,22.49-8.84,29.47l-3.27,3.27c6.99-6.99,9.93-16.82,8.84-29.47-1.09-12.66-5.79-26.53-14.09-41.59-8.3-15.06-19.43-29.59-33.4-43.56" vector-effect="none" fill="#9298a1"></path><path class="an" d="M397.6,185.29c-14.85-14.84-26.42-30.35-34.72-46.51-8.3-16.16-12.77-31.22-13.43-45.19-.66-13.97,3.17-25.11,11.46-33.4,8.3-7.86,19.43-11.46,33.4-10.81,13.97.66,29.04,5.13,45.19,13.43,16.16,8.3,31.66,19.87,46.51,34.72,14.85,14.84,26.42,30.35,34.72,46.51,8.3,16.16,12.77,31.22,13.43,45.19.66,13.97-3.17,25.11-11.46,33.4-7.86,7.86-18.77,11.57-32.75,11.13-13.97-.44-29.15-4.8-45.52-13.1-16.37-8.3-31.99-20.09-46.83-35.37" vector-effect="none" fill="#f29f00"></path><path class="ae" d="M486.03,97.52c-15.29-14.85-31-26.42-47.16-34.72-16.16-8.3-31.12-12.77-44.87-13.43-13.76-.66-24.78,2.94-33.08,10.81l5.24-5.24c8.3-7.86,19.43-11.46,33.4-10.81,13.97.66,29.04,5.13,45.19,13.43s31.66,19.87,46.51,34.72c14.85,14.85,26.42,30.35,34.72,46.51,8.3,16.16,12.77,31.22,13.43,45.19.66,13.97-2.95,24.89-10.81,32.75l-5.9,5.9c8.3-8.3,12.12-19.32,11.46-33.08-.66-13.76-5.13-28.82-13.43-45.19-8.3-16.37-19.87-31.99-34.72-46.83" vector-effect="none" fill="url(#1772947707135-4454259_e)"></path><path class="ad" d="M274.46,155.81l85.15-85.81c7.86-7.43,18.45-10.92,31.77-10.48,13.32.44,27.62,4.59,42.9,12.44,15.29,7.86,29.92,18.78,43.89,32.75,14.41,14.41,25.55,29.26,33.4,44.54,7.86,15.29,12.01,29.59,12.44,42.91.44,13.32-3.06,23.69-10.48,31.12l-85.81,85.81-153.28-153.27" vector-effect="none" fill="url(#1772947707135-4454259_f)"></path><path class="ac" d="M224.02,205.59l111.36-110.7c7.43-7.86,17.79-11.46,31.12-10.81,13.32.66,27.62,4.91,42.91,12.77s30.13,18.77,44.54,32.75c13.97,13.97,24.89,28.71,32.75,44.22,7.86,15.5,12.12,29.8,12.77,42.9.66,13.1-2.94,23.58-10.81,31.44l-111.36,111.36-153.28-153.93" vector-effect="none" fill="url(#1772947707135-4454259_g)"></path><path class="an" d="M256.26,326.63c-14.85-14.85-26.42-30.35-34.72-46.51-8.3-16.16-12.77-31.22-13.43-45.19-.66-13.97,3.17-25.11,11.46-33.4,8.3-7.86,19.43-11.46,33.4-10.81,13.97.66,29.04,5.13,45.19,13.43s31.66,19.87,46.51,34.72c14.85,14.85,26.42,30.35,34.72,46.51,8.3,16.16,12.77,31.22,13.43,45.19.66,13.97-3.17,25.11-11.46,33.4-7.86,7.86-18.77,11.57-32.75,11.13-13.97-.44-29.15-4.8-45.52-13.1-16.37-8.3-31.99-20.09-46.83-35.37" vector-effect="none" fill="#f29f00"></path><path class="ap" d="M260.7,322.85c-13.54-13.54-24.13-27.62-31.77-42.25-7.64-14.63-11.79-28.16-12.44-40.61-.66-12.44,2.51-22.38,9.5-29.8,7.43-6.99,17.36-10.16,29.8-9.5s25.98,4.8,40.61,12.45c14.63,7.64,28.71,18.23,42.25,31.77,13.1,13.54,23.47,27.62,31.12,42.25,7.64,14.63,11.9,28.16,12.77,40.61.87,12.44-2.4,22.16-9.83,29.15-6.99,7.43-16.7,10.7-29.15,9.83-12.44-.87-25.98-5.13-40.61-12.77-14.63-7.64-28.71-18.02-42.25-31.12" vector-effect="none" fill="#269184"></path><path class="aq" d="M267.37,316.15c-11.22-11.22-19.99-22.89-26.33-35.01-6.33-12.13-9.77-23.34-10.32-33.66s2.08-18.55,7.87-24.7c6.15-5.79,14.39-8.41,24.7-7.87,10.32.54,21.54,3.98,33.66,10.32,12.13,6.33,23.8,15.11,35.01,26.33,10.86,11.22,19.45,22.89,25.79,35.01,6.33,12.13,9.86,23.34,10.58,33.66s-1.99,18.36-8.14,24.16c-5.79,6.15-13.84,8.87-24.16,8.14-10.32-.72-21.54-4.25-33.66-10.58-12.13-6.33-23.8-14.93-35.01-25.79" vector-effect="none" fill="#494f52"></path><path class="x" d="M344.54,239c-14.85-14.84-30.46-26.42-46.83-34.72-16.37-8.3-31.44-12.77-45.19-13.43-13.76-.66-24.78,2.94-33.08,10.81l7.86-7.86c8.3-7.86,19.32-11.46,33.08-10.81,13.76.66,28.71,5.13,44.87,13.43,16.16,8.3,31.88,19.87,47.16,34.72,14.85,14.85,26.42,30.46,34.72,46.84,8.3,16.38,12.77,31.44,13.43,45.19.66,13.76-3.17,24.78-11.46,33.08l-7.2,7.2c7.86-7.86,11.46-18.77,10.81-32.75-.66-13.97-5.13-29.04-13.43-45.19-8.3-16.16-19.87-31.66-34.72-46.51" vector-effect="none" fill="url(#1772947707135-4454259_h)"></path><path class="ap" d="M362.23,221.32c-14.41-13.97-29.04-25.11-43.89-33.41-14.85-8.3-28.6-12.99-41.26-14.09-12.66-1.09-22.7,1.86-30.13,8.84l3.93-3.27c6.99-6.99,16.82-9.93,29.48-8.84,12.66,1.09,26.53,5.67,41.59,13.76,15.06,8.08,29.59,19.32,43.56,33.73,13.97,13.97,25.11,28.49,33.4,43.56,8.3,15.06,12.99,28.93,14.09,41.59s-1.86,22.49-8.84,29.48l-3.27,3.27c6.99-6.99,9.93-16.82,8.84-29.48s-5.79-26.53-14.09-41.59c-8.3-15.06-19.43-29.59-33.4-43.56M451.31,132.23c-13.97-14.41-28.6-25.66-43.89-33.73-15.29-8.08-29.37-12.56-42.25-13.43-12.89-.87-23.03,2.4-30.46,9.83l3.93-3.27c7.43-7.43,17.58-10.7,30.46-9.83,12.89.87,26.86,5.35,41.92,13.43,15.06,8.08,29.8,19.1,44.22,33.08,13.97,14.41,25,29.15,33.08,44.22,8.08,15.06,12.56,29.04,13.43,41.92.87,12.89-2.4,23.03-9.83,30.46l-3.27,3.27c6.99-6.99,10.04-17.03,9.17-30.13-.87-13.1-5.24-27.19-13.1-42.25-7.86-15.06-19-29.59-33.4-43.56" vector-effect="none" fill="#269184"></path><path class="w" d="M183.41,282.23l50.44-50.43c9.17-9.17,22.82-11.36,40.94-6.55,18.12,4.8,35.26,15.29,51.42,31.44,16.59,16.59,27.29,33.95,32.1,52.08,4.8,18.12,2.62,31.77-6.55,40.94l-50.44,50.44-117.9-117.9" vector-effect="none" fill="url(#1772947707135-4454259_i)"></path><path class="ao" d="M208.3,375.24c-16.16-16.59-26.75-33.95-31.77-52.08-5.02-18.12-2.73-31.77,6.88-40.94,9.17-9.17,22.82-11.36,40.94-6.55,18.12,4.8,35.26,15.5,51.42,32.1,16.16,16.16,26.75,33.3,31.77,51.42,5.02,18.12,2.94,31.77-6.22,40.94s-23.47,11.9-41.59,6.88c-18.12-5.02-35.26-15.61-51.42-31.77" vector-effect="none" fill="#9298a1"></path><path class="aq" d="M220.74,362.14c-11.36-11.36-19.1-23.25-23.25-35.7-4.15-12.44-3.39-21.5,2.29-27.19,6.11-5.67,15.29-6.55,27.51-2.62,12.23,3.93,24.23,11.79,36.03,23.58,11.36,11.79,19.1,23.8,23.25,36.03,4.15,12.23,3.39,21.18-2.29,26.86-5.67,6.11-14.74,7.1-27.19,2.95-12.44-4.15-24.56-12.12-36.35-23.91" vector-effect="none" fill="#494f52"></path><path class="v" d="M97.6,289.44c6.99-6.99,18.02-11.13,33.08-12.44,15.06-1.31,32.75,2.4,53.06,11.13,20.3,8.73,41.81,24.46,64.52,47.16,22.27,22.7,37.88,44.1,46.83,64.19,8.95,20.09,12.77,37.78,11.46,53.06-1.31,15.29-5.46,26.42-12.44,33.4l-196.51-196.5" vector-effect="none" fill="url(#1772947707135-4454259_j)"></path><path class="u" d="M156.55,426.99c-18.34-17.9-33.19-36.13-44.54-54.69-11.36-18.56-18.45-35.15-21.29-49.78-2.84-14.63-.54-25.66,6.88-33.08,6.99-6.99,17.9-9.06,32.75-6.22,14.85,2.84,31.44,9.93,49.78,21.29,18.34,11.36,36.68,25.98,55.02,43.89,17.9,18.34,32.53,36.68,43.89,55.02,11.36,18.34,18.45,34.93,21.29,49.78,2.84,14.85.76,25.76-6.22,32.75-7.43,7.43-18.56,9.61-33.4,6.55-14.85-3.06-31.44-10.16-49.78-21.29-18.34-11.13-36.46-25.88-54.36-44.22" vector-effect="none" fill="url(#1772947707135-4454259_k)"></path><path class="ab" d="M185.37,373.94l3.27-3.27c1.74-1.74,4.47-2.19,8.19-1.31,3.71.87,7.31,3.06,10.81,6.55,3.06,3.49,5.13,7.1,6.22,10.81s.76,6.44-.98,8.19l-3.27,3.27-24.23-24.23" vector-effect="none" fill="url(#1772947707135-4454259_l)"></path><path class="ao" d="M190.65,392.76c-3.32-3.41-5.49-6.97-6.52-10.69-1.03-3.72-.56-6.52,1.41-8.4,1.88-1.88,4.68-2.33,8.4-1.35s7.24,3.18,10.56,6.59c3.32,3.32,5.49,6.83,6.52,10.56,1.03,3.72.6,6.52-1.27,8.4s-4.82,2.44-8.54,1.41-7.24-3.21-10.56-6.52" vector-effect="none" fill="#9298a1"></path><path class="aq" d="M196.51,387.04c-3.49-3.06-4.37-5.67-2.62-7.86,2.19-1.74,4.8-.87,7.86,2.62,3.49,3.06,4.15,5.46,1.97,7.2-1.74,2.19-4.15,1.53-7.2-1.97" vector-effect="none" fill="#494f52"></path><path class="z" d="M252.19,436.16c-19.22,2.19-38.43,4.37-57.64,6.55-19.22,2.19-38.43,4.37-57.64,6.55-3.49.44-5.35-1.09-5.57-4.59-.22-3.49,1.42-5.24,4.91-5.24l115.29-13.76c3.49-.44,5.24,1.09,5.24,4.59s-1.53,5.46-4.59,5.9" vector-effect="none" fill="url(#1772947707135-4454259_m)"></path><path class="aa" d="M208.95,341.84l-62.88,97.6c-1.74,3.06-4.15,3.71-7.2,1.97-3.06-1.74-3.71-3.93-1.97-6.55l62.88-98.25c1.74-2.62,4.15-3.17,7.2-1.64s3.71,3.82,1.97,6.88" vector-effect="none" fill="url(#1772947707135-4454259_n)"></path><path class="ah" d="M148.03,354.28c-.44,12.66-.76,23.03-.99,31.12-.22,8.08-.44,16.05-.66,23.91-.21,7.86-.54,18.34-.98,31.44,0,3.49-1.74,5.24-5.24,5.24s-5.24-1.53-5.24-4.59c.44-13.1.76-23.69.98-31.77.22-8.08.44-16.05.66-23.91.22-7.86.54-18.34.99-31.44,0-3.49,1.74-5.24,5.24-5.24s5.24,1.74,5.24,5.24" vector-effect="none" fill="url(#1772947707135-4454259_o)"></path><path class="y" d="M121.57,417.75l5.99-6c3.19-3.2,8.19-4,14.98-2.4,6.79,1.6,13.39,5.59,19.78,11.99,5.59,6.39,9.39,12.99,11.39,19.77,2,6.79,1.4,11.78-1.8,14.98l-5.99,6-44.36-44.34" vector-effect="none" fill="url(#1772947707135-4454259_p)"></path><path class="ao" d="M131.22,452.21c-6.06-6.23-10.04-12.75-11.93-19.56-1.88-6.81-1.02-11.93,2.59-15.37,3.45-3.44,8.57-4.26,15.37-2.45,6.81,1.8,13.24,5.82,19.3,12.06,6.06,6.07,10.04,12.5,11.93,19.31,1.88,6.81,1.11,11.93-2.34,15.37-3.61,3.61-8.81,4.47-15.62,2.58s-13.24-5.86-19.3-11.93" vector-effect="none" fill="#9298a1"></path><path class="ag" d="M81.22,492.5l49.78-61.57c1.74-1.74,4.26-2.19,7.53-1.31,3.27.87,6.44,2.84,9.5,5.9s5.02,6.22,5.9,9.5.44,5.79-1.31,7.53l-62.22,49.78-9.17-9.83" vector-effect="none" fill="url(#1772947707135-4454259_q)"></path><path class="ai" d="M72.84,493.45l7.33-7.33c1.33-1.33,3.31-1.65,5.95-.95,2.64.7,5.12,2.22,7.47,4.57s3.96,4.93,4.66,7.57c.7,2.63.38,4.61-.95,5.95l-7.33,7.32-17.13-17.13" vector-effect="none" fill="url(#1772947707135-4454259_r)"></path><path class="ap" d="M76.4,507.02c-2.34-2.41-3.88-4.92-4.61-7.55-.72-2.63-.4-4.61,1-5.94,1.33-1.33,3.31-1.65,5.94-.95,2.63.7,5.11,2.25,7.46,4.65,2.34,2.34,3.88,4.83,4.61,7.46s.43,4.61-.91,5.94c-1.4,1.4-3.4,1.72-6.03,1-2.63-.73-5.11-2.27-7.46-4.61" vector-effect="none" fill="#269184"></path><path class="aj" d="M408.73,314.98v28.82h-75.32c-2.19,0-3.71-2.4-4.59-7.2-.87-4.8-.87-9.61,0-14.41s2.4-7.2,4.59-7.2h75.32" vector-effect="none" fill="url(#1772947707135-4454259_s)"></path><path class="am" d="M609.17,259.31l-32.75,232.53-195.2-29.48,34.06-233.84,193.89,30.79" vector-effect="none" fill="url(#1772947707135-4454259_t)"></path><path class="ao" d="M410.7,222.62l203.71,30.79-34.72,242.36-203.05-31.44,34.06-241.7M513.54,245.55l-10.48,73.37,45.19,7.2,10.48-73.37-45.19-7.2M537.12,402.76l10.48-72.71-45.19-7.2-10.48,73.37,45.19,6.55M526.64,480.05l10.48-72.71-45.85-7.2-9.83,73.37,45.19,6.55M442.8,392.93l-10.48,72.71,45.19,7.2,10.48-73.37-45.19-6.55M453.93,315.64l-10.48,72.71,45.19,7.2,10.48-73.36-45.19-6.55M464.41,238.35l-10.48,72.71,45.85,7.2,9.83-72.71-45.19-7.2M415.94,230.48l-10.48,73.37,45.19,7.2,10.48-73.37-45.19-7.2M404.81,307.77l-10.48,73.37,45.85,6.55,9.83-72.71-45.19-7.2M394.32,385.07l-10.48,73.37,45.19,6.55,10.48-72.71-45.19-7.2M575.11,487.91l10.48-73.37-45.19-6.55-10.48,72.71,45.19,7.2M586.24,410.62l10.48-73.36-45.19-6.55-10.48,72.71,45.19,7.2M551.53,326.12l45.85,7.2,9.83-72.71-45.19-7.2-10.48,72.71" vector-effect="none" fill="#9298a1"></path></g></svg>