<svg xmlns="http://www.w3.org/2000/svg" style="" viewBox="0 0 512 512"><g class="nc-icon-wrapper"><defs><linearGradient id="1772947707137-4735689_b" x1="238.89" y1="374.72" x2="273" y2="374.72" gradientTransform="translate(0 -106)" gradientUnits="userSpaceOnUse"><stop offset="0" stop-color="#c48300"></stop><stop offset=".3" stop-color="#ffe173"></stop><stop offset=".41" stop-color="#fcdc6d"></stop><stop offset=".56" stop-color="#f2cd5b"></stop><stop offset=".73" stop-color="#e3b53d"></stop><stop offset=".92" stop-color="#ce9314"></stop><stop offset="1" stop-color="#c48300"></stop></linearGradient><linearGradient id="1772947707137-4735689_c" x1="215.06" y1="566.76" x2="296.94" y2="566.76" gradientTransform="translate(0 -106)" gradientUnits="userSpaceOnUse"><stop offset="0" stop-color="#c48300"></stop><stop offset=".3" stop-color="#ffe173"></stop><stop offset=".41" stop-color="#fcdc6d"></stop><stop offset=".56" stop-color="#f2cd5b"></stop><stop offset=".73" stop-color="#e3b53d"></stop><stop offset=".92" stop-color="#ce9314"></stop><stop offset="1" stop-color="#c48300"></stop></linearGradient><linearGradient id="1772947707137-4735689_d" x1="187.77" y1="579.52" x2="324.23" y2="579.52" gradientTransform="translate(0 -106)" gradientUnits="userSpaceOnUse"><stop offset="0" stop-color="#c48300"></stop><stop offset=".3" stop-color="#ffe173"></stop><stop offset=".41" stop-color="#fcdc6d"></stop><stop offset=".56" stop-color="#f2cd5b"></stop><stop offset=".73" stop-color="#e3b53d"></stop><stop offset=".92" stop-color="#ce9314"></stop><stop offset="1" stop-color="#c48300"></stop></linearGradient><radialGradient id="1772947707137-4735689_e" cx="256" cy="209.16" fx="256" fy="209.16" r="164.67" gradientTransform="translate(0 -106)" gradientUnits="userSpaceOnUse"><stop offset=".31" stop-color="#c48300"></stop><stop offset=".39" stop-color="#ce9314"></stop><stop offset=".58" stop-color="#e3b53d"></stop><stop offset=".75" stop-color="#f2cd5b"></stop><stop offset=".9" stop-color="#fcdc6d"></stop><stop offset="1" stop-color="#ffe173"></stop></radialGradient><linearGradient id="1772947707137-4735689_f" x1="119.54" y1="600.81" x2="392.46" y2="600.81" gradientTransform="translate(0 -106)" gradientUnits="userSpaceOnUse"><stop offset="0" stop-color="#c48300"></stop><stop offset=".3" stop-color="#ffe173"></stop><stop offset=".41" stop-color="#fcdc6d"></stop><stop offset=".56" stop-color="#f2cd5b"></stop><stop offset=".73" stop-color="#e3b53d"></stop><stop offset=".92" stop-color="#ce9314"></stop><stop offset="1" stop-color="#c48300"></stop></linearGradient><linearGradient id="1772947707137-4735689_g" x1="239.63" y1="137.93" x2="272.37" y2="137.93" gradientTransform="translate(0 -106)" gradientUnits="userSpaceOnUse"><stop offset="0" stop-color="#c48300"></stop><stop offset=".3" stop-color="#ffe173"></stop><stop offset=".41" stop-color="#fcdc6d"></stop><stop offset=".56" stop-color="#f2cd5b"></stop><stop offset=".73" stop-color="#e3b53d"></stop><stop offset=".92" stop-color="#ce9314"></stop><stop offset="1" stop-color="#c48300"></stop></linearGradient><linearGradient id="1772947707137-4735689_h" x1="230.35" y1="181.6" x2="281.65" y2="181.6" gradientTransform="translate(0 -106)" gradientUnits="userSpaceOnUse"><stop offset="0" stop-color="#c48300"></stop><stop offset=".3" stop-color="#ffe173"></stop><stop offset=".41" stop-color="#fcdc6d"></stop><stop offset=".56" stop-color="#f2cd5b"></stop><stop offset=".73" stop-color="#e3b53d"></stop><stop offset=".92" stop-color="#ce9314"></stop><stop offset="1" stop-color="#c48300"></stop></linearGradient><linearGradient id="1772947707137-4735689_i" x1="225.43" y1="181.6" x2="286.57" y2="181.6" gradientTransform="translate(0 -106)" gradientUnits="userSpaceOnUse"><stop offset="0" stop-color="#c48300"></stop><stop offset=".3" stop-color="#ffe173"></stop><stop offset=".41" stop-color="#fcdc6d"></stop><stop offset=".56" stop-color="#f2cd5b"></stop><stop offset=".73" stop-color="#e3b53d"></stop><stop offset=".92" stop-color="#ce9314"></stop><stop offset="1" stop-color="#c48300"></stop></linearGradient><linearGradient id="1772947707137-4735689_j" x1="51.31" y1="464.07" x2="51.31" y2="273.57" gradientTransform="translate(0 -106)" gradientUnits="userSpaceOnUse"><stop offset="0" stop-color="#ffe173"></stop><stop offset=".15" stop-color="#fcdc6d"></stop><stop offset=".36" stop-color="#f2cd5b"></stop><stop offset=".61" stop-color="#e3b53d"></stop><stop offset=".88" stop-color="#ce9314"></stop><stop offset="1" stop-color="#c48300"></stop></linearGradient><linearGradient id="1772947707137-4735689_k" x1="136.46" y1="464.07" x2="136.46" y2="273.57" gradientTransform="translate(0 -106)" gradientUnits="userSpaceOnUse"><stop offset="0" stop-color="#ffe173"></stop><stop offset=".15" stop-color="#fcdc6d"></stop><stop offset=".36" stop-color="#f2cd5b"></stop><stop offset=".61" stop-color="#e3b53d"></stop><stop offset=".88" stop-color="#ce9314"></stop><stop offset="1" stop-color="#c48300"></stop></linearGradient><linearGradient id="1772947707137-4735689_l" x1="93.89" y1="285.04" x2="93.89" y2="243.01" gradientTransform="translate(0 -106)" gradientUnits="userSpaceOnUse"><stop offset="0" stop-color="#c48300"></stop><stop offset=".12" stop-color="#ce9314"></stop><stop offset=".39" stop-color="#e3b53d"></stop><stop offset=".64" stop-color="#f2cd5b"></stop><stop offset=".85" stop-color="#fcdc6d"></stop><stop offset="1" stop-color="#ffe173"></stop></linearGradient><linearGradient id="1772947707137-4735689_m" x1="93.88" y1="256.65" x2="93.88" y2="216.26" gradientTransform="translate(0 -106)" gradientUnits="userSpaceOnUse"><stop offset="0" stop-color="#c48300"></stop><stop offset=".12" stop-color="#ce9314"></stop><stop offset=".39" stop-color="#e3b53d"></stop><stop offset=".64" stop-color="#f2cd5b"></stop><stop offset=".85" stop-color="#fcdc6d"></stop><stop offset="1" stop-color="#ffe173"></stop></linearGradient><linearGradient id="1772947707137-4735689_n" x1="102.34" y1="464.07" x2="102.34" y2="273.57" gradientTransform="translate(0 -106)" gradientUnits="userSpaceOnUse"><stop offset="0" stop-color="#ffe173"></stop><stop offset=".15" stop-color="#fcdc6d"></stop><stop offset=".36" stop-color="#f2cd5b"></stop><stop offset=".61" stop-color="#e3b53d"></stop><stop offset=".88" stop-color="#ce9314"></stop><stop offset="1" stop-color="#c48300"></stop></linearGradient><linearGradient id="1772947707137-4735689_o" x1="0" y1="484.55" x2="187.77" y2="484.55" gradientTransform="translate(0 -106)" gradientUnits="userSpaceOnUse"><stop offset="0" stop-color="#c48300"></stop><stop offset=".3" stop-color="#ffe173"></stop><stop offset=".41" stop-color="#fcdc6d"></stop><stop offset=".56" stop-color="#f2cd5b"></stop><stop offset=".73" stop-color="#e3b53d"></stop><stop offset=".92" stop-color="#ce9314"></stop><stop offset="1" stop-color="#c48300"></stop></linearGradient><linearGradient id="1772947707137-4735689_p" x1="460.69" y1="462.98" x2="460.69" y2="272.48" gradientTransform="translate(0 -106)" gradientUnits="userSpaceOnUse"><stop offset="0" stop-color="#ffe173"></stop><stop offset=".15" stop-color="#fcdc6d"></stop><stop offset=".36" stop-color="#f2cd5b"></stop><stop offset=".61" stop-color="#e3b53d"></stop><stop offset=".88" stop-color="#ce9314"></stop><stop offset="1" stop-color="#c48300"></stop></linearGradient><linearGradient id="1772947707137-4735689_q" x1="375.54" y1="462.98" x2="375.54" y2="272.48" gradientTransform="translate(0 -106)" gradientUnits="userSpaceOnUse"><stop offset="0" stop-color="#ffe173"></stop><stop offset=".15" stop-color="#fcdc6d"></stop><stop offset=".36" stop-color="#f2cd5b"></stop><stop offset=".61" stop-color="#e3b53d"></stop><stop offset=".88" stop-color="#ce9314"></stop><stop offset="1" stop-color="#c48300"></stop></linearGradient><linearGradient id="1772947707137-4735689_r" x1="418.11" y1="285.04" x2="418.11" y2="243" gradientTransform="translate(0 -106)" gradientUnits="userSpaceOnUse"><stop offset="0" stop-color="#c48300"></stop><stop offset=".12" stop-color="#ce9314"></stop><stop offset=".39" stop-color="#e3b53d"></stop><stop offset=".64" stop-color="#f2cd5b"></stop><stop offset=".85" stop-color="#fcdc6d"></stop><stop offset="1" stop-color="#ffe173"></stop></linearGradient><linearGradient id="1772947707137-4735689_s" x1="418.11" y1="255.55" x2="418.11" y2="215.16" gradientTransform="translate(0 -106)" gradientUnits="userSpaceOnUse"><stop offset="0" stop-color="#c48300"></stop><stop offset=".12" stop-color="#ce9314"></stop><stop offset=".39" stop-color="#e3b53d"></stop><stop offset=".64" stop-color="#f2cd5b"></stop><stop offset=".85" stop-color="#fcdc6d"></stop><stop offset="1" stop-color="#ffe173"></stop></linearGradient><linearGradient id="1772947707137-4735689_t" x1="409.65" y1="462.98" x2="409.65" y2="272.48" gradientTransform="translate(0 -106)" gradientUnits="userSpaceOnUse"><stop offset="0" stop-color="#ffe173"></stop><stop offset=".15" stop-color="#fcdc6d"></stop><stop offset=".36" stop-color="#f2cd5b"></stop><stop offset=".61" stop-color="#e3b53d"></stop><stop offset=".88" stop-color="#ce9314"></stop><stop offset="1" stop-color="#c48300"></stop></linearGradient><linearGradient id="1772947707137-4735689_u" x1="512" y1="483.44" x2="324.23" y2="483.44" gradientTransform="translate(0 -106)" gradientUnits="userSpaceOnUse"><stop offset="0" stop-color="#c48300"></stop><stop offset=".3" stop-color="#ffe173"></stop><stop offset=".41" stop-color="#fcdc6d"></stop><stop offset=".56" stop-color="#f2cd5b"></stop><stop offset=".73" stop-color="#e3b53d"></stop><stop offset=".92" stop-color="#ce9314"></stop><stop offset="1" stop-color="#c48300"></stop></linearGradient></defs><path class="am" d="M238.89,75.04v387.36h34.11V75.04h-34.11" vector-effect="none" fill="url(#1772947707137-4735689_b)"></path><path class="al" d="M215.06,469.43h81.88c0-4.73-2.73-8.46-8.19-11.19-5.46-2.73-12.28-4.55-20.47-5.46-8.19-.91-16.38-.91-24.57,0-8.19.91-15.01,2.73-20.47,5.46-5.46,2.73-8.19,6.46-8.19,11.19" vector-effect="none" fill="url(#1772947707137-4735689_c)"></path><path class="ag" d="M187.77,486.35h136.47c0-7.28-2.46-13.38-7.37-18.29s-11.01-7.37-18.28-7.37h-85.16c-7.28,0-13.37,2.45-18.28,7.37-4.91,4.91-7.37,11.01-7.37,18.29" vector-effect="none" fill="url(#1772947707137-4735689_d)"></path><path class="af" d="M483.62,101.53c-11.28,10.55-23.02,16.19-35.21,16.92s-25.02-1.27-38.48-6c-13.47-4.73-28.02-10.55-43.67-17.47-15.64-6.91-32.57-13.1-50.76-18.56-18.19-5.46-38.03-8.19-59.5-8.19s-41.3,2.73-59.49,8.19c-18.19,5.46-35.12,11.64-50.76,18.56-15.65,6.91-30.21,12.74-43.67,17.47-13.46,4.73-26.29,6.64-38.48,5.73s-23.93-6.46-35.21-16.65c-1.82-1.82-2.73-1.36-2.73,1.36s1.45,6.37,4.37,10.92,7.46,9.1,13.64,13.64c6.19,4.55,14.55,7.55,25.11,9,13.1,2.19,26.75.73,40.94-4.37,14.19-5.09,29.02-11.55,44.49-19.38,15.47-7.83,31.66-14.83,48.58-21.02,16.92-6.19,34.66-9.28,53.22-9.28s36.3,3.09,53.22,9.28c16.92,6.19,33.11,13.19,48.58,21.02,15.47,7.83,30.29,14.28,44.49,19.38,14.19,5.09,27.84,6.55,40.94,4.37,10.55-1.46,18.92-4.46,25.11-9,6.19-4.55,10.73-9.1,13.64-13.64,2.91-4.55,4.37-8.19,4.37-10.92s-.91-3.19-2.73-1.36" vector-effect="none" fill="url(#1772947707137-4735689_e)"></path><path class="ae" d="M119.54,493.44v18.56h272.93v-18.56c0-4.37-1.46-8-4.37-10.92-3.28-3.28-6.91-4.91-10.92-4.91h-242.35c-4,0-7.64,1.64-10.92,4.91-2.91,2.91-4.37,6.55-4.37,10.92" vector-effect="none" fill="url(#1772947707137-4735689_f)"></path><path class="ad" d="M249.45,3.82l-9.83,60.04h32.75l-9.83-60.04c-.36-2.55-2.54-3.82-6.55-3.82s-6.18,1.27-6.55,3.82" vector-effect="none" fill="url(#1772947707137-4735689_g)"></path><path class="y" d="M230.35,50.22v50.76c0,2.91,1.45,4.37,4.37,4.37h42.57c2.91,0,4.37-1.46,4.37-4.37v-50.76c0-2.91-1.45-4.37-4.37-4.37h-42.57c-2.91,0-4.37,1.45-4.37,4.37" vector-effect="none" fill="url(#1772947707137-4735689_h)"></path><path class="x" d="M225.43,55.13v40.94c0,2.19,1.09,3.28,3.28,3.28h54.58c2.19,0,3.28-1.09,3.28-3.28v-40.94c0-1.09-.36-2-1.09-2.73-.36-.36-1.09-.55-2.19-.55h-54.58c-1.1,0-1.82.18-2.19.55-.73.73-1.09,1.64-1.09,2.73" vector-effect="none" fill="url(#1772947707137-4735689_i)"></path><path class="w" d="M13.1,358.07l85.16-190.5h-8.74L4.37,358.07h8.73" vector-effect="none" fill="url(#1772947707137-4735689_j)"></path><path class="v" d="M183.4,358.07l-85.15-190.5h-8.74l85.7,190.5h8.19" vector-effect="none" fill="url(#1772947707137-4735689_k)"></path><path class="ac" d="M93.89,137.01c-5.82,0-10.74,2.09-14.74,6.28-4,4.19-6,9.19-6,15.01,0,5.46,2,10.28,6,14.47s8.92,6.28,14.74,6.28,10.73-2.09,14.73-6.28,6.01-9,6.01-14.47c0-5.82-2.01-10.83-6.01-15.01s-8.92-6.28-14.73-6.28M93.89,170.85c-3.64,0-6.65-1.27-9.01-3.82s-3.55-5.46-3.55-8.73c0-3.64,1.18-6.73,3.55-9.28,2.36-2.55,5.37-3.82,9.01-3.82s6.73,1.27,9.28,3.82c2.54,2.55,3.82,5.64,3.82,9.28,0,3.28-1.27,6.19-3.82,8.73-2.55,2.55-5.64,3.82-9.28,3.82" vector-effect="none" fill="url(#1772947707137-4735689_l)"></path><path class="aa" d="M88.97,113.53v34.39c0,1.82,1.64,2.73,4.91,2.73s4.91-.91,4.91-2.73v-34.39c0-2.19-1.63-3.28-4.91-3.28s-4.91,1.09-4.91,3.28" vector-effect="none" fill="url(#1772947707137-4735689_m)"></path><path class="ab" d="M115.17,358.07l-16.92-190.5h-8.74l17.47,190.5h8.19" vector-effect="none" fill="url(#1772947707137-4735689_n)"></path><path class="ai" d="M93.89,403.93c17.47,0,33.3-2.27,47.49-6.82,14.19-4.55,25.47-10.64,33.84-18.28,8.37-7.64,12.55-16.19,12.55-25.66H0c0,9.46,4.28,18.01,12.83,25.66,8.55,7.64,19.92,13.74,34.11,18.28,14.19,4.54,29.84,6.82,46.95,6.82" vector-effect="none" fill="url(#1772947707137-4735689_o)"></path><path class="z" d="M507.63,356.98l-85.15-190.5h-8.73l85.15,190.5h8.73" vector-effect="none" fill="url(#1772947707137-4735689_p)"></path><path class="ah" d="M336.78,356.98l85.7-190.5h-8.73l-85.15,190.5h8.19" vector-effect="none" fill="url(#1772947707137-4735689_q)"></path><path class="aj" d="M397.37,158.29c0,5.46,2.01,10.28,6.01,14.47s8.92,6.28,14.73,6.28,10.74-2.09,14.74-6.28c4-4.19,6-9,6-14.47,0-5.82-2-10.83-6-15.01-4-4.19-8.92-6.28-14.74-6.28s-10.73,2.09-14.73,6.28-6.01,9.19-6.01,15.01M405.02,158.29c0-3.64,1.27-6.73,3.82-9.28s5.64-3.82,9.28-3.82,6.65,1.27,9.01,3.82,3.54,5.64,3.54,9.28c0,3.28-1.18,6.19-3.54,8.73s-5.37,3.82-9.01,3.82-6.73-1.27-9.28-3.82-3.82-5.46-3.82-8.73" vector-effect="none" fill="url(#1772947707137-4735689_r)"></path><path class="ak" d="M423.03,112.44c0-2.19-1.64-3.28-4.91-3.28s-4.91,1.09-4.91,3.28v34.39c0,1.82,1.64,2.73,4.91,2.73s4.91-.91,4.91-2.73v-34.39" vector-effect="none" fill="url(#1772947707137-4735689_s)"></path><path class="ao" d="M405.01,356.98l17.47-190.5h-8.73l-16.92,190.5h8.19" vector-effect="none" fill="url(#1772947707137-4735689_t)"></path><path class="an" d="M418.11,402.83c17.1,0,32.75-2.27,46.94-6.82,14.19-4.55,25.57-10.64,34.12-18.28,8.55-7.64,12.83-16.19,12.83-25.66h-187.77c0,9.46,4.19,18.01,12.55,25.66,8.37,7.64,19.65,13.74,33.84,18.28,14.19,4.55,30.02,6.82,47.49,6.82" vector-effect="none" fill="url(#1772947707137-4735689_u)"></path></g></svg>