<svg data-name="Layer 1" xmlns="http://www.w3.org/2000/svg" style="" viewBox="0 0 548.55 512"><g class="nc-icon-wrapper"><defs><linearGradient id="1772947707142-8253116_b" x1="6.48" y1="343.58" x2="241.08" y2="343.58" gradientTransform="matrix(.97 0 0 -1.32 -6.26 854.4)" gradientUnits="userSpaceOnUse"><stop offset="0" stop-color="#b8703d"></stop><stop offset=".31" stop-color="#bc7441"></stop><stop offset=".63" stop-color="#c8804d"></stop><stop offset=".94" stop-color="#dc9362"></stop><stop offset="1" stop-color="#e09766"></stop></linearGradient><linearGradient id="1772947707142-8253116_c" x1="-993.54" y1="343.6" x2="-758.96" y2="343.6" gradientTransform="matrix(-.97 0 0 -1.32 -412.7 854.4)" gradientUnits="userSpaceOnUse"><stop offset="0" stop-color="#b8703d"></stop><stop offset=".31" stop-color="#bc7441"></stop><stop offset=".63" stop-color="#c8804d"></stop><stop offset=".94" stop-color="#dc9362"></stop><stop offset="1" stop-color="#e09766"></stop></linearGradient><radialGradient id="1772947707142-8253116_d" cx="-893.2" cy="575.74" fx="-893.2" fy="575.74" r="95.36" gradientTransform="matrix(-.88651 -.41773 .3708 -1.36186 -669.17 804.51)" gradientUnits="userSpaceOnUse"><stop offset=".47" stop-color="#c47841"></stop><stop offset=".66" stop-color="#c17640"></stop><stop offset=".83" stop-color="#b66f3d"></stop><stop offset=".99" stop-color="#a46537"></stop><stop offset="1" stop-color="#a36437"></stop></radialGradient><radialGradient id="1772947707142-8253116_e" cx="-850.62" cy="282.74" fx="-850.62" fy="282.74" r="95.36" gradientTransform="matrix(.88651 -.41773 -.3708 -1.36186 1071.16 422.12)" gradientUnits="userSpaceOnUse"><stop offset=".47" stop-color="#c47841"></stop><stop offset=".66" stop-color="#c17640"></stop><stop offset=".83" stop-color="#b66f3d"></stop><stop offset=".99" stop-color="#a46537"></stop><stop offset="1" stop-color="#a36437"></stop></radialGradient><radialGradient id="1772947707142-8253116_f" cx="456.6" cy="526.24" fx="456.6" fy="526.24" r="214" gradientTransform="matrix(.9848 .17365 .1806 -1.0242 -245.25 573.47)" gradientUnits="userSpaceOnUse"><stop offset="0" stop-color="#e09766"></stop><stop offset=".39" stop-color="#cf8654"></stop><stop offset="1" stop-color="#b8703d"></stop></radialGradient></defs><path class="r" d="M419.53,396.91c0,96.11-290.47,96.11-290.47,0,0-212.27,290.47-212.27,290.47,0Z" fill="#b8703d"></path><path class="s" d="M188.29,340.64c0-115.02,171.99-115,171.99,0,0,116.9-171.99,116.9-171.99,0Z" fill="#f5bb87"></path><path class="n" d="M226.1,453.82c-82.68,68.8-191.17,94.77-220.18-25.35-35.05-145.19,95.76-183.66,124.84-79.3,30.36-5.82,105.2,15.85,95.34,104.66Z" fill="url(#1772947707142-8253116_b)"></path><path class="s" d="M107.8,382.67c20.25,121.42-61.96,148.62-93.79,48.59-34.96-109.91,73.6-169.53,93.79-48.59Z" fill="#f5bb87"></path><path class="u" d="M66.5,479c-.82,0-1.69-.05-2.52-.15l.71-7.21c3.95.47,7.73-.5,11.17-2.76l3.62,6.16c-4.02,2.61-8.38,3.96-12.98,3.96ZM49.52,473.01c-3.81-2.72-7.5-6.3-10.94-10.68l5.28-4.64c3.02,3.85,6.21,6.98,9.49,9.31l-3.83,6.01ZM90.12,463.27l-5.86-3.77c2.06-3.57,3.75-7.82,5.04-12.65l6.61,1.97c-1.46,5.47-3.41,10.32-5.79,14.45ZM30.39,449.64c-2.23-4.2-4.34-8.8-6.23-13.7l6.34-2.75c1.78,4.63,3.76,8.95,5.86,12.87l-5.97,3.57ZM98.56,433.72l-6.82-.74c.37-3.68.55-7.62.55-11.69l-.03-2.58,6.86-.16.03,2.74c0,4.32-.2,8.51-.59,12.43ZM19.42,421.68c-1.37-4.98-2.46-9.97-3.2-14.8l6.77-1.18c.69,4.55,1.72,9.25,3.01,13.94l-6.57,2.04ZM91.33,404.3c-.48-4.55-1.17-9.33-2.08-14.3l6.65-1.89.12.62c.91,5.09,1.62,10.04,2.11,14.77l-6.8.8ZM14.9,391.66l-.02-1.65c0-4.72.33-9.32.98-13.68l6.77,1.12c-.59,4-.9,8.22-.9,12.55v1.52s-6.84.13-6.84.13ZM85.92,375.59c-1.41-4.8-3.04-9.25-4.87-13.19l6.16-3.2c1.98,4.3,3.75,9.09,5.27,14.25l-6.56,2.14ZM26.01,363.98l-6.4-2.6c1.87-5.13,4.25-9.76,7.09-13.79l5.5,4.32c-2.49,3.49-4.56,7.55-6.2,12.06ZM74.04,350.66c-2.93-3.75-6.16-6.67-9.56-8.64l3.29-6.34c4.18,2.42,8.06,5.91,11.57,10.38l-5.29,4.6ZM41.39,342.81l-3.61-6.15c4.72-3.07,9.71-4.74,14.85-4.92l.24,7.24c-3.92.15-7.8,1.44-11.47,3.83Z" fill="#c4926e"></path><path class="m" d="M322.48,453.87c82.66,68.8,191.15,94.68,220.15-25.45,35.06-145.18-95.75-183.65-124.81-79.29-30.35-5.83-105.2,15.93-95.34,104.74Z" fill="url(#1772947707142-8253116_c)"></path><path class="s" d="M440.77,382.67c-20.24,121.42,61.95,148.62,93.79,48.59,34.95-109.91-73.6-169.53-93.79-48.59Z" fill="#f5bb87"></path><path class="l" d="M287.54,404.27c7.09-18.75,24.13-20.96,31.94-31.93,50.29-70.63,19.78-112.75,48.81-129.5,52.97,5.2,81.7,118.11,39.18,212.68-39.66,88.19-142.65,63-119.23-6.45,2.47-7.31-5.83-31.22-.69-44.8Z" fill="url(#1772947707142-8253116_d)"></path><path class="k" d="M261.04,404.27c-7.09-18.75-24.13-20.96-31.94-31.93-50.29-70.63-19.77-112.75-48.8-129.5-52.98,5.2-81.7,118.11-39.18,212.68,39.66,88.19,142.65,63,119.23-6.45-2.47-7.31,5.83-31.22.69-44.8Z" fill="url(#1772947707142-8253116_e)"></path><path class="u" d="M469.09,475.04l3.62-6.16c3.44,2.26,7.21,3.23,11.17,2.76l.71,7.21c-.84.09-1.71.15-2.52.15-4.61,0-8.98-1.34-12.98-3.96ZM495.21,467.01c3.28-2.33,6.47-5.46,9.49-9.31l5.28,4.64c-3.45,4.38-7.13,7.96-10.94,10.68l-3.83-6.01ZM452.66,448.82l6.61-1.97c1.29,4.83,2.97,9.08,5.04,12.65l-5.86,3.77c-2.38-4.12-4.32-8.98-5.79-14.45ZM512.2,446.07c2.09-3.92,4.07-8.25,5.86-12.87l6.34,2.75c-1.89,4.89-4,9.5-6.23,13.7l-5.97-3.57ZM449.43,421.27l.03-2.74,6.86.16-.03,2.58c0,4.08.18,8.02.55,11.69l-6.82.74c-.38-3.91-.59-8.1-.59-12.43ZM522.56,419.64c1.29-4.7,2.31-9.39,3.01-13.94l6.77,1.18c-.74,4.84-1.82,9.82-3.2,14.8l-6.57-2.04ZM450.43,403.5c.5-4.74,1.21-9.68,2.11-14.77l.12-.62,6.64,1.89c-.9,4.98-1.59,9.75-2.07,14.3l-6.8-.8ZM526.79,391.53l.02-1.52c0-4.33-.29-8.56-.9-12.55l6.77-1.12c.66,4.37.99,8.96.99,13.68l-.03,1.65-6.85-.13ZM456.08,373.45c1.53-5.16,3.29-9.96,5.28-14.25l6.16,3.2c-1.83,3.95-3.47,8.39-4.87,13.19l-6.56-2.14ZM516.35,351.91l5.5-4.32c2.86,4.02,5.23,8.66,7.1,13.79l-6.41,2.6c-1.64-4.5-3.71-8.56-6.2-12.06ZM469.22,346.06c3.5-4.46,7.39-7.95,11.57-10.38l3.29,6.34c-3.4,1.98-6.63,4.89-9.56,8.64l-5.29-4.6ZM495.7,338.98l.24-7.24c5.15.19,10.12,1.85,14.85,4.92l-3.61,6.15c-3.68-2.4-7.55-3.68-11.47-3.83Z" fill="#c4926e"></path><path class="r" d="M418.03,185.67c-89.52-15.76-64.96-154.92,24.54-139.13,89.49,15.8,64.96,154.91-24.54,139.13Z" fill="#b8703d"></path><path class="s" d="M470.6,123.24c-9.83,55.62-90.39,41.43-80.58-14.23,9.78-55.65,90.39-41.45,80.58,14.23Z" fill="#f5bb87"></path><path class="r" d="M161.12,140.38C71.57,124.58,96.11-14.54,185.68,1.25c89.46,15.78,64.95,154.91-24.56,139.13Z" fill="#b8703d"></path><path class="s" d="M213.64,77.91c-9.81,55.64-90.39,41.43-80.58-14.18,9.85-55.68,90.39-41.47,80.58,14.18Z" fill="#f5bb87"></path><path class="j" d="M442.62,222.53c-16.92,95.99-130.28,113.62-181.97,104.49-51.71-9.12-152.2-64.43-135.28-160.42C162.76-45.42,480,10.51,442.62,222.53Z" fill="url(#1772947707142-8253116_f)"></path><path class="q" d="M224.62,148.75c9.12,1.61,14.91,12.11,12.9,23.43-2,11.34-11.02,19.25-20.14,17.65-9.16-1.63-14.95-12.14-12.96-23.5,2.01-11.32,11.04-19.17,20.21-17.58Z" fill="#1a1626"></path><path id="1772947707142-8253116_g" data-name="Shape" class="o" d="M219.59,159.5c-1.21,6.86-9.48,5.38-8.28-1.44,1.22-6.86,9.47-5.39,8.28,1.44h0Z" fill="#6e8189"></path><path class="q" d="M355.52,171.84c9.1,1.62,14.93,12.09,12.92,23.44-2,11.35-11.04,19.24-20.18,17.61-9.14-1.6-14.95-12.11-12.93-23.45,2-11.35,11-19.21,20.19-17.6Z" fill="#1a1626"></path><path id="1772947707142-8253116_h" data-name="Shape" class="o" d="M350.48,182.6c-1.2,6.82-9.45,5.37-8.27-1.45,1.22-6.86,9.48-5.39,8.27,1.45h0Z" fill="#6e8189"></path><path class="s" d="M201.13,224.77c4.75-26.67,44.91-67.9,88.2-60.3,43.25,7.63,66.93,60.13,62.21,86.85-14.64,82.99-164.97,56.5-150.41-26.55Z" fill="#f5bb87"></path><path class="p" d="M280.14,247.82c.68-3.89,6.23-35.36,7.05-39.96l-10.69-1.89c-.82,4.59-6.36,36.08-7.06,39.98-1.59,9.07-39.16,11.93-46.55-14.19,6.16,37.52,49.27,30.02,49.27,30.02,0,0,37.9,21.8,56.52-11.37-15.91,22.04-50.15,6.5-48.55-2.59Z" fill="#785647"></path><path id="1772947707142-8253116_i" data-name="Shape" class="t" d="M311.73,218.36c-3.2,17.97-65.09,7.05-61.92-10.9,5.33-30.23,67.14-19.31,61.92,10.9h0Z" fill="#45332c"></path></g></svg>