<svg xmlns="http://www.w3.org/2000/svg" style="" viewBox="0 0 511.97 512"><g class="nc-icon-wrapper"><defs><linearGradient id="1772947707143-2051923_b" x1="-284.39" y1="-150.28" x2="-283.84" y2="-150.28" gradientTransform="matrix(0 -146.57 -146.57 0 -21906.19 -41207.78)" gradientUnits="userSpaceOnUse"><stop offset="0" stop-color="#a9d2e8"></stop><stop offset=".33" stop-color="#c5e2f1"></stop><stop offset=".76" stop-color="#e4f4fb"></stop><stop offset="1" stop-color="#f0fbff"></stop></linearGradient><linearGradient id="1772947707143-2051923_c" x1="-283.52" y1="-151.73" x2="-282.96" y2="-151.73" gradientTransform="scale(87.89 -87.89) rotate(90 -214.478 63.22)" gradientUnits="userSpaceOnUse"><stop offset="0" stop-color="#a9d2e8"></stop><stop offset=".33" stop-color="#c5e2f1"></stop><stop offset=".76" stop-color="#e4f4fb"></stop><stop offset="1" stop-color="#f0fbff"></stop></linearGradient><radialGradient id="1772947707143-2051923_d" cx="-285.09" cy="-149.12" fx="-285.09" fy="-149.12" r=".56" gradientTransform="matrix(519 0 0 -519 148203.27 -77022.23)" gradientUnits="userSpaceOnUse"><stop offset="0" stop-color="#f0fbff"></stop><stop offset=".45" stop-color="#eefafe"></stop><stop offset=".63" stop-color="#e7f6fc"></stop><stop offset=".76" stop-color="#dbeff8"></stop><stop offset=".87" stop-color="#c9e5f2"></stop><stop offset=".97" stop-color="#b3d8eb"></stop><stop offset="1" stop-color="#a9d2e8"></stop></radialGradient></defs><path class="g" d="M67.79,416.85c2.91-9.46,8.82-15.91,17.73-19.37,8.91-3.45,18.82-4.55,29.73-3.27,10.91,1.27,21.19,4.46,30.83,9.55,9.64,5.09,17.1,11.64,22.37,19.64,5.27,8,6.46,16.73,3.55,26.19-3.27,10.19-9.46,17.28-18.55,21.28-9.1,4-19.1,5.46-30.01,4.36-10.91-1.09-21.28-4.27-31.1-9.55-9.82-5.27-17.19-12.19-22.1-20.73-4.91-8.55-5.73-17.91-2.45-28.1" fill="url(#1772947707143-2051923_b)"></path><path class="f" d="M26.87,467.05c5.46-4.36,11.1-5.55,16.91-3.55,5.82,2,10.82,5.64,15.01,10.91,4.18,5.27,6.46,10.91,6.82,16.91s-2.18,11.19-7.64,15.55c-6.18,4.73-12.37,6.18-18.55,4.36-6.18-1.82-11.27-5.36-15.28-10.64s-6.1-11.1-6.27-17.46c-.18-6.36,2.82-11.73,9-16.1" fill="url(#1772947707143-2051923_c)"></path><path class="e" d="M486.28,120.58c9.1,6.55,15.73,14.91,19.91,25.1,4.18,10.19,6.1,20.82,5.73,31.92-.36,11.1-2.73,21.55-7.09,31.37s-10.73,17.64-19.1,23.46c4.73,12.73,5.46,25.19,2.18,37.37-3.27,12.19-9.27,23.01-18.01,32.47-8.73,9.46-19.37,15.91-31.92,19.37-12.55,3.45-25.92,2.64-40.1-2.46,1.09,10.91-2,20.55-9.27,28.92-7.27,8.37-16.55,14.64-27.82,18.82-11.27,4.18-22.73,5.55-34.37,4.1-11.64-1.45-21.64-6.55-30.01-15.28-8.73,14.55-19.73,25.19-33.01,31.92-13.28,6.73-27.28,10.1-42.02,10.1s-28.83-2.82-42.28-8.46c-13.46-5.64-25.1-13.28-34.92-22.91-9.82-9.64-16.19-21.01-19.1-34.1-17.82,6.55-34.74,7.55-50.74,3s-30.01-12.91-42.02-25.1c-12-12.19-20.82-26.37-26.46-42.56C.23,251.44-1.23,234.8,1.5,217.7c2.73-17.1,11-32.92,24.82-47.47-6.55-11.64-8.91-24.19-7.1-37.65,1.82-13.46,6.64-26.1,14.46-37.92,7.82-11.82,17.91-21.64,30.28-29.47s25.92-12.19,40.65-13.1c14.73-.91,29.73,3,45.02,11.73,5.09-16.01,13.37-29.19,24.82-39.56,11.46-10.36,24.56-17.46,39.28-21.28,14.73-3.82,29.65-3.82,44.74,0,15.1,3.82,28.83,11.73,41.19,23.73,10.55-7.27,22.92-11.91,37.1-13.91s28.28-.09,42.28,5.73c14,5.82,25.73,16.73,35.19,32.74,10.55-2.91,21.46-1.73,32.74,3.55,11.27,5.27,20.82,13.64,28.65,25.1,7.82,11.46,11.36,25.01,10.64,40.65" fill="url(#1772947707143-2051923_d)"></path><path class="h" d="M106.53,402.12c-4.73,0-10.46,1-17.19,3-6.73,2-11.19,6.82-13.36,14.46-2.91,8.73-1.46,16.91,4.36,24.56,4.73,6.55,11.82,12,21.28,16.37,9.46,4.36,18.91,6.55,28.37,6.55,5.09,0,11.27-1.18,18.55-3.55,7.27-2.36,12.37-7.91,15.28-16.64,2.18-7.27.73-14.19-4.36-20.73-4.73-6.91-12.19-12.64-22.37-17.19-10.19-4.55-20.37-6.82-30.56-6.82M106.53,393.39c11.27,0,22.55,2.55,33.83,7.64,11.27,5.09,20.19,11.82,26.73,20.19,6.55,8.36,8.19,17.82,4.91,28.37-2.91,9.1-8.27,15.73-16.1,19.91s-16.28,6.27-25.37,6.27c-11.27,0-22.46-2.64-33.56-7.91-11.1-5.27-19.64-12.36-25.65-21.28-6-8.91-7.19-18.82-3.55-29.73,2.55-8.36,7.36-14.37,14.46-18.01,7.09-3.64,15.19-5.46,24.28-5.46M38.33,471.42c-2.18,0-4.18.73-6,2.18-3.27,2.55-5.09,5.27-5.46,8.19-.36,2.91-.18,5.46.55,7.64,1.45,4,3.82,7.27,7.1,9.82,3.27,2.55,6.55,3.82,9.82,3.82,2.91,0,5.64-1.09,8.19-3.27,4.36-2.91,5.46-7.27,3.27-13.1-1.45-4-3.82-7.55-7.09-10.64-3.27-3.09-6.73-4.64-10.37-4.64M38.33,463.23c6.55,0,12.46,2.64,17.73,7.91s8.36,11.36,9.27,18.28-1.55,12.73-7.36,17.46c-4.36,3.27-8.91,4.91-13.64,4.91-6.91,0-12.91-2.73-18.01-8.19-5.09-5.46-7.91-11.64-8.46-18.55s2.45-12.91,9-18.01c3.64-2.55,7.46-3.82,11.46-3.82M235.84,8.73c-17.82,0-33.92,5.27-48.29,15.82-14.37,10.55-24.28,24.37-29.73,41.47l-3.27,10.36-9.27-5.46c-12-6.91-24.56-10.36-37.65-10.36s-26.46,3.82-39.01,11.46-22.64,18.01-30.28,31.1c-6.18,10.55-9.73,21.46-10.64,32.74-.91,11.27,1.18,21.46,6.27,30.56l2.73,5.46-4.36,4.36c-12.37,12.73-19.91,27.56-22.64,44.47-2.73,16.91-.45,33.92,6.82,51.02,7.27,17.1,18.19,30.92,32.74,41.47,14.55,10.55,30.01,15.82,46.38,15.82,8.73,0,17.64-1.45,26.73-4.36l8.73-3.27,2.18,9.27c2.55,10.91,8.1,20.73,16.64,29.46,8.55,8.73,19.01,15.73,31.37,21.01,12.37,5.27,25.28,7.91,38.74,7.91,5.82,0,12.82-.91,21.01-2.73,8.19-1.82,16.55-5.36,25.1-10.64,8.55-5.27,16.28-13.36,23.19-24.28l6-9.27,7.64,7.64c5.09,5.46,10.64,9,16.64,10.64,6,1.64,11.36,2.45,16.1,2.45,18.55,0,33.47-6.18,44.74-18.55,2.18-2.55,4.36-5.91,6.55-10.1s2.91-9,2.18-14.46l-1.09-13.1,12.55,4.36c6.91,2.55,14.01,3.82,21.28,3.82,19.64,0,35.65-8.55,48.02-25.65,12-17.1,14.73-35.1,8.19-54.02l-2.18-6,4.91-3.27c6.91-5.09,12.37-12.1,16.37-21.01s6-18.46,6-28.65c.36-21.82-6.91-38.01-21.82-48.56l-3.27-2.73v-4.36c.36-17.82-5.46-33.1-17.46-45.83-10.55-10.91-22.37-16.37-35.47-16.37-2.91,0-5.82.36-8.73,1.09l-6,1.64-3.27-6c-9.1-14.91-19.46-24.46-31.1-28.65s-21.1-6.27-28.37-6.27c-16.01,0-30.19,4.55-42.56,13.64l-6,4.36-4.91-5.46c-16.73-16.01-36.19-24.01-58.38-24.01M235.84,0c11.27,0,22.46,2.18,33.56,6.55,11.1,4.36,21.19,11.1,30.28,20.19,14.19-9.82,30.19-14.73,48.02-14.73,12.37,0,24.46,3,36.28,9,11.82,6,21.92,15.91,30.28,29.73,3.64-.73,7.27-1.09,10.91-1.09,9.82,0,19.55,3,29.19,9,9.64,6,17.55,14.37,23.73,25.1,6.18,10.73,8.91,23.01,8.19,36.83,9.1,6.55,15.73,14.91,19.91,25.1,4.18,10.19,6.1,20.82,5.73,31.92-.36,11.1-2.73,21.55-7.09,31.37-4.36,9.82-10.73,17.64-19.1,23.46,5.09,14.19,5.27,28.28.55,42.28-4.73,14-12.82,25.65-24.28,34.92-11.46,9.27-24.82,13.91-40.1,13.91-8.36,0-16.37-1.45-24.01-4.36,1.09,9.82-1.45,18.73-7.64,26.73-6.18,8-14.19,14.28-24.01,18.82s-20.01,6.82-30.56,6.82c-7.27,0-14.28-1.27-21.01-3.82s-12.82-6.55-18.28-12c-9.1,14.91-20.37,25.65-33.83,32.19s-27.46,9.82-42.02,9.82-28.56-2.82-42.02-8.46c-13.46-5.64-25.01-13.36-34.65-23.19-9.64-9.82-15.91-21.1-18.82-33.83-9.82,3.64-19.64,5.46-29.46,5.46-14.91,0-28.73-3.73-41.47-11.19-12.73-7.46-23.64-17.28-32.74-29.47-9.1-12.19-15.37-25.65-18.82-40.37-3.45-14.73-3.45-29.65,0-44.74,3.45-15.1,11.37-29.01,23.73-41.74-6.55-12-8.91-24.82-7.1-38.47,1.82-13.64,6.91-26.56,15.28-38.74,8.36-12.19,18.91-22.01,31.65-29.46,12.73-7.46,26.56-11.19,41.47-11.19,6.91,0,13.82.91,20.73,2.73,6.91,1.82,14.01,4.73,21.28,8.73,6.18-20.01,17.46-35.65,33.83-46.92C199.83,5.64,217.29,0,235.84,0" fill="#a9d2e8"></path></g></svg>