<svg data-name="Layer 1" xmlns="http://www.w3.org/2000/svg" style="" viewBox="0 0 512 512"><g class="nc-icon-wrapper"><defs><linearGradient id="1772947707145-1893931_b" x1="-58.5" y1="686.23" x2="16.07" y2="686.23" gradientTransform="scale(1 -1) rotate(-45 -1101.985 -85.933)" gradientUnits="userSpaceOnUse"><stop offset=".16" stop-color="#f5cfa0"></stop><stop offset=".53" stop-color="#d2a378"></stop><stop offset=".84" stop-color="#b47d56"></stop></linearGradient><linearGradient id="1772947707145-1893931_c" x1="-21.21" y1="447.83" x2="-21.21" y2="585.9" gradientTransform="scale(1 -1) rotate(-45 -1101.985 -85.933)" gradientUnits="userSpaceOnUse"><stop offset=".02" stop-color="#3d2a1d" stop-opacity=".4"></stop><stop offset=".07" stop-color="#63442f" stop-opacity=".3"></stop><stop offset=".15" stop-color="#8f6344" stop-opacity=".17"></stop><stop offset=".21" stop-color="#aa7651" stop-opacity=".06"></stop><stop offset=".24" stop-color="#b47d56" stop-opacity="0"></stop></linearGradient><linearGradient id="1772947707145-1893931_d" x1="-19.7" y1="785.41" x2="-19.7" y2="937.36" gradientTransform="scale(1 -1) rotate(-45 -1101.985 -85.933)" gradientUnits="userSpaceOnUse"><stop offset=".42" stop-color="#b47d56" stop-opacity="0"></stop><stop offset=".47" stop-color="#aa7651" stop-opacity=".09"></stop><stop offset=".57" stop-color="#8f6344" stop-opacity=".25"></stop><stop offset=".69" stop-color="#63442f" stop-opacity=".45"></stop><stop offset=".78" stop-color="#3d2a1d" stop-opacity=".6"></stop></linearGradient><linearGradient id="1772947707145-1893931_e" x1="186.29" y1="715.85" x2="483.32" y2="715.85" gradientTransform="scale(1 -1) rotate(-45 -658.88 194.777)" gradientUnits="userSpaceOnUse"><stop offset="0" stop-color="#b0b8bd"></stop><stop offset=".16" stop-color="#aeb6bb"></stop><stop offset=".25" stop-color="#a6aeb3"></stop><stop offset=".31" stop-color="#99a1a6"></stop><stop offset=".36" stop-color="#878f93"></stop><stop offset=".41" stop-color="#70787b"></stop><stop offset=".45" stop-color="#565e61"></stop></linearGradient><linearGradient id="1772947707145-1893931_f" x1="180.28" y1="736.49" x2="511.56" y2="736.49" gradientTransform="rotate(-45 -672.881 -160.977) scale(.88 -1)" gradientUnits="userSpaceOnUse"><stop offset=".12" stop-color="#dbe4eb"></stop><stop offset=".53" stop-color="#9faab0"></stop><stop offset=".78" stop-color="#79858a"></stop></linearGradient><linearGradient id="1772947707145-1893931_g" x1="-105.3" y1="-155.6" x2="-20.83" y2="-155.6" gradientTransform="scale(1 -1) rotate(45 329.121 225.726)" gradientUnits="userSpaceOnUse"><stop offset=".16" stop-color="#f5cfa0"></stop><stop offset=".53" stop-color="#d2a378"></stop><stop offset=".84" stop-color="#b47d56"></stop></linearGradient><linearGradient id="1772947707145-1893931_h" x1="-63.07" y1="-393.17" x2="-63.07" y2="-255.56" gradientTransform="scale(1 -1) rotate(45 329.121 225.726)" gradientUnits="userSpaceOnUse"><stop offset=".02" stop-color="#3d2a1d" stop-opacity=".4"></stop><stop offset=".07" stop-color="#63442f" stop-opacity=".3"></stop><stop offset=".15" stop-color="#8f6344" stop-opacity=".17"></stop><stop offset=".21" stop-color="#aa7651" stop-opacity=".06"></stop><stop offset=".24" stop-color="#b47d56" stop-opacity="0"></stop></linearGradient><linearGradient id="1772947707145-1893931_i" x1="-61.39" y1="-56.77" x2="-61.39" y2="94.66" gradientTransform="scale(1 -1) rotate(45 329.121 225.726)" gradientUnits="userSpaceOnUse"><stop offset=".42" stop-color="#b47d56" stop-opacity="0"></stop><stop offset=".47" stop-color="#aa7651" stop-opacity=".09"></stop><stop offset=".57" stop-color="#8f6344" stop-opacity=".25"></stop><stop offset=".69" stop-color="#63442f" stop-opacity=".45"></stop><stop offset=".78" stop-color="#3d2a1d" stop-opacity=".6"></stop></linearGradient><radialGradient id="1772947707145-1893931_j" cx="16.2" cy="306.96" fx="16.2" fy="306.96" r="171.87" gradientTransform="matrix(.70735 -.70686 -.55879 -.55844 275.49 298.24)" gradientUnits="userSpaceOnUse"><stop offset="0" stop-color="#dbe4eb"></stop><stop offset=".18" stop-color="#d7e0e7"></stop><stop offset=".35" stop-color="#cdd5dc"></stop><stop offset=".52" stop-color="#bac3c9"></stop><stop offset=".68" stop-color="#a1a9af"></stop><stop offset=".84" stop-color="#80888c"></stop><stop offset=".99" stop-color="#586063"></stop><stop offset="1" stop-color="#565e61"></stop></radialGradient><linearGradient id="1772947707145-1893931_k" x1="-161.15" y1="186.16" x2="103.78" y2="186.16" gradientTransform="scale(1 -1) rotate(45 427.409 217.669)" gradientUnits="userSpaceOnUse"><stop offset=".5" stop-color="#565e61"></stop><stop offset=".55" stop-color="#71797d"></stop><stop offset=".61" stop-color="#8c9499"></stop><stop offset=".68" stop-color="#a0a8ad"></stop><stop offset=".74" stop-color="#acb4b9"></stop><stop offset=".81" stop-color="#b0b8bd"></stop></linearGradient></defs><path class="u" d="M239.16,318.77c58.73-58.33,67.29-85.16,150.56-154.97,11.19-9.39-29.7-49.98-39.15-38.87-70.25,82.73-97.27,91.2-156.03,149.55-40.78,40.5-65.98,77.76-171.4,162.1-7.53,6.02-.16,19.58,16.48,36.09,16.64,16.52,30.29,23.85,36.39,16.37,84.87-104.73,122.39-129.77,163.16-170.27Z" fill="url(#1772947707145-1893931_b)"></path><path class="t" d="M117.12,354.93c-22.62,21.88-51.91,48.02-93.98,81.66-7.53,6.02-.16,19.58,16.48,36.09,16.64,16.52,30.29,23.85,36.39,16.37,33.78-41.7,60.06-70.73,82.03-93.17l-40.92-40.95Z" fill="url(#1772947707145-1893931_c)"></path><path class="s" d="M280.46,198.11l35.38,35.62c17.72-19.48,39.36-41,73.88-69.91,11.19-9.39-29.7-49.98-39.15-38.87-28.96,34.08-50.59,55.58-70.11,73.16Z" fill="url(#1772947707145-1893931_d)"></path><path class="r" d="M323.8,20.08c-2.79-1.37-28.71,26.21-25.56,29.35,25.55,25.55,51.77,49.92,47.61,78.78-.6,4.11,36.16,40.97,40.28,40.29,46.88-7.71,84.6,31.67,117.57,79.93,3.64,5.32,9.54,5.2,8.06-5.35-9.01-64.35-78.81-168.99-187.96-222.99Z" fill="url(#1772947707145-1893931_e)"></path><path class="q" d="M511.69,242.63c-11.13-77.17-82.47-173.4-187.9-222.55-.55-.26-2.05.65-4.04,2.25,105.12,55.36,175.7,154.43,191.94,220.3Z" fill="url(#1772947707145-1893931_f)"></path><path class="p" d="M339.09,287.32c-58.11-58.55-86.1-65.82-154.73-149.73-9.23-11.26-55.24,35.02-44.05,44.33,83.3,69.16,90.49,97.35,148.62,155.91,40.36,40.66,78.33,64.94,160.9,171.43,5.9,7.64,20.86-1.19,39.56-19.99,18.71-18.85,27.46-33.87,19.9-39.85-105.74-83.19-129.84-121.46-170.2-162.1Z" fill="url(#1772947707145-1893931_g)"></path><path class="o" d="M369.26,414.79c21.79,22.57,47.62,51.97,80.56,94.46,5.9,7.64,20.86-1.19,39.56-19.99,18.71-18.85,27.46-33.87,19.9-39.85-42.12-33.13-71.22-59.1-93.6-81l-46.42,46.37Z" fill="url(#1772947707145-1893931_h)"></path><path class="n" d="M213.42,251.58l40.35-40.1c-19.55-17.52-40.99-39.12-69.42-73.9-9.23-11.26-55.24,35.02-44.05,44.33,34.31,28.5,55.73,50.06,73.11,69.67Z" fill="url(#1772947707145-1893931_i)"></path><path class="m" d="M177.26,2.06l-90.39,72.62c-3.71,2.96-9.17,8.44-12.15,12.14L2.05,177.17c-3,3.72-2.66,9.5.71,12.85l55.49,55.48L245.61,58.22,190.12,2.76c-3.37-3.37-9.17-3.71-12.87-.7Z" fill="url(#1772947707145-1893931_j)"></path><path class="l" d="M92.9,80.7c-3.71,2.95-9.19,8.45-12.15,12.13L8.07,183.21c-2.99,3.72-2.65,9.5.73,12.86l49.44,49.44c3.39,3.37,9.16,3.67,12.87.67l90.36-72.63c3.7-2.98,9.16-8.42,12.15-12.16l72.69-90.33c2.99-3.71,2.68-9.47-.7-12.84l-49.43-49.44c-3.38-3.35-9.16-3.69-12.87-.69l-90.4,72.62Z" fill="url(#1772947707145-1893931_k)"></path></g></svg>