<svg data-name="Layer 1" xmlns="http://www.w3.org/2000/svg" style="" viewBox="0 0 590.76 512"><g class="nc-icon-wrapper"><defs><radialGradient id="1772947707145-683588_b" cx="303.14" cy="496.67" fx="303.14" fy="496.67" r="217.9" gradientTransform="matrix(.98 0 0 -2.83 -1.79 1822.43)" gradientUnits="userSpaceOnUse"><stop offset=".53" stop-color="#1a1626"></stop><stop offset=".95" stop-color="#4e4959"></stop></radialGradient><radialGradient id="1772947707145-683588_c" cx="307.19" cy="669.37" fx="307.19" fy="669.37" r="206.91" gradientTransform="matrix(.94 0 0 -6.93 7.82 4858.81)" gradientUnits="userSpaceOnUse"><stop offset="0" stop-color="#1a1626"></stop><stop offset=".19" stop-color="#1d1929"></stop><stop offset=".32" stop-color="#262232"></stop><stop offset=".43" stop-color="#353141"></stop><stop offset=".5" stop-color="#413d4d"></stop><stop offset=".71" stop-color="#413d4d"></stop><stop offset=".72" stop-color="#3d3949"></stop><stop offset=".81" stop-color="#2a2636"></stop><stop offset=".91" stop-color="#1e1a2a"></stop><stop offset="1" stop-color="#1a1626"></stop></radialGradient><radialGradient id="1772947707145-683588_d" cx="307.19" cy="512.81" fx="307.19" fy="512.81" r="153.04" gradientTransform="matrix(.94 0 0 -2.97 7.82 1917.97)" gradientUnits="userSpaceOnUse"><stop offset=".48" stop-color="#ff3030"></stop><stop offset="1" stop-color="#bd0000"></stop></radialGradient><radialGradient id="1772947707145-683588_e" cx="307.19" cy="-732.96" fx="307.19" fy="-732.96" r="156.46" gradientTransform="matrix(.94 0 0 -.2 7.82 -113.46)" gradientUnits="userSpaceOnUse"><stop offset="0" stop-color="#1a1626"></stop><stop offset=".26" stop-color="#23202e"></stop><stop offset="1" stop-color="#3a3742"></stop></radialGradient></defs><path class="k" d="M295.38,395.15C199.79,395.15,0,284.26,0,363.03c0,67.81,100.66,148.97,295.38,148.97s295.38-81.16,295.38-148.97c0-78.77-199.79,32.12-295.38,32.12Z" fill="#302c3b"></path><path class="i" d="M295.38,376.61c-169.73,0-289.95-77.42-289.95-13.58,0,54.08,104.63,137.73,289.95,137.73s289.95-83.64,289.95-137.73c0-63.84-120.22,13.58-289.95,13.58Z" fill="url(#1772947707145-683588_b)"></path><path class="h" d="M502.13,38.65c-137.75-6.84-275.75-6.84-413.5,0,.1,0,16.5,112.21,20.46,280.72-16.12,96.2,186.35,92.31,186.29,93.88-.06-1.59,202.41,2.3,186.27-93.88,3.98-168.52,20.36-280.73,20.48-280.72Z" fill="url(#1772947707145-683588_c)"></path><path class="g" d="M481.65,319.37c3.71,59.57-124.11,63.9-186.27,64.66-62.16-.77-189.98-5.1-186.29-64.66-6.48,4.3-.36,55.5,2.1,87.65,2.24,25.8,74.5,65.71,184.19,65.59,109.68.13,181.95-39.8,184.19-65.59,2.48-32.16,8.56-83.34,2.08-87.65Z" fill="url(#1772947707145-683588_d)"></path><path class="j" d="M481.65,319.37c3.71,59.57-124.11,63.9-186.27,64.66-62.16-.77-189.98-5.1-186.29-64.66-4.84,4.36-10.67,71.69,186.29,69.54,196.94,2.15,191.13-65.19,186.27-69.54Z" fill="#f46c60"></path><path class="f" d="M88.63,38.65c2.69,39.36,410.81,39.36,413.5,0,2.83-51.53-416.32-51.53-413.5,0Z" fill="url(#1772947707145-683588_e)"></path><path class="k" d="M92.53,45.46c39.81,30.03,365.88,30.03,405.67,0-68.42,21.22-337.24,21.22-405.67,0Z" fill="#302c3b"></path></g></svg>