<svg data-name="Layer 1" xmlns="http://www.w3.org/2000/svg" style="" viewBox="0 0 511.99 512"><g class="nc-icon-wrapper"><defs><linearGradient id="1772947707150-4368251_b" x1="36.59" y1="284" x2="548.58" y2="284" gradientTransform="matrix(1 0 0 -1 -36.59 540)" gradientUnits="userSpaceOnUse"><stop offset="0" stop-color="#1a1626" stop-opacity=".3"></stop><stop offset=".14" stop-color="#1a1626" stop-opacity=".27"></stop><stop offset="1" stop-color="#1a1626" stop-opacity=".1"></stop></linearGradient><linearGradient id="1772947707150-4368251_c" x1="135.12" y1="215.46" x2="312.97" y2="215.46" gradientTransform="matrix(1 0 0 -1 -36.59 540)" gradientUnits="userSpaceOnUse"><stop offset="0" stop-color="#1a1626" stop-opacity=".3"></stop><stop offset=".14" stop-color="#1a1626" stop-opacity=".27"></stop><stop offset="1" stop-color="#1a1626" stop-opacity=".1"></stop></linearGradient></defs><path class="g" d="M0,2.23v505.48c0,2.36,1.92,4.28,4.28,4.28h505.5c2.35,0,2.93-1.35,1.25-3.02L3.02.96C1.36-.71,0-.15,0,2.23ZM271.13,406.16c1.66,1.66,1.11,3.03-1.25,3.03H107.09c-2.36,0-4.29-1.93-4.29-4.29v-162.78c0-2.36,1.37-2.92,3.04-1.25l165.29,165.29Z" fill="#ffe1bd"></path><path class="f" d="M0,419.54c34.91,35.08,64.78,67.95,84.54,92.46h7.94C56,475.39,23.75,441.01,0,413.75v5.79Z" fill="#f5cfa0"></path><path class="f" d="M0,468.13v20.62l23.24,23.25h24.73c-14.49-12.56-30.74-27.37-47.97-43.87Z" fill="#f5cfa0"></path><path class="f" d="M0,342.47c10.6,9.99,21.63,20.7,32.9,31.98,63.96,63.93,110.64,120.87,104.33,127.21-1.62,1.62-6.59-.26-14.17-5,5.15,5.18,10.19,10.27,15.13,15.33h33.83c-19.81-21.76-32.02-37.53-29.97-39.59,2.35-2.36,22.94,14.19,49.97,39.59h6.78L0,313.17v29.29Z" fill="#f5cfa0"></path><path class="f" d="M0,45.69v62.52c38.06,36.35,79.16,76.48,121.92,119.21,117.47,117.5,216.54,223.66,266.94,284.58h19.08c-23.73-22.79-48.49-47.01-73.87-72.4C184.87,290.44,72.49,160.94,83.07,150.36c10.56-10.55,140.07,101.79,289.25,250.97,38.89,38.87,75.08,76.27,107.37,110.66h30.1c2.35,0,2.93-1.35,1.25-3.02L247.89,245.83c-25.43,2.04-116.34-67.57-213.69-164.91C22.29,69.01,10.95,57.26,0,45.69Z" fill="#f5cfa0"></path><path class="f" d="M102.8,318.26c-38.8-45.17-60.28-75.2-55.59-79.93,2.53-2.51,12.33,2.53,27.84,13.63C48.9,225.72,23.79,200.17,0,175.62v55.24c31.3,34.47,49.79,57.73,47.13,60.37-2.27,2.29-20.02-11.3-47.13-35.3v14.84l102.8,102.82v-55.32Z" fill="#f5cfa0"></path><path class="f" d="M185.21,409.18h-46.79l102.82,102.81h44.11c-1.85-1.83-3.66-3.64-5.51-5.5-34.01-34-65.95-66.87-94.63-97.31Z" fill="#f5cfa0"></path><path class="e" d="M4.28,8.29l499.43,499.42H4.28V8.29M1.28,0C.5,0,0,.77,0,2.23v505.48c0,2.36,1.92,4.28,4.28,4.28h505.5c2.35,0,2.93-1.35,1.25-3.02L3.02.96C2.39.32,1.77,0,1.28,0h0Z" fill="url(#1772947707150-4368251_b)"></path><path class="d" d="M104.1,239.89c.49,0,1.08.32,1.74.97l165.29,165.29c1.66,1.66,1.11,3.03-1.25,3.03H107.09c-2.36,0-4.29-1.92-4.29-4.28v-162.78c0-1.44.51-2.22,1.3-2.23M104.1,235.61c-2.69,0-5.57,2.05-5.57,6.51v162.78c0,4.74,3.85,8.57,8.57,8.57h162.79c4.18,0,5.65-2.46,6.09-3.54.44-1.04,1.13-3.84-1.81-6.79L108.87,237.83c-1.83-1.84-3.6-2.22-4.77-2.23h0Z" fill="url(#1772947707150-4368251_c)"></path><path class="h" d="M0 30.69L0 26.68 14.38 12.33 16.38 14.34 0 30.69z" fill="#302c3b"></path><path class="h" transform="rotate(-45.12 15.899 28.889)" d="M5.28 27.46H26.52V30.32H5.28z" fill="#302c3b"></path><path class="h" transform="rotate(-44.88 23.972 36.94)" d="M13.35 35.54H34.589999999999996V38.33H13.35z" fill="#302c3b"></path><path class="h" transform="rotate(-45 32.04 44.978)" d="M21.41 43.56H42.65V46.400000000000006H21.41z" fill="#302c3b"></path><path class="h" transform="rotate(-45.23 40.088 53.054)" d="M29.46 51.61H50.71V54.48H29.46z" fill="#302c3b"></path><path class="h" transform="rotate(-45.12 44.71 64.54)" d="M29.25 63.12H60.17V65.95H29.25z" fill="#302c3b"></path><path class="h" transform="rotate(-45 56.19 69.166)" d="M45.58 67.75H66.81V70.57H45.58z" fill="#302c3b"></path><path class="h" transform="rotate(-44.77 64.234 77.232)" d="M53.64 75.81H74.86V78.66H53.64z" fill="#302c3b"></path><path class="h" transform="rotate(-45.12 72.308 85.277)" d="M61.68 83.86H82.92V86.69H61.68z" fill="#302c3b"></path><path class="h" transform="rotate(-44.64 80.345 93.342)" d="M69.72 91.9H90.94V94.76H69.72z" fill="#302c3b"></path><path class="h" transform="rotate(-45.23 78.282 111.532)" d="M53.32 110.09H103.22999999999999V112.97H53.32z" fill="#302c3b"></path><path class="h" transform="rotate(-44.41 96.47 109.442)" d="M85.84 108.01H107.07000000000001V110.88000000000001H85.84z" fill="#302c3b"></path><path class="h" transform="rotate(-45 104.507 117.492)" d="M93.89 116.08H115.14V118.89999999999999H93.89z" fill="#302c3b"></path><path class="h" transform="rotate(-45.12 112.58 125.547)" d="M101.96 124.11H123.19V126.97H101.96z" fill="#302c3b"></path><path class="h" transform="rotate(-45.12 120.612 133.626)" d="M110.01 132.18H131.24V135.06H110.01z" fill="#302c3b"></path><path class="h" transform="rotate(-44.88 125.249 145.09)" d="M109.8 143.69H140.72V146.5H109.8z" fill="#302c3b"></path><path class="h" transform="rotate(-44.77 136.717 149.711)" d="M126.13 148.29H147.35999999999999V151.14H126.13z" fill="#302c3b"></path><path class="h" transform="rotate(-44.89 144.803 157.77)" d="M134.2 156.33H155.42V159.23000000000002H134.2z" fill="#302c3b"></path><path class="h" d="M146.36 174.33L144.32 172.32 159.33 157.31 161.37 159.33 146.36 174.33z" fill="#302c3b"></path><path class="h" transform="rotate(-45.24 160.95 173.884)" d="M150.31 172.47H171.55V175.29H150.31z" fill="#302c3b"></path><path class="h" transform="rotate(-45 158.796 192.065)" d="M133.85 190.65H183.76V193.47H133.85z" fill="#302c3b"></path><path class="h" transform="rotate(-45.23 177.055 190.005)" d="M166.41 188.56H187.65V191.44H166.41z" fill="#302c3b"></path><path class="h" transform="rotate(-45.23 185.096 198.059)" d="M174.45 196.63H195.67V199.48H174.45z" fill="#302c3b"></path><path class="h" transform="rotate(-44.4 193.13 206.09)" d="M182.5 204.66H203.7V207.51H182.5z" fill="#302c3b"></path><path class="h" transform="rotate(-45 201.17 214.142)" d="M190.55 212.71H211.79000000000002V215.58H190.55z" fill="#302c3b"></path><path class="h" transform="rotate(-45 205.806 225.622)" d="M190.34 224.2H221.26V227.04H190.34z" fill="#302c3b"></path><path class="h" transform="rotate(-45.12 217.278 230.25)" d="M206.64 228.85H227.89999999999998V231.65H206.64z" fill="#302c3b"></path><path class="h" transform="rotate(-45 225.336 238.323)" d="M214.73 236.89H235.95999999999998V239.76H214.73z" fill="#302c3b"></path><path class="h" transform="rotate(-45 233.389 246.367)" d="M222.78 244.95H244V247.76999999999998H222.78z" fill="#302c3b"></path><path class="h" transform="rotate(-45.23 241.489 254.44)" d="M230.83 252.99H252.07000000000002V255.86H230.83z" fill="#302c3b"></path><path class="h" transform="rotate(-45.23 239.417 272.635)" d="M214.42 271.18H264.34V274.06H214.42z" fill="#302c3b"></path><path class="h" transform="rotate(-45.12 257.597 270.54)" d="M246.95 269.12H268.21V271.95H246.95z" fill="#302c3b"></path><path class="h" transform="rotate(-45.36 265.61 278.593)" d="M255.01 277.17H276.25V280.03000000000003H255.01z" fill="#302c3b"></path><path class="h" d="M267.18 295.19L265.16 293.15 280.19 278.14 282.16 280.14 267.18 295.19z" fill="#302c3b"></path><path class="h" transform="rotate(-45.23 281.772 294.716)" d="M271.11 293.26H292.36V296.14H271.11z" fill="#302c3b"></path><path class="h" transform="rotate(-44.88 286.326 306.168)" d="M270.89 304.75H301.78V307.58H270.89z" fill="#302c3b"></path><path class="h" transform="rotate(-45 297.81 310.783)" d="M287.2 309.36H308.41999999999996V312.21000000000004H287.2z" fill="#302c3b"></path><path class="h" d="M299.38 327.37L297.34 325.36 312.36 310.35 314.41 312.35 299.38 327.37z" fill="#302c3b"></path><path class="h" transform="rotate(-45 313.941 326.911)" d="M303.33 325.5H324.54999999999995V328.32H303.33z" fill="#302c3b"></path><path class="h" d="M315.49 343.47L313.47 341.48 328.48 326.46 330.52 328.47 315.49 343.47z" fill="#302c3b"></path><path class="h" transform="rotate(-45.23 319.972 353.182)" d="M294.96 351.72H344.88V354.6H294.96z" fill="#302c3b"></path><path class="h" transform="rotate(-45 338.112 351.08)" d="M327.48 349.67H348.73V352.49H327.48z" fill="#302c3b"></path><path class="h" transform="rotate(-45.23 346.194 359.147)" d="M335.52 357.7H356.78V360.55H335.52z" fill="#302c3b"></path><path class="h" transform="rotate(-44.88 354.168 367.178)" d="M343.57 365.75H364.8V368.61H343.57z" fill="#302c3b"></path><path class="h" transform="rotate(-45.36 362.196 375.23)" d="M351.62 373.83H372.86V376.65H351.62z" fill="#302c3b"></path><path class="h" transform="rotate(-45.23 366.939 386.748)" d="M351.43 385.3H382.35V388.15000000000003H351.43z" fill="#302c3b"></path><path class="h" transform="rotate(-44.77 378.356 391.326)" d="M367.8 389.93H389.02V392.77H367.8z" fill="#302c3b"></path><path class="h" transform="rotate(-45 386.434 399.394)" d="M375.81 397.98H397.05V400.8H375.81z" fill="#302c3b"></path><path class="h" transform="rotate(-44.52 394.522 407.49)" d="M383.89 406.08H405.11V408.9H383.89z" fill="#302c3b"></path><path class="h" d="M396.01 424.01L394.06 422.03 409.05 406.98 411.06 409.03 396.01 424.01z" fill="#302c3b"></path><path class="h" transform="rotate(-44.65 400.44 433.67)" d="M375.52 432.25H425.4V435.12H375.52z" fill="#302c3b"></path><path class="h" transform="rotate(-45.24 418.733 431.634)" d="M408.07 430.21H429.32V433.03H408.07z" fill="#302c3b"></path><path class="h" transform="rotate(-45 426.712 439.68)" d="M416.09 438.24H437.32V441.12H416.09z" fill="#302c3b"></path><path class="h" transform="rotate(-45.11 434.76 447.742)" d="M424.1 446.27H445.33000000000004V449.16999999999996H424.1z" fill="#302c3b"></path><path class="h" transform="rotate(-45.12 442.85 455.787)" d="M432.22 454.38H453.45000000000005V457.19H432.22z" fill="#302c3b"></path><path class="h" transform="rotate(-45.12 447.505 467.275)" d="M432.01 465.84H462.94V468.69H432.01z" fill="#302c3b"></path><path class="h" transform="rotate(-44.53 458.859 471.83)" d="M448.3 470.43H469.54V473.28000000000003H448.3z" fill="#302c3b"></path><path class="h" transform="rotate(-45.12 467.036 479.947)" d="M456.39 478.52H477.63V481.34999999999997H456.39z" fill="#302c3b"></path><path class="h" transform="rotate(-45.24 475.133 488.018)" d="M464.47 486.6H485.69000000000005V489.41H464.47z" fill="#302c3b"></path><path class="h" transform="rotate(-45.36 483.054 496.048)" d="M472.49 494.64H493.73V497.5H472.49z" fill="#302c3b"></path><path class="h" d="M485.32 511.99L481.25 511.99 497.62 495.61 499.68 497.64 485.32 511.99z" fill="#302c3b"></path></g></svg>