<svg xmlns="http://www.w3.org/2000/svg" style="" viewBox="0 0 357.91 512"><g class="nc-icon-wrapper"><defs><linearGradient id="1772947707152-1583077_b" x1="178.96" y1="-104.41" x2="178.96" y2="142.74" gradientTransform="matrix(1 0 0 -1 0 407.58)" gradientUnits="userSpaceOnUse"><stop offset=".88" stop-color="#484258"></stop><stop offset=".95" stop-color="#555064"></stop><stop offset="1" stop-color="#605b6e"></stop></linearGradient><radialGradient id="1772947707152-1583077_c" cx="-602.26" cy="484.68" fx="-602.26" fy="484.68" r="10.06" gradientTransform="matrix(1 0 0 -1 0 407.58)" gradientUnits="userSpaceOnUse"><stop offset=".51" stop-color="#c99b71" stop-opacity=".8"></stop><stop offset="1" stop-color="#c99b71" stop-opacity="0"></stop></radialGradient><radialGradient id="1772947707152-1583077_d" cx="-183.79" cy=".85" fx="-183.79" fy=".85" r="10.06" gradientTransform="matrix(1 0 0 -1 0 407.58)" gradientUnits="userSpaceOnUse"><stop offset=".51" stop-color="#c99b71" stop-opacity=".8"></stop><stop offset="1" stop-color="#c99b71" stop-opacity="0"></stop></radialGradient><linearGradient id="1772947707152-1583077_e" x1="222.55" y1="246.75" x2="222.55" y2="275.54" gradientTransform="matrix(1 0 0 -1 0 407.58)" gradientUnits="userSpaceOnUse"><stop offset="0" stop-color="#4a90c2"></stop><stop offset="1" stop-color="#1e3a5f"></stop></linearGradient><linearGradient id="1772947707152-1583077_f" x1="135.36" y1="246.75" x2="135.36" y2="275.54" gradientTransform="matrix(1 0 0 -1 0 407.58)" gradientUnits="userSpaceOnUse"><stop offset="0" stop-color="#4a90c2"></stop><stop offset="1" stop-color="#1e3a5f"></stop></linearGradient><linearGradient id="1772947707152-1583077_g" x1="227.03" y1="-82.07" x2="262.11" y2="29.19" gradientTransform="matrix(1 0 0 -1 0 407.58)" gradientUnits="userSpaceOnUse"><stop offset="0" stop-color="#d78e53"></stop><stop offset="1" stop-color="#c06d1b"></stop></linearGradient><linearGradient id="1772947707152-1583077_h" x1="261.64" y1="31" x2="277.42" y2="89.72" gradientTransform="matrix(1 0 0 -1 0 407.58)" gradientUnits="userSpaceOnUse"><stop offset="0" stop-color="#b55900"></stop><stop offset=".5" stop-color="#e3ab72"></stop><stop offset="1" stop-color="#d07e42"></stop></linearGradient><linearGradient id="1772947707152-1583077_i" x1="301.07" y1="20.55" x2="313.07" y2="83.29" gradientTransform="matrix(1 0 0 -1 0 407.58)" gradientUnits="userSpaceOnUse"><stop offset="0" stop-color="#622c00"></stop><stop offset="1" stop-color="#8c3f00"></stop></linearGradient><linearGradient id="1772947707152-1583077_j" x1="274.57" y1="27.55" x2="301.3" y2="83.21" gradientTransform="matrix(1 0 0 -1 0 407.58)" gradientUnits="userSpaceOnUse"><stop offset="0" stop-color="#d38942"></stop><stop offset=".5" stop-color="#f2c5a6"></stop><stop offset="1" stop-color="#d38942"></stop></linearGradient><linearGradient id="1772947707152-1583077_k" x1="298.64" y1="18.29" x2="317.74" y2="87.58" gradientTransform="matrix(1 0 0 -1 0 407.58)" gradientUnits="userSpaceOnUse"><stop offset="0" stop-color="#b55900"></stop><stop offset=".5" stop-color="#e3ab72"></stop><stop offset="1" stop-color="#d07e42"></stop></linearGradient><linearGradient id="1772947707152-1583077_l" x1="226.48" y1="40.16" x2="238.49" y2="102.9" gradientTransform="matrix(1 0 0 -1 0 407.58)" gradientUnits="userSpaceOnUse"><stop offset="0" stop-color="#622c00"></stop><stop offset="1" stop-color="#8c3f00"></stop></linearGradient><linearGradient id="1772947707152-1583077_m" x1="237.09" y1="38.1" x2="262.73" y2="92.67" gradientTransform="matrix(1 0 0 -1 0 407.58)" gradientUnits="userSpaceOnUse"><stop offset="0" stop-color="#d38942"></stop><stop offset=".5" stop-color="#f2c5a6"></stop><stop offset="1" stop-color="#d38942"></stop></linearGradient><linearGradient id="1772947707152-1583077_n" x1="222.93" y1="38.05" x2="241.98" y2="107.2" gradientTransform="matrix(1 0 0 -1 0 407.58)" gradientUnits="userSpaceOnUse"><stop offset="0" stop-color="#b55900"></stop><stop offset=".5" stop-color="#e3ab72"></stop><stop offset="1" stop-color="#d07e42"></stop></linearGradient></defs><path class="ad" d="M270.07,279.02c-2.18.36-7.82.64-16.91.82-9.1.18-20.19.36-33.28.55-13.1.18-26.82.27-41.19.27s-28.19-.09-41.47-.27c-13.27-.18-24.37-.36-33.28-.55-8.91-.18-14.46-.45-16.64-.82-8-1.09-14.27-6.82-18.82-17.19-4.55-10.37-7.91-22.64-10.1-36.83-2.18-14.19-3.55-28.28-4.09-42.28-.55-14.01-.73-25.64-.55-34.92.18-9.27.27-13.55.27-12.82h250.43c0-.36-.18,2.73-.55,9.27-.36,6.55-1,15.19-1.91,25.92s-2.27,22.19-4.09,34.37c-1.82,12.19-4,23.82-6.55,34.92-2.55,11.1-5.55,20.28-9,27.55s-7.55,11.27-12.27,12.01" fill="#b0872d"></path><path class="aa" d="M233.52,265.38l84.57,32.73-12.55,195.33c-1.09,6.18-7.82,10.55-20.19,13.1-12.36,2.55-28.1,4.09-47.19,4.64s-38.83.82-59.2.82c-15.27,0-30.73-.09-46.38-.27-15.64-.18-30.1-.91-43.38-2.18-13.27-1.27-24.1-3.18-32.47-5.73-8.36-2.55-12.73-6-13.1-10.36l-3.82-195.33,84.57-33.28,109.12.55" fill="url(#1772947707152-1583077_b)"></path><path class="ab" d="M178.96,315.03l-54.56-31.1v-51.83h109.12v51.83l-54.56,31.1" fill="#ebc199"></path><path class="ak" d="M178.96,294.85c11.64,0,19.64,1.64,24.01,4.91s6.1,7.1,5.18,11.46-4,8.18-9.27,11.46-11.91,4.91-19.92,4.91-14.64-1.64-19.91-4.91-8.36-7.1-9.27-11.46.82-8.18,5.18-11.46c4.36-3.27,12.37-4.91,24.01-4.91" fill="#2d9f6a"></path><path class="al" d="M234.61,252.29l-5.73,5.46c-3.82,3.64-8.64,7.82-14.46,12.55-5.82,4.73-11.91,8.82-18.27,12.27s-12.1,5.18-17.19,5.18-10.82-1.73-17.19-5.18c-6.36-3.45-12.46-7.55-18.27-12.27-5.82-4.73-10.64-8.91-14.46-12.55s-5.73-5.46-5.73-5.46h111.3" fill="#c99b71"></path><path class="ar" d="M150.59,325.4c-2.55-7.27-2.82-13.19-.82-17.73s5.18-7.91,9.55-10.1,8.46-3.36,12.27-3.55c3.82-.18,6.27.09,7.36.82-1.45,0-3.73,1.55-6.82,4.64s-6.27,6.64-9.55,10.64-6.09,7.55-8.46,10.64l-3.55,4.64" fill="#247f55"></path><path class="ar" d="M178.96,294.85c1.09-.73,3.55-1,7.36-.82,3.82.18,7.82,1.36,12,3.55,4.18,2.18,7.36,5.55,9.55,10.1s2,10.46-.55,17.73l-3.55-4.64c-2.36-3.09-5.18-6.64-8.46-10.64s-6.46-7.55-9.55-10.64-5.36-4.64-6.82-4.64" fill="#247f55"></path><path class="aq" d="M233.52,261.02l20.73,12c-1.09,7.64-5,15.46-11.73,23.46-6.73,8-14.46,15.46-23.19,22.37s-16.82,12.55-24.28,16.91c-7.46,4.36-12.82,6.55-16.1,6.55s-8.64-2.18-16.1-6.55-15.55-10-24.28-16.91c-8.73-6.91-16.46-14.37-23.19-22.37s-10.64-15.82-11.73-23.46l20.73-12c0,5.1,2.55,10.55,7.64,16.37,5.09,5.82,11.1,11.36,18.01,16.64,6.91,5.27,13.19,9.55,18.82,12.82,5.64,3.27,9,4.91,10.1,4.91s4.46-1.64,10.1-4.91c5.64-3.27,11.91-7.55,18.82-12.82,6.91-5.27,12.91-10.82,18.01-16.64,5.09-5.82,7.64-11.27,7.64-16.37" fill="#302c3b"></path><path class="aj" d="M233.52,261.02c9.1,3.27,13,10.55,11.73,21.82-1.27,11.27-11,24.37-29.19,39.28l-4.64-4.64c-3.09-3.09-6.91-6.64-11.46-10.64s-8.82-7.27-12.82-9.82c-4-2.55-6.73-3.27-8.18-2.18,1.09-1.82,5.09-3.45,12-4.91,6.91-1.45,14.46-4.18,22.64-8.18s14.82-10.91,19.91-20.73M124.4,261.02c5.09,9.82,11.73,16.73,19.91,20.73,8.18,4,15.73,6.73,22.64,8.18,6.91,1.45,10.91,3.09,12,4.91-1.45-1.09-4.18-.36-8.18,2.18s-8.27,5.82-12.82,9.82-8.46,7.55-11.73,10.64-4.91,4.64-4.91,4.64c-17.82-14.91-27.37-28.01-28.64-39.28-1.27-11.27,2.64-18.55,11.73-21.82" fill="#fff"></path><path class="aq" d="M118.39,433.43h-6.55c.36-13.46.73-26.28,1.09-38.47.54-18.28.82-22.28,1.36-30.28s1-12,1.36-12c0,0,.27,3.91.82,11.73.55,7.82.91,17.91,1.09,30.28.18,12.37.45,25.28.82,38.74M154.95,511.99s.09-3.82.27-11.46.36-17.37.55-29.19.45-24.37.82-37.64.64-25.92.82-37.92c.18-12,.45-21.73.82-29.19s.55-11.19.55-11.19c.36,0,.64,3.73.82,11.19.18,7.46.36,17.19.55,29.19.18,12,.45,24.64.82,37.92s.64,25.82.82,37.64c.18,11.82.27,21.55.27,29.19v11.46h-7.1M243.88,352.68s.09,3.82.27,11.46c.18,7.64.45,17.46.82,29.46.36,12,.64,24.73.82,38.19.18,13.46.36,26.19.55,38.19.18,12,.27,21.82.27,29.46v11.46h-7.64s.09-3.73.27-11.19c.18-7.46.45-17.19.82-29.19.37-12.01.64-24.82.82-38.47.18-13.64.45-26.46.82-38.47.36-12,.73-21.82,1.09-29.46.36-7.64.73-11.46,1.09-11.46M199.69,355.41c.36,0,.64,3.73.82,11.19.18,7.46.36,17.19.55,29.19.18,12,.45,24.64.82,37.92.37,13.27.64,25.82.82,37.64.18,11.82.27,21.46.27,28.92v11.19l-7.1.55s.09-3.82.27-11.46c.18-7.64.36-17.37.55-29.19.18-11.82.45-24.37.82-37.64s.64-25.92.82-37.92c.18-12,.45-21.73.82-29.19.36-7.46.55-11.19.55-11.19" fill="#302c3b"></path><path class="ag" d="M246.61,510.9s3.73-.18,11.19-.55c7.46-.36,16.73-1,27.82-1.91,11.1-.91,22.19-2.36,33.28-4.36,11.1-2,20.37-4.55,27.82-7.64,7.46-3.09,11.19-6.82,11.19-11.19,0-21.1-1.45-42.38-4.36-63.84-2.91-21.46-6.55-41.38-10.91-59.74-4.36-18.37-8.73-33.28-13.1-44.74-4.36-11.46-8.18-17.73-11.46-18.82s-7.36,3.27-12.27,13.1c-4.91,9.82-10,22.73-15.27,38.74s-10.55,33.28-15.82,51.83-10,36.1-14.19,52.65-7.55,30.1-10.1,40.65l-3.82,15.82M39.83,298.12c1.45-.36,3.27,3.73,5.45,12.27,2.18,8.55,4.36,19.37,6.55,32.47,2.18,13.1,4.18,26.19,6,39.28,1.82,13.1,3.27,24.1,4.36,33.01,1.09,8.91,1.64,13.37,1.64,13.37l99.3-15.82,13.1,83.47c-56.01,10.55-99.39,13.73-130.13,9.55-30.73-4.18-46.1-11.91-46.1-23.19s.45-24.37,1.36-39.28c.91-14.91,2.27-30.37,4.09-46.38,1.82-16.01,4.27-31.1,7.36-45.28s6.91-26.1,11.46-35.73,9.73-15.55,15.55-17.73" fill="#484258"></path><path class="aq" d="M163.13,412.7c2.18,2.18,4.27,7.55,6.27,16.1s3.82,18.01,5.46,28.37,2.64,19.37,3,27.01-.18,11.64-1.64,12c-2.91-1.82-5.55-6.82-7.91-15.01s-4.27-17.27-5.73-27.28c-1.45-10-2.18-18.91-2.18-26.73s.91-12.64,2.73-14.46" fill="#302c3b"></path><path class="aq" d="M59.47,433.97c10.55-4.36,21.82-7.91,33.83-10.64,12-2.73,23.28-4.91,33.83-6.55s19.19-2.73,25.92-3.27c6.73-.55,10.1-.82,10.1-.82l-11.19,1.91c-7.46,1.27-16.73,3.09-27.82,5.46-11.1,2.36-22.46,4.73-34.1,7.1-11.64,2.36-21.82,4.64-30.56,6.82M69.84,507.08c11.27-.36,23.1-1.18,35.47-2.46,12.37-1.27,23.92-2.55,34.64-3.82,10.73-1.27,19.46-2.36,26.19-3.27,6.73-.91,10.1-1.36,10.1-1.36,0,0-3.45.73-10.36,2.18-6.91,1.46-15.73,3-26.46,4.64-10.73,1.64-22.28,2.91-34.64,3.82-12.37.91-24.01,1-34.92.27" fill="#302c3b"></path><path class="aq" d="M55.65,292.12l17.46,56.74,108.58,7.1-109.67-2.73,12.55,73.66-9.82,3.27-16.37-28.37,20.19,25.64-9.27-76.93-13.64-58.38" fill="#302c3b"></path><path class="aq" d="M288.62,350.5l10.36,156.59h-3.82l-9.27-153.86-109.67,2.73,108.58-7.1,17.46-56.74-13.64,58.38" fill="#302c3b"></path><path class="ab" d="M84.07,136.57c1.49,5.21,3.72,12.27,6.69,21.2,2.98,8.93,4.09,17.11,3.35,24.55,0,4.46-2.6,7.63-7.81,9.49-5.21,1.86-8.93-2.04-11.16-11.72-1.49-3.72-3.91-9.11-7.25-16.18s-4.65-15.81-3.91-26.23,3.91-13.77,9.49-10.05,9.11,6.7,10.6,8.93" fill="#ebc199"></path><path class="z" d="M70.68,134.31c2.98,1.49,4.65,3.54,5.02,6.14.37,2.6,2.04,6.13,5.02,10.6,2.97,3.72,3.16,6.88.55,9.49-2.6,2.6-2.42,5.77.55,9.48,4.46,4.46,4.65,5.58.56,3.35s-7.25-5.58-9.48-10.05c-2.23-5.21-3.9-11.72-5.02-19.53-1.11-7.81-.18-10.97,2.79-9.48" fill="url(#1772947707152-1583077_c)"></path><path d="M70.68,134.31c2.98,1.49,4.65,3.54,5.02,6.14.37,2.6,2.04,6.13,5.02,10.6,2.97,3.72,3.16,6.88.55,9.49-2.6,2.6-2.42,5.77.55,9.48,4.46,4.46,4.65,5.58.56,3.35s-7.25-5.58-9.48-10.05c-2.23-5.21-3.9-11.72-5.02-19.53-1.11-7.81-.18-10.97,2.79-9.48"></path><path class="ab" d="M293.88,137.68c.74,10.41-.56,19.16-3.91,26.23-3.35,7.07-5.77,12.46-7.26,16.18-2.23,9.67-5.95,13.58-11.16,11.72-5.21-1.86-7.81-5.02-7.81-9.49-.74-7.44.37-15.63,3.35-24.55,2.98-8.93,5.21-16,6.7-21.2,1.49-2.23,5.02-5.21,10.6-8.93,5.58-3.72,8.74-.37,9.49,10.05" fill="#ebc199"></path><path class="y" d="M284.96,163.31c-2.23,4.46-5.2,7.8-8.92,10.03-3.72,2.23-3.72,1.12,0-3.35,2.97-3.72,3.16-6.88.56-9.48s-2.42-5.76.56-9.48c2.97-4.46,4.65-7.99,5.02-10.59.37-2.6,2.41-4.65,6.13-6.13,2.23-1.49,2.79,1.67,1.67,9.48-1.11,7.8-2.79,14.31-5.02,19.52" fill="url(#1772947707152-1583077_d)"></path><path d="M284.96,163.31c-2.23,4.46-5.2,7.8-8.92,10.03-3.72,2.23-3.72,1.12,0-3.35,2.97-3.72,3.16-6.88.56-9.48s-2.42-5.76.56-9.48c2.97-4.46,4.65-7.99,5.02-10.59.37-2.6,2.41-4.65,6.13-6.13,2.23-1.49,2.79,1.67,1.67,9.48-1.11,7.8-2.79,14.31-5.02,19.52"></path><path class="ab" d="M178.94,19.5c17.03,0,31.86,3.34,44.48,10.01,12.62,6.67,22.98,15.91,31.09,27.71,12.16,17.7,13.96,25.55,17.55,41.25s4.87,32.68,3.85,50.94c-.41,7.39-1.49,16.36-3.23,26.93s-3.85,20.37-6.31,29.4c-2.66,9.44-7.34,18.57-14.01,27.4-6.65,8.81-14.35,16.77-22.93,23.7-8.62,6.98-17.39,12.46-26.32,16.47-8.93,4.01-16.98,6-24.16,6s-15.24-2-24.16-6c-8.93-4-17.7-9.49-26.32-16.47-8.58-6.94-16.28-14.9-22.93-23.7-6.67-8.82-11.34-17.96-14.01-27.4-2.46-9.03-4.56-18.83-6.31-29.4s-2.82-19.55-3.23-26.93c-1.03-18.26.26-35.25,3.85-50.94,3.59-15.7,9.44-29.45,17.54-41.25,8.11-11.8,18.47-21.03,31.09-27.71,12.62-6.67,27.45-10.01,44.48-10.01" fill="#ebc199"></path><path class="an" d="M178.9,218.37c4.1-1.85,7.44-2.92,10-3.23s5.08-.15,7.54.46c2.46.61,5.54,1.34,9.23,2.15,3.69.82,8.72,1.44,15.08,1.84-2.66,3.08-5.39,6.51-8.16,10.31s-6.67,7.13-11.69,10-12.36,4.31-22,4.31c-8.41,0-15.08-1.28-20-3.85-4.92-2.56-8.98-5.74-12.16-9.54s-6.41-7.54-9.69-11.23c6.36-.41,11.39-1.03,15.08-1.84,3.69-.82,6.77-1.54,9.23-2.15,2.46-.61,4.97-.77,7.54-.46s5.9,1.39,10,3.23" fill="#da803d"></path><path class="aj" d="M144.73,222.38c12.72,1.44,24.1,2.16,34.16,2.16s21.44-.72,34.16-2.16c-5.34,5.74-12.36,9.54-21.08,11.39-8.72,1.84-17.39,1.84-26,0-8.62-1.85-15.69-5.64-21.23-11.39" fill="#fff"></path><path class="ap" d="M254.32,125.16c1.09,1.09,1.27,2,.55,2.73s-1.64.55-2.73-.55c-8-5.09-15.91-8-23.73-8.73s-14.64-.55-20.46.55c-2.91.36-4.46-1-4.64-4.09-.18-3.09,1.55-5,5.18-5.73,7.27-1.09,15.46-.18,24.55,2.73,9.1,2.91,16.19,7.27,21.28,13.1M103.73,125.16c-1.09,1.09-1.36,2-.82,2.73s1.55.55,3-.55c8-5.09,15.91-8,23.73-8.73s14.64-.55,20.46.55c2.91.36,4.36-1,4.36-4.09s-1.82-5-5.46-5.73c-6.91-1.09-14.91-.18-24.01,2.73s-16.19,7.27-21.28,13.1" fill="#8b612d"></path><path class="am" d="M249.68,148.18c-1.44,5.54-4.41,9.13-8.93,10.78s-9.59,2.26-15.24,1.85c-5.64-.41-10.93-.97-15.86-1.69-7.39-1.08-8.41-.56-10.47.46,0-9.24,2.26-16.32,6.77-21.24,4.51-4.93,9.96-7.85,16.32-8.78,6.36-.92,12.16.15,17.4,3.23,5.23,3.08,8.57,8.21,10.01,15.39" fill="#edebea"></path><path class="x" d="M222.55,131.86c4.02,0,7.44,1.41,10.26,4.22,4.22,4.22,4.22,6.24,4.22,10.26s-1.41,7.44-4.22,10.26c-2.82,2.82-6.24,4.22-10.26,4.22-6.03,0-7.44-1.41-10.26-4.22-2.82-2.82-4.22-6.24-4.22-10.26,0-6.03,1.41-7.44,4.22-10.26s6.24-4.22,10.26-4.22" fill="url(#1772947707152-1583077_e)"></path><path class="af" d="M214.35,146.09c0-2.68.84-4.7,2.51-6.04s3.59-2.01,5.74-2.01,4.06.67,5.74,2.01,2.51,3.36,2.51,6.04c0,2.82-.84,4.93-2.51,6.34s-3.59,2.11-5.74,2.11-4.06-.7-5.74-2.11-2.51-3.53-2.51-6.34" fill="#1a1626"></path><path class="am" d="M213.49,142.13c0-2.23.93-3.35,2.79-3.35s2.79,1.12,2.79,3.35-.93,3.35-2.79,3.35-2.79-1.12-2.79-3.35" fill="#edebea"></path><path class="ap" d="M250.97,143.9l1.49,1.49c.99.99,2.08,1.29,3.27.89-1.19,1.98-3.17,2.58-5.95,1.79-2.78-6.35-7.34-10.81-13.69-13.39-6.35-2.58-13-2.77-19.94-.59s-12.2,7.05-15.77,14.59c2.78-9.52,7.04-15.77,12.79-18.75,5.75-2.98,11.6-3.68,17.55-2.09s10.32,3.97,13.1,7.14c.79.79,1.88,1.78,3.27,2.97s3.47,1.39,6.25.59c-.4,1.19-1.19,1.79-2.38,1.79h-1.79l1.19,1.19c.79.79,2.38.99,4.76.59-.4.79-1.19,1.29-2.38,1.49-1.19.2-1.78.3-1.78.3" fill="#8b612d"></path><path class="am" d="M108.22,148.24c1.23-7.18,4.51-12.31,9.84-15.39,5.34-3.08,11.18-4.15,17.54-3.23,6.36.92,11.79,3.84,16.31,8.77,4.51,4.92,6.77,12,6.77,21.23-2.26-1.03-5.79-1.18-10.62-.46-4.82.72-10.05,1.28-15.69,1.69-5.64.41-10.72-.21-15.23-1.84-4.51-1.64-7.49-5.23-8.92-10.77" fill="#edebea"></path><path class="w" d="M135.36,131.86c-4.02,0-7.44,1.41-10.26,4.22-2.82,2.82-4.22,6.24-4.22,10.26,0,6.03,1.41,7.44,4.22,10.26,2.82,2.82,6.24,4.22,10.26,4.22,6.03,0,7.44-1.41,10.26-4.22s4.22-6.24,4.22-10.26-1.41-7.44-4.22-10.26c-2.82-2.82-6.24-4.22-10.26-4.22" fill="url(#1772947707152-1583077_f)"></path><path class="af" d="M143.6,146.09c0,2.82-.84,4.93-2.51,6.34s-3.59,2.11-5.74,2.11-4.06-.7-5.74-2.11-2.52-3.53-2.52-6.34.84-4.7,2.52-6.04c1.68-1.34,3.59-2.01,5.74-2.01s4.06.67,5.74,2.01,2.51,3.36,2.51,6.04" fill="#1a1626"></path><path class="am" d="M144.31,142.13c0,2.23-.93,3.35-2.79,3.35s-2.79-1.12-2.79-3.35.93-3.35,2.79-3.35,2.79,1.12,2.79,3.35" fill="#edebea"></path><path class="ap" d="M106.92,143.91s-.6-.1-1.79-.3c-1.19-.2-1.98-.69-2.38-1.49,2.38.4,3.97.2,4.76-.6l1.19-1.19h-1.79c-1.19,0-1.98-.6-2.38-1.79,2.78.79,4.86.6,6.25-.6,1.39-1.19,2.48-2.18,3.27-2.98,2.78-3.17,7.15-5.56,13.1-7.15s11.81-.89,17.56,2.08c5.75,2.98,10.02,9.23,12.79,18.76-3.57-7.54-8.82-12.41-15.77-14.59-6.94-2.18-13.59-1.98-19.94.6-6.35,2.58-10.92,7.05-13.7,13.4-2.78.79-4.76.2-5.95-1.79,1.19.4,2.28.1,3.27-.89l1.49-1.49" fill="#8b612d"></path><path class="al" d="M192.6,193.36c1.45,0,2.27.55,2.46,1.64.18,1.09-.45,2.18-1.91,3.27-1.45.73-3.64,1.82-6.55,3.27s-5.46,2.18-7.64,2.18-4.73-.73-7.64-2.18c-2.91-1.45-5.09-2.55-6.55-3.27-1.45-1.09-2.09-2.18-1.91-3.27.18-1.09,1-1.64,2.45-1.64,1.82,0,3.82.36,6,1.09,2.18.73,4.73,1.09,7.64,1.09s5.46-.36,7.64-1.09,4.18-1.09,6-1.09" fill="#c99b71"></path><path class="ah" d="M211.97,12.48c14.93-2.63,28.39-.17,40.38,7.39,11.99,7.56,22.26,18.77,30.81,33.65,8.54,14.88,15.29,31.85,20.22,50.91,4.94,19.06,7.72,38.71,8.32,58.93.6,20.22-1.2,39.69-5.4,58.39-4.2,18.71-10.91,34.99-20.11,48.85s-21.16,23.86-35.86,30.01c6.98-5.18,12.38-14.32,16.19-27.43s6.03-28.5,6.66-46.18c.63-17.68-.44-36.05-3.2-55.1s-7.31-37-13.64-53.85c-6.32-16.84-14.56-31.09-24.71-42.72-10.15-11.63-22.39-18.95-36.73-21.95-5.45,4.91-11.91,11.38-19.38,19.4-7.46,8.03-16.72,15.98-27.77,23.85-11.05,7.87-24.86,14.06-41.43,18.55-10.02,14.79-17.19,31.26-21.49,49.38-4.3,18.13-6.24,36.24-5.82,54.32.42,18.08,3.01,34.4,7.74,48.97,4.74,14.56,11.49,25.41,20.25,32.55-21.01-11.69-36.38-26.65-46.1-44.87-9.73-18.22-15.15-37.79-16.27-58.71-1.12-20.92.92-41.81,6.12-62.66s12.51-40.4,21.93-58.64c9.41-18.24,19.66-33.47,30.73-45.68,11.07-12.22,21.64-20,31.71-23.35C156.09.03,173.76-1.61,188.14,1.58c14.38,3.19,22.33,6.82,23.83,10.9" fill="#e6c465"></path><path class="ai" d="M250.49,300.85c5.82-5.09,10.46-14.19,13.91-27.28,3.46-13.1,5.46-28.37,6-45.83.55-17.46-.45-35.56-3-54.29-2.55-18.73-6.91-36.56-13.1-53.47s-14.1-31.37-23.73-43.38-21.37-19.64-35.19-22.92l2.18-2.18c1.46-1.46,3.73-2.36,6.82-2.73,3.09-.36,7,1.27,11.73,4.91,11.64,6.91,21.55,17.19,29.73,30.83,8.18,13.64,14.73,29.1,19.64,46.38,4.91,17.27,8.27,35.01,10.1,53.2s2,35.47.55,51.83-4.27,30.28-8.46,41.74-9.91,19.19-17.19,23.19" fill="#c19b2c"></path><path class="ae" d="M315.9,193.36c0,15.27-2.36,30.73-7.1,46.38-4.73,15.64-12,29.1-21.82,40.38-9.82,11.27-22.01,18.19-36.56,20.73,8.73-4.36,15.91-12.55,21.55-24.55,5.64-12.01,9.55-26.1,11.73-42.28s2.82-33.47,1.91-51.83c-.91-18.37-3.45-36.28-7.64-53.74s-10.1-33.19-17.73-47.19c-7.64-14-16.73-24.82-27.28-32.47,12.73,3.64,24.82,10.91,36.28,21.82,11.46,10.91,21.92,28.73,31.37,53.47-7.27-31.28-17.73-54.01-31.37-68.2-13.64-14.19-28.1-22.37-43.38-24.55-.36-.36-.55-.73-.55-1.09-1.09-7.27,2.82-10.36,11.73-9.27s19.01,5.64,30.28,13.64c-6.55-8-15.19-13.82-25.92-17.46s-20.46-5.09-29.19-4.36c12.73-4,25.28-2.55,37.64,4.36,12.37,6.91,23.55,18.55,33.56,34.92,10,16.37,17.91,36.56,23.73,60.56,5.82,24.01,8.73,50.93,8.73,80.75M86.21,76.06c7.64-9.46,18.01-18.19,31.1-26.19,13.1-8,26.46-14.46,40.1-19.37,13.64-4.91,25.37-7.82,35.19-8.73,9.82-.91,15.1.82,15.82,5.18.36,2.18-.09,4.27-1.36,6.27s-2.45,3.18-3.55,3.55c-8,2.18-15.37,6.55-22.1,13.1-6.73,6.55-14.1,14-22.1,22.37-8,8.36-18.01,16.19-30.01,23.46s-27.1,12.73-45.28,16.37l4.91,1.09c-10.55,16-17.37,33.73-20.46,53.19s-3.27,38.56-.55,57.29c2.73,18.73,7.55,35.01,14.46,48.83s15.1,23.28,24.55,28.37c-15.27-2.91-27.64-9.82-37.1-20.73s-16.46-24.1-21.01-39.56-6.82-31.19-6.82-47.19c0-28.37,3.45-55.56,10.36-81.57,6.91-26.01,17.27-48.38,31.1-67.11s31.1-31.37,51.83-37.92c9.82-3.27,19.64-5.09,29.46-5.46,9.82-.36,18.01.18,24.55,1.64,6.55,1.45,9.82,3.45,9.82,6-1.09,2.55-5.36,4.91-12.82,7.1s-16.82,5.36-28.1,9.55-23.28,10.27-36.01,18.27c-12.73,8-24.73,18.73-36.01,32.19M62.2,253.38c-5.09-27.28-6.73-51.93-4.91-73.93s5.64-41.19,11.46-57.56c-6.91,9.1-11.91,21.55-15.01,37.37-3.09,15.82-3.91,32.28-2.45,49.38,1.45,17.1,5.09,32.01,10.91,44.74" fill="#f2d785"></path><path class="ai" d="M94.87,281.83c-8.31-13.54-13.38-28.83-15.2-45.88-1.82-17.05-1.53-33.88.87-50.49,2.4-16.61,5.92-31.35,10.56-44.2,4.64-12.86,9.24-22.06,13.79-27.6,13.98-1.28,25.96-5.56,35.93-12.85s18.86-15.07,26.68-23.36c7.82-8.29,15.62-14.99,23.4-20.11,11.67-7.68,16.26-6.32,25.42-3.59-8.38-.5-16.1,2.15-23.17,7.93-7.07,5.79-14.44,12.71-22.1,20.77-7.66,8.06-16.41,15.53-26.25,22.39s-21.95,10.98-36.32,12.32c-7.3,12.34-12.83,26.34-16.58,42.01-3.75,15.67-5.91,31.44-6.46,47.33-.55,15.89.03,30.39,1.75,43.52,1.72,13.12,4.28,23.72,7.68,31.81" fill="#c19b2c"></path><path class="ai" d="M107.03,300.42c-8.81-5.16-15.88-14.48-21.21-27.95-5.34-13.47-8.71-29.26-10.13-47.37-1.42-18.11-.17-36.78,3.74-56.03s10.71-37.23,20.4-53.94c0,0,.73-.32,2.2-.98s3.29-.38,5.48.81c-4.8,6.37-9,15.6-12.59,27.68-3.59,12.08-6.35,25.59-8.25,40.54s-2.61,29.97-2.12,45.09,2.46,29.08,5.91,41.9,8.97,22.9,16.58,30.24" fill="#c19b2c"></path><path class="ai" d="M216.18,53.96c-6.16-1.03-12.21.1-18.16,3.39-5.95,3.29-11.91,7.75-17.86,13.39-5.95,5.64-12.21,11.59-18.78,17.86s-13.7,11.8-21.39,16.62-16.16,8.06-25.39,9.7c-9.24,1.64-19.5.72-30.78-2.77,12.11,1.23,22.83.46,32.17-2.31,9.34-2.77,17.7-6.67,25.09-11.7s14.16-10.46,20.31-16.31c6.16-5.85,12.01-11.44,17.54-16.78,5.54-5.34,11.19-9.75,16.93-13.24,5.75-3.49,11.9-5.23,18.47-5.23,2.46-7.18,3.29-13.91,2.46-20.16-1.23-9.39-2.36-10.83-4.61-13.7,4.72,3.9,7.54,8.67,8.46,14.31.92,5.64.77,11.03-.46,16.16-1.23,5.13-2.56,8.72-4,10.77" fill="#c19b2c"></path><path class="ac" d="M180.05,414.88s.55,2.82,1.64,8.46,2.27,12.46,3.55,20.46,2.18,15.55,2.73,22.64c.55,7.1.27,12.1-.82,15.01-7.64-10.55-12.37-19.91-14.19-28.1-1.82-8.18-2.09-15.1-.82-20.73s2.91-10,4.91-13.1c2-3.09,3-4.64,3-4.64" fill="#b3c2c6"></path><path class="v" d="M272.25,382.14s-.82,1.91-2.45,5.73c-1.64,3.82-3.46,8-5.46,12.55-2,4.55-3.36,7.73-4.09,9.55-.73,2.55-2,7.18-3.82,13.91-2.73,10.09-3.73,14.19-5.73,22.37s-3.91,16.1-5.73,23.73c-1.82,7.64-3.09,13.46-3.82,17.46-.36,2.18-1.64,3.82-3.82,4.91-1.82,1.09-3.64,1.45-5.46,1.09l-4.91-1.09c-2.18-.73-3.82-2-4.91-3.82-1.09-2.18-1.27-4.36-.55-6.55,1.45-3.64,3.36-9.1,5.73-16.37,2.36-7.27,4.82-14.91,7.36-22.92,2.55-8,4.82-15.37,6.82-22.1,2-6.73,3.36-11.73,4.09-15.01.36-1.82.82-5.09,1.36-9.82.55-4.73,1.09-9.18,1.64-13.37s.82-6.27.82-6.27l22.92,6" fill="url(#1772947707152-1583077_g)"></path><path class="ao" d="M271.16,385.42l-23.46-6c-.73-.36-1.45-.91-2.18-1.64-.36-.73-.36-1.45,0-2.18v-.55c.36-1.82,1.64-2.55,3.82-2.18l23.46,6.55c1.09.36,1.82.91,2.18,1.64s.36,1.45,0,2.18c-.36,2.18-1.64,2.91-3.82,2.18" fill="#743400"></path><path class="r" d="M244.98,371.77l15.82-58.38,33.28,9.27-15.82,58.38-33.28-9.27Z" fill="url(#1772947707152-1583077_h)"></path><path class="q" d="M308.81,386.51l-19.1-4.91c-1.45-.36-2.73-1.27-3.82-2.73-1.09-1.82-1.27-3.64-.55-5.46l12-44.19c1.09-4.36,3.82-6,8.18-4.91l18.55,4.91c4.36,1.09,6,3.82,4.91,8.18l-12,44.74c-1.45,4-4.18,5.46-8.18,4.36" fill="url(#1772947707152-1583077_i)"></path><path class="p" d="M279.9,383.23h-.55c-.73-.36-1.27-.91-1.64-1.64s-.55-1.64-.55-2.73l15.27-55.65c.36-2.18,1.64-2.91,3.82-2.18,1.09,0,1.82.55,2.18,1.64.36.73.36,1.45,0,2.18l-14.73,56.2c-.35.71-.92,1.29-1.64,1.64-.73.36-1.45.55-2.18.55" fill="url(#1772947707152-1583077_j)"></path><path class="o" d="M301.72,390.33l-7.1-2.18c-4.36-1.09-5.82-3.82-4.36-8.18l15.27-54.56c1.09-4,3.82-5.46,8.18-4.36l7.1,1.64c4.36,1.09,6,3.82,4.91,8.18l-15.27,54.56c-1.45,4.36-4.36,6-8.73,4.91" fill="url(#1772947707152-1583077_k)"></path><path class="u" d="M215.51,361.96c-1.82-.36-3.27-1.27-4.36-2.73-.73-1.45-.91-3.09-.55-4.91l12-44.74c1.45-4.36,4.18-5.82,8.18-4.36l19.1,4.91c1.82.36,3.09,1.27,3.82,2.73,1.09,1.45,1.27,3.09.55,4.91l-12,44.74c-1.09,4.36-3.82,5.82-8.18,4.36l-18.55-4.91" fill="url(#1772947707152-1583077_l)"></path><path class="s" d="M241.7,372.32c-.73-.36-1.45-.91-2.18-1.64-.36-.73-.36-1.45,0-2.18l14.73-54.56c.73-1.82,2.18-2.55,4.36-2.18.73.36,1.27.91,1.64,1.64.73.73.91,1.45.55,2.18l-15.27,54.56c-.36,2.18-1.64,2.91-3.82,2.18" fill="url(#1772947707152-1583077_m)"></path><path class="t" d="M219.33,368.5c-4.36-1.09-6-3.64-4.91-7.64l15.27-54.56c1.09-4.36,3.82-6,8.18-4.91l7.1,1.64c4.36,1.09,6,3.82,4.91,8.18l-15.27,54.56c-1.09,4.36-3.82,6-8.18,4.91l-7.1-2.18Z" fill="url(#1772947707152-1583077_n)"></path><path class="ab" d="M262.98,429.61c2.91.36,4.36,2,4.36,4.91s-.82,5.82-2.45,8.73c-1.64,2.91-3.91,4.36-6.82,4.36,2.91.36,4.55,1.91,4.91,4.64s-.18,5.36-1.64,7.91-3.64,3.82-6.55,3.82c3.64.36,4.64,2.73,3,7.1-1.64,4.36-3.91,6.73-6.82,7.1-2.18.36-7.64.36-16.37,0s-18.91-3.64-30.56-9.82c0,0-2.18.27-6.55.82-4.36.55-8.73,1.09-13.1,1.64l-6.55.82-1.91-7.36c-1.27-4.91-2.18-11.37-2.73-19.37-.55-8,.45-16.19,3-24.55,6.18-.73,13-2.91,20.46-6.55,7.46-3.64,14.83-7.46,22.1-11.46,7.27-4,13.46-6.73,18.55-8.18,5.09-1.45,8.18-.18,9.27,3.82,1.82,6.55,4.09,10,6.82,10.36,2.73.36,6.46,1.45,11.19,3.27,3.64,1.45,5.36,4.82,5.18,10.1-.18,5.27-2.46,7.91-6.82,7.91" fill="#ebc199"></path><path class="aj" d="M163.68,416.51c4.73-.36,8.64-.73,11.73-1.09,3.09-.36,4.64-.55,4.64-.55,0,0-.45,2.73-1.36,8.18s-1,13.1-.27,22.92,3.64,21.64,8.73,35.47c0,0-1.64.27-4.91.82-3.27.55-6.73,1.36-10.36,2.46-6.91-22.55-10-39.56-9.27-51.01l1.09-17.19" fill="#fff"></path></g></svg>