<svg xmlns="http://www.w3.org/2000/svg" viewBox="0 0 885.22 824.25"><g class="nc-icon-wrapper"><defs></defs><path class="c" d="M537.34,325.5c-2.6.65-10.25,1.14-22.95,1.46s-27.83.49-45.41.49h-53.22c-17.9,0-33.2-.16-45.9-.49s-20.35-.81-22.95-1.46c-8.46-1.3-14.97-7.65-19.53-19.04s-7.98-25.07-10.25-41.02c-2.28-15.95-3.74-31.74-4.39-47.36s-.81-28.48-.49-38.57c.33-10.09.49-14.81.49-14.16h260.74c0-.65-.33,4.23-.98,14.65s-1.79,23.44-3.42,39.06c-2.45,23.43-3.74,31.41-6.35,47.36-2.6,15.95-6.02,29.46-10.25,40.53s-9.28,17.25-15.14,18.56" fill="#b0872d"></path><path class="o" d="M452.38,657.53v53.71s-7.32,3.58-21.97,10.74-33.2,16.11-55.66,26.86c-22.46,10.74-45.57,21.32-69.34,31.74s-45.25,19.37-64.45,26.85-32.39,11.23-39.55,11.23c-14.32,1.95-28.97,2.6-43.95,1.95-22.47-.97-26.69-3.91-35.16-9.77-9.11-5.86-16.11-14.65-21-26.37-4.88-11.72-5.7-23.76-2.44-36.13,6.51-25.39,17.9-43.29,34.18-53.71,16.28-10.42,35.16-17.09,56.64-20.02s43.78-5.86,66.89-8.79c23.11-2.93,44.43-9.6,63.96-20.02,1.3-1.3,8.63-1.3,21.97,0,13.35,1.3,28.65,2.77,45.9,4.39,17.25,1.63,32.23,3.26,44.92,4.88,12.7,1.63,19.04,2.44,19.04,2.44" fill="#666970"></path><path class="o" d="M564.69,645.81c19.53,10.42,40.85,17.09,63.96,20.02s45.41,5.86,66.9,8.79,40.36,9.6,56.64,20.02,27.67,28.32,34.18,53.71c3.26,12.37,2.44,24.41-2.44,36.13-4.88,11.72-11.88,20.51-21,26.37-8.46,5.86-20.18,9.11-35.16,9.77-14.97.65-29.62,0-43.95-1.95-7.16,0-20.35-3.74-39.55-11.23s-40.69-16.44-64.45-26.85-46.88-21-69.34-31.74-41.01-19.69-55.66-26.86c-14.65-7.16-21.97-10.74-21.97-10.74v-53.71s6.35-.81,19.04-2.44c12.7-1.63,27.67-3.26,44.92-4.88,17.25-1.63,32.55-3.09,45.9-4.39s20.67-1.3,21.97,0" fill="#666970"></path><path class="j" d="M571.52,644.83c14.97,5.86,22.14,12.86,21.48,21s-6.67,16.28-18.07,24.41c-11.39,8.14-25.39,14.97-41.99,20.51-16.6,5.53-33.04,8.79-49.32,9.77s-29.95-1.46-41.02-7.32c-11.07,5.86-24.74,8.3-41.02,7.32s-32.71-4.23-49.32-9.77c-16.6-5.53-30.6-12.37-41.99-20.51s-17.42-16.28-18.07-24.41,6.51-15.14,21.48-21c5.21-2.6,10.42-5.21,15.62-7.81.65,0,8.63-.16,23.93-.49s34.02-.65,56.15-.98c22.14-.33,44.27-.33,66.41,0s40.85.65,56.15.98,23.27.49,23.93.49c5.21,2.6,10.42,5.21,15.62,7.81" fill="#484a52"></path><path class="o" d="M478.75,754.21c-37.11,10.42-68.03,19.53-92.77,27.34s-45.41,14.49-62.01,20.02-31.09,10.09-43.46,13.67-24.74,6.35-37.11,8.3c-3.26,0-10.42.16-21.48.49-11.07.33-22.95,0-35.64-.98-12.7-.98-23.28-2.77-31.74-5.37-12.69-3.9-12.04-7.16-10.74-13.67-1.3-4.56-2.93-11.56-4.88-21s1.3-19.04,9.77-28.81c17.58-20.83,36.13-34.67,55.66-41.5s41.5-10.42,65.92-10.74c24.41-.33,52.41,0,83.98.98,31.58.98,68.2-1.14,109.86-6.35,1.95,0,4.56,4.56,7.81,13.67,3.26,9.11,5.86,18.55,7.81,28.32s1.63,14.97-.98,15.62" fill="#666970"></path><path class="j" d="M200.43,742.49c15.62-14.32,30.44-24.41,44.43-30.27,14-5.86,29.79-9.11,47.36-9.77s40.04-.98,67.38-.98,62.17-1.63,104.49-4.88c-41.02,5.21-74.87,8.3-101.56,9.28s-49.15,1.79-67.38,2.44-34.51,3.26-48.83,7.81c-14.32,4.56-29.62,13.35-45.9,26.37" fill="#484a52"></path><path class="b" d="M658.44,668.27c-20.83.65-36.13,2.28-45.9,4.88s-17.25,6.35-22.46,11.23-11.23,10.9-18.07,18.07c-6.84,7.16-17.25,14.97-31.25,23.44-14,8.46-34.67,17.9-62.01,28.32-1.95,1.3-4.56-2.93-7.81-12.7-3.26-9.77-5.7-19.53-7.32-29.3-1.63-9.77-1.46-14.97.49-15.62,2.6-.65,4.07-4.23,4.39-10.74.33-6.51,3.42-12.37,9.28-17.58s18.88-6.51,39.06-3.91c13.67,1.3,24.74,0,33.2-3.91s16.28-8.3,23.44-13.18,15.14-8.14,23.92-9.77c8.79-1.63,20.35.49,34.67,6.35,9.77-1.95,17.09-.81,21.97,3.42s7.49,8.79,7.81,13.67-.81,7.32-3.42,7.32" fill="#ebc199"></path><path class="i" d="M607.66,671.2c10.42-5.21,18.88-7,25.39-5.37s13.02,2.44,19.53,2.44c-6.51.65-12.86.49-19.04-.49s-14.81.16-25.88,3.42M470.94,700.5c3.91-8.46,9.28-12.7,16.11-12.7h10.25l-8.79,1.95c-5.86,1.3-11.72,4.88-17.58,10.74" fill="#c99b71"></path><path class="j" d="M442.62,764.95c-9.77,0-18.23-1.79-25.39-5.37l-10.74-5.37s5.21.33,15.62.98c10.42.65,17.25,3.91,20.51,9.77" fill="#484a52"></path><path class="o" d="M421.13,696.59c41.67,5.21,78.29,7.32,109.86,6.35,31.58-.98,59.57-1.3,83.99-.98,24.41.33,46.39,3.91,65.92,10.74,19.53,6.84,38.09,20.67,55.66,41.5,8.46,9.77,11.72,19.37,9.77,28.81s-3.58,16.44-4.88,21c1.3,6.51-2.28,11.07-10.74,13.67-8.46,2.6-19.04,4.39-31.74,5.37-19.05,1.47-24.58,1.3-35.65.98-11.07-.33-18.23-.49-21.48-.49-12.37-1.95-24.74-4.72-37.11-8.3s-26.86-8.14-43.46-13.67-37.27-12.21-62.01-20.02-55.66-16.93-92.77-27.34c-2.6-.65-2.93-5.86-.98-15.62,1.95-9.77,4.56-19.21,7.81-28.32,3.26-9.11,5.86-13.67,7.81-13.67" fill="#666970"></path><path class="j" d="M421.13,696.59c42.32,3.26,77.15,4.88,104.49,4.88s49.8.33,67.38.98,33.37,3.91,47.36,9.77c14,5.86,28.81,15.95,44.43,30.27-16.28-13.02-31.58-21.81-45.9-26.37-21.48-6.84-30.6-7.16-48.83-7.81s-40.69-1.47-67.38-2.44c-26.69-.98-60.55-4.07-101.56-9.28" fill="#484a52"></path><path class="b" d="M253.16,643.86c14.32-5.86,25.88-7.98,34.67-6.35s16.76,4.88,23.93,9.77c7.16,4.88,14.97,9.28,23.44,13.18,8.46,3.91,19.53,5.21,33.2,3.91,20.18-2.6,33.2-1.3,39.06,3.91s8.95,11.07,9.28,17.58,1.79,10.09,4.39,10.74c1.95.65,2.12,5.86.49,15.62-1.63,9.77-4.07,19.53-7.32,29.3-3.26,9.77-5.86,14-7.81,12.7-27.34-10.42-48.01-19.86-62.01-28.32-21-12.69-24.41-16.28-31.25-23.44s-12.86-13.18-18.07-18.07c-5.21-4.88-12.7-8.63-22.46-11.23-9.77-2.6-25.07-4.23-45.9-4.88-2.6,0-3.74-2.44-3.42-7.32.33-4.88,2.93-9.44,7.81-13.67s12.21-5.37,21.97-3.42" fill="#ebc199"></path><path class="i" d="M232.66,668.27c6.51,0,13.02-.81,19.53-2.44,6.51-1.63,14.97.16,25.39,5.37-11.07-3.26-19.69-4.4-25.88-3.42s-12.53,1.14-19.04.49M387.93,687.8h10.25c6.84,0,12.21,4.23,16.11,12.7-7.16-7.16-15.95-11.39-26.37-12.7" fill="#c99b71"></path><path class="b" d="M876.21,680.97c5.86,1.3,8.79,4.07,8.79,8.3s-2.93,7-8.79,8.3c-1.3,0-3.42-.16-6.35-.49s-4.72-.49-5.37-.49c3.91,1.95,5.7,5.21,5.37,9.77-.32,4.56-4.39,6.84-12.21,6.84-11.07-.65-21.48-.81-31.25-.49-9.77.33-16.93.49-21.48.49-1.95-.65-6.84-2.12-14.65-4.39-7.81-2.28-16.28-5.21-25.39-8.79s-16.28-7-21.48-10.25c-20.83-12.37-40.36-25.55-58.59-39.55s-34.02-27.18-47.36-39.55c-13.35-12.37-22.95-21.81-28.81-28.32-1.3-1.3-5.37-9.28-12.21-23.93s-14.49-32.55-22.95-53.71-15.3-42.81-20.51-64.94c-8.46-36.46-12.7-64.94-12.7-85.45v-30.76c25.39,0,43.95,9.28,55.66,27.83,11.72,18.55,19.21,42.48,22.46,71.78.65,5.86,3.26,14.97,7.81,27.34s9.6,25.39,15.14,39.06,10.74,25.55,15.62,35.64,7.97,15.79,9.28,17.09c18.23,13.67,33.37,28.97,45.41,45.9s22.3,31.74,30.76,44.43c8.46,12.7,16.6,19.37,24.41,20.02,2.6,0,7.97-3.58,16.11-10.74,12.21-10.74,13.51-11.72,16.11-13.67,3.26-3.26,6.51-4.23,9.77-2.93s8.79.65,16.6-1.95c2.6-1.3,4.88-.33,6.84,2.93s0,6.51-5.86,9.77c1.3,0,2.6.33,3.91.98,1.95,1.3,5.53,2.44,10.74,3.42s8.14,2.44,8.79,4.4c.65,4.56,1.14,9.44,1.47,14.65.32,5.21.49,7.81.49,7.81,0,0,2.77-.98,8.3-2.93s11.23-2.93,17.09-2.93c3.91,0,6.35,1.95,7.32,5.86.98,3.91-1.14,6.84-6.35,8.79-1.95.65-5.53,1.63-10.74,2.93l-7.81,1.95h16.6M830.31,663.39c3.26-4.56,3.91-8.46,1.95-11.72-9.77-4.56-13.02-9.11-9.77-13.67-3.91,1.95-8.79,3.58-14.65,4.88-1.95,1.95-2.93,4.56-2.93,7.81v4.88c3.91,3.91,6.35,7.49,7.32,10.74.98,3.26,7,2.28,18.07-2.93" fill="#ebc199"></path><path class="i" d="M778.56,666.13c9.77-1.3,17.25,1.79,22.46,9.28s7.81,13.51,7.81,18.07c-1.95-4.56-5.21-9.6-9.77-15.14-4.56-5.53-11.39-9.6-20.51-12.21M884.02,665.16c2.6,6.51.98,10.74-4.88,12.7-5.86,1.95-13.51,3.09-22.95,3.42-9.44.33-18.39.81-26.85,1.46,6.51-1.3,14.16-2.28,22.95-2.93s16.44-1.95,22.95-3.91c6.51-1.95,9.44-5.53,8.79-10.74M851.8,667.11c-5.86,1.95-10.09,2.93-12.7,2.93h-3.91s1.46-.49,4.4-1.46c2.93-.98,7-2.44,12.21-4.4v2.93ZM826.41,698.36c9.77-3.26,19.04-4.56,27.83-3.91s15.95.98,21.49.98,8.3-2.93,8.3-8.79c1.95,7.16.16,10.91-5.37,11.23-5.53.33-13.02,0-22.46-.98s-19.37-.49-29.78,1.46M574.45,402.46c-3.91,22.79-4.39,45.25-1.47,67.38,2.93,22.14,6.67,40.53,11.23,55.18l6.84,21.97-33.2-76.17s.81-6.51,2.44-19.53,6.35-29.3,14.16-48.83" fill="#c99b71"></path><path class="b" d="M9.02,697.57c-5.86-1.3-8.79-4.07-8.79-8.3s2.93-7,8.79-8.3h16.6l-7.81-1.95c-5.21-1.3-8.79-2.28-10.74-2.93-5.21-1.95-7.32-4.88-6.35-8.79.98-3.91,3.42-5.86,7.32-5.86,5.86,0,11.56.98,17.09,2.93s8.3,2.93,8.3,2.93c0,0,.16-2.6.49-7.81s.81-10.09,1.46-14.65c.65-1.95,3.58-3.42,8.79-4.4,5.21-.98,8.79-2.12,10.74-3.42,1.3-.65,2.6-.98,3.91-.98-5.86-3.26-7.81-6.51-5.86-9.77s4.23-4.23,6.84-2.93c7.81,2.6,13.35,3.26,16.6,1.95,3.26-1.3,6.51-.33,9.77,2.93,2.6,1.95,7.98,6.51,16.11,13.67s13.51,10.74,16.11,10.74c7.81-.65,15.95-7.32,24.41-20.02s18.72-27.51,30.76-44.43c12.04-16.93,27.18-32.23,45.41-45.9,1.3-1.3,4.23-7,8.79-17.09s9.77-21.97,15.62-35.64c5.86-13.67,11.07-26.69,15.62-39.06,4.56-12.37,7.16-21.49,7.81-27.34,3.26-29.3,10.74-53.22,22.46-71.78,11.72-18.55,30.27-27.83,55.66-27.83v30.76c0,20.51-4.23,48.99-12.7,85.45-5.2,22.13-12.06,43.84-20.51,64.94-8.46,21.16-16.28,39.06-23.44,53.71s-11.07,22.62-11.72,23.93c-5.86,6.51-15.46,15.95-28.81,28.32s-29.13,25.55-47.36,39.55-37.76,27.18-58.59,39.55c-5.86,3.26-13.18,6.67-21.97,10.25-8.79,3.58-17.09,6.51-24.9,8.79-7.81,2.28-12.69,3.74-14.65,4.39-4.56,0-11.72-.16-21.49-.49s-20.18-.16-31.25.49c-7.81,0-11.88-2.28-12.21-6.84-.49-6.84,1.46-7.81,5.37-9.77-.65,0-2.44.16-5.37.49s-5.05.49-6.35.49M52.97,651.67c-1.95,3.26-1.3,7.16,1.95,11.72,11.07,5.21,17.09,6.18,18.07,2.93.98-3.26,3.42-6.84,7.32-10.74v-4.88c0-3.26-.98-5.86-2.93-7.81-5.86-1.3-10.74-2.93-14.65-4.88,3.26,4.56,0,9.11-9.77,13.67" fill="#ebc199"></path><path class="i" d="M106.68,666.13c-9.11,2.61-15.95,6.67-20.51,12.21-4.56,5.53-7.81,10.58-9.77,15.14,0-4.56,2.6-10.58,7.81-18.07s12.7-10.58,22.46-9.28M1.21,665.16c-.65,5.21,2.28,8.79,8.79,10.74,6.51,1.95,14.16,3.26,22.95,3.91s16.44,1.63,22.95,2.93c-8.46-.65-17.42-1.14-26.86-1.47s-17.09-1.46-22.95-3.42c-5.86-1.95-7.49-6.18-4.88-12.7M33.44,667.11v-2.93c5.21,1.95,9.28,3.42,12.21,4.39,2.93.98,4.39,1.47,4.39,1.47h-3.91c-2.6,0-6.84-.98-12.7-2.93M58.83,698.36c-10.42-1.95-20.34-2.44-29.78-1.47-9.44.98-16.93,1.3-22.46.98-5.53-.33-7.32-4.07-5.37-11.23,0,5.86,2.77,8.79,8.3,8.79s12.7-.33,21.48-.98c8.79-.65,18.07.65,27.83,3.91M310.78,402.46c7.81,19.53,12.53,35.81,14.16,48.83s2.44,19.53,2.44,19.53l-33.2,76.17,6.84-21.97c4.56-14.65,8.3-33.04,11.23-55.18s2.44-44.6-1.46-67.38" fill="#c99b71"></path><path class="h" d="M551.02,497.37c-5.21,21.48-8.63,38.41-10.25,50.78-1.63,12.37-1.79,22.62-.49,30.76s3.91,16.44,7.81,24.9c3.91,8.46,9.11,19.53,15.62,33.2,1.3,3.26-3.91,6.67-15.62,10.25s-27.02,6.67-45.9,9.28c-18.88,2.6-38.74,3.91-59.57,3.91s-40.69-1.3-59.57-3.91c-18.88-2.6-34.18-5.7-45.9-9.28s-16.93-7-15.62-10.25c6.51-13.67,11.72-24.74,15.62-33.2,3.91-8.46,6.51-16.76,7.81-24.9s1.14-18.39-.49-30.76-5.05-29.3-10.25-50.78c0,0-2.44-4.4-7.32-13.18-4.88-8.79-6.67-24.25-5.37-46.39,4.56-7.16,8.3-16.93,11.23-29.3s5.37-25.07,7.32-38.09,3.26-24.09,3.91-33.2.98-13.67.98-13.67c8.46-1.95,15.46-2.77,21-2.44,5.53.33,8.3.49,8.3.49h136.72s2.77-.16,8.3-.49c5.53-.32,12.53.49,21,2.44,0,0,.33,4.56.98,13.67s1.95,20.18,3.91,33.2c1.95,13.02,4.4,25.72,7.33,38.09s6.67,22.14,11.23,29.3c1.3,22.14-.49,37.6-5.37,46.39s-7.32,13.18-7.32,13.18" fill="#2d9f6a"></path><path class="n" d="M487.54,510.07c23.44,3.26,39.88,1.95,49.32-3.91l14.16-8.79-2.93,14.65s-5.7,1.63-17.09,4.88c-11.39,3.26-25.88.98-43.46-6.84M334.22,497.37l14.16,8.79c9.44,5.86,25.88,7.16,49.32,3.91-17.58,7.81-32.06,10.09-43.46,6.84-11.39-3.26-17.09-4.88-17.09-4.88l-2.93-14.65" fill="#247f55"></path><path class="b" d="M491.45,311.83c1.95,3.91,5.7,6.51,11.23,7.81l8.3,1.95c0,9.11-2.44,20.18-7.33,33.2-4.88,13.02-12.37,24.58-22.46,34.67s-22.95,15.14-38.57,15.14-28.48-5.04-38.57-15.14c-10.09-10.09-17.58-21.65-22.46-34.67s-7.32-24.09-7.32-33.2l8.3-1.95c5.53-1.3,9.28-3.91,11.23-7.81,2.6-3.91,3.91-9.44,3.91-16.6s-.49-13.51-1.46-19.04c-.98-5.53-1.46-8.3-1.46-8.3h95.7s-.49,2.77-1.46,8.3c-.98,5.53-1.47,11.88-1.47,19.04s1.3,12.7,3.91,16.6" fill="#ebc199"></path><path class="i" d="M395.74,289.36h93.75l-7.32,8.79c-4.88,5.86-10.9,11.56-18.07,17.09-7.16,5.53-14.32,8.3-21.48,8.3s-14.32-2.77-21.48-8.3-13.18-11.23-18.07-17.09l-7.32-8.79" fill="#c99b71"></path><path class="b" d="M337.17,151.63c1.65,5.78,4.13,13.63,7.43,23.55,3.3,9.91,4.54,19,3.72,27.26,0,4.96-2.89,8.47-8.67,10.53-5.78,2.07-9.91-2.27-12.39-13.01-1.65-4.13-4.34-10.12-8.05-17.97-3.72-7.85-5.16-17.56-4.34-29.12.83-11.57,4.34-15.28,10.53-11.15,6.2,4.13,10.12,7.43,11.77,9.91" fill="#ebc199"></path><path class="i" d="M322.41,149.12c3.3,1.65,5.16,3.93,5.57,6.82s2.27,6.82,5.57,11.77c3.3,4.13,3.51,7.64.62,10.53s-2.69,6.4.61,10.53c4.95,4.96,5.16,6.2.62,3.72s-8.05-6.2-10.53-11.15c-2.48-5.78-4.33-13.01-5.57-21.68s-.2-12.18,3.1-10.53" fill="#c99b71"></path><path class="b" d="M570.18,152.88c.83,11.56-.62,21.27-4.33,29.12-3.72,7.85-6.4,13.84-8.05,17.97-2.48,10.74-6.61,15.08-12.39,13.01-5.78-2.06-8.67-5.57-8.67-10.53-.83-8.26.41-17.35,3.71-27.26s5.78-17.76,7.43-23.54c1.65-2.48,5.58-5.78,11.77-9.91s9.71-.41,10.53,11.15" fill="#ebc199"></path><path class="i" d="M559.84,181.48c-1.37,3.42-3.42,6.32-6.15,8.72-2.73,2.39-4.73,3.59-5.98,3.59s-.29-1.82,2.9-5.47c2.05-2.28,2.68-4.39,1.88-6.32s-1.65-4.04-2.57-6.32c-.91-2.28-.34-5.13,1.71-8.55,3.19-4.56,5.12-8.38,5.81-11.45.68-3.08,2.62-5.3,5.81-6.67,2.05-.91,3.08.57,3.08,4.44s-.62,8.55-1.88,14.01c-1.25,5.47-2.79,10.14-4.61,14.01" fill="#c99b71"></path><path class="b" d="M442.48,21.41c38.29,0,66.39,14.06,84.31,42.17s25.66,62.12,23.21,102.04c-.82,19.55-4.48,40.73-11,63.54-3.26,13.85-10.59,26.88-22,39.1s-24.03,22.2-37.88,29.94-26.07,11.61-36.66,11.6c-10.59,0-22.61-3.87-36.05-11.61s-26.07-17.72-37.88-29.94-19.35-25.26-22.6-39.11c-6.51-22.81-10.18-43.99-10.99-63.54-2.44-39.92,5.51-73.93,23.84-102.03s46.24-42.15,83.71-42.15" fill="#ebc199"></path><path class="i" d="M457.87,214.87c1.5,0,2.4.6,2.7,1.8.3,1.2-.45,2.4-2.25,3.6-1.5.9-3.9,2.1-7.2,3.6s-6.15,2.25-8.55,2.25c-3.6,0-5.25-.75-8.55-2.25s-5.7-2.7-7.2-3.6c-1.8-1.2-2.55-2.4-2.25-3.6.3-1.2,1.2-1.8,2.7-1.8,2.4,0,4.73.45,6.98,1.35s5.03,1.35,8.33,1.35,6.15-.45,8.55-1.35c2.4-.9,4.65-1.35,6.75-1.35" fill="#c99b71"></path><path class="l" d="M480.42,246.33c-11.1,14.41-23.86,21.31-38.27,20.71s-26.86-7.5-37.37-20.71c25.21,2.4,50.42,2.4,75.63,0" fill="#c98655"></path><path class="f" d="M442.6,245.39c5.4-2.1,10.81-2.18,16.21-.22,5.4,1.95,12.61,2.33,21.61,1.12-4.5,2.7-10.28,4.58-17.33,5.63s-13.88,1.73-20.48,2.03c-6.6-.3-13.43-.98-20.48-2.03s-12.83-2.93-17.33-5.63c9,1.2,16.28.82,21.83-1.12,5.55-1.95,10.88-1.88,15.98.22" fill="#a66435"></path><path class="m" d="M523.67,141.9c1.3,1.3,1.63,2.28.98,2.93s-1.63.65-2.93,0c-9.77-4.56-18.88-5.7-27.34-3.42s-15.62,4.07-21.48,5.37c-3.91.65-6.02-.65-6.35-3.91-.32-3.26,1.47-5.53,5.37-6.84,7.81-1.95,16.93-2.93,27.34-2.93s18.55,2.93,24.41,8.79M361.56,141.9c-1.3,1.3-1.63,2.28-.98,2.93s1.63.65,2.93,0c9.77-4.56,18.88-5.7,27.34-3.42s15.62,4.07,21.48,5.37c3.91.65,6.02-.65,6.35-3.91s-1.46-5.53-5.37-6.84c-7.81-1.95-16.93-2.93-27.34-2.93s-18.55,2.93-24.41,8.79" fill="#8b612d"></path><path class="k" d="M473.2,173.84c-1.5,0-2.4.3-2.7.9s-.15.9.45.9c3.9.6,6.6,1.5,8.1,2.7,2.25,1.8,3.45,2.4,5.85,3.6,2.4,1.2,6.75,1.8,13.05,1.8,3,0,6.6-.75,10.8-2.25,4.2-1.5,7.95-4.8,11.26-9.9.3-.6,0-.98-.9-1.12-.9-.15-1.8.07-2.7.68-6.6,3.9-12.61,5.93-18.01,6.08s-10.2-.38-14.41-1.57c-4.2-1.2-7.8-1.8-10.8-1.8M411.97,173.84c1.5,0,2.4.3,2.7.9.3.6.15.9-.45.9-3.9.6-6.6,1.5-8.1,2.7-2.25,1.8-3.45,2.4-5.85,3.6s-6.75,1.8-13.06,1.8c-3,0-6.6-.75-10.8-2.25-4.2-1.5-7.95-4.8-11.26-9.9-.3-.6,0-.98.9-1.12.9-.15,1.8.07,2.7.68,6.6,3.9,12.61,5.93,18.01,6.08s10.2-.38,14.41-1.57c4.2-1.2,7.8-1.8,10.81-1.8" fill="#45332c"></path><path class="e" d="M479.32,13.86c16.58-2.92,31.53-.19,44.85,8.21,13.32,8.39,24.72,20.85,34.21,37.37s16.97,35.37,22.46,56.54c5.48,21.17,8.56,42.99,9.23,65.45s-1.33,44.07-6,64.85c-4.67,20.77-12.11,38.85-22.34,54.24-10.22,15.39-23.5,26.5-39.83,33.32,7.76-5.75,13.75-15.9,17.98-30.46s6.7-31.65,7.4-51.28c.71-19.63-.48-40.03-3.55-61.19s-8.12-41.09-15.14-59.8-16.17-34.52-27.43-47.45c-11.26-12.92-24.86-21.05-40.79-24.38-6.05,5.45-13.23,12.63-21.52,21.55s-18.57,17.74-30.84,26.48-27.61,15.61-46.02,20.6c-11.13,16.43-19.09,34.71-23.87,54.84s-6.94,40.24-6.47,60.32c.47,20.08,3.34,38.21,8.6,54.38s12.76,28.22,22.48,36.15c-23.33-12.99-40.4-29.6-51.2-49.83-10.8-20.24-16.82-41.97-18.07-65.21-1.24-23.24,1.02-46.43,6.81-69.59,5.78-23.16,13.9-44.87,24.36-65.12,10.46-20.26,21.84-37.17,34.13-50.73,12.3-13.57,24.03-22.21,35.21-25.93C417.26.03,436.89-1.79,452.86,1.76c15.97,3.54,24.79,7.58,26.46,12.11" fill="#e6c465"></path><path class="g" d="M522.05,334.12c6.46-5.65,11.61-15.75,15.45-30.29s6.06-31.51,6.66-50.89c.61-19.39-.51-39.48-3.33-60.28-2.83-20.8-7.67-40.59-14.54-59.38-6.87-18.78-15.65-34.84-26.35-48.17s-23.73-21.81-39.08-25.45l2.42-2.42c1.62-1.62,4.14-2.63,7.57-3.03s7.78,1.41,13.03,5.45c12.92,7.67,23.93,19.08,33.02,34.23s16.36,32.31,21.81,51.5,9.19,38.88,11.21,59.07c2.02,20.2,2.22,39.38.61,57.56-1.62,18.18-4.75,33.62-9.39,46.35-4.64,12.72-11.01,21.31-19.08,25.75" fill="#c19b2c"></path><path class="d" d="M595.25,214.8c0,25.67-6.2,50.91-18.61,75.72s-30.59,39.36-54.54,43.64c14.54-7.7,25.03-23.74,31.44-48.13,6.42-24.38,8.77-52.19,7.06-83.42s-7.27-60.53-16.68-87.91-23.1-47.49-41.07-60.32c13.69,4.28,26.95,12.41,39.79,24.38,12.83,11.98,24.81,31.66,35.93,59.04-8.56-35.08-20.53-60.32-35.93-75.72s-31.23-24.38-47.48-26.95l-1.28-1.28c-.85-8.56,3.64-12.19,13.48-10.91s21.18,6.2,34.01,14.76c-7.7-8.56-17.54-14.76-29.52-18.61s-22.67-5.35-32.08-4.49c18.82-5.99,37-1.28,54.54,14.12,17.54,15.4,32.09,39.14,43.64,71.23,11.55,32.08,17.32,70.37,17.32,114.86M339.85,83.89c11.12-13.69,27.17-25.88,48.13-36.58,20.96-10.69,40.43-17.97,58.39-21.82,17.97-3.85,27.81-2.35,29.52,4.49,0,5.99-2.14,9.41-6.42,10.27-11.12,3.42-21.6,10.91-31.44,22.46-9.84,11.55-22.46,23.31-37.86,35.29s-36.36,20.96-62.89,26.95l5.13,1.28c-15.4,23.1-23.74,49.62-25.03,79.57s2.35,56.9,10.91,80.85,20.11,39.78,34.65,47.48c-25.67-4.28-44.06-18.61-55.18-42.99s-16.68-49.84-16.68-76.36c0-47.06,8.56-90.69,25.67-130.91,17.11-40.21,42.78-65.88,77-77C410.01,1.76,425.84.05,441.24,1.76s23.1,4.28,23.1,7.7c-.86,4.28-8.13,8.13-21.82,11.55s-30.16,9.84-49.41,19.25-37,23.96-53.26,43.64M312.9,281.54c-5.13-30.8-6.85-58.18-5.13-82.14,1.71-23.96,5.99-45.35,12.83-64.17-7.7,10.27-13.26,24.17-16.69,41.71-3.42,17.54-4.49,35.72-3.21,54.54,1.92,28.23,5.35,35.51,12.19,50.05" fill="#f2d785"></path><path class="g" d="M349.24,313.1c-9.22-15.03-14.84-32.01-16.86-50.94s-1.69-37.62.98-56.06,6.58-34.8,11.74-49.08,10.26-24.49,15.31-30.64c15.53-1.42,28.83-6.17,39.9-14.26s20.94-16.73,29.62-25.93,17.34-16.64,25.98-22.33,18.05-7.01,28.23-3.99c-9.3-.55-17.88,2.38-25.73,8.81-7.86,6.42-16.03,14.11-24.54,23.06s-18.22,17.24-29.15,24.86-24.37,12.18-40.33,13.68c-8.11,13.7-14.24,29.25-18.41,46.64s-6.56,34.91-7.18,52.55.03,33.75,1.93,48.31c1.91,14.57,4.75,26.34,8.52,35.32" fill="#c19b2c"></path><path class="g" d="M362.68,334.22c-9.61-6.01-17.42-16.52-23.43-31.55s-9.71-32.55-11.12-52.58c-1.4-20.03,0-40.76,4.21-62.19s11.72-41.36,22.53-59.79l2.1-1.2c1.4-.8,3.51-.4,6.31,1.2-5.21,6.81-9.91,16.93-14.12,30.34-4.21,13.42-7.31,28.44-9.31,45.07-2,16.62-2.8,33.35-2.4,50.17.4,16.83,2.6,32.35,6.61,46.57s10.21,25.54,18.63,33.95" fill="#c19b2c"></path><path class="g" d="M483.88,60.02c-6.84-1.14-13.56.11-20.17,3.76-6.61,3.65-13.22,8.6-19.82,14.87-6.61,6.27-13.56,12.87-20.85,19.82s-15.21,13.1-23.76,18.46c-8.55,5.35-17.94,8.94-28.2,10.77-10.25,1.82-21.65.8-34.18-3.08,13.44,1.37,25.35.51,35.72-2.56,10.37-3.08,19.65-7.41,27.86-12.99s15.72-11.62,22.56-18.12c6.84-6.49,13.33-12.7,19.48-18.63,6.15-5.92,12.42-10.82,18.8-14.7,6.38-3.87,13.22-5.81,20.51-5.81,2.73-7.98,3.65-15.44,2.73-22.39-.91-6.95-2.62-12.02-5.13-15.21,5.24,4.33,8.37,9.63,9.4,15.89,1.02,6.27.85,12.25-.51,17.94-1.37,5.7-2.85,9.68-4.44,11.96" fill="#c19b2c"></path></g></svg>