<svg xmlns="http://www.w3.org/2000/svg" style="" viewBox="0 0 495.81 512"><g class="nc-icon-wrapper"><defs><linearGradient id="1772947707157-4213082_b" x1="255.74" y1="534.64" x2="255.74" y2="510.57" gradientTransform="translate(0 -510.57)" gradientUnits="userSpaceOnUse"><stop offset="0" stop-color="#774212"></stop><stop offset=".7" stop-color="#915926"></stop></linearGradient><linearGradient id="1772947707157-4213082_c" x1="255.87" y1="846.57" x2="255.87" y2="822.51" gradientTransform="translate(0 -510.57)" gradientUnits="userSpaceOnUse"><stop offset="0" stop-color="#774212"></stop><stop offset=".7" stop-color="#915926"></stop></linearGradient><radialGradient id="1772947707157-4213082_d" cx="155.39" cy="870.75" fx="155.39" fy="870.75" r="283.11" gradientTransform="translate(0 -510.57)" gradientUnits="userSpaceOnUse"><stop offset="0" stop-color="#6bc590"></stop><stop offset=".36" stop-color="#66bd89"></stop><stop offset=".94" stop-color="#57a676"></stop><stop offset="1" stop-color="#55a374"></stop></radialGradient><linearGradient id="1772947707157-4213082_e" x1="80.39" y1="917.35" x2="208.39" y2="917.35" gradientTransform="translate(0 -510.57)" gradientUnits="userSpaceOnUse"><stop offset=".22" stop-color="#870000"></stop><stop offset=".49" stop-color="#9d0000"></stop><stop offset=".78" stop-color="#ad0000"></stop><stop offset="1" stop-color="#b30000"></stop></linearGradient><linearGradient id="1772947707157-4213082_f" x1="82.94" y1="918.12" x2="206.85" y2="918.12" gradientTransform="translate(0 -510.57)" gradientUnits="userSpaceOnUse"><stop offset="0" stop-color="#630000"></stop><stop offset="1" stop-color="#a40000"></stop></linearGradient><linearGradient id="1772947707157-4213082_g" x1="112.84" y1="837.04" x2="234.95" y2="959.15" gradientTransform="translate(0 -510.57)" gradientUnits="userSpaceOnUse"><stop offset=".41" stop-color="#fff"></stop><stop offset=".45" stop-color="#e0e4e6"></stop><stop offset=".49" stop-color="#b9c2c7"></stop></linearGradient><linearGradient id="1772947707157-4213082_h" x1="80.42" y1="921.75" x2="98.69" y2="921.75" gradientTransform="translate(0 -510.57)" gradientUnits="userSpaceOnUse"><stop offset=".22" stop-color="#870000"></stop><stop offset=".49" stop-color="#9d0000"></stop><stop offset=".78" stop-color="#ad0000"></stop><stop offset="1" stop-color="#b30000"></stop></linearGradient><linearGradient id="1772947707157-4213082_i" x1="177.81" y1="675.52" x2="177.81" y2="650.74" gradientTransform="translate(0 -510.57)" gradientUnits="userSpaceOnUse"><stop offset="0" stop-color="#4a90c2"></stop><stop offset="1" stop-color="#1e3a5f"></stop></linearGradient><linearGradient id="1772947707157-4213082_j" x1="102.79" y1="675.46" x2="102.79" y2="650.7" gradientTransform="translate(0 -510.57)" gradientUnits="userSpaceOnUse"><stop offset="0" stop-color="#4a90c2"></stop><stop offset="1" stop-color="#1e3a5f"></stop></linearGradient><linearGradient id="1772947707157-4213082_k" x1="100.27" y1="685.67" x2="100.27" y2="644.71" gradientTransform="translate(0 -510.57)" gradientUnits="userSpaceOnUse"><stop offset="0" stop-color="#fff" stop-opacity="0"></stop><stop offset="1" stop-color="#fff" stop-opacity=".5"></stop></linearGradient><linearGradient id="1772947707157-4213082_l" x1="180.31" y1="685.67" x2="180.31" y2="644.71" gradientTransform="translate(0 -510.57)" gradientUnits="userSpaceOnUse"><stop offset="0" stop-color="#fff" stop-opacity="0"></stop><stop offset="1" stop-color="#fff" stop-opacity=".5"></stop></linearGradient></defs><path class="aq" d="M15.81,0v336h480V0H15.81" vector-effect="none" fill="#774212"></path><path class="w" d="M477.69,24.07L495.61,0H15.87l17.92,24.06h443.9" vector-effect="none" fill="url(#1772947707157-4213082_b)"></path><path class="v" d="M33.92,311.94l-17.92,24.06h479.74l-17.92-24.06H33.92" vector-effect="none" fill="url(#1772947707157-4213082_c)"></path><path class="u" d="M33.7,24v288h444.22V24H33.7" vector-effect="none" fill="url(#1772947707157-4213082_d)"></path><path class="aj" d="M307.71,470.02c-5.46-17.75-8.45-33.28-8.96-46.59-.51-13.31-.09-23.72,1.28-31.23s2.05-11.26,2.05-11.26c-10.24-14.34-18.18-26.97-23.81-37.89-5.63-10.92-10.67-20.31-15.1-28.16-4.44-7.85-10.07-14.17-16.9-18.94-10.24,12.29-16.81,23.38-19.71,33.28s-3.5,18.77-1.79,26.62,4.44,14.76,8.19,20.74c3.75,5.97,7.34,10.92,10.75,14.85s5.29,6.91,5.63,8.96c2.39,11.26,7.25,22.27,14.59,33.02s15.1,19.54,23.3,26.37c8.19,6.83,15.02,10.24,20.48,10.24" vector-effect="none" fill="#8e3ed6"></path><path class="ad" d="M296.96,466.94c-5.8-8.19-8.96-16.73-9.47-25.6s-.09-16.47,1.28-22.78,2.05-9.47,2.05-9.47c-16.04-7.85-28.25-16.55-36.61-26.11-8.36-9.56-13.91-19.11-16.64-28.67s-3.58-18.26-2.56-26.11c-3.41.34-5.63,2.99-6.66,7.94s-1.28,10.92-.77,17.92,1.37,13.99,2.56,20.99,2.3,12.88,3.33,17.66c1.02,4.78,1.54,7.17,1.54,7.17,0,0,2.3,3.93,6.91,11.78s11.52,16.98,20.74,27.39,20.65,19.71,34.3,27.9" vector-effect="none" fill="#823bbf"></path><path class="aa" d="M293.89,401.41s-1.02,2.22-3.07,6.66c-2.05,4.44-3.58,10.41-4.61,17.92-1.02,7.51.17,16.21,3.58,26.11-1.37-7.85-1.62-15.62-.77-23.3s1.88-14.17,3.07-19.46c1.19-5.29,1.79-7.94,1.79-7.94" vector-effect="none" fill="#732eb0"></path><path class="aj" d="M358.91,372.74c.34-2.39-1.28-5.12-4.86-8.19s-8.02-5.72-13.31-7.94-10.15-3.58-14.59-4.1c-4.44-.51-7.17.77-8.19,3.84-2.05,5.46-5.21,10.92-9.47,16.38s-6.4,8.19-6.4,8.19c0,0-.94,2.47-2.82,7.42s-3.41,11.69-4.61,20.22c-1.19,8.53-1.02,18.09.51,28.67,1.54,10.58,5.72,21.5,12.54,32.77,9.22,0,16.81-2.99,22.78-8.96s10.75-13.82,14.34-23.55c3.58-9.73,6.4-20.31,8.45-31.74,2.05-11.43,3.93-22.44,5.63-33.02" vector-effect="none" fill="#8e3ed6"></path><path class="x" d="M355.84,244.22c-1.02,3.41-1.62,6.49-1.79,9.22-.17,2.73-1.02,6.14-2.56,10.24-1.54,4.1-5.03,9.9-10.5,17.41-3.41,4.44-5.72,9.13-6.91,14.08-1.19,4.95-2.3,11.01-3.33,18.18-1.02,7.17-3.24,16.04-6.66,26.62-.34,1.71,1.19,3.84,4.61,6.4,3.41,2.56,7.68,5.03,12.8,7.42s9.64,4.1,13.57,5.12,6.06.68,6.4-1.02c1.02-5.46,2.56-10.67,4.61-15.62,2.05-4.95,3.41-7.42,4.1-7.42,8.19-1.37,14.08-4.61,17.66-9.73,3.58-5.12,6.4-11.43,8.45-18.94.68-2.05-.6-5.46-3.84-10.24s-7-9.9-11.26-15.36c-4.27-5.46-7.94-10.41-11.01-14.85s-4.27-7.17-3.58-8.19c2.05-3.75,2.22-7.08.51-9.98s-3.93-4.78-6.66-5.63-4.27-.08-4.61,2.3" vector-effect="none" fill="#ebc199"></path><path class="ab" d="M415.74,96.77c.34-1.71-.09-2.73-1.28-3.07s-2.13.17-2.82,1.54c-5.12,19.46-11.01,41.05-17.66,64.77-6.66,23.72-13.31,47.19-19.97,70.4-6.66,23.21-12.63,44.03-17.92,62.46s-9.3,32.43-12.03,41.98c-.68,2.39-.09,4.44,1.79,6.14,1.88,1.71,4.1,2.56,6.66,2.56s4.18-1.37,4.86-4.1c7.17-29.7,15.53-64.68,25.09-104.96s20.65-86.19,33.28-137.73" vector-effect="none" fill="#1a1626"></path><path class="x" d="M390.65,264.7c.34-1.37.17-3.5-.51-6.4s-2.73-4.69-6.14-5.38c-4.44-1.02-11.43.51-20.99,4.61-2.73,1.02-4.61,2.99-5.63,5.89s-.77,5.55.77,7.94c1.54,2.39,4.86,3.24,9.98,2.56-2.05.34-3.93.77-5.63,1.28-1.71.51-3.41.94-5.12,1.28-3.07.68-5.21,2.47-6.4,5.38-1.19,2.9-1.11,5.63.26,8.19s4.61,3.5,9.73,2.82c-6.83,1.71-9.64,4.78-8.45,9.22s5.03,6.32,11.52,5.63c-2.39,4.78-1.88,7.94,1.54,9.47,3.41,1.54,7.94,1.71,13.57.51,5.63-1.19,10.33-3.5,14.08-6.91s4.78-7.68,3.07-12.8c0,0,.51-1.88,1.54-5.63,1.02-3.75-.17-7.68-3.58-11.78,0,0,.43-1.71,1.28-5.12s-.77-7-4.86-10.75" vector-effect="none" fill="#ebc199"></path><path class="ah" d="M356.86,266.75c-.34,4.78,1.45,7.34,5.38,7.68s8.19-.34,12.8-2.05,7.42-3.07,8.45-4.1c-7.85,3.41-14.25,4.69-19.2,3.84s-7.42-2.65-7.42-5.38M363.01,312.32c-.34,4.78,1.45,7.34,5.38,7.68s8.11-.34,12.54-2.05c4.44-1.71,7.17-3.07,8.19-4.1-7.85,3.41-14.17,4.69-18.94,3.84-4.78-.85-7.17-2.65-7.17-5.38M350.21,285.18c-.34,4.78,1.71,7.42,6.14,7.94,4.44.51,9.56-.17,15.36-2.05,5.8-1.88,10.58-4.18,14.34-6.91-11.61,5.8-20.48,8.11-26.62,6.91-6.14-1.19-9.22-3.16-9.22-5.89M352.26,301.06c-.34,4.78,1.79,7.42,6.4,7.94,4.61.51,9.81-.17,15.62-2.05,5.8-1.88,10.75-4.01,14.85-6.4-11.95,5.46-20.99,7.59-27.14,6.4-6.14-1.19-9.39-3.16-9.73-5.89" vector-effect="none" fill="#c99b71"></path><path class="aa" d="M361.47,357.89s-2.13-.26-6.4-.77c-4.27-.51-9.3-2.05-15.1-4.61-5.8-2.56-11.09-6.74-15.87-12.54,0,0-.77,1.45-2.3,4.35-1.54,2.9-2.82,6.91-3.84,12.03,0,0,1.45,1.28,4.35,3.84s7.34,5.21,13.31,7.94,13.74,4.27,23.3,4.61c1.37-4.44,2.13-8.02,2.3-10.75.17-2.73.26-4.1.26-4.1" vector-effect="none" fill="#732eb0"></path><path class="y" d="M217.6,278.02c4.78-1.02,8.87-5.89,12.29-14.59,3.41-8.7,6.23-19.2,8.45-31.49,2.22-12.29,4.01-24.49,5.38-36.61,1.37-12.12,2.22-22.19,2.56-30.21.34-8.02.51-11.86.51-11.52H33.79c0-.34-.09,3.41-.26,11.26-.17,7.85,0,17.83.51,29.95s1.71,24.32,3.58,36.61c1.88,12.29,4.78,22.78,8.7,31.49,3.93,8.7,9.3,13.74,16.13,15.1,2.05.34,8.28.6,18.69.77,10.41.17,22.78.34,37.12.51,14.34.17,28.76.17,43.26,0,14.51-.17,26.97-.34,37.38-.51s16.64-.43,18.69-.77" vector-effect="none" fill="#b0872d"></path><path class="aj" d="M83.97,271.36l-44.54,24.58,17.41,194.05c1.02,8.19,8.7,13.91,23.04,17.15,14.34,3.24,34.47,4.86,60.42,4.86s47.36-1.62,64.26-4.86,25.86-8.96,26.88-17.15c-2.05-17.75-2.82-31.49-2.3-41.22.51-9.73,1.45-17.49,2.82-23.3s2.65-11.26,3.84-16.38,1.54-11.69,1.02-19.71c-.51-8.02-2.3-19.54-5.38-34.56-1.02-3.75-.85-8.87.51-15.36,1.37-6.48,3.16-13.06,5.38-19.71,2.22-6.66,4.27-12.29,6.14-16.9,1.88-4.61,2.82-6.91,2.82-6.91l-49.15-24.58h-113.15" vector-effect="none" fill="#8e3ed6"></path><path class="ad" d="M58.78,334.87c-1.33,36.86-1.41,63.91-.25,81.15s1.74,25.86,1.74,25.86l26.9,2.08c-10.96-8.54-18.27-22.8-21.92-42.77-3.65-19.97-5.81-42.08-6.48-66.31" vector-effect="none" fill="#823bbf"></path><path class="aa" d="M140.29,307.71c17.07,0,30.12-3.41,39.17-10.24s14.93-15.53,17.66-26.11l-8.7-4.1-95.74-.51-8.7,4.61c2.73,10.58,8.62,19.29,17.66,26.11,9.04,6.83,21.93,10.24,38.66,10.24" vector-effect="none" fill="#732eb0"></path><path class="ak" d="M140.29,297.98c12.97,0,23.81-2.56,32.51-7.68s13.91-12.8,15.62-23.04l-9.22-4.61h-77.31l-9.22,4.1c1.71,10.24,6.91,18.01,15.62,23.3s19.37,7.94,32,7.94" vector-effect="none" fill="#dbcaeb"></path><path class="an" d="M133.12,297.47h14.85l-7.68-9.73-7.17,9.73" vector-effect="none" fill="#b5a7c2"></path><path class="x" d="M101.63,262.66c0,6.49,2.66,11.78,7.97,15.87,5.31,4.1,11.79,6.83,19.43,8.19,7.64,1.37,15.36,1.37,23.17,0,7.8-1.37,14.28-4.1,19.43-8.19,5.15-4.1,7.72-9.39,7.72-15.87v-27.65h-77.72v27.65" vector-effect="none" fill="#ebc199"></path><path class="t" d="M208.38,346.62c0-2.39-1.19-3.58-3.58-3.58h-113.15c-2.39,0-4.86.85-7.42,2.56s-3.84,3.75-3.84,6.14l113.15,118.78h14.85v-123.9" vector-effect="none" fill="url(#1772947707157-4213082_e)"></path><path class="s" d="M206.85,347.65c0-2.05-.85-3.07-2.56-3.07h-112.13c-1.71,0-3.67.77-5.89,2.3-2.22,1.54-3.33,3.16-3.33,4.86l111.62,118.78h12.29v-122.88" vector-effect="none" fill="url(#1772947707157-4213082_f)"></path><path class="am" d="M95.74,346.11c-2.05,0-3.75.68-5.12,2.05l-3.58,3.58h.51l8.19-5.63" vector-effect="none" fill="#b30000"></path><path class="r" d="M205.31,349.7c0-2.39-1.19-3.58-3.58-3.58h-105.98c-1.71,0-3.24.68-4.61,2.05l-3.58,3.58,98.3,118.78h19.46v-120.83" vector-effect="none" fill="url(#1772947707157-4213082_g)"></path><path d="M203.26,350.72v119.81h.51v-119.81c0-2.39-1.02-3.58-3.07-3.58h-105.98c-1.02,0-1.88.17-2.56.51h108.03c2.05,0,3.07,1.02,3.07,3.07" vector-effect="none"></path><path d="M201.22,352.26v118.27h.51v-118.27c0-2.39-1.19-3.58-3.58-3.58h-104.96c-1.02,0-2.05.17-3.07.51h108.03c2.05,0,3.07,1.02,3.07,3.07" vector-effect="none"></path><path d="M198.66,353.79v116.74h.51v-116.74c0-2.39-1.19-3.58-3.58-3.58h-103.94c-1.02,0-2.05.17-3.07.51h107.01c2.05,0,3.07,1.02,3.07,3.07" vector-effect="none"></path><path class="ae" d="M197.12,355.84c0-2.73-1.37-4.1-4.1-4.1h-94.21c-4.78,4.78-7.85,11.95-9.22,21.5-1.37,9.56-1.88,20.31-1.54,32.26s1.28,23.72,2.82,35.33c1.54,11.61,2.99,21.5,4.35,29.7h101.89v-114.69" vector-effect="none" fill="#ff000e"></path><path class="p" d="M80.42,351.9v118.56h18.27v-118.56h-18.27" vector-effect="none" fill="url(#1772947707157-4213082_h)"></path><path class="x" d="M192,446.46s1.71-.51,5.12-1.54c3.41-1.02,6.91-2.56,10.5-4.61,3.58-2.05,5.38-4.78,5.38-8.19,0-2.05-3.58-2.13-10.75-.26-7.17,1.88-16.04,2.99-26.62,3.33-4.44.34-7.94,1.62-10.5,3.84s-5.72,4.52-9.47,6.91-9.73,3.75-17.92,4.1l-5.63,35.84,16.9.51c3.41,3.41,8.62,6.06,15.62,7.94s13.06,2.47,18.18,1.79c7.51-1.37,14.51-4.78,20.99-10.24,6.49-5.46,9.22-10.92,8.19-16.38,4.44-5.46,6.14-9.3,5.12-11.52s-3.41-3.58-7.17-4.1c-3.75-.51-7.42-1.19-11.01-2.05-3.58-.85-5.89-2.65-6.91-5.38" vector-effect="none" fill="#ebc199"></path><path class="ah" d="M199.68,472.06s1.79.09,5.38.26c3.58.17,5.89-.77,6.91-2.82-2.05.68-4.61,1.28-7.68,1.79-3.07.51-4.61.77-4.61.77M194.05,484.86s1.96.09,5.89.26,6.57-.77,7.94-2.82c-2.39.68-5.29,1.28-8.7,1.79s-5.12.77-5.12.77M185.34,492.03l5.12,1.02c3.41.68,5.8-.17,7.17-2.56-2.05.68-4.61,1.11-7.68,1.28-3.07.17-4.61.26-4.61.26" vector-effect="none" fill="#c99b71"></path><path class="aa" d="M66.56,501.25c5.46,1.37,12.46,1.11,20.99-.77,8.53-1.88,16.13-3.93,22.78-6.14,6.66-2.22,9.98-3.33,9.98-3.33,0,0-3.07.51-9.22,1.54-6.14,1.02-13.4,2.3-21.76,3.84s-15.96,3.16-22.78,4.86" vector-effect="none" fill="#732eb0"></path><path class="aj" d="M59.9,441.86l-20.48-145.92c-3.75,2.05-8.79,6.83-15.1,14.34s-11.95,17.58-16.9,30.21-7.42,27.31-7.42,44.03c0,7.51.09,17.24.26,29.18s.6,23.98,1.28,36.1c.68,12.12,1.79,22.7,3.33,31.74,1.54,9.04,3.5,14.76,5.89,17.15,2.73,2.73,6.23,2.56,10.5-.51s8.62-7.59,13.06-13.57c4.44-5.97,8.62-12.29,12.54-18.94,3.93-6.66,7.08-12.29,9.47-16.9s3.58-6.91,3.58-6.91" vector-effect="none" fill="#8e3ed6"></path><path class="aj" d="M122.88,449.54c-4.78-1.37-10.58-2.47-17.41-3.33-6.83-.85-13.74-1.62-20.74-2.3s-12.89-1.19-17.66-1.54c-4.78-.34-7.17-.51-7.17-.51,0,0-2.3,1.02-6.91,3.07-4.61,2.05-9.98,5.38-16.13,9.98-6.14,4.61-11.78,10.5-16.9,17.66-5.12,7.17-8.19,15.87-9.22,26.11,2.73,2.73,8.19,4.27,16.38,4.61s17.41-.08,27.65-1.28c10.24-1.19,20.22-2.56,29.95-4.1s17.83-2.99,24.32-4.35c6.49-1.37,9.73-2.05,9.73-2.05,0,0,.94-1.96,2.82-5.89,1.88-3.93,3.24-9.13,4.1-15.62.85-6.49-.09-13.31-2.82-20.48" vector-effect="none" fill="#8e3ed6"></path><path class="aa" d="M137.73,450.05c0-.68-1.28-1.02-3.84-1.02s-5.03.09-7.42.26-3.58.26-3.58.26c0,0,.17,4.35.51,13.06.34,8.7-1.19,18.35-4.61,28.93,3.75,1.02,7.08.77,9.98-.77,2.9-1.54,4.35-2.3,4.35-2.3,0,0,.6-2.9,1.79-8.7,1.19-5.8,2.13-15.7,2.82-29.7M62.98,441.34c-6.83-2.05-12.71-1.88-17.66.51s-8.79,5.03-11.52,7.94c-2.73,2.9-4.1,4.35-4.1,4.35,0,0,2.99-1.62,8.96-4.86s14.08-5.89,24.32-7.94" vector-effect="none" fill="#732eb0"></path><path class="ah" d="M101.38,250.37s2.22,1.96,6.66,5.89c4.44,3.93,9.64,7.77,15.62,11.52,5.97,3.75,11.52,5.63,16.64,5.63s10.75-1.88,16.9-5.63c6.14-3.75,11.35-7.59,15.62-11.52s6.4-5.89,6.4-5.89h-77.82" vector-effect="none" fill="#c99b71"></path><path class="x" d="M140.28,43.44c-19.68.07-35.87,5.05-48.56,14.93s-21.97,23.23-27.83,40.05-8.28,35.84-7.26,57.06c.44,6.37,6.48,40.63,8.53,48.42,2.9,10.69,8.77,20.87,17.6,30.52,8.83,9.65,18.62,17.52,29.38,23.6,10.75,6.08,20.2,9.09,28.33,9.01,8.14-.08,17.54-3.09,28.2-9.05,10.67-5.96,20.41-13.79,29.22-23.49,8.82-9.7,14.66-19.9,17.53-30.6,2.02-7.83,3.83-16.3,5.45-25.41s2.57-16.75,2.84-22.91c1.34-21.29-.91-40.33-6.76-57.13-5.85-16.8-15.17-30.18-27.96-40.15s-29.03-14.92-48.72-14.84" vector-effect="none" fill="#ebc199"></path><path class="al" d="M140.28,214.51c-3.53-1.59-6.4-2.51-8.6-2.78s-4.37-.13-6.49.4c-2.12.53-4.76,1.15-7.94,1.85-3.18.71-7.5,1.24-12.97,1.59,2.82,3.18,5.6,6.4,8.34,9.66,2.74,3.26,6.22,6,10.46,8.21s9.97,3.31,17.21,3.31c8.29,0,14.6-1.24,18.93-3.71,4.32-2.47,7.68-5.34,10.06-8.6,2.38-3.26,4.72-6.22,7.01-8.87-5.47-.35-9.79-.88-12.97-1.59-3.18-.71-5.82-1.32-7.94-1.85s-4.28-.66-6.49-.4c-2.21.26-5.07,1.19-8.6,2.78" vector-effect="none" fill="#da803d"></path><path class="ag" d="M110.89,217.96c4.76,4.94,10.85,8.21,18.26,9.79,7.41,1.59,14.87,1.59,22.37,0s13.54-4.85,18.13-9.79c-10.94,1.24-20.74,1.85-29.38,1.85s-18.44-.62-29.38-1.85" vector-effect="none" fill="#fff"></path><path class="ao" d="M204.8,134.15c-4.1-4.78-10.07-8.45-17.92-11.01s-14.85-3.33-20.99-2.3c-3.07.68-4.61,2.3-4.61,4.86s1.37,3.67,4.1,3.33c4.78-.68,10.5-.77,17.15-.26,6.66.51,13.57,2.99,20.74,7.42,1.02.68,1.88.77,2.56.26.68-.51.34-1.28-1.02-2.3M75.78,134.15c4.1-4.78,10.07-8.45,17.92-11.01s14.85-3.33,20.99-2.3c3.07.68,4.61,2.3,4.61,4.86s-1.37,3.67-4.1,3.33c-4.78-.68-10.5-.77-17.15-.26-6.66.51-13.57,2.99-20.74,7.42-1.02.68-1.79.77-2.3.26-.51-.51-.26-1.28.77-2.3" vector-effect="none" fill="#8b612d"></path><path class="ai" d="M201.13,154.17c-1.24-6.18-4.1-10.59-8.61-13.24-4.5-2.65-9.49-3.58-14.96-2.78-5.47.79-10.15,3.31-14.03,7.55s-5.83,10.33-5.83,18.27c1.77-.88,4.77-1.02,9-.4,4.24.62,8.78,1.1,13.64,1.46,4.85.35,9.22-.18,13.11-1.59,3.88-1.41,6.44-4.5,7.68-9.27" vector-effect="none" fill="#edebea"></path><path class="o" d="M190.23,152.59c0-1.71-.32-3.32-.97-4.82-.64-1.5-1.54-2.82-2.67-3.96-1.14-1.14-2.46-2.03-3.96-2.67s-3.11-.97-4.82-.97-3.32.32-4.82.97c-1.5.64-2.82,1.54-3.96,2.67-1.14,1.14-2.03,2.46-2.67,3.96s-.97,3.11-.97,4.82.32,3.32.97,4.82c.64,1.5,1.54,2.82,2.67,3.96s2.46,2.03,3.96,2.67,3.11.97,4.82.97,3.32-.32,4.82-.97c1.5-.64,2.82-1.54,3.96-2.67,1.14-1.14,2.03-2.46,2.67-3.96s.97-3.11.97-4.82" vector-effect="none" fill="url(#1772947707157-4213082_i)"></path><path class="ab" d="M170.75,152.37c0,2.42.72,4.24,2.16,5.45,1.44,1.21,3.09,1.82,4.93,1.82s3.49-.61,4.93-1.82c1.44-1.21,2.16-3.03,2.16-5.45s-.72-4.04-2.16-5.19c-1.44-1.15-3.09-1.73-4.93-1.73s-3.49.58-4.93,1.73c-1.44,1.15-2.16,2.88-2.16,5.19" vector-effect="none" fill="#1a1626"></path><path class="ai" d="M169.8,148.88c0,1.27.43,2.11,1.3,2.51.87.4,1.73.4,2.6,0,.87-.4,1.3-1.24,1.3-2.51-.12-1.04-.61-1.76-1.47-2.16-.87-.4-1.7-.4-2.51,0s-1.21,1.12-1.21,2.16" vector-effect="none" fill="#edebea"></path><path class="ao" d="M202.24,150.53s.51-.09,1.54-.26c1.02-.17,1.71-.77,2.05-1.79-2.05.68-3.41.68-4.1,0l-1.02-1.02s.51-.09,1.54-.26c1.02-.17,1.71-.6,2.05-1.28-2.39.68-4.18.51-5.38-.51-1.19-1.02-2.13-1.88-2.82-2.56-2.05-2.73-5.72-4.78-11.01-6.14s-10.41-.77-15.36,1.79-8.62,7.94-11.01,16.13c3.41-6.48,8.02-10.67,13.82-12.54,5.8-1.88,11.43-1.71,16.9.51s9.39,6.06,11.78,11.52c2.39.68,4.1.17,5.12-1.54-1.02.34-1.96.09-2.82-.77l-1.28-1.28" vector-effect="none" fill="#8b612d"></path><path class="ai" d="M79.47,154.2c1.24,4.76,3.79,7.85,7.68,9.26,3.88,1.41,8.25,1.94,13.1,1.59s9.35-.84,13.5-1.46c4.15-.62,7.19-.49,9.13.4,0-7.94-1.94-14.03-5.82-18.26-3.88-4.24-8.56-6.75-14.03-7.54s-10.5.13-15.09,2.78-7.41,7.06-8.47,13.24" vector-effect="none" fill="#edebea"></path><path class="n" d="M102.79,140.13c3.46,0,6.4,1.21,8.82,3.63s3.63,5.36,3.63,8.82-1.21,6.4-3.63,8.82c-2.42,2.42-5.36,3.63-8.82,3.63s-6.4-1.21-8.82-3.63-3.63-5.36-3.63-8.82,1.21-6.4,3.63-8.82c2.42-2.42,5.36-3.63,8.82-3.63" vector-effect="none" fill="url(#1772947707157-4213082_j)"></path><path class="ab" d="M109.87,152.37c0-2.31-.72-4.04-2.16-5.19-1.44-1.15-3.09-1.73-4.93-1.73s-3.49.58-4.93,1.73-2.16,2.88-2.16,5.19.72,4.24,2.16,5.45c1.44,1.21,3.09,1.82,4.93,1.82s3.49-.61,4.93-1.82,2.16-3.03,2.16-5.45" vector-effect="none" fill="#1a1626"></path><path class="ai" d="M110.81,148.83c0-1.04-.4-1.76-1.21-2.16-.81-.4-1.65-.4-2.51,0-.87.4-1.36,1.13-1.47,2.16,0,1.27.43,2.11,1.3,2.51s1.73.4,2.6,0c.87-.4,1.3-1.24,1.3-2.51" vector-effect="none" fill="#edebea"></path><path class="ao" d="M78.4,150.53s-.43.43-1.28,1.28-1.79,1.11-2.82.77c1.02,1.71,2.73,2.22,5.12,1.54,2.39-5.46,6.32-9.3,11.78-11.52s11.09-2.39,16.9-.51c5.8,1.88,10.41,6.06,13.82,12.54-2.39-8.19-6.06-13.57-11.01-16.13s-10.07-3.16-15.36-1.79c-5.29,1.37-8.96,3.41-11.01,6.14-.68.68-1.62,1.54-2.82,2.56-1.19,1.02-2.99,1.19-5.38.51.34.68,1.02,1.11,2.05,1.28,1.02.17,1.54.26,1.54.26l-1.02,1.02c-.68.68-2.05.68-4.1,0,.34,1.02,1.02,1.62,2.05,1.79,1.02.17,1.54.26,1.54.26" vector-effect="none" fill="#8b612d"></path><path class="ah" d="M151.82,193.07c-1.28,0-2.88.32-4.8.96s-4.16.96-6.72.96-4.8-.32-6.72-.96-3.52-.96-4.8-.96-2.08.48-2.4,1.44.16,1.76,1.44,2.4c1.28,1.28,3.2,2.4,5.76,3.36s4.8,1.44,6.72,1.44,4.16-.48,6.72-1.44,4.48-2.08,5.76-3.36c1.28-.64,1.76-1.44,1.44-2.4-.32-.96-1.12-1.44-2.4-1.44" vector-effect="none" fill="#c99b71"></path><path class="ap" d="M223.74,137.22c-3.75,0-8.19-1.28-13.31-3.84s-12.29-3.84-21.5-3.84c-13.99,0-24.32.94-30.98,2.82s-12.54,2.82-17.66,2.82-11.01-.94-17.66-2.82c-6.66-1.88-16.98-2.82-30.98-2.82-9.22,0-16.38,1.28-21.5,3.84s-9.39,3.84-12.8,3.84c-.68,0-1.02.94-1.02,2.82s.17,2.82.51,2.82c4.44,0,7.17,1.96,8.19,5.89s1.71,8.36,2.05,13.31c.34,4.95,1.71,8.79,4.1,11.52,2.05,2.39,6.91,4.1,14.59,5.12,7.68,1.02,15.27,1.28,22.78.77,7.51-.51,12.46-1.62,14.85-3.33,3.75-3.41,6.31-7.85,7.68-13.31,1.37-5.46,2.56-10.33,3.58-14.59s2.9-6.4,5.63-6.4,4.61,2.13,5.63,6.4,2.22,9.13,3.58,14.59c1.37,5.46,3.93,9.9,7.68,13.31,2.39,1.71,7.34,2.82,14.85,3.33,7.51.51,15.1.26,22.78-.77s12.54-2.73,14.59-5.12c2.39-2.73,3.75-6.57,4.1-11.52.34-4.95,1.02-9.39,2.05-13.31s3.75-5.89,8.19-5.89c.34,0,.51-.94.51-2.82s-.17-2.82-.51-2.82M121.34,172.54c-1.37,1.37-5.38,2.22-12.03,2.56-6.66.34-13.57.17-20.74-.51s-11.78-2.05-13.82-4.1c-1.71-1.02-2.9-4.01-3.58-8.96s-.94-9.81-.77-14.59c.17-4.78.94-7.68,2.3-8.7,2.05-1.71,5.72-2.82,11.01-3.33s11.18-.6,17.66-.26c6.49.34,12.29.94,17.41,1.79,5.12.85,8.36,2.13,9.73,3.84,2.05,2.73,2.22,7.77.51,15.1-1.71,7.34-4.27,13.06-7.68,17.15M205.82,170.5c-2.05,2.05-6.66,3.41-13.82,4.1s-14.08.85-20.74.51-10.5-1.19-11.52-2.56c-3.75-4.1-6.49-9.81-8.19-17.15-1.71-7.34-1.37-12.37,1.02-15.1,1.37-1.71,4.52-2.99,9.47-3.84,4.95-.85,10.67-1.45,17.15-1.79,6.49-.34,12.37-.26,17.66.26,5.29.51,8.96,1.62,11.01,3.33,1.37,1.02,2.13,3.93,2.3,8.7.17,4.78-.09,9.64-.77,14.59s-1.88,7.94-3.58,8.96" vector-effect="none" fill="#302c3b"></path><path class="m" d="M72.7,138.24c-1.37,1.02-2.13,3.93-2.3,8.7-.17,4.78.09,9.64.77,14.59s1.88,7.94,3.58,8.96c2.05,2.05,6.66,3.41,13.82,4.1,7.17.68,14.08.85,20.74.51,6.66-.34,10.67-1.19,12.03-2.56,3.41-4.1,5.97-9.81,7.68-17.15,1.71-7.34,1.54-12.37-.51-15.1-1.37-1.71-4.61-2.99-9.73-3.84-5.12-.85-10.92-1.45-17.41-1.79-6.48-.34-12.37-.26-17.66.26-5.29.51-8.96,1.62-11.01,3.33" vector-effect="none" fill="url(#1772947707157-4213082_k)"></path><path class="q" d="M207.87,138.24c-2.05-1.71-5.72-2.82-11.01-3.33s-11.18-.6-17.66-.26c-6.49.34-12.2.94-17.15,1.79-4.95.85-8.28,2.13-9.98,3.84-2.05,2.73-2.22,7.77-.51,15.1,1.71,7.34,4.44,13.06,8.19,17.15,1.02,1.37,4.86,2.22,11.52,2.56s13.57.17,20.74-.51,11.78-2.05,13.82-4.1c1.71-1.02,2.9-4.01,3.58-8.96s.94-9.81.77-14.59-.94-7.68-2.3-8.7" vector-effect="none" fill="url(#1772947707157-4213082_l)"></path><path class="ac" d="M168.76,37.39c-1.3-3.51-8.13-6.63-20.5-9.37-12.37-2.74-27.58-1.33-45.61,4.22-8.66,2.89-17.75,9.58-27.28,20.09-9.52,10.51-18.34,23.61-26.44,39.31-8.1,15.69-14.39,32.51-18.87,50.45-4.48,17.94-6.23,35.91-5.27,53.91.97,18,5.63,34.84,14,50.51,8.37,15.68,21.59,28.54,39.67,38.6-7.54-6.14-13.34-15.48-17.42-28-4.08-12.53-6.3-26.57-6.67-42.13s1.3-31.14,5-46.73c3.7-15.6,9.86-29.76,18.49-42.49,14.26-3.87,26.14-9.2,35.65-15.97,9.5-6.77,17.47-13.61,23.89-20.52s11.98-12.47,16.67-16.69c12.34,2.58,22.88,8.87,31.6,18.88,8.73,10.01,15.81,22.26,21.26,36.75,5.44,14.49,9.36,29.94,11.74,46.33s3.3,32.19,2.76,47.4c-.54,15.21-2.45,28.45-5.73,39.73-3.28,11.28-7.92,19.14-13.92,23.6,12.65-5.29,22.94-13.89,30.85-25.82,7.92-11.92,13.68-25.93,17.3-42.02,3.61-16.09,5.16-32.84,4.64-50.23-.52-17.4-2.91-34.3-7.16-50.7-4.25-16.4-10.05-31-17.4-43.8-7.35-12.8-16.19-22.45-26.5-28.95-10.32-6.5-21.9-8.62-34.74-6.35" vector-effect="none" fill="#e6c465"></path><path class="af" d="M201.74,285.25c6.24-3.14,11.19-9.7,14.87-19.69s6.13-22.05,7.37-36.19c1.24-14.14,1.09-28.97-.46-44.49s-4.4-30.72-8.55-45.61c-4.15-14.89-9.81-28.16-16.95-39.8-7.15-11.64-15.67-20.5-25.57-26.56-6.59-4.61-11.3-5.82-14.14-3.62l-4.26,3.3c12.07,2.96,22.32,9.56,30.74,19.79,8.43,10.23,15.21,22.7,20.35,37.42,5.14,14.71,8.88,30.1,11.2,46.16,2.32,16.06,3.28,31.6,2.87,46.61s-2.09,28.13-5.03,39.35c-2.95,11.22-7.09,19-12.44,23.33" vector-effect="none" fill="#c19b2c"></path><path class="z" d="M258.05,193.03c0-34.47-4.35-64.17-13.06-89.09-8.7-24.92-19.88-43.35-33.54-55.3-13.65-11.95-27.82-15.53-42.5-10.75,7.51-1.02,15.87.09,25.09,3.33s16.73,8.28,22.53,15.1c-9.9-6.83-18.69-10.75-26.37-11.78-7.68-1.02-11.01,1.54-9.98,7.68,0,.68.17,1.19.51,1.54,12.97,1.71,25.34,8.7,37.12,20.99,11.78,12.29,20.91,31.74,27.39,58.37-8.19-21.16-17.24-36.44-27.14-45.82-9.9-9.39-20.31-15.62-31.23-18.69,10.92,7.85,19.97,19.63,27.14,35.33,7.17,15.7,12.2,32.94,15.1,51.71,2.9,18.77,3.84,37.2,2.82,55.3-1.02,18.09-4.01,33.88-8.96,47.36-4.95,13.48-12.03,22.44-21.25,26.88,12.63-2.05,23.13-7.94,31.49-17.66,8.36-9.73,14.59-21.25,18.69-34.56s6.14-26.62,6.14-39.94M60.42,92.16c9.56-11.61,19.8-20.82,30.72-27.65s21.33-12.03,31.23-15.62c9.9-3.58,18.09-6.4,24.58-8.45s10.07-4.1,10.75-6.14c0-2.05-2.82-3.67-8.45-4.86-5.63-1.19-12.71-1.62-21.25-1.28-8.53.34-16.9,1.71-25.09,4.1-17.75,5.8-32.6,16.73-44.54,32.77-11.95,16.04-20.91,35.24-26.88,57.6s-8.96,45.82-8.96,70.4c0,13.65,1.96,27.14,5.89,40.45s9.98,24.75,18.18,34.3c8.19,9.56,18.77,15.36,31.74,17.41-8.19-4.1-15.27-12.12-21.25-24.06-5.97-11.95-10.15-25.94-12.54-41.98s-2.22-32.43.51-49.15c2.73-16.73,8.7-32.09,17.92-46.08l-4.61-.51c15.7-3.41,28.76-8.28,39.17-14.59,10.41-6.31,19.11-12.97,26.11-19.97,7-7,13.31-13.4,18.94-19.2,5.63-5.8,11.86-9.56,18.69-11.26,1.02-.34,2.05-1.37,3.07-3.07,1.02-1.71,1.54-3.41,1.54-5.12-1.02-4.1-5.72-5.72-14.08-4.86-8.36.85-18.43,3.41-30.21,7.68-11.78,4.27-23.3,9.81-34.56,16.64-11.26,6.83-20.14,14.34-26.62,22.53M39.94,244.22c-5.12-10.92-8.28-23.72-9.47-38.4-1.19-14.68-.51-28.84,2.05-42.5,2.56-13.65,6.91-24.23,13.06-31.74-4.78,13.99-8.02,30.46-9.73,49.41-1.71,18.94-.34,40.02,4.1,63.23" vector-effect="none" fill="#f2d785"></path><path class="af" d="M68.02,269.12c-2.92-6.96-5.12-16.08-6.6-27.36-1.48-11.29-1.98-23.76-1.5-37.43.48-13.67,2.33-27.24,5.56-40.71,3.23-13.47,7.98-25.52,14.27-36.13,12.36-1.16,22.78-4.69,31.24-10.6,8.47-5.91,16-12.33,22.59-19.26,6.59-6.93,12.93-12.89,19.01-17.87,6.08-4.98,12.73-7.25,19.94-6.82-7.88-2.35-15.17-1.32-21.87,3.09-6.7,4.41-13.41,10.17-20.13,17.3s-14.38,13.82-22.95,20.09-18.88,9.95-30.91,11.05c-3.91,4.76-7.87,12.68-11.86,23.74-3.99,11.06-7.03,23.74-9.09,38.02-2.07,14.29-2.32,28.77-.75,43.43,1.56,14.67,5.92,27.82,13.07,39.47" vector-effect="none" fill="#c19b2c"></path><path class="af" d="M78.48,285.12c-6.55-6.32-11.3-14.99-14.26-26.01-2.96-11.03-4.65-23.04-5.08-36.04-.42-13,.19-25.93,1.83-38.78,1.64-12.85,4.01-24.48,7.1-34.87s6.7-18.33,10.83-23.81c-1.88-1.03-3.45-1.26-4.71-.7-1.26.56-1.89.84-1.89.84-8.34,14.37-14.19,29.84-17.55,46.39-3.37,16.55-4.44,32.62-3.23,48.2,1.22,15.58,4.12,29.16,8.71,40.75,4.59,11.59,10.67,19.6,18.24,24.04" vector-effect="none" fill="#c19b2c"></path><path class="af" d="M172.34,73.08c1.24-1.77,2.38-4.86,3.44-9.27s1.19-9.05.39-13.91-3.22-8.96-7.29-12.31c1.94,2.47,3.27,6.4,3.98,11.79.71,5.39,0,11.17-2.12,17.35-5.65,0-10.95,1.5-15.89,4.51-4.94,3-9.8,6.8-14.56,11.39-4.77,4.59-9.8,9.4-15.09,14.44-5.3,5.03-11.12,9.71-17.48,14.04-6.36,4.33-13.55,7.68-21.58,10.07-8.03,2.38-17.26,3.05-27.68,1.99,9.71,3,18.54,3.79,26.49,2.38s15.23-4.2,21.85-8.35,12.76-8.92,18.41-14.31,11.03-10.51,16.15-15.37,10.24-8.7,15.36-11.52c5.12-2.83,10.33-3.8,15.63-2.92" vector-effect="none" fill="#c19b2c"></path></g></svg>